<svg xmlns="http://www.w3.org/2000/svg" xmlns:xlink="http://www.w3.org/1999/xlink" viewBox="0 0 48 48">
<defs>
<filter id="filter3973" y="-.45755" width="1.127" x="-.06352" height="1.9151">
<feGaussianBlur stdDeviation="1.078"/>
</filter>
<linearGradient id="linearGradient5209">
<stop stop-color="#fff" offset="0"/>
<stop stop-color="#fff" stop-opacity="0" offset="1"/>
</linearGradient>
<linearGradient id="linearGradient5461" y2="30.906" xlink:href="#linearGradient5209" gradientUnits="userSpaceOnUse" x2="29.894" y1="12.174" x1="16.723"/>
<linearGradient id="linearGradient5463" y2="30.175" xlink:href="#linearGradient5209" gradientUnits="userSpaceOnUse" x2="16.17" y1="13.955" x1="37.877"/>
<linearGradient id="linearGradient5465" y2="29.448" xlink:href="#linearGradient5209" gradientUnits="userSpaceOnUse" x2="33.036" y1="9.9248" x1="14.228"/>
<linearGradient id="linearGradient3940" y2="69.288" xlink:href="#linearGradient5209" gradientUnits="userSpaceOnUse" x2="-60.338" y1="49.155" x1="-61.314"/>
<linearGradient id="linearGradient3942" y2="68.126" xlink:href="#linearGradient5209" gradientUnits="userSpaceOnUse" x2="-61.213" y1="49.863" x1="-59.302"/>
<radialGradient id="radialGradient3934" gradientUnits="userSpaceOnUse" cy="23.565" cx="7.0836" gradientTransform="matrix(-3.4427 -.96424 .53940 -1.9259 19.349 75.835)" r=".81757">
<stop offset="0"/>
<stop stop-color="#6e6e6e" offset="1"/>
</radialGradient>
<radialGradient id="radialGradient3932" gradientUnits="userSpaceOnUse" cy="72.838" cx="-60.649" gradientTransform="matrix(5.8676 -1.914e-7 4.8851e-8 1.9652 295.22 -70.303)" r="13.861">
<stop stop-color="#fff" offset="0"/>
<stop stop-color="#e5e5e5" offset="1"/>
</radialGradient>
</defs>
<path filter="url(#filter3973)" opacity=".766" transform="matrix(1.0035 0 0 .76710 11.955 11.354)" d="m32.704 42.255a20.374 2.8284 0 1 1 -40.747 0 20.374 2.8284 0 1 1 40.747 0z" fill="#2e3436"/>
<path opacity=".7" d="m36.593 23.074a11.314 11.314 0 1 1 -22.627 0 11.314 11.314 0 1 1 22.627 0z" transform="matrix(1.812 0 0 1.812 -21.805 -18.81)" stroke="#cfa2ee" stroke-width=".55189" fill="#e0c4f4"/>
<path opacity=".7" d="m36.593 23.074a11.314 11.314 0 1 1 -22.627 0 11.314 11.314 0 1 1 22.627 0z" transform="matrix(1.4496 0 0 1.4496 -12.644 -11.146)" stroke="#a34ede" stroke-width=".68986" fill="#bd80e8"/>
<path opacity=".7" d="m36.593 23.074a11.314 11.314 0 1 1 -22.627 0 11.314 11.314 0 1 1 22.627 0z" transform="matrix(.98694 0 0 .98694 -.94894 -2.3029)" stroke="#431266" stroke-width="1.0132" fill="#a34ede"/>
<path opacity=".4" d="m25.281 12.469c-5.8678 0-10.594 4.726-10.594 10.594s4.726 10.594 10.594 10.594 10.594-4.726 10.594-10.594-4.726-10.594-10.594-10.594z" transform="matrix(1.812 0 0 1.812 -21.713 -18.974)" stroke="url(#linearGradient5461)" stroke-width=".55189" fill="none"/>
<path opacity=".4" d="m25.281 12.688c-5.7363 0-10.375 4.6387-10.375 10.375s4.6387 10.375 10.375 10.375 10.375-4.6387 10.375-10.375-4.6387-10.375-10.375-10.375z" transform="matrix(1.4496 0 0 1.4496 -12.552 -11.309)" stroke="url(#linearGradient5463)" stroke-width=".68986" fill="none"/>
<path opacity=".4" d="m25.281 13.031c-5.5496 0-10.031 4.4817-10.031 10.031s4.4817 10.031 10.031 10.031 10.031-4.4817 10.031-10.031-4.4817-10.031-10.031-10.031z" transform="matrix(.98694 0 0 .98694 -.85758 -2.4664)" stroke="url(#linearGradient5465)" stroke-width="1.0132" fill="none"/>
<path stroke="#3d2a3f" d="m19.21 29.948c-0.39129-3.1435-1.1851-20.272 3.439-20.446s5.8564 15.634 6.3053 19.81-1.0347 7.9228 8.9115 5.6316c4.4182-1.0178 6.9137-3.4618 6.6088 2.6307s-11.317 6.2708-16.52 6.6914c-13.971 0.79435-24.593-0.41429-24.454-3.8667s0.31774-4.8977 2.8847-4.4288c17.161 3.135 13.204-2.9661 12.824-6.0222z" fill="#75507b"/>
<path opacity=".4" stroke="#fff" d="m22.688 10.625c-0.22804 0.0086-0.37974 0.08304-0.65625 0.40625s-0.58773 0.90174-0.84375 1.6562c-0.51204 1.509-0.83854 3.7049-1 6-0.32293 4.5901-0.01985 9.7103 0.15625 11.125 0.07119 0.57191 0.38794 1.5472 0.5625 2.625s0.19625 2.3805-0.625 3.5-2.2901 1.7739-4.5 1.9688-5.2781-0.01842-9.625-0.8125c-0.53759-0.09821-0.82984-0.06657-0.9375-0.03125s-0.10087 0.01979-0.1875 0.1875c-0.17327 0.33543-0.33686 1.4733-0.40625 3.1875-0.00565 0.13955 0.02728 0.24759 0.1875 0.4375s0.49597 0.44127 1 0.6875c1.0081 0.49246 2.6526 0.94504 4.7812 1.25 4.2504 0.60893 10.358 0.70468 17.281 0.3125h0.03125c2.6528-0.21337 6.6225-0.37569 9.875-1.1875 1.6316-0.40725 3.0699-0.98637 4.0312-1.7188s1.472-1.5353 1.5312-2.7188c0.07257-1.4502-0.06009-2.324-0.1875-2.625s0.0171-0.15109-0.25-0.15625c-0.53419-0.01032-2.4234 0.76933-4.7812 1.3125-2.5463 0.58657-4.3839 0.82673-5.8438 0.71875s-2.6236-0.63024-3.3125-1.5-0.85144-1.8917-0.9375-2.875-0.08432-1.9775-0.1875-2.9375c-0.22886-2.1292-0.63999-7.0859-1.5625-11.438-0.46126-2.1758-1.0586-4.2013-1.75-5.5625-0.34568-0.68062-0.74314-1.1852-1.0625-1.4688s-0.52685-0.35337-0.78125-0.34375z" fill="none"/>
<path opacity=".2" fill-rule="evenodd" d="m41.972 35.434c-9.8358 5.3149-21.309 2.9911-36.783 5.5561 0.04297 0.02008 0.06087-0.13529 0.10662-0.11545 1.0028 0.43482 2.6734 0.99245 4.7981 1.2638 4.2493 0.54269 10.697 0.83632 17.632 0.4879 6.021-0.29951 11.994-1.0993 13.722-2.8814 2.9232-2.487 0.14985-5.4788 0.52356-4.3109z" fill="#fff"/>
<path stroke="#000" stroke-width="2.4773" d="m-49.351 72.838a11.297 24.676 0 1 1 -22.595 0 11.297 24.676 0 1 1 22.595 0z" transform="matrix(.43405 .020585 -.0182 .37453 45.353 -2.726)" fill="url(#radialGradient3932)"/>
<path d="m8.1757 23.622a0.81757 1.6351 0 1 1 -1.6351 0 0.81757 1.6351 0 1 1 1.6351 0z" transform="matrix(2.0792 .098603 -.099866 2.0552 4.3999 -22.949)" fill="url(#radialGradient3934)"/>
<path stroke="#000" stroke-width="2.4773" d="m-49.351 72.838a11.297 24.676 0 1 1 -22.595 0 11.297 24.676 0 1 1 22.595 0z" transform="matrix(.43237 -.043096 .038016 .37306 53.265 -7.0158)" fill="url(#radialGradient3932)"/>
<path d="m8.1757 23.622a0.81757 1.6351 0 1 1 -1.6351 0 0.81757 1.6351 0 1 1 1.6351 0z" transform="matrix(2.0627 .27685 -.28047 2.0387 21.992 -24.267)" fill="url(#radialGradient3934)"/>
<path opacity=".5" d="m-49.351 72.838a11.297 24.676 0 1 1 -22.595 0 11.297 24.676 0 1 1 22.595 0z" transform="matrix(.43405 .020585 -.0182 .37453 45.353 -2.726)" stroke="url(#linearGradient3940)" stroke-width="2.4773" fill="none"/>
<path opacity=".5" d="m-49.351 72.838a11.297 24.676 0 1 1 -22.595 0 11.297 24.676 0 1 1 22.595 0z" transform="matrix(.43237 -.043096 .038016 .37306 53.265 -7.0158)" stroke="url(#linearGradient3942)" stroke-width="2.4773" fill="none"/>
<path opacity=".95" d="m-0.125 19.875a1 1 0 1 1 -2 0 1 1 0 1 1 2 0z" transform="matrix(1.0446 .15384 -.15570 1.0326 21.548 7.5969)" fill-rule="evenodd"/>
<path opacity=".95" d="m-0.125 19.875a1 1 0 1 1 -2 0 1 1 0 1 1 2 0z" transform="matrix(.87398 .58605 -.59311 .86388 43.204 10.578)" fill-rule="evenodd"/>
</svg>
