<?xml version="1.0" encoding="UTF-8" standalone="no"?>
<svg width="48" xmlns="http://www.w3.org/2000/svg" version="1.1" height="48">
 <path id="path4189" fill="#5a5a5a" d="m17.395 32.112c-0.32184 0-0.57703 0.2547-0.57703 0.57703v14.234c0 0.32234 0.2552 0.57703 0.57703 0.57703h13.837c0.32184 0 0.57703-0.2547 0.57703-0.57703v-14.234c0-0.32234-0.2552-0.57703-0.57703-0.57703zm3.0973 9.2005h3.1416v3.1416h-3.1416zm5.1292 0h3.1416v3.1416h-3.1416z"/>
 <rect id="rect3458" opacity=".715" transform="scale(1,-1)" height="13.336" width="12.31" y="-46.684" x="17.845" fill="none"/>
 <path id="rect3448" fill="#c8c8c8" d="m17.396 31.274c-0.32184 0-0.57703 0.2547-0.57703 0.57703v14.234c0 0.32234 0.2552 0.57703 0.57703 0.57703h13.208c0.32184 0 0.57703-0.2547 0.57703-0.57703v-14.234c0-0.32234-0.2552-0.57703-0.57703-0.57703h-13.208zm2.4684 9.2005h3.1416v3.1416h-3.1416v-3.1416zm5.1292 0h3.1416v3.1416h-3.1416v-3.1416z"/>
 <path id="path4146" fill="#69470f" d="m15.409 0.5c-0.92561 0-1.667 0.74543-1.667 1.667v34.396c0 0.92153 0.74135 1.667 1.667 1.667h17.783c0.92561 0 1.667-0.74543 1.667-1.667v-34.396c0-0.92153-0.74135-1.667-1.667-1.667z"/>
 <path id="path4152" fill="#e09924" d="m15.409 0.5c-0.92561 0-1.667 0.74543-1.667 1.667v33.596c0 0.92153 0.74135 1.667 1.667 1.667h17.182c0.92561 0 1.667-0.74543 1.667-1.667v-33.596c0-0.9216-0.741-1.667-1.667-1.667h-17.182z"/>
 <path id="path4149" opacity=".35" d="m23.678 1.4584 2.8915 4.5612v1.0001l-1.9548-1.0001v12.828c0.27125 0 2.9333-2.5266 3.8282-3.6653 0.38663-0.49197 0.61088-1.1735 0.61088-1.8326 0-0.99416 0.36119-1.2218-0.44798-1.2218h-0.89596v-4.6427h4.887v4.6427h-0.77378c-0.7051 0.07735-1.2108 0.44521-1.3439 1.5476-0.19852 1.644-0.94091 2.7232-3.706 5.335l-2.1584 2.1584v7.8192l0.6109 0.3258c0.43463 0.19662 1.0813 0.82914 1.3439 1.4254 1.3316 3.0231-0.4245 4.676-2.8508 4.676-1.7582-0.06032-3.0137-0.90793-3.0137-2.5657 0-1.95 0.65966-2.8548 1.5068-3.5357 0.68011-0.30767 0.82344-0.51738 0.8145-1.5068-0.01-1.0934-0.1587-0.96938-2.3213-2.7286-3.302-2.686-3.7255-3.332-4.1132-6.0273-0.28599-1.9878-0.07497-1.516-0.89596-2.2806-1.5111-1.4074-1.2694-3.5113 0.52943-4.3983 1.6205-0.79913 3.562 0.05396 4.154 1.8326 0.29178 0.87665-0.44539 2.4075-1.3847 2.9322-0.85953 0.48017-1.2147-0.3039-1.0181 1.4661 0.1088 0.97965 0.39565 2.0869 0.61088 2.4842 0.36965 0.68244 4.0046 3.9096 4.3983 3.9096v-18.978l-2.0363 1.0001v-1.0001c0.92812-1.5092 1.8295-3.043 2.7286-4.5612z"/>
 <path id="rect5391" fill="#fff" d="m23.678 2.4585 2.8915 4.5612h-1.9548v12.828c0.27125 0 2.9333-2.5266 3.8282-3.6653 0.38663-0.49197 0.61088-1.1735 0.61088-1.8326 0-0.99416 0.36119-1.2218-0.44798-1.2218h-0.89596v-4.6427h4.887v4.6427h-0.77378c-0.7051 0.07735-1.2108 0.44521-1.3439 1.5476-0.19852 1.644-0.94091 2.7232-3.706 5.335l-2.1584 2.1584v7.8192l0.6109 0.3258c0.43463 0.19662 1.047 0.84548 1.3439 1.4254 1.0584 2.0667-0.4245 4.2762-2.8508 4.2762-1.7582-0.06032-3.0137-0.90793-3.0137-2.5657 0-1.95 0.65966-2.455 1.5068-3.1358 0.68011-0.30767 0.82344-0.51738 0.8145-1.5068-0.01-1.0934-0.1587-0.96938-2.3213-2.7286-3.302-2.686-3.7255-3.332-4.1132-6.0273-0.28599-1.9878-0.07497-1.516-0.89596-2.2806-1.5111-1.4074-1.2694-3.5113 0.52943-4.3983 1.6205-0.79913 3.562 0.05396 4.154 1.8326 0.29178 0.87665-0.44539 2.4075-1.3847 2.9322-0.85953 0.48017-1.2147-0.3039-1.0181 1.4661 0.1088 0.97965 0.39565 2.0869 0.61088 2.4842 0.36965 0.68244 4.0046 3.9096 4.3983 3.9096v-18.978h-2.0363c0.92812-1.5092 1.8295-3.043 2.7286-4.5612z"/>
</svg>
