<?xml version="1.0" encoding="UTF-8" standalone="no"?>
<svg id="svg2817" xmlns="http://www.w3.org/2000/svg" height="48" width="48" version="1.0">
 <path id="path21637" fill="#8564c2" d="m10 4c-1.108 0-2 0.892-2 2v36c0 1.108 0.892 2 2 2h28c1.108 0 2-0.892 2-2v-26l-11-1-1-11z"/>
 <path id="path21641" opacity=".1" d="m10 4c-1.108 0-2 0.892-2 2v1c0-1.108 0.892-2 2-2h18l11 11h1l-12-12z" fill="#fff"/>
 <path id="path21645" fill="#c2b1e0" d="m28 4v10c0 1.1046 0.89543 2 2 2h10l-12-12z"/>
 <path id="path4" d="m16.431 22.786h10.809c1.8578 0 3.3778 1.4685 3.3778 3.2633v10.443c0 1.7948-1.52 3.2633-3.3778 3.2633h-10.809c-1.8578 0-3.3778-1.4685-3.3778-3.2633v-10.443c0-1.7948 1.52-3.2633 3.3778-3.2633zm9.4578 14.359c1.1193 0 2.0267-0.87661 2.0267-1.958s-0.90736-1.958-2.0267-1.958-2.0267 0.87661-2.0267 1.958 0.90736 1.958 2.0267 1.958zm0-7.832c1.1193 0 2.0267-0.8766 2.0267-1.958s-0.90736-1.958-2.0267-1.958-2.0267 0.87661-2.0267 1.958 0.90736 1.958 2.0267 1.958zm-4.0534 3.916c1.1193 0 2.0267-0.87661 2.0267-1.958s-0.90736-1.958-2.0267-1.958-2.0267 0.87661-2.0267 1.958 0.90736 1.958 2.0267 1.958zm-4.0534 3.916c1.1193 0 2.0267-0.87661 2.0267-1.958s-0.90736-1.958-2.0267-1.958-2.0267 0.87661-2.0267 1.958 0.90736 1.958 2.0267 1.958zm0-7.832c1.1193 0 2.0267-0.8766 2.0267-1.958s-0.90736-1.958-2.0267-1.958-2.0267 0.87661-2.0267 1.958 0.90736 1.958 2.0267 1.958zm-0.608-7.833c0.3152-1.4849 1.6828-2.6106 3.3094-2.6106h10.809c1.8578 0 3.3778 1.4685 3.3778 3.2633v10.443c0 1.5714-1.1653 2.8927-2.7022 3.1972v-12.987c0-0.71793-0.608-1.3053-1.3511-1.3053h-13.443z" fill="#fff"/>
</svg>
