<?xml version="1.0" encoding="UTF-8" standalone="no"?>
<svg id="svg2817" xmlns="http://www.w3.org/2000/svg" height="48" width="48" version="1.0">
 <g id="g4440" transform="translate(0 .99498)">
  <path id="path4876" fill="#bb9e7b" d="m4 35.005v-28c0-1.108 0.89878-2.1224 2-2h16l4 4h16.103s1.8975 0 1.8975 2v24c0 1.108-0.892 2-2 2h-36c-1.108 0-2-0.892-2-2z"/>
  <path id="path4878" fill="#c6ae91" d="m44 39.005v-28c0-1.108-0.89878-2.1224-2-2h-16l-4 4h-16c-2 0-2 1.9167-2 1.9167v24.083c0 1.108 0.892 2 2 2h36c1.108 0 2-0.892 2-2z"/>
  <path id="path4880" opacity=".1" fill="#fff" d="m6 5.005c-1.108 0-2 0.892-2 2v1c0-1.108 0.892-2 2-2h16l4 4v-1l-4-4z"/>
  <path id="path4882" opacity=".1" fill="#fff" d="m26 9.005-4 4h-16c-2 0-2 1.9062-2 1.9062v1s0-1.9062 2-1.9062h16l4-4h16c1.1012-0.12236 2 0.892 2 2v-1c0-1.108-0.89878-2.1224-2-2h-16z"/>
  <path id="path4934" opacity=".1" d="m25 9.005-3 3h-16c-2 0-2 1.9062-2 1.9062v1s0-1.9062 2-1.9062h16l3.5-3.5z"/>
  <path id="path4091" opacity=".2" style="enable-background:new" d="m36 21v6h2.5l-4.5 7-4.5-7h2.5v-6zm-8 14h12v2h-12z"/>
  <path id="path5058" style="enable-background:new" fill="#fff" d="m36 20.005v6h2.5l-4.5 7-4.5-7h2.5v-6zm-8 14h12v2h-12z"/>
  <path id="path4872" opacity=".3" d="m4 37.994v1.006c0 1.108 0.892 2 2 2h36c1.108 0 2-0.892 2-2v-1.0059c0 1.108-0.892 2-2 2h-36c-1.108 0-2-0.89201-2-2z"/>
 </g>
</svg>
