<?xml version="1.0" encoding="UTF-8" standalone="no"?>
<svg width="48" xmlns="http://www.w3.org/2000/svg" version="1.0" height="48">
 <defs id="defs17">
  <linearGradient id="linearGradient4156" y2="27.158" gradientUnits="userSpaceOnUse" x2="23.978" y1="34.552" x1="24">
   <stop id="stop4149" stop-color="#fff" offset="0"/>
   <stop id="stop4151" stop-color="#dcdcdc" offset="1"/>
  </linearGradient>
  <linearGradient id="linearGradient4172" y2="5.9155" gradientUnits="userSpaceOnUse" x2="14.359" y1="18.275" x1="14.387">
   <stop id="stop4168" stop-color="#258bbf" offset="0"/>
   <stop id="stop4174" stop-color="#38a3d9" offset=".68004"/>
   <stop id="stop4170" stop-color="#7fc4e6" offset="1"/>
  </linearGradient>
  <linearGradient id="linearGradient4153" y2="189.83" gradientUnits="userSpaceOnUse" x2="38.493" gradientTransform="matrix(.23438 0 0 .23438 -.000184 -.00016)" y1="14.899" x1="38.496">
   <stop id="stop4160" stop-color="#e6e6e6" offset="0"/>
   <stop id="stop4162" stop-color="#c8c8c8" offset="1"/>
  </linearGradient>
 </defs>
 <path id="path4149" opacity=".3" d="m11.573 3c-1.5215 0-3.0499 1.3523-3.0499 2.6399v37.22c0 1.2877 1.5284 2.64 3.0499 2.64h25.554c1.5217 0 2.8499-1.6523 2.8499-2.94v-36.92c0-1.2877-1.5281-2.6399-3.0498-2.6399z"/>
 <path id="path4147" opacity=".3" d="m11.573 3c-1.5215 0-3.0499 1.3523-3.0499 2.6399v36.72c0 1.2877 1.5284 2.64 3.0499 2.64h25.254c1.5217 0 2.6499-1.4523 2.6499-2.74v-36.62c0-1.2877-1.5281-2.6399-3.0498-2.6399z"/>
 <path id="path4152" fill="url(#linearGradient4153)" d="m11.772 3.4998c-1.5215 0-2.7494 1.0519-2.7494 2.3394v36.321c0 1.2877 1.228 2.3394 2.7494 2.3394h24.456c1.5217 0 2.7494-1.0517 2.7494-2.3394v-36.321c0-1.2877-1.2278-2.3394-2.7494-2.3394h-24.456z"/>
 <path id="path4176" fill="#cdedff" d="m15.74 5.9116h16.421c0.76108 0 1.9744 0.42256 1.9744 1.4374v10.21c0 0.57363-0.91328 1.3375-1.6744 1.3375h-16.721c-1.1622 0-1.3747-1.1639-1.3747-1.7375v-10.21c0-0.57364 0.61363-1.0371 1.3747-1.0371z"/>
 <path id="path4150" fill="url(#linearGradient4172)" d="m15.74 5.9116h16.521c0.76108 0 1.3747 0.46343 1.3747 1.0371v10.311c0 0.57363-0.61363 1.0371-1.3747 1.0371h-16.521c-0.76108 0-1.3747-0.46343-1.3747-1.0371v-10.311c0-0.57364 0.61363-1.0371 1.3747-1.0371z"/>
 <g id="g12" fill="#fff" transform="matrix(.23438 0 0 .23438 -.000184 -.00016)">
  <path id="path4148" d="m102.4 88.611c11.562 0 21.997 4.6338 29.739 12.04 0.0402-0.0417 0.0627-0.0614 0.1029-0.10289 0.10343 0.0988 0.20683 0.20837 0.30871 0.3087l-0.1029 0.1029c8.0187 7.829 13.068 18.673 13.068 30.768s-5.0498 22.939-13.068 30.768l-6.5857-6.8944c6.1976-6.0916 10.084-14.526 10.084-23.873-0.11575-7.6951-4.1764-16.616-10.084-23.873l6.5857-6.8944c-0.10561-0.1031-0.20205-0.20669-0.30871-0.30871-2.6584 2.7516-3.7086 3.8101-6.6886 6.8944-6.2597-5.9794-14.364-9.3641-23.05-9.3641-8.6866 0-16.79 3.3847-23.05 9.3641-2.98-3.0844-4.0302-4.1428-6.6886-6.8944 7.7417-7.4057 18.177-12.04 29.739-12.04z"/>
  <path id="path4146" d="m72.353 100.96 6.5857 6.8944c-5.4353 5.5897-9.0355 14.444-10.084 23.873 0.11581 7.6952 4.1779 16.616 10.084 23.873l-6.5857 6.8944c-8.0187-7.829-13.068-18.673-13.068-30.768s5.0498-22.939 13.068-30.768z"/>
 </g>
 <path id="path4144" fill="url(#linearGradient4156)" d="m24 27.159c2.0439 0 3.69 1.6702 3.69 3.7141s-1.6461 3.69-3.69 3.69-3.69-1.6461-3.69-3.69 1.6461-3.7141 3.69-3.7141z"/>
 <path id="path144" fill="#fff" d="m18.598 36.541c1.4671 1.4016 3.3665 2.1947 5.4024 2.1947 2.0984 0 3.9904-0.84845 5.4024-2.1947 0.69843 0.7229 0.94459 0.97107 1.5676 1.6159-1.8145 1.7357-4.2602 2.8218-6.97 2.8218-2.7099 0-5.1556-1.0861-6.97-2.8218 0.62306-0.64482 0.86922-0.89301 1.5676-1.6159z"/>
</svg>
