<?xml version="1.0" encoding="UTF-8" standalone="no"?>
<svg width="48" xmlns="http://www.w3.org/2000/svg" version="1.1" height="48">
 <g id="layer1" transform="translate(0 -1004.4)">
  <g fill-rule="evenodd">
   <g fill="none">
    <path id="path3265" d="m27.5 1048.9c0 1.933-1.5681 3.5001-3.5024 3.5001s-3.5024-1.5671-3.5024-3.5001c0-1.9331 1.5681-3.5001 3.5024-3.5001s3.5024 1.567 3.5024 3.5001z"/>
    <path id="path3267" d="m27.5 1007.9c0 1.933-1.5681 3.5001-3.5024 3.5001s-3.5024-1.5671-3.5024-3.5001c0-1.9331 1.5681-3.5001 3.5024-3.5001s3.5024 1.567 3.5024 3.5001z"/>
    <path id="path3269" d="m11 1028.4c0 3.0376-2.4641 5.5002-5.5038 5.5002s-5.5038-2.4626-5.5038-5.5002c0-3.0377 2.4641-5.5002 5.5038-5.5002s5.5038 2.4625 5.5038 5.5002z"/>
    <path id="path3271" d="m48 1028.4c0 3.0376-2.4641 5.5002-5.5038 5.5002s-5.5038-2.4626-5.5038-5.5002c0-3.0377 2.4641-5.5002 5.5038-5.5002s5.5038 2.4625 5.5038 5.5002z"/>
    <path id="path3293" d="m27.5 1048.9c0 1.933-1.5681 3.5001-3.5024 3.5001s-3.5024-1.5671-3.5024-3.5001c0-1.9331 1.5681-3.5001 3.5024-3.5001s3.5024 1.567 3.5024 3.5001z"/>
    <path id="path3295" d="m27.5 1007.9c0 1.933-1.5681 3.5001-3.5024 3.5001s-3.5024-1.5671-3.5024-3.5001c0-1.9331 1.5681-3.5001 3.5024-3.5001s3.5024 1.567 3.5024 3.5001z"/>
    <path id="path3297" d="m11 1028.4c0 3.0376-2.4641 5.5002-5.5038 5.5002s-5.5038-2.4626-5.5038-5.5002c0-3.0377 2.4641-5.5002 5.5038-5.5002s5.5038 2.4625 5.5038 5.5002z"/>
    <path id="path3299" d="m48 1028.4c0 3.0376-2.4641 5.5002-5.5038 5.5002s-5.5038-2.4626-5.5038-5.5002c0-3.0377 2.4641-5.5002 5.5038-5.5002s5.5038 2.4625 5.5038 5.5002z"/>
   </g>
   <g id="g3015" stroke-width="0" stroke-miterlimit="2" transform="matrix(1.6864 0 0 1.9525 -7.7061 972.75)">
    <g fill="#4d4d4d">
     <rect id="shape1" y="35.465" width="16.32" height="1.7183" x="10.58"/>
     <rect id="shape2" transform="rotate(90)" height="2.141" width="7.2637" y="-19.854" x="29.893"/>
    </g>
    <g fill="#2980b9">
     <rect id="shape11" y="19.82" width="7.7981" height="4.0704" x="18.77"/>
     <rect id="shape21" y="24.399" width="7.7981" height="4.0704" x="18.77"/>
     <rect id="shape3" y="28.978" width="7.7981" height="4.0704" x="18.77"/>
    </g>
    <g fill="#3498db">
     <rect id="rect15" y="19.82" width="7.7851" height="4.0704" x="11.009"/>
     <rect id="rect17" y="24.399" width="7.7851" height="4.0704" x="11.009"/>
     <rect id="shape31" y="28.978" width="7.7851" height="4.0704" x="11.009"/>
    </g>
    <g fill="#ecf0f1" fill-opacity=".875">
     <rect id="shape4" y="20.43" width="1.2427" height="2.4382" x="11.547"/>
     <rect id="shape5" y="25.01" width="1.2427" height="2.4382" x="11.547"/>
     <rect id="shape6" y="29.589" width="1.2427" height="2.4382" x="11.581"/>
    </g>
   </g>
  </g>
 </g>
</svg>
