<?xml version="1.0" encoding="UTF-8" standalone="no"?>
<svg id="svg5453" xmlns="http://www.w3.org/2000/svg" height="32" width="32" version="1.1" xmlns:xlink="http://www.w3.org/1999/xlink">
 <defs id="defs5455">
  <linearGradient id="linearGradient4149" y2="517.8" gradientUnits="userSpaceOnUse" x2="400.57" y1="545.8" x1="400.57">
   <stop id="stop4145" stop-color="#197cf1" offset="0"/>
   <stop id="stop4147" stop-color="#20bcfa" offset="1"/>
  </linearGradient>
  <linearGradient id="linearGradient4161" y2="2" gradientUnits="userSpaceOnUse" x2="16" y1="30" x1="16">
   <stop id="stop4292" stop-color="#7cbaf8" offset="0"/>
   <stop id="stop4294" stop-color="#f4fcff" offset="1"/>
  </linearGradient>
  <linearGradient id="linearGradient4230" y2="19.506" xlink:href="#linearGradient4227" gradientUnits="userSpaceOnUse" x2="30" y1="12.506" x1="23"/>
  <linearGradient id="linearGradient4227">
   <stop id="stop4229" stop-color="#292c2f" offset="0"/>
   <stop id="stop4231" stop-opacity="0" offset="1"/>
  </linearGradient>
  <linearGradient id="linearGradient4297" y2="19.039" xlink:href="#linearGradient4227" gradientUnits="userSpaceOnUse" x2="22.064" y1="-2.9815" x1=".043347"/>
 </defs>
 <g id="layer1" transform="translate(-384.57 -515.8)">
  <rect id="rect4130" ry="14" height="28" width="28" y="517.8" x="386.57" fill="url(#linearGradient4149)"/>
  <path id="path4286" opacity=".2" d="m18.594 2.248-2.975 0.3809-4.135 2.3867-1.5016 2.6016s-1.9739 1.3903-2.2715 1.3105c-2.5168-0.029517-3.8686 0.66466-4.5801 1.5469-0.30087 0.70315-0.53694 1.4396-0.7207 2.1973-0.00508 0.76074 0.16211 1.3516 0.16211 1.3516 7.0605 6.3563 14.121 9.0962 21.182 13.643 0.44458-0.29534 0.86916-0.61602 1.2754-0.95898 0.0233-0.01965 0.04519-0.04075 0.06836-0.06055 0.35986-0.30788 0.70287-0.63592 1.0293-0.97852 0.07229-0.07573 0.14035-0.15508 0.21094-0.23242 0.28268-0.31039 0.55271-0.63161 0.80664-0.9668 0.05739-0.07554 0.11405-0.15178 0.16992-0.22852 0.27549-0.37955 0.53467-0.77239 0.77148-1.1797 0.0177-0.03032 0.03721-0.05938 0.05469-0.08984 1.0649-1.8638 1.7138-3.9989 1.8242-6.2812 0.000316-0.0065 0.0016-0.013 0.002-0.01953v-0.002l-1.823-7.6348c-2-3.488-5.452-6.0206-9.549-6.7832z" fill-rule="evenodd" transform="translate(384.57 515.8)" fill="url(#linearGradient4297)"/>
  <path id="path4219" opacity=".2" d="m29.012 10.842l-4.307 6.66 4.119 4.119c0.752-1.72 1.176-3.618 1.176-5.621 0-1.826-0.358-3.562-0.988-5.158z" fill-rule="evenodd" transform="translate(384.57 515.8)" fill="url(#linearGradient4230)"/>
  <path id="path34" d="m15.807 2.0098c-1.073 0.0145-2.112 0.1538-3.112 0.3945-0.263 0.2361-0.651 0.3558-1.088 0.3437-0.156 0.1494-0.12 0.4279-0.205 0.6329-0.071 0.1721-0.324 0.3564-0.496 0.3418-0.127-0.0108-0.273-0.19-0.273-0.3086-0.001-0.1433 0.199-0.2232 0.09-0.3829-1.1148 0.4518-2.1514 1.0474-3.1 1.7559 0.2545-0.0937 0.535-0.2512 0.7657-0.2559 0.0379-0.0004 0.0727 0.0032 0.1074 0.0118 0.1549 0.0406 0.5632 0.4877 0.2227 0.6328-0.0324 0.014-0.4994 0.0648-0.5801 0.0508-0.1186-0.0199-0.1892-0.1839-0.3086-0.2051-0.2006-0.0348-0.4557 0.1736-0.6289 0.0801-1.9078 1.5399-3.3884 3.5749-4.2754 5.9104 0.0814-0.047 0.1646-0.097 0.2383-0.135 0.2499-0.13 0.4609-0.34 0.7519-0.359 0.1452-0.003 0.3548 0.039 0.4942 0.068 0.1286 0.026 0.2324 0.113 0.3437 0.121 0.3159 0.024 0.3907-0.222 0.6484-0.359 0.2663 0.037 0.4432-0.045 0.6836-0.018 0.164 0.018 0.2824 0.193 0.4102 0.203 0.1075 0.011 0.2026-0.1 0.3066-0.084 0.1011 0.016 0.2746 0.236 0.2911 0.36 0.0206 0.153-0.1125 0.292-0.0684 0.461 0.161 0.163 0.4535 0.196 0.6836 0.291 0.1498-0.124 0.0199-0.353 0-0.532-0.003-0.078 0.0108-0.148 0-0.22-0.014-0.123-0.0676-0.237-0.0684-0.342-0.003-0.4866 0.3925-0.7144 0.7188-0.9065 0.1412-0.0837 0.2524-0.2297 0.375-0.291 0.173-0.0868 0.302-0.1069 0.4453-0.1875 0.2589-0.1454 0.4811-0.2629 0.6836-0.4277 0.0936-0.2206 0.0103-0.5164 0.0176-0.7344 0.0937-0.0574 0.1741 0.0258 0.2731 0.0176 0.157-0.0326 0.17-0.2537 0.258-0.3418 0.052-0.0505 0.192-0.0866 0.256-0.1367 0.156-0.1222 0.206-0.3067 0.342-0.3594 0.048-0.0198 0.161-0.0144 0.238-0.0351 0.101-0.0269 0.245-0.1467 0.41-0.2032 0.108-0.0375 0.354-0.0447 0.395-0.0859 0.05-0.0515 0-0.1963 0.017-0.2734 0.083-0.3859 0.665-0.4678 1.008-0.5977 0.241-0.0913 0.487-0.2583 0.752-0.207-0.052 0.1834-0.298 0.1191-0.256 0.3418 0.058 0.309 0.471-0.0893 0.58-0.1348 0.209-0.0879 0.567-0.141 0.84-0.2402 0.24-0.0879 0.67-0.2217 0.444-0.4961-0.189-0.0108-0.279 0.2207-0.444 0.291-0.113 0.0181-0.092-0.0944-0.189-0.1035-0.092-0.0108-0.144 0.0844-0.239 0.0683-0.094-0.0156-0.225-0.1634-0.24-0.2734-0.037-0.2854 0.241-0.4024 0.36-0.6152-0.079-0.2582-0.435-0.0534-0.651-0.1543 0.021-0.1537 0.18-0.2597 0.36-0.2891 0.147-0.0248 0.476-0.012 0.564 0.0664 0.051 0.0431 0.004 0.151 0.086 0.2227 0.087 0.0787 0.194 0.0713 0.307 0.0527 0.04-0.1948-0.253-0.1466-0.221-0.2754 0.231-0.151 0.606-0.0264 0.889-0.0684 0.162-0.0241 0.334-0.1395 0.478-0.2207 0.137-0.0781 0.315-0.2136 0.461-0.0859 0.039 0.1396-0.127 0.1865-0.205 0.2559-0.262 0.2326-0.531 0.4993-0.734 0.7695 0.124 0.1217 0.351 0.0608 0.562 0.0859 0.083 0.0108 0.186 0.0354 0.273 0.0508 0.102 0.0181 0.212 0.0125 0.291 0.0332 0.144 0.0353 0.183 0.1895 0.325 0.1895 0.234-0.0005 0.236-0.2541 0.103-0.4121 0.042-0.1614 0.108-0.2445 0.051-0.3575-0.105-0.2107-0.492-0.0108-0.512-0.2734-0.012-0.1704 0.144-0.1635 0.205-0.291-0.028-0.3293 0.271-0.3533 0.239-0.6485-0.014-0.1234-0.119-0.1245-0.205-0.2402-0.045-0.0591-0.066-0.1768-0.12-0.2226-0.178-0.1511-0.542-0.1219-0.564-0.4102-0.003-0.0976 0.011-0.185 0.02-0.2773-0.165-0.008-0.328-0.0232-0.495-0.0254h-0.386zm-6.6605 3.3535c0.0798 0.0108 0.1766 0.0962 0.2734 0.1035 0.0913 0.003 0.1665-0.0502 0.2227-0.0352 0.1429 0.0376 0.2026 0.2536 0.0683 0.3594-0.1117 0.014-0.156-0.0481-0.2402-0.0332-0.2322 0.0395-0.3206 0.4936-0.4941 0.4785-0.1637-0.014-0.2521-0.4125-0.086-0.5312 0.0108-0.1036-0.0755-0.1203-0.0703-0.2227 0.0494-0.0633 0.1898-0.1306 0.3262-0.1191zm-0.7695 0.0527c0.0476 0.002 0.0833 0.0125 0.1015 0.0332-0.0227 0.1822-0.1659 0.1709-0.3066 0.2559-0.243 0.1467-0.3836 0.3702-0.461 0.6836-0.0224 0.0913-0.2612 0.3327-0.3769 0.3086-0.2711-0.0571 0.0749-0.5569 0.1367-0.6328 0.0683-0.0842 0.1596-0.1587 0.2402-0.2559 0.0781-0.0941 0.1298-0.2212 0.2051-0.2734 0.0825-0.0571 0.3181-0.1247 0.461-0.1192zm2.023 0.6152c0.087 0.002 0.164 0.0156 0.2 0.0508-0.056 0.2258-0.541 0.1656-0.7191 0.084 0.0116-0.0851 0.1441-0.1079 0.2561-0.1191 0.078-0.003 0.177-0.0181 0.263-0.0157zm-1.107 0.4161c0.0577-0.002 0.117 0.0112 0.1777 0.0273-0.1573 0.1316-0.3275 0.2055-0.5977 0.291-0.1299 0.0411-0.3549 0.0924-0.3769-0.0527-0.0269-0.1778 0.19-0.1364 0.3086-0.1524 0.1493-0.0206 0.3133-0.1076 0.4883-0.1132zm17.17 0.2539c0.013 0.1284 0.015 0.2504-0.02 0.3886-0.046 0.1852-0.213 0.3532-0.205 0.5137 0.011 0.0825 0.101 0.1619 0.121 0.2735 0.011 0.0592-0.027 0.1862 0 0.2402 0.087 0.1683 0.324 0.0257 0.479 0.0508 0.151 0.0243 0.326 0.2409 0.324 0.4101-0.002 0.1179-0.113 0.3142-0.187 0.4278-0.149 0.2265-0.351 0.2365-0.565 0.3574-0.178 0.101-0.255 0.2696-0.359 0.4453-0.113 0.1898-0.184 0.3054-0.137 0.5804-0.153 0.303-0.385 0.488-0.701 0.632-0.094 0.043-0.221 0.057-0.307 0.12-0.068 0.049-0.108 0.181-0.205 0.291-0.12 0.133-0.245 0.189-0.308 0.291-0.049 0.078-0.066 0.236-0.12 0.341-0.073 0.144-0.228 0.214-0.324 0.36-0.043 0.067-0.073 0.203-0.121 0.291-0.108 0.197-0.293 0.339-0.273 0.512 0.019 0.167 0.209 0.196 0.222 0.341 0.003 0.083-0.054 0.133-0.05 0.223 0.003 0.131 0.091 0.223 0.101 0.324 0.026 0.254-0.087 0.356-0.135 0.53-0.022 0.082-0.013 0.175-0.035 0.24-0.042 0.127-0.219 0.242-0.222 0.392-0.002 0.107 0.11 0.192 0.119 0.342 0.003 0.103-0.052 0.214-0.034 0.309 0.037 0.186 0.37 0.402 0.514 0.547 0.194 0.193 0.446 0.343 0.529 0.546 0.071 0.174 0.071 0.399 0.206 0.53 0.099 0.096 0.264 0.155 0.392 0.256 0.119 0.093 0.25 0.174 0.377 0.273 0.208 0.163 0.522 0.488 0.854 0.463 0.173-0.013 0.35-0.155 0.546-0.189 0.202-0.037 0.465-0.055 0.668-0.034 0.157 0.016 0.317 0.109 0.479 0.102 0.171-0.011 0.368-0.138 0.562-0.223 0.308-0.134 0.755-0.3 1.206-0.275 0.086-0.631 0.146-1.269 0.146-1.924 0-2.649-0.741-5.113-2.01-7.2207-0.059-0.0045-0.113-0.0121-0.178-0.0098-0.173 0.0108-0.458 0.0108-0.46-0.205-0.002-0.1774 0.167-0.2165 0.369-0.2286-0.378-0.5778-0.801-1.1209-1.258-1.6347zm-21.369 6.4138c-0.284 0.016-0.4695 0.029-0.6309 0.102-0.3699 0.168-0.2984 0.669-0.668 0.787-0.1278 0.041-0.3026 0.042-0.4433 0.068-0.1214 0.022-0.2694 0.089-0.3946 0.086-0.148-0.003-0.4061-0.145-0.4941-0.24-0.0606-0.066-0.1598-0.295-0.2246-0.447-0.0893 0.492-0.1508 0.993-0.1875 1.502 0.0303 0.006 0.0623 0.013 0.0879 0.013 0.1618 0.001 0.335-0.167 0.5136-0.172 0.4191-0.011 0.6011 0.534 0.9395 0.702 0.0851 0.042 0.197 0.044 0.3066 0.068 0.0885 0.02 0.155 0.057 0.2403 0.086 0.1807 0.061 0.4022 0.055 0.5468 0.119 0.218 0.097 0.3771 0.506 0.5645 0.615 0.0108 0.111-0.0204 0.26 0.0176 0.342 0.0885 0.12 0.2135 0.094 0.3594 0.172 0.1744 0.094 0.2272 0.336 0.3925 0.41 0.057 0.026 0.2009 0.023 0.291 0.051 0.2266 0.069 0.3 0.331 0.4942 0.273 0.1274-0.037 0.118-0.169 0.1387-0.291 0.0842-0.091 0.1754-0.235 0.3066-0.238 0.2124-0.011 0.2313 0.22 0.3086 0.426 0.0436 0.116 0.1577 0.219 0.1875 0.342 0.0529 0.212 0.0272 0.847-0.0176 0.974-0.0535 0.156-0.2645 0.222-0.3945 0.395-0.0613 0.081-0.0905 0.199-0.1367 0.256-0.0837 0.102-0.2089 0.128-0.2715 0.222-0.0354 0.053-0.0692 0.167-0.1035 0.239-0.1027 0.217-0.2407 0.371-0.1543 0.632 0.0361 0.108 0.2046 0.181 0.205 0.307 0.0005 0.149-0.3172 0.282-0.3418 0.445-0.018 0.122 0.0983 0.338 0.1368 0.496 0.0283 0.12 0.2538 0.194 0.3242 0.274 0.12 0.135 0.2165 0.325 0.3262 0.494 0.2167 0.333 0.3866 0.738 0.5976 1.061 0.1115 0.168 0.2675 0.32 0.3418 0.496 0.038 0.088 0.0334 0.194 0.0684 0.273 0.1221 0.276 0.661 0.564 0.9394 0.701 0.1304 0.064 0.275 0.086 0.3946 0.153 0.1811 0.101 0.5398 0.372 0.6308 0.531 0.082 0.143 0.132 0.49 0.172 0.717 0.053 0.3 0.002 0.53 0.017 0.855 0.011 0.176 0.067 0.353 0.069 0.529 0.001 0.062-0.033 0.107-0.035 0.17-0.003 0.214 0.053 0.454 0.035 0.668-0.001 0.046-0.006 0.081-0.014 0.121 1.678 0.708 3.524 1.1 5.465 1.1 0.203 0 0.401-0.023 0.602-0.031 0.004-0.032 0.009-0.064 0.015-0.09 0.062-0.174 0.222-0.231 0.324-0.359 0.078-0.097 0.114-0.21 0.188-0.307 0.08-0.105 0.152-0.198 0.205-0.291 0.05-0.312-0.124-0.53-0.051-0.803 0.082-0.307 0.506-0.494 0.803-0.633 0.102-0.047 0.208-0.125 0.291-0.154 0.206-0.072 0.462-0.033 0.65-0.102 0.321-0.117 0.354-0.46 0.512-0.751 0.075-0.139 0.173-0.277 0.188-0.375 0.012-0.089-0.032-0.172-0.018-0.276 0.016-0.103 0.108-0.193 0.137-0.307 0.037-0.148 0.052-0.364 0.052-0.529 0-0.135-0.062-0.255-0.068-0.377-0.022-0.443 0.16-0.493 0.324-0.734 0.083-0.12 0.113-0.256 0.17-0.342 0.276-0.411 0.754-0.609 0.719-1.23-0.012-0.206-0.14-0.671-0.291-0.737-0.087-0.037-0.285-0.003-0.41-0.051-0.404-0.15-0.642-0.651-1.061-0.683-0.089-0.011-0.171 0.037-0.271 0.035-0.166-0.011-0.416-0.116-0.6-0.137-0.116-0.012-0.272 0.035-0.342 0-0.106-0.052-0.118-0.248-0.205-0.306-0.069-0.048-0.202-0.063-0.306-0.104-0.169-0.065-0.302-0.141-0.496-0.154-0.06-0.003-0.136 0.028-0.206 0.017-0.107-0.018-0.191-0.144-0.291-0.205-0.124-0.075-0.239-0.112-0.291-0.22 0.113-0.368-0.198-0.471-0.273-0.684-0.036-0.1-0.019-0.22-0.051-0.309-0.044-0.127-0.17-0.2-0.308-0.306-0.248-0.191-0.467-0.369-0.821-0.412-0.155-0.02-0.308 0.046-0.496 0.035-0.199-0.013-0.449-0.187-0.597-0.358-0.145-0.166-0.216-0.315-0.342-0.394-0.12-0.077-0.278-0.075-0.36-0.152-0.036-0.034-0.029-0.092-0.068-0.172-0.06-0.125-0.161-0.193-0.086-0.342-0.136-0.07-0.14 0.129-0.289 0.103-0.133-0.188-0.245-0.278-0.547-0.222-0.138 0.025-0.216 0.201-0.377 0.205-0.132 0.011-0.236-0.147-0.41-0.172-0.132-0.018-0.281 0.035-0.375 0.018-0.146-0.03-0.191-0.151-0.324-0.239-0.098-0.064-0.287-0.173-0.342-0.172-0.172 0.011-0.2943 0.366-0.5312 0.241-0.1152-0.146 0.1874-0.223 0.0508-0.36-0.1036-0.103-0.1906 0.047-0.2735 0.104-0.0949 0.065-0.1841 0.131-0.289 0.17-0.2348 0.088-0.381 0.041-0.5645 0.136-0.1699 0.088-0.1772 0.236-0.2734 0.411-0.0787 0.143-0.2587 0.35-0.377 0.359-0.1432 0.011-0.2802-0.2-0.4101-0.256-0.3915-0.169-0.5812 0.15-0.9063 0.154-0.3017 0.011-0.7319-0.486-0.7168-0.769 0.003-0.173 0.0989-0.436 0.1192-0.651 0.0181-0.17 0.1347-0.272 0.1367-0.427 0.003-0.208-0.2755-0.368-0.4102-0.393-0.3193-0.059-0.7629 0.129-1.1289-0.017-0.07-0.116 0.0819-0.196 0.1211-0.309 0.0221-0.064 0.0103-0.15 0.0332-0.221 0.0406-0.109 0.154-0.193 0.2051-0.308 0.0382-0.088 0.0475-0.215 0.0859-0.325 0.0445-0.124 0.1271-0.203 0.1367-0.291 0.0127-0.115-0.0309-0.248-0.121-0.324zm4.5703 3.619c0.1158 0.011 0.1302 0.251 0.0117 0.27-0.1278 0.02-0.1922-0.201-0.0684-0.258 0.0207-0.011 0.0401-0.013 0.0567-0.012z" transform="translate(384.57 515.8)" fill="url(#linearGradient4161)"/>
 </g>
</svg>
