<?xml version="1.0" encoding="UTF-8" standalone="no"?>
<svg id="svg2817" xmlns="http://www.w3.org/2000/svg" height="48" width="48" version="1.0">
 <path id="rect4203-4" fill="#5e5e5e" d="m24 4c-4.513 0-8.653 1.4975-11.992 4h-2.008c-1.108 0-2 0.892-2 2v2.0078c-2.5025 3.339-4 7.479-4 11.992s1.4975 8.653 4 11.992v2.008c0 1.108 0.892 2 2 2h2.0078c3.3394 2.5025 7.4796 4 11.992 4 4.5126 0 8.6528-1.4975 11.992-4h2.008c1.108 0 2-0.892 2-2v-2.0078c2.502-3.339 4-7.479 4-11.992s-1.498-8.653-4-11.992v-2.008c0-1.108-0.892-2-2-2h-2.008c-3.339-2.5025-7.479-4-11.992-4z"/>
 <path id="path4476" opacity=".2" d="m11 11a1 1 0 0 0 -1 1 1 1 0 0 0 1 1 1 1 0 0 0 1 -1 1 1 0 0 0 -1 -1zm26 0a1 1 0 0 0 -1 1 1 1 0 0 0 1 1 1 1 0 0 0 1 -1 1 1 0 0 0 -1 -1zm-26 26a1 1 0 0 0 -1 1 1 1 0 0 0 1 1 1 1 0 0 0 1 -1 1 1 0 0 0 -1 -1zm26 0a1 1 0 0 0 -1 1 1 1 0 0 0 1 1 1 1 0 0 0 1 -1 1 1 0 0 0 -1 -1z"/>
 <path id="path4379" fill="#fff" d="m11 10a1 1 0 0 0 -1 1 1 1 0 0 0 1 1 1 1 0 0 0 1 -1 1 1 0 0 0 -1 -1zm26 0a1 1 0 0 0 -1 1 1 1 0 0 0 1 1 1 1 0 0 0 1 -1 1 1 0 0 0 -1 -1zm-26 26a1 1 0 0 0 -1 1 1 1 0 0 0 1 1 1 1 0 0 0 1 -1 1 1 0 0 0 -1 -1zm26 0a1 1 0 0 0 -1 1 1 1 0 0 0 1 1 1 1 0 0 0 1 -1 1 1 0 0 0 -1 -1z"/>
 <circle id="circle4450" opacity=".2" style="enable-background:new" transform="matrix(0,-1,-1,0,0,0)" cy="-24" cx="-25" r="15"/>
 <circle id="circle4407" style="enable-background:new" cx="-24" transform="matrix(0,-1,-1,0,0,0)" cy="-24" r="15" fill="#3f3f3f"/>
 <circle id="circle4385-5" style="enable-background:new" cx="-24" transform="matrix(0,-1,-1,0,0,0)" cy="-24" r="13" fill="#fec006"/>
 <circle id="circle4478" opacity=".2" style="enable-background:new" transform="matrix(0,-1,-1,0,-136,-236)" filter="url(#filter4484)" cy="-160" cx="-261" r="6"/>
 <circle id="circle4501" style="enable-background:new" cx="-24" transform="matrix(0,-1,-1,0,0,0)" cy="-24" r="6" fill="#3f3f3f"/>
 <circle id="circle4503" opacity=".2" style="enable-background:new" transform="matrix(0,-1,-1,0,0,0)" cy="-24" cx="-22" r="4" fill="#fff"/>
 <path id="path4436" opacity=".2" fill="#fff" d="m24 4c-4.513 0-8.653 1.4975-11.992 4h-2.008c-1.108 0-2 0.892-2 2v1c0-1.108 0.892-2 2-2h2.0078c3.339-2.5025 7.479-4 11.992-4s8.653 1.4975 11.992 4h2.008c1.108 0 2 0.892 2 2v-1c0-1.108-0.892-2-2-2h-2.008c-3.339-2.5025-7.479-4-11.992-4zm-16 8.008c-2.5025 3.339-4 7.479-4 11.992 0 0.16849 0.0154 0.33257 0.0195 0.5 0.10699-4.3168 1.5714-8.2775 3.9805-11.492v-1zm32 0v1c2.409 3.2147 3.8735 7.1754 3.9805 11.492 0.004-0.16743 0.0195-0.33151 0.0195-0.5 0-4.5126-1.4975-8.6528-4-11.992z"/>
 <path id="circle4441" opacity=".2" style="enable-background:new" fill="#fff" d="m24 8a15 15 0 0 0 -15 15 15 15 0 0 0 0.0195 0.414 15 15 0 0 1 14.98 -14.414 15 15 0 0 1 14.98 14.586 15 15 0 0 0 0.02 -0.586 15 15 0 0 0 -15 -15z"/>
 <path id="path4460" opacity=".3" d="m4.0195 23.5c-0.0041 0.167-0.0195 0.332-0.0195 0.5 0 4.513 1.4975 8.653 4 11.992v-1c-2.409-3.214-3.8735-7.175-3.9805-11.492zm39.96 0c-0.107 4.317-1.571 8.278-3.98 11.492v1c2.502-3.339 4-7.479 4-11.992 0-0.168-0.015-0.333-0.02-0.5zm-35.98 13.5v1c0 1.108 0.892 2 2 2h2.008c3.339 2.502 7.479 4 11.992 4s8.653-1.498 11.992-4h2.008c1.108 0 2-0.892 2-2v-1c0 1.108-0.892 2-2 2h-2.008c-3.339 2.502-7.479 4-11.992 4s-8.653-1.498-11.992-4h-2.008c-1.108 0-2-0.892-2-2z"/>
</svg>
