<svg xmlns:rdf="http://www.w3.org/1999/02/22-rdf-syntax-ns#" xmlns="http://www.w3.org/2000/svg" height="100%" width="100%" version="1.1" xmlns:cc="http://creativecommons.org/ns#" viewBox="0 0 128 128" xmlns:dc="http://purl.org/dc/elements/1.1/">
<defs>
<filter id="filter45478">
<feGaussianBlur stdDeviation="1.031"/>
</filter>
<linearGradient id="linearGradient45381" gradientUnits="userSpaceOnUse" x2="0" y2="1011.4" y1="921.47">
<stop stop-color="#8c0000" offset="0"/>
<stop stop-color="#633" offset="1"/>
</linearGradient>
<linearGradient id="linearGradient45395" gradientUnits="userSpaceOnUse" x2="0" y2="1009" y1="923.94">
<stop stop-color="#ff5f5f" offset="0"/>
<stop stop-color="#c80000" offset="1"/>
</linearGradient>
</defs>
<g transform="matrix(1.0891 0 0 1.1648 240.47 -1062)">
<path fill="url(#linearGradient45395)" d="m-182.01 922.97c6.1316 0.138 12.488 1.7999 18.569 5.2875l0.7554 0.4092 0.7554-0.4092c24.326-13.95 53.253 1.455 53.253 25.745 0 9.372-3.3155 15.421-8.4978 20.804s-12.307 9.9616-19.608 15.862l-20.898 16.87c-1.6798 1.3577-2.7081 2.1921-3.3991 2.6123s-0.9388 0.5035-1.6051 0.5036-0.8827-0.083-1.5737-0.5036-1.7508-1.2546-3.4306-2.6123l-20.867-16.87c-7.3007-5.901-14.426-10.48-19.608-15.862s-8.4978-11.432-8.4978-20.804c0-18.218 16.257-31.447 34.652-31.033z" fill-rule="evenodd"/>
<path stroke="url(#linearGradient45381)" stroke-width="3" d="m-162.68 1011.8c1.732 0 2.5791-0.7081 5.9116-3.4017l20.735-16.76c14.342-11.592 28.462-18.242 28.462-37.583 0-25.307-30.091-41.211-55.11-26.863-25.019-14.348-55.11 1.5564-55.11 26.863 0 19.341 14.121 25.991 28.462 37.583l20.735 16.76c3.3325 2.6936 4.1796 3.4017 5.9116 3.4017z" fill="none"/>
</g>
</svg>
