<svg xmlns="http://www.w3.org/2000/svg" height="128pt" width="128pt" version="1.1" xmlns:xlink="http://www.w3.org/1999/xlink" viewBox="0 0 128 128">
<g id="surface1">
<path fill="#404040" d="m64 8c-1.766 0-3.527 0.0898-5.25 0.25l-3.25 16.75c-2.676 0.586-5.305 1.406-7.75 2.5l-12.25-11.75c-3.109 1.84-5.816 4.113-8.5 6.5l7.25 15.25c-1.777 1.992-3.395 4.18-4.75 6.5l-16.75-2.25c-1.422 3.27-2.469 6.691-3.25 10.25l14.75 8c-0.137 1.344-0.25 2.617-0.25 4 0 1.379 0.113 2.652 0.25 4l-14.75 8c0.781 3.559 1.828 6.98 3.25 10.25l16.75-2.25c1.355 2.32 2.973 4.508 4.75 6.5l-7.25 15.25c2.684 2.39 5.391 4.66 8.5 6.5l12.25-11.75c2.445 1.09 5.074 1.91 7.75 2.5l3.25 16.75c1.723 0.16 3.484 0.25 5.25 0.25s3.527-0.09 5.25-0.25l3.25-16.75c2.676-0.59 5.305-1.41 7.75-2.5l12.25 11.75c3.109-1.84 5.816-4.11 8.5-6.5l-7.25-15.25c1.777-1.992 3.395-4.18 4.75-6.5l16.75 2.25c1.42-3.273 2.47-6.691 3.25-10.25l-14.75-8c0.14-1.348 0.25-2.621 0.25-4 0-1.383-0.11-2.656-0.25-4l14.75-8c-0.78-3.559-1.83-6.98-3.25-10.25l-16.75 2.25c-1.355-2.32-2.973-4.508-4.75-6.5l7.25-15.25c-2.684-2.387-5.391-4.66-8.5-6.5l-12.25 11.75c-2.445-1.094-5.074-1.914-7.75-2.5l-3.25-16.75c-1.723-0.1602-3.484-0.25-5.25-0.25zm0 32c13.254 0 24 10.746 24 24s-10.746 24-24 24-24-10.746-24-24 10.746-24 24-24z"/>
</g>
</svg>
