<?xml version="1.0" encoding="UTF-8" standalone="no"?>
<svg
   xmlns:dc="http://purl.org/dc/elements/1.1/"
   xmlns:cc="http://creativecommons.org/ns#"
   xmlns:rdf="http://www.w3.org/1999/02/22-rdf-syntax-ns#"
   xmlns:svg="http://www.w3.org/2000/svg"
   xmlns="http://www.w3.org/2000/svg"
   xmlns:sodipodi="http://sodipodi.sourceforge.net/DTD/sodipodi-0.dtd"
   xmlns:inkscape="http://www.inkscape.org/namespaces/inkscape"
   width="640"
   height="640"
   id="svg2"
   version="1.1"
   inkscape:version="0.48.3.1 r9886"
   sodipodi:docname="guitar.svg">
  <defs
     id="defs81" />
  <sodipodi:namedview
     pagecolor="#ffffff"
     bordercolor="#666666"
     borderopacity="1"
     objecttolerance="10"
     gridtolerance="10"
     guidetolerance="10"
     inkscape:pageopacity="0"
     inkscape:pageshadow="2"
     inkscape:window-width="1391"
     inkscape:window-height="876"
     id="namedview79"
     showgrid="false"
     inkscape:zoom="0.69532167"
     inkscape:cx="8.7770686"
     inkscape:cy="219.14997"
     inkscape:window-x="49"
     inkscape:window-y="24"
     inkscape:window-maximized="1"
     inkscape:current-layer="svg2" />
  <metadata
     id="metadata3036">image/svg+xml<rdf:RDF>
  <cc:Work
     rdf:about="">
    <dc:format>image/svg+xml</dc:format>
    <dc:type
       rdf:resource="http://purl.org/dc/dcmitype/StillImage" />
  </cc:Work>
</rdf:RDF>
</metadata>
  <g
     id="g4113"
     transform="matrix(1.0325326,0,0,1.0468246,-0.02625942,-30.112678)">
    <path
       d="m 304.30317,281.82474 c -14.27297,0.8446 -28.96583,2.60334 -36.38052,-11.48201 -13.38938,-40.37022 16.78973,-48.67537 20.74484,-72.39375 3.37262,-20.22635 -14.91367,-31.11505 -28.90555,-26.85668 -54.84476,16.69185 -67.96695,83.34471 -96.77989,130.47827 0.001,0.0238 -8.44369,13.73282 -45.46941,25.22313 -51.844831,15.96953 -90.150903,43.0168 -99.978404,57.5248 -9.8274302,14.50787 -35.601225,70.08788 10.585367,132.42928 49.176855,66.37767 108.610157,122.90332 144.263467,125.43149 40.02841,2.8385 78.52018,-16.21866 110.25489,-103.99789 11.27542,-44.73652 39.75105,-61.6261 70.57544,-77.32346 25.8216,-13.14965 62.08145,-27.91337 43.64417,-73.31344 -0.51447,-1.26691 -12.14623,-12.98073 -33.02302,0.39244 -23.24997,14.89343 -44.82253,8.82679 -54.46628,-17.48021 l -5.0651,-88.63197 z"
       id="path4527"
       inkscape:connector-curvature="0"
       style="fill:#000000;fill-opacity:1;fill-rule:evenodd;stroke:#000000;stroke-width:1.30430043px" />
    <path
       d="m 387.6334,400.23416 c -23.13855,-1.79173 -45.60899,32.92496 -76.43059,-0.91138 -21.891,-35.18324 -24.89244,-70.76179 -42.16889,-100.82597 -4.1406,-7.20537 -14.62561,-7.02162 -18.10625,1.45543 -14.85992,20.80024 -24.39107,46.56449 -50.08174,57.27535 -15.57856,10.94791 -35.34776,13.24622 -51.04224,23.18018 -32.75935,20.73539 -26.40424,36.30827 -26.76767,48.52993 0.16105,6.3311 5.47946,13.69882 11.18061,21.14342 26.6187,30.9124 64.15549,55.22058 79.8448,92.74416 6.17698,20.30514 0.92985,53.02983 9.80078,60.69626 5.68712,4.91477 20.24577,-5.82649 28.23167,-20.63239 14.41816,-26.73172 23.14179,-55.1947 37.72197,-87.64065 7.77514,-17.30247 9.83482,-25.68471 46.13608,-39.4499 11.58766,-2.57271 26.35822,-10.01169 38.28009,-22.13287 22.78782,-23.16859 18.10318,-33.06757 13.40138,-33.43158 z"
       id="path4529"
       inkscape:connector-curvature="0"
       style="fill:#ffffff;fill-opacity:1;fill-rule:evenodd;stroke:#000000;stroke-width:1.2961725px" />
    <g
       transform="matrix(0.88607869,0.94767908,-0.86219781,0.9739276,258.81268,-286.04253)"
       id="g5508">
      <rect
         transform="matrix(1.429815,0,0,1.2788889,-691.45781,172.75699)"
         stroke-miterlimit="4"
         ry="4.789752"
         y="130.77232"
         x="703.36511"
         height="9.579504"
         width="35.843472"
         id="rect5502"
         style="fill:#e6e6e6;fill-rule:evenodd;stroke:#000000;stroke-width:1.016945;stroke-linecap:round;stroke-miterlimit:4;stroke-dashoffset:0" />
      <rect
         transform="matrix(1.429815,0,0,1.2788889,-691.45781,172.75699)"
         stroke-miterlimit="4"
         ry="4.7814379"
         y="164.36818"
         x="702.11072"
         height="9.5628767"
         width="37.089535"
         id="rect5504"
         style="fill:#e6e6e6;fill-rule:evenodd;stroke:#000000;stroke-width:1.03357196;stroke-linecap:round;stroke-miterlimit:4;stroke-dashoffset:0" />
      <rect
         stroke-miterlimit="4"
         transform="matrix(1.4150066,0.18358425,0.2065588,-1.2654732,-691.45781,172.75699)"
         ry="4.8736329"
         y="-99.509598"
         x="723.20923"
         height="9.7472668"
         width="36.584846"
         id="rect5506"
         style="fill:#e6e6e6;fill-rule:evenodd;stroke:#000000;stroke-width:1.03636599;stroke-linecap:round;stroke-miterlimit:4;stroke-dashoffset:0" />
    </g>
    <path
       d="M 546.55164,61.84816 250.85036,325.48205 c 9.42969,13.40642 22.88461,25.72818 41.5905,36.63497 L 577.29245,88.926141 546.55164,61.84816 z"
       id="path12980"
       inkscape:connector-curvature="0"
       style="fill:#c87137;fill-rule:evenodd;stroke:#000000;stroke-width:1.66205728px" />
    <g
       transform="matrix(1.0867634,0,0,1.1378956,156.43993,-5.2827466)"
       id="g4033">
      <path
         style="fill:#999999;fill-rule:evenodd;stroke:#000000;stroke-width:1.33626509px"
         inkscape:connector-curvature="0"
         d="m 388.18258,45.119912 -1.27972,-0.04902 c 0,0 -8.33637,-5.267821 -7.33636,-8.770679 1,-3.502891 7.97072,-6.932736 11.33637,-5.240843 3.36563,1.691869 2.12623,12.008274 2.12623,12.008274 l -1.07489,1.250035 2.15307,4.276438 -3.59444,1.661725 -2.33026,-5.135932 z"
         id="path4498" />
      <path
         style="fill:#999999;fill-rule:evenodd;stroke:#000000;stroke-width:1.33626509px"
         inkscape:connector-curvature="0"
         id="path12964"
         d="m 371.90356,52.170472 -1.27975,-0.049 c 0,0 -8.33636,-5.267803 -7.33635,-8.770691 0.99999,-3.502882 7.9707,-6.932723 11.33636,-5.240829 3.36562,1.69186 2.12621,12.00827 2.12621,12.00827 l -1.07489,1.25004 2.1531,4.27647 -3.59443,1.6617 -2.33025,-5.13599 z" />
      <path
         style="fill:#999999;fill-rule:evenodd;stroke:#000000;stroke-width:1.33626509px"
         inkscape:connector-curvature="0"
         id="path4500"
         d="m 353.75457,60.001842 -1.27972,-0.049 c 0,0 -8.33638,-5.26781 -7.33636,-8.77068 1,-3.502893 7.97072,-6.932695 11.33636,-5.240838 3.36566,1.691888 2.12621,12.008248 2.12621,12.008248 l -1.07492,1.25007 2.1531,4.27642 -3.59447,1.66174 -2.33019,-5.13593 z" />
      <path
         style="fill:#999999;fill-rule:evenodd;stroke:#000000;stroke-width:1.33626509px"
         inkscape:connector-curvature="0"
         d="m 337.33383,69.060292 -1.27975,-0.049 c 0,0 -8.33633,-5.26778 -7.33637,-8.77069 1.00004,-3.50286 7.97075,-6.9327 11.3364,-5.24081 3.36563,1.6918 2.12619,12.00825 2.12619,12.00825 l -1.07488,1.25003 2.15307,4.27645 -3.59446,1.66168 -2.33022,-5.13596 z"
         id="path4502" />
      <path
         style="fill:#999999;fill-rule:evenodd;stroke:#000000;stroke-width:1.33626509px"
         inkscape:connector-curvature="0"
         id="path4504"
         d="m 320.50414,76.086642 -1.27975,-0.049 c 0,0 -8.33632,-5.26777 -7.33633,-8.77065 1.00001,-3.50289 7.97072,-6.93273 11.33636,-5.24084 3.36564,1.69186 2.12623,12.00827 2.12623,12.00827 l -1.07488,1.25004 2.15308,4.27646 -3.59449,1.66174 -2.33022,-5.13597 z" />
      <path
         style="fill:#999999;fill-rule:evenodd;stroke:#000000;stroke-width:1.33626509px"
         inkscape:connector-curvature="0"
         d="m 304.04523,84.567992 -1.27978,-0.049 c 0,0 -8.33633,-5.26787 -7.33635,-8.77069 1,-3.50288 7.97077,-6.93274 11.33639,-5.24088 3.36564,1.69187 2.1262,12.00831 2.1262,12.00831 l -1.07489,1.25004 2.15313,4.27643 -3.59443,1.66171 -2.33024,-5.1359 z"
         id="path4506" />
      <path
         style="fill:#9d530a;fill-rule:evenodd;stroke:#000000;stroke-width:1.1655854px"
         inkscape:connector-curvature="0"
         id="path4496"
         d="m 294.65386,115.4201 c -6.82583,-9.12502 -5.52482,-17.124118 3.90307,-23.997448 0.0471,0.71137 66.51318,-36.70054 97.36887,-46.920877 25.01387,-13.207622 29.85419,21.438487 29.76197,26.633607 -0.33928,19.11507 -28.12957,24.56608 -33.26133,11.76838 -13.01868,18.991498 -20.80686,44.989308 -37.58388,58.478188 -12.03307,-1.11097 -24.30821,-1.92486 -33.10355,1.70456 L 294.65386,115.4201 z" />
      <rect
         style="fill:#d38d5f;fill-rule:evenodd;stroke:#000000;stroke-width:1.1229881;stroke-miterlimit:4"
         ry="0.33033812"
         y="-129.9595"
         x="291.55176"
         height="5.3138533"
         width="44.07439"
         id="rect13024"
         stroke-miterlimit="4"
         transform="matrix(0.69956046,0.71457341,-0.67980502,0.73339289,0,0)" />
      <path
         style="fill:#b3b3b3;fill-rule:evenodd;stroke-miterlimit:4"
         inkscape:connector-curvature="0"
         d="m 383.43975,68.436882 c -1.85257,1.9986 -5.07987,1.85619 -7.20848,-0.3181 -2.12849,-2.17417 -2.35235,-5.55698 -0.49978,-7.55558 1.85258,-1.99861 5.08,-1.85615 7.20849,0.31803 2.12861,2.17429 2.35234,5.55704 0.49977,7.55565 z"
         id="path13060"
         stroke-miterlimit="4" />
      <path
         style="fill:#b3b3b3;fill-rule:evenodd;stroke-miterlimit:4"
         inkscape:connector-curvature="0"
         d="m 366.80736,77.092362 c -1.85257,1.99861 -5.07993,1.85621 -7.20849,-0.31803 -2.12854,-2.17422 -2.35231,-5.55701 -0.49974,-7.55562 1.85253,-1.99857 5.07991,-1.85615 7.20845,0.31807 2.12857,2.17425 2.35231,5.55702 0.49978,7.55558 z"
         id="path13062"
         stroke-miterlimit="4" />
      <path
         style="fill:#b3b3b3;fill-rule:evenodd;stroke-miterlimit:4"
         inkscape:connector-curvature="0"
         d="m 349.69921,85.655752 c -1.85257,1.99861 -5.07993,1.85621 -7.20849,-0.31804 -2.12854,-2.17422 -2.35231,-5.557 -0.49974,-7.55561 1.85257,-1.99861 5.07995,-1.85619 7.20849,0.31803 2.12856,2.17424 2.35231,5.55702 0.49974,7.55562 z"
         id="path13064"
         stroke-miterlimit="4" />
      <path
         style="fill:#b3b3b3;fill-rule:evenodd;stroke-miterlimit:4"
         inkscape:connector-curvature="0"
         d="m 331.97198,93.649972 c -1.85257,1.99861 -5.07992,1.85622 -7.20849,-0.31803 -2.12855,-2.17423 -2.35231,-5.55702 -0.49975,-7.55562 1.85254,-1.99856 5.07991,-1.85615 7.20846,0.31807 2.12856,2.17425 2.35231,5.55702 0.49978,7.55558 z"
         id="path13066"
         stroke-miterlimit="4" />
      <path
         style="fill:#b3b3b3;fill-rule:evenodd;stroke-miterlimit:4"
         inkscape:connector-curvature="0"
         d="m 399.4502,60.585082 c -1.85257,1.99861 -5.07992,1.85622 -7.20847,-0.318 -2.12857,-2.17425 -2.35231,-5.55702 -0.49974,-7.55563 1.85256,-1.99859 5.07992,-1.85621 7.20849,0.31804 2.12854,2.17422 2.35228,5.557 0.49972,7.55559 z"
         id="path13068"
         stroke-miterlimit="4" />
      <path
         style="fill:#b3b3b3;fill-rule:evenodd;stroke-miterlimit:4"
         inkscape:connector-curvature="0"
         d="m 316.9427,101.71826 c -1.85257,1.9986 -5.07987,1.85626 -7.20846,-0.31801 -2.12851,-2.174188 -2.35234,-5.557038 -0.49977,-7.555638 1.85256,-1.9986 5.08,-1.85614 7.20852,0.31805 2.12859,2.17428 2.35228,5.557 0.49971,7.555598 z"
         id="path13076"
         stroke-miterlimit="4" />
    </g>
    <g
       transform="matrix(0.88607869,0.94767908,-0.86219781,0.9739276,258.81268,-286.04253)"
       id="g5523">
      <path
         stroke-miterlimit="4"
         d="m 384.9281,434.45761 c 0,4.52075 -4.09732,8.18552 -9.15146,8.18552 -5.05426,0 -9.15155,-3.66477 -9.15155,-8.18552 0,-4.52069 4.09729,-8.18542 9.15155,-8.18542 5.05414,0 9.15146,3.66473 9.15146,8.18542 z"
         id="path5515"
         inkscape:connector-curvature="0"
         style="fill:#e6e6e6;fill-rule:evenodd;stroke:#000000;stroke-linecap:round;stroke-miterlimit:4;stroke-dashoffset:0" />
      <path
         stroke-miterlimit="4"
         id="path5517"
         d="m 415.9812,448.66824 c 0,4.52063 -4.09726,8.18546 -9.15149,8.18546 -5.05417,0 -9.15146,-3.66483 -9.15146,-8.18546 0,-4.52069 4.09729,-8.18545 9.15146,-8.18545 5.05423,0 9.15149,3.66476 9.15149,8.18545 z"
         inkscape:connector-curvature="0"
         style="fill:#e6e6e6;fill-rule:evenodd;stroke:#000000;stroke-linecap:round;stroke-miterlimit:4;stroke-dashoffset:0" />
      <path
         stroke-miterlimit="4"
         d="m 439.4516,467.40039 c 0,4.52069 -4.09729,8.18546 -9.15146,8.18546 -5.05423,0 -9.15149,-3.66477 -9.15149,-8.18546 0,-4.52069 4.09726,-8.18545 9.15149,-8.18545 5.05417,0 9.15146,3.66476 9.15146,8.18545 z"
         id="path5521"
         inkscape:connector-curvature="0"
         style="fill:#e6e6e6;fill-rule:evenodd;stroke:#000000;stroke-linecap:round;stroke-miterlimit:4;stroke-dashoffset:0" />
    </g>
    <rect
       transform="matrix(0.68296809,0.73044821,-0.66285267,0.74874985,0,0)"
       stroke-miterlimit="4"
       id="rect5528"
       width="78.233932"
       height="36.968548"
       x="403.89343"
       y="198.94554"
       ry="7.9539204"
       style="fill:#858687;fill-opacity:1;fill-rule:evenodd;stroke:#000000;stroke-width:1.75665808;stroke-linecap:round;stroke-miterlimit:4;stroke-dashoffset:0" />
    <rect
       stroke-miterlimit="4"
       id="rect5530"
       width="64.792503"
       height="20.461594"
       x="398.19308"
       y="224.91811"
       ry="8.6091146"
       transform="matrix(0.71038917,0.70380909,-0.63107603,0.77572099,0,0)"
       style="fill:#2e3436;fill-rule:evenodd;stroke:#000000;stroke-width:1.83627927;stroke-linecap:round;stroke-miterlimit:4;stroke-dashoffset:0" />
    <g
       transform="matrix(0.88607869,0.94767908,-0.86219781,0.9739276,258.81268,-286.04253)"
       id="g5546">
      <path
         id="path5532"
         d="m 371.26309,386.81982 c -0.78952,30.87384 -2.59134,54.6496 -7.94385,80.74201 -2.15432,2.09399 -3.20538,10.45578 0.36115,8.39718 7.91171,-14.42483 10.25137,-59.54312 12.2767,-89.13919 l -4.694,0 z"
         inkscape:connector-curvature="0"
         style="fill:#2e3436;fill-rule:evenodd;stroke:#000000;stroke-width:1px" />
      <rect
         stroke-miterlimit="4"
         transform="matrix(1.4292992,0.03435086,-0.03840473,1.2784275,-359.62271,172.75699)"
         ry="1.8940361"
         y="133.08502"
         x="515.34753"
         height="21.213203"
         width="3.7880721"
         id="rect5538"
         style="fill:#cccccc;fill-rule:evenodd;stroke:#000000;stroke-linecap:round;stroke-miterlimit:4;stroke-dashoffset:0" />
    </g>
  </g>
</svg>
