<svg xmlns:rdf="http://www.w3.org/1999/02/22-rdf-syntax-ns#" xmlns="http://www.w3.org/2000/svg" height="100%" width="100%" version="1.1" xmlns:cc="http://creativecommons.org/ns#" xmlns:dc="http://purl.org/dc/elements/1.1/" viewBox="0 0 256 256">
<metadata>
<rdf:RDF>
<cc:Work rdf:about="">
<dc:format>image/svg+xml</dc:format>
<dc:type rdf:resource="http://purl.org/dc/dcmitype/StillImage"/>
<dc:title/>
</cc:Work>
</rdf:RDF>
</metadata>
<g fill-rule="evenodd" transform="matrix(6.62315,0,0,5.19145,15.76741,55.66796)" fill="#f8b600">
<path d="m0,38.255,28.984-18.506-0.0106-5.2205-3.8994-1.3654,9.198-9.2948v-3.8684l-27.72,15.861v5.2659h5.2973l-11.843,11.966-0.0066,5.1759v-0.0134z"/>
</g>
<g fill-rule="evenodd" transform="matrix(6.62315,0,0,5.19145,15.86382,55.51865)" fill="#f8b600">
<path d="m0,38.256,28.984-18.505-0.008-5.2211-3.9007-1.3655,9.1967-9.296v-3.8685l-27.718,15.863v5.2639h5.2972l-11.844,11.967-0.0066,5.1745v-0.0121z"/>
</g>
<g fill-rule="evenodd" transform="matrix(6.62315,0,0,5.19145,17.40688,131.09295)" fill="#e86923">
<path d="m0,18.559,28.726-18.559-10.561,6.0141-18.165,12.545z"/>
</g>
<g fill-rule="evenodd" transform="matrix(6.62315,0,0,5.19145,62.60454,138.26221)" fill="#e86923">
<path d="m9.8473,0h-9.8473l6.9541,0.5368,2.8932-0.5368z"/>
</g>
<g fill-rule="evenodd" transform="matrix(6.62315,0,0,5.19145,156.99397,56.90515)" fill="#e86923">
<path d="m0,11.405,12.805-11.405-5.3185,5.6123-7.4869,5.7929z"/>
</g>
<g fill-rule="evenodd" transform="matrix(6.62315,0,0,5.19145,156.0135,57.0204)" fill="#f8f4c7">
<path d="m0,11.375,2.0152-2.5017,10.789-8.8733-12.804,11.375z"/>
</g>
<g fill-rule="evenodd" transform="matrix(5.82814,0,0,5.40616,126.32886,55.45665)" fill="#161413">
<path d="m0,1.0499c0,0.5799,0.4694,1.0499,1.0486,1.0499s1.0486-0.47,1.0486-1.0499-0.4695-1.0499-1.0486-1.0499-1.0486,0.47-1.0486,1.0499z"/>
</g>
<g fill-rule="evenodd" transform="matrix(5.82814,0,0,5.40616,109.92206,37.38029)" fill="#161413">
<path d="m4.2525,0.364c1.8712,0.364,3.0916,2.1758,2.728,4.0466-0.1917,0.9909-0.7935,1.7974-1.5921,2.2844,0.6162-0.4516,1.071-1.1259,1.2284-1.9349,0.3319-1.7057-0.7828-3.3605-2.49-3.6931s-3.3599,0.7842-3.6918,2.4912c-0.1706,0.8759,0.041,1.7347,0.5156,2.4115-0.6439-0.7711-0.9507-1.8132-0.7445-2.8761,0.3637-1.8709,2.1753-3.0936,4.0463-2.7296z"/>
</g>
<g fill-rule="evenodd" transform="matrix(5.82814,0,0,5.40616,88.84071,16.93452)" fill="#161413">
<path d="m3.487,1.8616c2.7597-1.8616,6.5044-1.1337,8.3662,1.6259,0.9851,1.4623,1.2377,3.1995,0.8543,4.7888,0.2023-1.3183-0.0662-2.7138-0.8715-3.9078-1.6978-2.5174-5.1174-3.1824-7.6351-1.4845s-3.1827,5.1187-1.4836,7.6375c0.8701,1.2908,2.1925,2.0906,3.614,2.3394-1.7469-0.1533-3.4129-1.0644-4.4708-2.6314-1.8605-2.7596-1.1318-6.5063,1.6265-8.3679z"/>
</g>
<g fill-rule="evenodd" transform="matrix(5.82814,0,0,5.40616,81.13942,.06912)" fill="#161413">
<path d="m9.8499,0.7148c-4.5156-0.7148-8.7564,2.3655-9.4703,6.8834-0.3795,2.393,0.3147,4.7023,1.715,6.4578-1.0155-1.5238-1.4916-3.4181-1.1822-5.37,0.652-4.1224,4.5224-6.9357,8.6428-6.2824s6.9329,4.5243,6.2809,8.6454c-0.3344,2.113-1.5167,3.8776-3.1404,5.0113,2.084-1.207,3.6298-3.3068,4.0357-5.8714,0.7153-4.5177-2.3657-8.7593-6.8814-9.4741z"/>
</g>
<g fill-rule="evenodd" transform="matrix(5.82814,0,0,5.40616,125.93283,65.60541)" fill="#161413">
<path d="m0.8582,0.0929-0.8582,12.899,2.482-1.0199-0.9217-11.972-0.7021,0.0929z"/>
</g>
</svg>
