<?xml version="1.0" encoding="UTF-8" standalone="no"?>
<!-- Created with Inkscape (http://www.inkscape.org/) -->

<svg
   xmlns:dc="http://purl.org/dc/elements/1.1/"
   xmlns:cc="http://creativecommons.org/ns#"
   xmlns:rdf="http://www.w3.org/1999/02/22-rdf-syntax-ns#"
   xmlns:svg="http://www.w3.org/2000/svg"
   xmlns="http://www.w3.org/2000/svg"
   xmlns:xlink="http://www.w3.org/1999/xlink"
   xmlns:sodipodi="http://sodipodi.sourceforge.net/DTD/sodipodi-0.dtd"
   xmlns:inkscape="http://www.inkscape.org/namespaces/inkscape"
   version="1.0"
   width="128"
   height="128"
   id="svg4310"
   inkscape:version="0.48.3.1 r9886"
   sodipodi:docname="star.svg">
  <metadata
     id="metadata3038">
    <rdf:RDF>
      <cc:Work
         rdf:about="">
        <dc:format>image/svg+xml</dc:format>
        <dc:type
           rdf:resource="http://purl.org/dc/dcmitype/StillImage" />
      </cc:Work>
    </rdf:RDF>
  </metadata>
  <sodipodi:namedview
     pagecolor="#ffffff"
     bordercolor="#666666"
     borderopacity="1"
     objecttolerance="10"
     gridtolerance="10"
     guidetolerance="10"
     inkscape:pageopacity="0"
     inkscape:pageshadow="2"
     inkscape:window-width="640"
     inkscape:window-height="480"
     id="namedview3036"
     showgrid="false"
     inkscape:zoom="1.84375"
     inkscape:cx="64"
     inkscape:cy="64"
     inkscape:window-x="179"
     inkscape:window-y="186"
     inkscape:window-maximized="0"
     inkscape:current-layer="svg4310" />
  <defs
     id="defs4312">
    <linearGradient
       id="linearGradient4984">
      <stop
         id="stop4986"
         style="stop-color:#ffffff;stop-opacity:0.94247788"
         offset="0" />
      <stop
         id="stop4988"
         style="stop-color:#ffffff;stop-opacity:0"
         offset="1" />
    </linearGradient>
    <linearGradient
       id="linearGradient4976">
      <stop
         id="stop4978"
         style="stop-color:#cb0000;stop-opacity:1"
         offset="0" />
      <stop
         id="stop4980"
         style="stop-color:#fe5b62;stop-opacity:1"
         offset="1" />
    </linearGradient>
    <linearGradient
       id="linearGradient4968">
      <stop
         id="stop4970"
         style="stop-color:#ff8500;stop-opacity:1"
         offset="0" />
      <stop
         id="stop4972"
         style="stop-color:#ffea00;stop-opacity:1"
         offset="1" />
    </linearGradient>
    <linearGradient
       id="linearGradient4960">
      <stop
         id="stop4962"
         style="stop-color:#d70000;stop-opacity:0.98431373"
         offset="0" />
      <stop
         id="stop4964"
         style="stop-color:#ea1d09;stop-opacity:0.8745119"
         offset="1" />
    </linearGradient>
    <linearGradient
       x1="743.79865"
       y1="737.21484"
       x2="671.94446"
       y2="641.09821"
       id="linearGradient4966"
       xlink:href="#linearGradient4960"
       gradientUnits="userSpaceOnUse" />
    <linearGradient
       x1="94.709671"
       y1="113.59877"
       x2="33.273293"
       y2="28.828382"
       id="linearGradient4974"
       xlink:href="#linearGradient4968"
       gradientUnits="userSpaceOnUse" />
    <linearGradient
       x1="87.620857"
       y1="103.85165"
       x2="87.620857"
       y2="24.03635"
       id="linearGradient4982"
       xlink:href="#linearGradient4976"
       gradientUnits="userSpaceOnUse" />
    <linearGradient
       x1="45.725395"
       y1="43.392467"
       x2="83.98542"
       y2="94.9375"
       id="linearGradient4990"
       xlink:href="#linearGradient4984"
       gradientUnits="userSpaceOnUse" />
    <linearGradient
       x1="743.79865"
       y1="737.21484"
       x2="671.94446"
       y2="641.09821"
       id="linearGradient5001"
       xlink:href="#linearGradient4960"
       gradientUnits="userSpaceOnUse" />
    <filter
       id="filter5017">
      <feGaussianBlur
         id="feGaussianBlur5019"
         stdDeviation="1.4422903"
         inkscape:collect="always" />
    </filter>
  </defs>
  <g
     transform="matrix(1.0313254,0,0,1.0703328,-668.66383,-668.71195)"
     id="layer1">
    <path
       d="m 710.10115,628.28125 c -1.87791,0.0807 -3.52038,1.33494 -4.09375,3.125 l -11.90625,36.4375 -38.34375,0.0625 c -1.93619,0.008 -3.65238,1.25207 -4.25,3.09375 -0.59766,1.84168 0.0627,3.88751 1.625,5.03125 l 30.9375,22.625 -11.78125,36.4375 c -0.63371,1.85888 0.0378,3.90593 1.625,5.0625 1.58721,1.15655 3.7684,1.1414 5.34375,-0.0313 l 31.03125,-22.46875 31.0625,22.5 c 1.57693,1.12654 3.71922,1.11588 5.28125,-0.0313 1.56205,-1.1471 2.22794,-3.18941 1.625,-5.03125 l -11.78125,-36.46875 31,-22.59375 c 1.56232,-1.14374 2.22263,-3.18958 1.625,-5.03125 -0.59761,-1.84173 -2.34509,-3.08529 -4.28125,-3.09375 L 726.47615,667.84375 714.5699,631.375 c -0.61521,-1.92014 -2.45417,-3.17616 -4.46875,-3.09375 z"
       id="path5009"
       style="fill:#000000;fill-opacity:0.36078431;fill-rule:evenodd;stroke:none;filter:url(#filter5017)"
       inkscape:connector-curvature="0" />
    <path
       d="m 707.4373,628.02369 c -1.15127,0.0494 -2.14965,0.81137 -2.50116,1.90878 l -12.27543,37.64904 -39.62364,0.0658 c -1.18744,0.005 -2.23746,0.77188 -2.60397,1.90135 -0.36652,1.12947 0.0332,2.36663 0.99138,3.06806 l 31.98852,23.3661 -12.1767,37.64904 c -0.38868,1.14022 0.01,2.40069 0.98351,3.11013 0.97358,0.70943 2.29556,0.70271 3.26188,-0.0166 l 32.08725,-23.23446 32.08725,23.23446 c 0.96712,0.69088 2.26863,0.68235 3.2266,-0.0212 0.95798,-0.70351 1.35565,-1.94281 0.98588,-3.07237 l -12.1767,-37.68195 32.02143,-23.33319 c 0.95814,-0.70143 1.3579,-1.93859 0.99138,-3.06806 -0.36651,-1.12947 -1.41653,-1.89616 -2.60397,-1.90135 l -39.62364,-0.0658 -12.30834,-37.64904 c -0.37752,-1.17823 -1.49533,-1.95935 -2.73153,-1.90878 z m 0.13164,11.61723 10.30083,31.52778 c 0.36345,1.13098 1.41197,1.90079 2.59989,1.90878 l 33.20619,0.0658 -26.82165,19.54854 c -0.95343,0.70146 -1.35111,1.93426 -0.9873,3.06063 l 10.16919,31.56069 -26.85456,-19.44981 c -0.96225,-0.69649 -2.26293,-0.69649 -3.22518,0 l -26.88747,19.44981 10.2021,-31.56069 c 0.35685,-1.13348 -0.0546,-2.36796 -1.02021,-3.06063 l -26.82165,-19.54854 33.20619,-0.0658 c 1.18792,-0.008 2.23644,-0.7778 2.59989,-1.90878 l 10.33374,-31.52778 z"
       id="path4949"
       style="fill:none;stroke:url(#linearGradient4966);stroke-width:3.5;stroke-linecap:round;stroke-linejoin:round;stroke-miterlimit:4;stroke-opacity:1;stroke-dasharray:none;stroke-dashoffset:0"
       inkscape:connector-curvature="0" />
    <path
       d="M 62.366952,14.307739 74.640871,51.850021 114.13855,51.92201 82.22657,75.196404 94.363559,112.78318 62.36695,89.625261 30.370341,112.78318 42.507332,75.196403 10.595351,51.922008 50.093032,51.85002 62.366952,14.307739 z"
       transform="matrix(1.05312,0,0,1.05312,641.88058,615.71535)"
       id="path4438"
       style="fill:url(#linearGradient4982);fill-opacity:1;fill-rule:evenodd;stroke:url(#linearGradient4974);stroke-width:5.22257662;stroke-linecap:round;stroke-linejoin:round;stroke-miterlimit:4;stroke-opacity:1;stroke-dasharray:none;stroke-dashoffset:0"
       inkscape:connector-curvature="0" />
    <path
       d="m 63,32.3125 -5.6875,17.40625 -3.09375,5.15625 -5.78125,1.3125 -18.375,0.03125 14.8125,10.8125 3.9375,4.5 0,0.15625 c 4.620679,1.016146 9.419264,1.5625 14.34375,1.5625 4.816871,0 9.503901,-0.526628 14.03125,-1.5 L 77.15625,71.53125 81.0625,67.0625 95.9375,56.21875 77.53125,56.1875 71.75,54.875 68.71875,49.8125 63,32.3125 z"
       transform="translate(644.57141,619.79077)"
       id="path4955"
       style="fill:url(#linearGradient4990);fill-opacity:1;fill-rule:evenodd;stroke:none"
       inkscape:connector-curvature="0" />
  </g>
</svg>
