<?xml version="1.0" encoding="UTF-8" standalone="no"?>
<svg
   xmlns:dc="http://purl.org/dc/elements/1.1/"
   xmlns:cc="http://creativecommons.org/ns#"
   xmlns:rdf="http://www.w3.org/1999/02/22-rdf-syntax-ns#"
   xmlns:svg="http://www.w3.org/2000/svg"
   xmlns="http://www.w3.org/2000/svg"
   xmlns:xlink="http://www.w3.org/1999/xlink"
   xmlns:sodipodi="http://sodipodi.sourceforge.net/DTD/sodipodi-0.dtd"
   xmlns:inkscape="http://www.inkscape.org/namespaces/inkscape"
   width="128pt"
   height="128pt"
   viewBox="0 0 128 128"
   version="1.1"
   id="svg3159"
   inkscape:version="0.48.3.1 r9886"
   sodipodi:docname="Nuvola_filesystems_services.svg">
  <metadata
     id="metadata3200">
    <rdf:RDF>
      <cc:Work
         rdf:about="">
        <dc:format>image/svg+xml</dc:format>
        <dc:type
           rdf:resource="http://purl.org/dc/dcmitype/StillImage" />
        <dc:title></dc:title>
      </cc:Work>
    </rdf:RDF>
  </metadata>
  <sodipodi:namedview
     pagecolor="#ffffff"
     bordercolor="#666666"
     borderopacity="1"
     objecttolerance="10"
     gridtolerance="10"
     guidetolerance="10"
     inkscape:pageopacity="0"
     inkscape:pageshadow="2"
     inkscape:window-width="640"
     inkscape:window-height="480"
     id="namedview3198"
     showgrid="false"
     inkscape:zoom="1.475"
     inkscape:cx="62.697014"
     inkscape:cy="107.11647"
     inkscape:window-x="174"
     inkscape:window-y="507"
     inkscape:window-maximized="0"
     inkscape:current-layer="svg3159" />
  <defs
     id="defs3161">
    <linearGradient
       id="linear0"
       gradientUnits="userSpaceOnUse"
       x1="-404.175781"
       y1="769.785156"
       x2="-290.367188"
       y2="769.785156"
       gradientTransform="translate(410.7727,-706.2849)">
      <stop
         offset="0"
         style="stop-color:rgb(79.607843%,0%,0%);stop-opacity:1;"
         id="stop3164" />
      <stop
         offset="1"
         style="stop-color:rgb(48.627451%,0%,0%);stop-opacity:1;"
         id="stop3166" />
    </linearGradient>
    <linearGradient
       id="linear1"
       gradientUnits="userSpaceOnUse"
       x1="-347.273438"
       y1="717.921875"
       x2="-347.273438"
       y2="821.648438"
       gradientTransform="translate(410.7727,-706.2849)">
      <stop
         offset="0.2802"
         style="stop-color:rgb(100%,100%,81.176471%);stop-opacity:1;"
         id="stop3169" />
      <stop
         offset="1"
         style="stop-color:rgb(100%,70.196078%,0%);stop-opacity:1;"
         id="stop3171" />
    </linearGradient>
    <linearGradient
       id="linear2"
       gradientUnits="userSpaceOnUse"
       x1="-144.933594"
       y1="180.035156"
       x2="-144.933594"
       y2="87.160156"
       gradientTransform="matrix(1,0,0,-1,208.4328,197.4036)">
      <stop
         offset="0.1703"
         style="stop-color:rgb(100%,100%,100%);stop-opacity:1;"
         id="stop3174" />
      <stop
         offset="0.61"
         style="stop-color:rgb(100%,76.470588%,4.313725%);stop-opacity:1;"
         id="stop3176" />
      <stop
         offset="1"
         style="stop-color:rgb(100%,100%,100%);stop-opacity:1;"
         id="stop3178" />
    </linearGradient>
    <linearGradient
       id="linear3"
       gradientUnits="userSpaceOnUse"
       x1="-144.933594"
       y1="183.269531"
       x2="-144.933594"
       y2="84.542969"
       gradientTransform="matrix(1,0,0,-1,208.4328,197.4036)">
      <stop
         offset="0.1703"
         style="stop-color:rgb(100%,100%,100%);stop-opacity:1;"
         id="stop3181" />
      <stop
         offset="0.61"
         style="stop-color:rgb(100%,65.882353%,0%);stop-opacity:1;"
         id="stop3183" />
      <stop
         offset="1"
         style="stop-color:rgb(100%,100%,100%);stop-opacity:1;"
         id="stop3185" />
    </linearGradient>
    <linearGradient
       inkscape:collect="always"
       xlink:href="#linear0"
       id="linearGradient3215"
       gradientUnits="userSpaceOnUse"
       gradientTransform="translate(410.7727,-706.2849)"
       x1="-404.175781"
       y1="769.785156"
       x2="-290.367188"
       y2="769.785156" />
    <linearGradient
       inkscape:collect="always"
       xlink:href="#linear1"
       id="linearGradient3217"
       gradientUnits="userSpaceOnUse"
       gradientTransform="translate(410.7727,-706.2849)"
       x1="-347.273438"
       y1="717.921875"
       x2="-347.273438"
       y2="821.648438" />
    <linearGradient
       inkscape:collect="always"
       xlink:href="#linear2"
       id="linearGradient3219"
       gradientUnits="userSpaceOnUse"
       gradientTransform="matrix(1,0,0,-1,208.4328,197.4036)"
       x1="-144.933594"
       y1="180.035156"
       x2="-144.933594"
       y2="87.160156" />
    <linearGradient
       inkscape:collect="always"
       xlink:href="#linear3"
       id="linearGradient3221"
       gradientUnits="userSpaceOnUse"
       gradientTransform="matrix(1,0,0,-1,208.4328,197.4036)"
       x1="-144.933594"
       y1="183.269531"
       x2="-144.933594"
       y2="84.542969" />
    <linearGradient
       inkscape:collect="always"
       xlink:href="#linear3"
       id="linearGradient3224"
       gradientUnits="userSpaceOnUse"
       gradientTransform="matrix(1,0,0,-1,208.4328,197.4036)"
       x1="-144.933594"
       y1="183.269531"
       x2="-144.933594"
       y2="84.542969" />
    <linearGradient
       inkscape:collect="always"
       xlink:href="#linear2"
       id="linearGradient3227"
       gradientUnits="userSpaceOnUse"
       gradientTransform="matrix(1,0,0,-1,208.4328,197.4036)"
       x1="-144.933594"
       y1="180.035156"
       x2="-144.933594"
       y2="87.160156" />
    <linearGradient
       inkscape:collect="always"
       xlink:href="#linear1"
       id="linearGradient3230"
       gradientUnits="userSpaceOnUse"
       gradientTransform="translate(410.7727,-706.2849)"
       x1="-347.273438"
       y1="717.921875"
       x2="-347.273438"
       y2="821.648438" />
    <linearGradient
       inkscape:collect="always"
       xlink:href="#linear0"
       id="linearGradient3233"
       gradientUnits="userSpaceOnUse"
       gradientTransform="translate(410.7727,-706.2849)"
       x1="-404.175781"
       y1="769.785156"
       x2="-290.367188"
       y2="769.785156" />
    <linearGradient
       inkscape:collect="always"
       xlink:href="#linear0"
       id="linearGradient3242"
       gradientUnits="userSpaceOnUse"
       gradientTransform="translate(410.7727,-706.2849)"
       x1="-404.175781"
       y1="769.785156"
       x2="-290.367188"
       y2="769.785156" />
    <linearGradient
       inkscape:collect="always"
       xlink:href="#linear1"
       id="linearGradient3244"
       gradientUnits="userSpaceOnUse"
       gradientTransform="translate(410.7727,-706.2849)"
       x1="-347.273438"
       y1="717.921875"
       x2="-347.273438"
       y2="821.648438" />
    <linearGradient
       inkscape:collect="always"
       xlink:href="#linear2"
       id="linearGradient3246"
       gradientUnits="userSpaceOnUse"
       gradientTransform="matrix(1,0,0,-1,208.4328,197.4036)"
       x1="-144.933594"
       y1="180.035156"
       x2="-144.933594"
       y2="87.160156" />
    <linearGradient
       inkscape:collect="always"
       xlink:href="#linear3"
       id="linearGradient3248"
       gradientUnits="userSpaceOnUse"
       gradientTransform="matrix(1,0,0,-1,208.4328,197.4036)"
       x1="-144.933594"
       y1="183.269531"
       x2="-144.933594"
       y2="84.542969" />
  </defs>
  <g
     id="g3236"
     transform="matrix(1.1241731,0,0,1.1845647,-7.3438087,-10.906654)">
    <path
       style="fill:url(#linearGradient3242);fill-rule:nonzero;stroke:none"
       d="m 95.574219,117.86328 c -1.027344,0 -2.058594,-0.3164 -2.9375,-0.95312 L 63.5,95.738281 34.359375,116.91016 c -0.875,0.63672 -1.910156,0.95703 -2.9375,0.95703 -1.03125,0 -2.0625,-0.32031 -2.9375,-0.95703 -1.753906,-1.27344 -2.488281,-3.53125 -1.820313,-5.58985 L 37.796875,77.0625 8.65625,55.890625 c -1.75,-1.273437 -2.484375,-3.53125 -1.816406,-5.589844 0.671875,-2.0625 2.589844,-3.457031 4.757812,-3.457031 l 36.015625,0 11.128907,-34.253906 c 0.671874,-2.0625 2.59375,-3.453125 4.757812,-3.453125 2.167969,0 4.085938,1.394531 4.757812,3.453125 l 11.128907,34.253906 36.015621,0 c 2.16797,0 4.08594,1.394531 4.75782,3.457031 0.66797,2.058594 -0.0625,4.316407 -1.81641,5.589844 L 89.203125,77.0625 100.33594,111.32031 c 0.66797,2.0586 -0.0664,4.31641 -1.820315,5.58985 -0.875,0.63672 -1.90625,0.95312 -2.941406,0.95312 z m 0,0"
       id="path3190"
       inkscape:connector-curvature="0" />
    <path
       style="fill:url(#linearGradient3244);fill-rule:nonzero;stroke:none"
       d="m 95.574219,115.36328 c -0.515625,0 -1.027344,-0.16015 -1.464844,-0.47656 L 63.496094,92.644531 32.890625,114.88281 c -0.4375,0.31641 -0.953125,0.47657 -1.46875,0.47657 -0.519531,0 -1.03125,-0.16016 -1.46875,-0.47657 -0.878906,-0.63672 -1.246094,-1.76562 -0.910156,-2.79297 L 40.734375,76.105469 10.128906,53.863281 C 9.25,53.230469 8.882812,52.101562 9.21875,51.070312 9.554688,50.042969 10.511719,49.34375 11.597656,49.34375 l 37.832032,0 11.691406,-35.980469 c 0.335937,-1.027343 1.292968,-1.726562 2.378906,-1.726562 1.082031,0 2.042969,0.699219 2.378906,1.726562 l 11.691406,35.980469 37.832028,0 c 1.08594,0 2.04297,0.699219 2.37891,1.726562 0.33594,1.03125 -0.0273,2.160157 -0.91016,2.796876 L 86.261719,76.105469 97.953125,112.08984 c 0.335937,1.02735 -0.02734,2.15625 -0.90625,2.79297 -0.441406,0.31641 -0.953125,0.48047 -1.472656,0.48047 z m 0,0"
       id="path3192"
       inkscape:connector-curvature="0" />
    <path
       style="fill:url(#linearGradient3246);fill-rule:nonzero;stroke:none"
       d="m 33.320312,110.24219 11.300782,-34.781252 0.226562,-0.691407 -0.585937,-0.425781 -29.585938,-21.5 37.296875,0 0.222656,-0.691406 L 63.5,17.367188 l 11.300781,34.785156 0.222657,0.691406 37.300782,0 -29.589845,21.5 -0.585937,0.425781 0.222656,0.691407 L 93.679688,110.24219 64.085938,88.746094 63.5,88.320312 62.910156,88.746094 z m 0,0"
       id="path3194"
       inkscape:connector-curvature="0" />
    <path
       style="fill:url(#linearGradient3248);fill-rule:nonzero;stroke:none"
       d="m 63.5,14.136719 12.253906,37.707031 39.648434,0 L 83.324219,75.152344 95.578125,112.86328 63.5,89.554688 31.421875,112.86328 43.675781,75.152344 11.59375,51.84375 l 39.652344,0 L 63.5,14.136719 m 0,6.46875 -10.351562,31.859375 -0.449219,1.378906 -34.949219,0 27.101562,19.691406 1.171876,0.851563 -0.449219,1.382812 L 35.222656,107.625 62.320312,87.9375 63.496094,87.082031 64.675781,87.9375 91.773438,107.625 81.421875,75.769531 80.972656,74.386719 82.152344,73.53125 109.25,53.84375 l -34.949219,0 -0.449219,-1.378906 z m 0,0"
       id="path3196"
       inkscape:connector-curvature="0" />
  </g>
</svg>
