<svg viewBox="0 0 759.25 759.125" xml:space="preserve" xmlns="http://www.w3.org/2000/svg"><defs><clipPath><path d="m5918.72,5008.6c0,251.6-89.44,466.85-266.36,642.78-176.91,176.91-392.15,266.35-644.75,266.35h-3941.22c-252.589,0-467.835-89.44-644.749-266.35-176.911-175.93-266.352-391.18-266.352-642.78v-3944.18c0-251.6 89.441-466.85 266.352-643.76s392.16-266.351 644.749-266.351h3941.22c252.6,0 467.84,89.441 644.75,266.351 176.92,176.91 266.36,392.16 266.36,643.76v3944.18z"></path></clipPath><radialGradient cx="0" cy="0" fx="0" fy="0" gradientTransform="matrix(377.232,0,0,-376.588,303.7,303.602)" gradientUnits="userSpaceOnUse" r="1"><stop offset="0" stop-color="#fff"></stop><stop offset="1" stop-color="#e9e9e9"></stop><stop offset="1" stop-color="#e9e9e9"></stop></radialGradient></defs><g transform="matrix(1.25,0,0,-1.25,0,759.125)"><g transform="matrix(1.46265,0,0,1.46265,-143.17659,-153.31484)"><path d="m352.548,496.338c-13.269,13.171-29.092,19.756-47.865,19.756s-34.793-6.585-47.963-19.756-19.853-29.191-19.853-47.864c0-18.576 6.683-34.597 19.853-47.766s29.191-19.756 47.963-19.756 34.596,6.585 47.865,19.756 19.853,29.19 19.853,47.766c0,18.673-6.585,34.694-19.853,47.864" fill="#bee4e2"></path><path d="m250.43,226.252c-3.342-.099-5.013-1.868-5.307-5.308v-106.737c.294-3.342 1.965-5.111 5.307-5.308h59.953c28.896,5.406 46.194,22.606 51.698,51.6v60.445c-.196,3.44-1.965,5.209-5.307,5.308h-106.344" fill="#6aa4dd"></path><path d="m362.474,249.152v53.369c-4.324,36.365-23.883,55.923-58.872,58.676h-183.596c-3.244-.099-5.013-1.868-5.21-5.21v-60.445c5.406-29.092 22.606-46.194 51.699-51.697h190.672c3.342.097 5.111,1.965 5.307,5.307" fill="#e05c23"></path><path d="m378.79,302.521v-53.467c.196-3.342 1.965-5.111 5.307-5.209h60.544c29.092,5.405 46.292,22.605 51.796,51.599v60.446c-.197,3.44-1.966,5.209-5.209,5.307h-53.664c-17.003-1.376-30.468-6.782-40.199-16.119-10.123-9.828-16.413-24.079-18.575-42.557" fill="#8cd6e9"></path></g></g></svg>
