<?xml version="1.0" encoding="UTF-8" standalone="no"?>
<svg
   xmlns:dc="http://purl.org/dc/elements/1.1/"
   xmlns:cc="http://creativecommons.org/ns#"
   xmlns:rdf="http://www.w3.org/1999/02/22-rdf-syntax-ns#"
   xmlns:svg="http://www.w3.org/2000/svg"
   xmlns="http://www.w3.org/2000/svg"
   xmlns:sodipodi="http://sodipodi.sourceforge.net/DTD/sodipodi-0.dtd"
   xmlns:inkscape="http://www.inkscape.org/namespaces/inkscape"
   width="500"
   height="500"
   id="svg2"
   version="1.1"
   inkscape:version="0.48.3.1 r9886"
   sodipodi:docname="violin.svg">
  <metadata
     id="metadata36">
    <rdf:RDF>
      <cc:Work
         rdf:about="">
        <dc:format>image/svg+xml</dc:format>
        <dc:type
           rdf:resource="http://purl.org/dc/dcmitype/StillImage" />
      </cc:Work>
    </rdf:RDF>
  </metadata>
  <defs
     id="defs34" />
  <sodipodi:namedview
     pagecolor="#ffffff"
     bordercolor="#666666"
     borderopacity="1"
     objecttolerance="10"
     gridtolerance="10"
     guidetolerance="10"
     inkscape:pageopacity="0"
     inkscape:pageshadow="2"
     inkscape:window-width="1391"
     inkscape:window-height="876"
     id="namedview32"
     showgrid="false"
     inkscape:zoom="1.3350176"
     inkscape:cx="41.848112"
     inkscape:cy="260.76362"
     inkscape:window-x="49"
     inkscape:window-y="24"
     inkscape:window-maximized="1"
     inkscape:current-layer="svg2" />
  <g
     id="g3082"
     transform="matrix(1.0030137,0,0,0.99850143,3.7538523,-2.2418351)">
    <path
       id="svg_3"
       stroke-miterlimit="10"
       d="m 99.727676,257.48288 -8.26324,2.38439 c 0.29629,3.91042 -0.95472,7.47113 -3.75303,10.93646 -2.83125,3.36997 -5.00404,4.26013 -13.1027,9.53762 -8.4937,5.27748 -25.08602,13.98849 -36.04884,22.47697 -11.126495,8.58296 -21.792998,17.67548 -28.8061552,28.64462 -7.045161,10.87287 -12.115046,23.08101 -12.510112,36.49724 -0.492893,13.6379 5.729234,31.79115 10.041927,43.90392 4.0822522,11.89023 9.3825672,20.25151 15.1438062,27.5319 5.728309,7.37575 11.949534,12.55874 19.027604,16.15123 -0.46089,3.49712 0.42797,6.32661 3.02876,8.83818 2.46819,2.51069 6.45258,4.3873 11.95135,5.8824 5.23358,6.77083 13.56176,12.65147 25.74447,18.12146 12.21383,5.43646 30.912194,12.74771 46.187704,14.33733 14.91244,1.55693 30.15683,0.25521 43.32446,-4.7688 12.97009,-5.08761 25.61279,-15.133 34.89658,-24.98856 9.12015,-9.8864 15.01304,-23.84313 20.34447,-33.44609 5.20157,-9.47401 6.91441,-17.61188 11.48953,-23.43073 4.47824,-5.84883 9.61303,-9.60119 15.53981,-11.38063 l 1.77682,-7.5674 c -3.52257,0.0318 -6.4846,-1.04827 -9.02043,-3.36995 -2.79832,-2.32082 -5.66157,-5.3402 -6.28708,-10.5223 -0.69316,-5.24743 -0.49382,-12.30351 2.63187,-20.2215 3.02875,-7.948 10.89878,-19.61392 15.86806,-26.51455 4.80748,-6.80258 9.12014,-10.77661 13.20148,-13.63875 3.75485,-2.85953 6.05844,-4.32285 10.46897,-3.36998 4.37945,0.98643 9.84349,4.03762 16.26314,9.28328 l 9.05335,-2.8295 c 0.16369,-3.78415 1.25104,-7.37573 3.12846,-10.90377 1.67806,-3.46621 2.99583,-5.81795 8.16263,-10.11164 5.23451,-4.16474 15.20879,-9.09164 22.94619,-15.41914 7.4722,-6.51648 16.6591,-14.8142 21.95943,-22.92114 5.03695,-8.23416 7.99986,-15.80065 8.88783,-25.3692 0.62549,-9.50755 -0.032,-20.25239 -4.24778,-30.74376 -4.24594,-10.33328 -11.02862,-20.76196 -20.6078,-31.28423 L 446.28763,69.557538 c 3.06075,-4.036687 6.32091,-8.202326 10.04009,-12.493358 3.59027,-4.357301 7.60576,-8.807293 11.91752,-13.479838 1.0215,0.603165 2.27156,0.413305 3.75302,-0.826584 1.41654,-1.177197 2.93091,-3.275463 4.80744,-6.295732 1.81065,2.765924 3.68626,3.815953 5.98984,3.49715 2.17556,-0.444214 6.32363,-3.497998 7.24452,-5.595397 0.75721,-2.0665 -0.0658,-4.19654 -2.46908,-6.644552 2.20572,-2.130058 3.32503,-4.037553 3.48965,-5.595389 0,-1.653185 -0.85686,-2.669639 -2.93091,-3.655218 3.26012,-1.049985 4.60898,-2.734097 3.91763,-5.182083 -0.72426,-2.47976 -5.49695,-8.4893463 -7.96604,-9.4113063 -2.63371,-0.890168 -5.07082,0.509555 -7.5719,4.19653 -1.74575,-1.747678 -3.22629,-2.416194 -4.93912,-2.224541 -1.74482,0.222535 -3.3909,1.430632 -5.06988,3.497106 -2.04112,-2.416177 -3.91765,-3.465314 -5.99077,-3.497998 -2.20665,0.03268 -5.03696,1.939305 -6.22212,3.528906 -1.28301,1.6205023 -1.5482,4.3563923 -1.01966,6.0078373 0.36032,1.559532 1.64514,2.989325 3.61953,3.816766 -2.3365,1.239023 -3.88381,2.542506 -4.641,4.163899 -0.88979,1.558675 -0.98763,3.433513 -0.2972,5.373727 -0.032,-0.859259 -2.89708,1.335266 -8.59247,6.58096 -5.82615,5.308359 -14.22111,13.415344 -25.71063,24.828683 l -97.51294,95.121754 c -3.98347,-4.60985 -9.74653,-8.64567 -17.9101,-12.20727 -8.26235,-3.65695 -20.11492,-8.23414 -30.5839,-8.93356 -10.60161,-0.57137 -22.35359,1.55781 -31.70232,5.37196 -9.35059,3.68878 -16.9554,9.63389 -24.09932,17.10503 -7.47313,7.66187 -14.65001,20.76018 -19.48853,27.78533 -4.77359,6.77171 -5.62953,9.82375 -9.31672,12.93937 -4.04931,3.08382 -8.75706,5.08671 -14.38661,5.75435 l -2.04113,8.96534 c 5.00405,1.58961 8.23034,4.00581 9.81055,7.63011 1.41563,3.59249 2.23865,7.948 -0.72427,13.67056 -3.12751,5.75436 -10.3702,13.9567 -17.28369,20.06078 -7.14391,6.07227 -16.65819,12.7168 -24.85558,15.86421 -8.4608,3.08383 -18.27133,4.29193 -24.59224,2.38442 -6.35107,-2.00027 -10.76251,-6.6419 -13.231614,-14.17661 z"
       clip-rule="evenodd"
       inkscape:connector-curvature="0"
       style="fill-rule:evenodd;stroke:#000000;stroke-width:0.04575228;stroke-miterlimit:10" />
    <path
       id="svg_4"
       stroke-miterlimit="10"
       d="m 318.14842,158.64193 c -2.73245,-3.08385 -6.84763,-6.04049 -12.34548,-9.12433 -5.72923,-3.11471 -11.85352,-7.43755 -20.8072,-9.15521 -9.18412,-1.74946 -22.84741,-2.92487 -32.85548,-0.82659 -10.04007,2.31992 -19.85063,8.424 -26.89671,13.89312 -7.2427,5.53182 -11.29202,12.04918 -15.83427,18.66104 -4.80738,6.67719 -8.03275,15.06941 -12.08302,20.37958 -4.24683,5.1185 -8.69123,8.3931 -12.18088,10.68211 -3.58842,2.32082 -6.32087,3.43354 -8.59248,3.211 l -1.15222,3.08383 c 3.72011,1.55781 6.32088,3.49712 8.29616,6.04048 1.81067,2.44798 3.35798,4.95956 2.73247,9.12431 -0.82303,4.41908 -2.30448,10.36421 -7.24268,16.84979 -5.23449,6.51736 -14.55122,15.64166 -22.97909,21.61857 -8.55954,5.91332 -19.4565,11.54051 -27.48931,13.32085 -8.09862,1.6532 -15.86806,-0.63583 -20.64165,-3.08382 -4.93819,-2.35262 -7.60484,-6.13587 -8.394954,-11.22257 l -3.061658,0.41328 c 1.94236,2.13006 0.55965,5.43644 -4.51022,10.26883 -5.23449,4.8006 -17.28369,12.55786 -25.87615,18.24863 -8.59247,5.5636 -17.6129,9.31506 -25.44818,15.54631 -8.164501,6.35838 -16.295139,12.93847 -22.518185,22.06365 -6.353821,9.12432 -11.2590848,19.83824 -14.9792128,32.39607 9.8764038,-1.20808 20.0161688,-0.12715 30.5509908,3.11563 10.436057,3.33816 23.176607,7.185 32.098287,16.43648 8.85583,9.25148 15.34133,21.87292 20.34536,38.46835 2.10698,-8.01158 5.36618,-16.3729 10.04101,-26.292 4.444382,-9.82373 12.674712,-25.33824 17.448302,-31.98278 4.54314,-6.48558 7.37438,-7.43933 11.16032,-7.15321 3.65427,0.34971 6.84764,4.64165 11.35786,8.42489 4.44437,3.65608 10.83202,9.44312 15.11087,13.44802 3.95148,3.9431 9.28291,7.12054 9.02046,10.4278 -0.46091,3.36995 -4.28068,5.21301 -11.19326,9.9191 -7.21067,4.79972 -20.44413,11.22259 -30.64975,18.40758 -10.37113,7.15233 -22.353562,16.56366 -30.090972,24.28825 -7.70176,7.75902 -11.42279,16.43736 -15.73549,21.61945 -4.51112,4.99048 -8.06573,8.10696 -10.89697,8.86997 1.11842,3.687 5.95786,7.53384 14.3857,11.92112 8.39586,4.3564 23.770102,11.1281 36.213452,14.17926 12.31349,3.05291 24.82269,5.59541 37.66197,4.06937 12.73964,-1.62228 27.81762,-7.0905 38.51707,-13.60784 10.3693,-6.58183 17.44922,-16.0223 24.26391,-25.40096 6.68209,-9.44314 12.27874,-22.98652 15.99978,-30.32959 3.48872,-7.24948 2.56694,-8.90267 5.23355,-12.94025 2.5688,-4.0049 7.24268,-8.45669 10.33638,-10.81018 2.83307,-2.28726 5.20247,-3.17833 6.97932,-2.79769 l 0.82396,-3.6552 c -3.02877,0.69942 -5.69539,-0.0954 -8.13247,-2.51244 -2.73158,-2.44713 -6.02462,-5.69079 -6.68306,-11.79487 -0.85503,-6.03959 -1.15132,-14.4009 3.06169,-24.00297 4.27979,-9.72836 15.77114,-25.65441 22.38742,-33.44434 6.38673,-7.75725 9.84255,-12.11363 16.36189,-12.685 6.45348,-0.44425 13.56356,2.6705 21.95853,9.69656 l 4.18193,-0.4124 c -0.59353,-4.83332 0.823,-9.3151 4.3456,-14.0521 3.52164,-4.67431 9.90931,-8.67922 16.59141,-13.73506 6.48733,-4.99134 15.70532,-10.58495 22.09203,-16.30752 6.12338,-5.66075 11.32405,-10.42866 15.1109,-17.9625 3.65428,-7.7272 7.17776,-17.55007 7.14486,-27.62816 -0.32833,-10.17258 -4.54408,-23.27087 -8.42879,-32.0455 -3.88561,-8.64653 -8.95551,-14.81593 -14.97827,-19.23503 l -94.48511,109.23829 c -1.64697,-3.37083 -4.34562,-6.86707 -7.86819,-10.96826 -3.75395,-4.13384 -8.42786,-8.96533 -13.49775,-13.03474 -5.10281,-3.91042 -10.63358,-7.47111 -16.72402,-10.55495 34.43569,-33.19087 68.93815,-66.38263 103.4397,-99.5735 z"
       clip-rule="evenodd"
       inkscape:connector-curvature="0"
       style="fill:#a16121;fill-rule:evenodd;stroke:#000000;stroke-width:0.04575228;stroke-miterlimit:10" />
    <path
       id="svg_5"
       stroke-miterlimit="10"
       d="m 165.15493,309.29406 c 0.75719,-1.81215 1.87649,-3.46533 3.35796,-4.70523 1.31685,-1.33527 2.79832,-3.71966 5.46494,-2.98844 2.63371,0.8266 6.28798,4.2919 10.07393,7.31214 3.62136,2.8613 7.539,6.00872 11.75291,10.20526 4.11425,4.35463 11.91661,12.08009 12.60794,15.41825 0.36396,3.21277 -2.89522,4.45266 -9.90931,3.84685 l -3.58843,-3.78327 c 1.18518,-0.57225 1.61406,-1.36616 1.15225,-2.76591 -0.72426,-1.33525 -1.25009,-2.22455 -4.11515,-5.1185 -2.89801,-3.05292 -10.10594,-10.26796 -12.77256,-12.33443 -2.83124,-1.9075 -3.95058,-1.46243 -3.62135,1.08093 -2.04111,-1.52601 -3.81888,-2.79771 -5.59661,-3.81505 -1.84361,-1.08093 -3.32598,-1.74767 -4.80652,-2.3526 z"
       clip-rule="evenodd"
       inkscape:connector-curvature="0"
       style="fill-rule:evenodd;stroke:#000000;stroke-width:0.04575228;stroke-miterlimit:10" />
    <path
       id="svg_6"
       stroke-miterlimit="10"
       d="m 202.51972,387.09005 5.20154,-0.63585 c 0.69045,-3.27547 1.94236,-5.11853 4.11517,-5.88152 1.97346,-0.76478 6.84764,-2e-5 8.26144,1.55604 1.2519,1.65405 1.54821,5.94597 -0.0979,7.98065 -1.77682,1.97201 -6.64921,4.00668 -10.30434,3.65611 -3.91767,-0.34974 -10.36932,-1.81126 -12.24677,-5.84975 -2.10695,-4.26012 -1.94143,-11.85754 0.88982,-18.72461 2.83123,-6.86708 10.92894,-15.45181 16.29511,-21.71485 5.33328,-6.16765 11.39169,-11.06275 15.14381,-15.19659 3.45672,-4.10118 5.16866,-7.02602 5.89295,-9.5058 0.69131,-2.44801 0.16552,-4.35463 -1.57934,-5.46736 l -3.55549,0.50867 c -1.67989,2.25636 -3.22631,3.43354 -4.77359,3.40176 -1.74575,-0.0327 -4.74159,-1.65409 -4.77451,-3.27546 -0.0978,-1.74768 1.61314,-5.05494 4.24684,-6.13587 2.47001,-0.98466 7.67158,-1.30259 10.66742,0.63672 2.89525,2.03293 6.35289,6.70723 6.45168,11.1899 -0.23138,4.41822 -3.02968,10.04542 -6.74797,15.29286 -3.98347,5.18211 -10.53573,10.42691 -15.73641,16.08677 -5.4,5.72166 -11.98518,12.71505 -14.94715,18.05701 -2.96111,5.40639 -3.68629,9.91821 -2.40234,14.02117 z"
       clip-rule="evenodd"
       inkscape:connector-curvature="0"
       style="fill-rule:evenodd;stroke:#000000;stroke-width:0.04575228;stroke-miterlimit:10" />
    <path
       id="svg_7"
       stroke-miterlimit="10"
       d="m 113.53338,304.39896 0.65844,-5.02314 c 3.32505,-0.7312 5.23447,-1.93932 6.09044,-3.974 0.69135,-2.0029 -0.0988,-6.70812 -1.61314,-7.97979 -1.81069,-1.30349 -6.22215,-1.55781 -8.26325,0.0954 -2.1399,1.62141 -4.24686,6.32662 -3.78596,9.95091 0.26338,3.68789 1.77774,9.91911 6.05753,11.82665 4.31268,1.9393 12.2138,1.81214 19.39067,-0.8584 7.01222,-2.82949 15.90099,-10.65033 22.48525,-15.73704 6.28797,-5.2457 11.35786,-11.09543 15.73638,-14.62434 4.181,-3.40174 7.20977,-5.05495 9.84346,-5.69077 2.50203,-0.69943 4.4444,-0.22256 5.69539,1.55779 l -0.52674,3.43356 c -2.43616,1.52602 -3.62134,3.05203 -3.55549,4.57805 -0.0659,1.58959 1.64607,4.51445 3.39088,4.60983 1.74486,0.0318 5.13574,-1.65318 6.35383,-4.10117 0.9218,-2.47976 1.25101,-7.5029 -0.65842,-10.30062 -2.17282,-2.86127 -7.01226,-6.19945 -11.58831,-6.23124 -4.67484,0.12717 -10.5019,2.8295 -15.83516,6.51738 -5.43202,3.78325 -10.89695,10.07807 -16.65819,15.19659 -6.02461,5.11851 -13.26728,11.47693 -18.6993,14.43358 -5.62954,2.82948 -10.30346,3.52803 -14.51831,2.32081 z"
       clip-rule="evenodd"
       inkscape:connector-curvature="0"
       style="fill-rule:evenodd;stroke:#000000;stroke-width:0.04575228;stroke-miterlimit:10" />
    <path
       id="svg_8"
       stroke-miterlimit="10"
       d="m 122.98181,359.68532 50.33669,-56.87595 255.60111,-250.330433 1.84269,2.162715 -255.86358,249.693728 -50.56715,56.65339 -1.34976,-1.30345 0,0 z"
       clip-rule="evenodd"
       inkscape:connector-curvature="0"
       style="fill-rule:evenodd;stroke:#000000;stroke-width:0.04575228;stroke-miterlimit:10" />
    <path
       id="svg_9"
       stroke-miterlimit="10"
       d="m 123.67315,359.39918 49.38197,-55.57248 36.77312,-35.89321 218.89383,-214.627987 1.28394,1.367067 -67.5875,65.71414 -188.44069,184.20214 -49.67825,55.79502 -0.62643,-0.98468 z"
       clip-rule="evenodd"
       inkscape:connector-curvature="0"
       style="fill:#ffffff;fill-rule:evenodd;stroke:#000000;stroke-width:0.04575228;stroke-miterlimit:10" />
    <path
       id="svg_10"
       stroke-miterlimit="10"
       d="M 150.07605,386.61139 205.9106,334.59963 443.24128,66.180401 441.5614,64.814227 204.19963,333.20343 l -55.1103,52.32969 0.98672,1.07827 z"
       clip-rule="evenodd"
       inkscape:connector-curvature="0"
       style="fill-rule:evenodd;stroke:#000000;stroke-width:0.04575228;stroke-miterlimit:10" />
    <path
       id="svg_11"
       stroke-miterlimit="10"
       d="m 150.07697,386.04179 54.81309,-51.09068 33.97479,-38.40477 203.75001,-230.269679 -1.08731,-0.793927 -63.17419,71.880026 -174.31928,196.76176 -54.18849,51.31234 0.23138,0.60493 z"
       clip-rule="evenodd"
       inkscape:connector-curvature="0"
       style="fill:#ffffff;fill-rule:evenodd;stroke:#000000;stroke-width:0.04575228;stroke-miterlimit:10" />
    <path
       id="svg_12"
       stroke-miterlimit="10"
       d="m 140.62762,375.77207 55.83457,-52.01175 241.8729,-260.408526 -1.58022,-1.398841 -242.00462,260.408537 -55.11029,52.32968 0.98763,1.08092 z"
       clip-rule="evenodd"
       inkscape:connector-curvature="0"
       style="fill-rule:evenodd;stroke:#000000;stroke-width:0.04575228;stroke-miterlimit:10" />
    <path
       id="svg_13"
       stroke-miterlimit="10"
       d="m 140.62672,375.13535 54.84691,-51.058 242.20304,-260.598379 -0.98858,-0.698533 -242.13532,260.471202 -54.18851,51.31232 0.26246,0.57139 z"
       clip-rule="evenodd"
       inkscape:connector-curvature="0"
       style="fill:#ffffff;fill-rule:evenodd;stroke:#000000;stroke-width:0.04575228;stroke-miterlimit:10" />
    <path
       id="svg_14"
       stroke-miterlimit="10"
       d="M 132.76035,367.3463 186.78423,313.9675 434.02332,59.058995 432.60679,57.629237 185.10432,312.6013 l -53.39837,53.79213 1.0544,0.95287 z"
       clip-rule="evenodd"
       inkscape:connector-curvature="0"
       style="fill-rule:evenodd;stroke:#000000;stroke-width:0.04575228;stroke-miterlimit:10" />
    <path
       id="svg_15"
       stroke-miterlimit="10"
       d="M 132.82528,366.83851 185.76277,314.31807 433.26616,59.090761 432.47604,58.327743 184.9068,313.49147 l -52.64118,52.743 0.55966,0.60404 z"
       clip-rule="evenodd"
       inkscape:connector-curvature="0"
       style="fill:#ffffff;fill-rule:evenodd;stroke:#000000;stroke-width:0.04575228;stroke-miterlimit:10" />
    <path
       id="svg_16"
       stroke-miterlimit="10"
       d="m 125.58259,354.75754 c -0.49382,0.54047 -1.15225,1.17631 -1.8436,2.03469 -0.75719,0.92197 -1.67898,1.93932 -2.6337,3.17921 -0.79011,0.0636 -1.38271,0.38149 -1.64608,0.82658 -0.36213,0.47688 -0.39504,1.20812 -0.23044,1.81216 0.0658,0.57225 -0.0988,1.43064 0.65843,1.71677 0.52674,0.31791 1.44855,0.38151 2.7654,0.19076 -0.46091,0.38149 -1.25102,0.57224 -1.84362,0.57224 -0.88887,-0.0318 -1.90942,1e-5 -2.43616,-0.50867 -0.69135,-0.47688 -0.69135,-1.74856 -0.65843,-2.47977 -0.0658,-0.82661 0.29629,-1.30348 0.85596,-1.90753 0.39505,-0.50867 1.38269,-0.82659 2.33742,-1.04913 1.51438,-1.46243 3.0946,-2.92487 4.67483,-4.3873 z"
       clip-rule="evenodd"
       inkscape:connector-curvature="0"
       style="fill:#ffffff;fill-rule:evenodd;stroke:#000000;stroke-width:0.04575228;stroke-miterlimit:10" />
    <path
       id="svg_17"
       stroke-miterlimit="10"
       d="m 133.35201,362.00612 c -0.52674,0.50867 -1.0864,1.23989 -1.81066,2.06649 -0.75719,0.92197 -1.67899,1.93931 -2.63371,3.1792 -0.85596,0.0636 -1.31686,0.31791 -1.64606,0.76302 -0.2963,0.47687 -0.55967,1.1763 -0.26337,1.84393 0.0658,0.57225 -0.0988,1.43064 0.65843,1.71677 0.52672,0.31791 1.44853,0.3815 2.76538,0.19075 -0.49382,0.34971 -1.18516,0.63585 -1.81068,0.60404 -0.79011,0.0636 -2.0082,-0.0318 -2.40325,-0.54045 -0.62551,-0.47688 -0.82304,-1.74858 -0.72426,-2.47978 -0.0329,-0.73122 0.36213,-1.36706 0.92179,-1.90753 0.4609,-0.50867 1.2181,-0.85837 2.27157,-1.04913 1.51438,-1.46244 3.09461,-2.92487 4.67483,-4.3873 z"
       clip-rule="evenodd"
       inkscape:connector-curvature="0"
       style="fill:#ffffff;fill-rule:evenodd;stroke:#000000;stroke-width:0.04575228;stroke-miterlimit:10" />
    <path
       id="svg_18"
       stroke-miterlimit="10"
       d="m 141.38482,370.90789 c -0.52674,0.38151 -1.18608,1.08005 -1.97619,1.84306 -0.85596,0.82659 -1.77684,1.78124 -2.89617,2.98932 -0.82487,0.03 -1.3836,0.25347 -1.67991,0.66675 -0.42706,0.47777 -0.52674,1.2081 -0.42706,1.81304 -0.0338,0.53957 -0.16461,1.49422 0.49383,1.74856 0.52674,0.38151 1.4147,0.476 2.7983,0.41329 -0.6255,0.28613 -1.21809,0.47687 -1.91036,0.44419 -0.88795,-0.0945 -1.97345,-0.12539 -2.3694,-0.69852 -0.62552,-0.60406 -0.52583,-1.77948 -0.46,-2.54248 0.0658,-0.63585 0.32922,-1.39885 1.01966,-1.81302 0.59166,-0.3824 1.31684,-0.82662 2.40326,-0.85839 1.64696,-1.33617 3.29305,-2.66965 5.00403,-4.0058 z"
       clip-rule="evenodd"
       inkscape:connector-curvature="0"
       style="fill:#ffffff;fill-rule:evenodd;stroke:#000000;stroke-width:0.04575228;stroke-miterlimit:10" />
    <path
       id="svg_19"
       stroke-miterlimit="10"
       d="m 151.42674,381.94061 c -0.62735,0.28435 -1.28484,0.98468 -2.20666,1.6205 -0.98853,0.69856 -2.0411,1.52604 -3.29213,2.60695 -0.88795,-0.0945 -1.31683,0.12719 -1.77682,0.44598 -0.46182,0.38062 -0.7252,1.08004 -0.65935,1.71589 -0.0988,0.54046 -0.29629,1.43064 0.29631,1.81215 0.49472,0.35059 1.31684,0.763 2.69953,0.763 -0.59258,0.25434 -1.31594,0.31881 -1.90944,0.19074 -0.85595,-0.19074 -1.91034,-0.31879 -2.27248,-0.98642 -0.49381,-0.66764 -0.42797,-1.81215 -0.16369,-2.57427 0.1646,-0.60405 0.55876,-1.36794 1.28394,-1.68499 0.59258,-0.25432 1.4147,-0.6685 2.46818,-0.54134 1.81067,-1.11272 3.65608,-2.25724 5.53261,-3.36819 z"
       clip-rule="evenodd"
       inkscape:connector-curvature="0"
       style="fill:#ffffff;fill-rule:evenodd;stroke:#000000;stroke-width:0.04575228;stroke-miterlimit:10" />
    <path
       id="svg_20"
       stroke-miterlimit="10"
       d="m 420.13053,57.151465 -11.3917,-10.808399 c -1.05256,0.253445 -1.64422,-0.0018 -2.0082,-0.286128 -0.26337,-0.381504 -0.42706,-0.922852 9.3e-4,-1.84483 -0.65935,-1.01647 -1.48147,-1.303482 -2.23956,-1.334391 -0.98766,0.0636 -1.54732,1.303491 -2.79742,1.620537 -1.44853,0.381496 -3.52349,0.668507 -5.07078,8.66e-4 -1.77776,-0.699416 -3.78504,-2.130949 -4.60806,-4.642528 -0.9218,-2.670531 -1.18519,-7.757256 -0.29632,-10.58672 0.72337,-2.796816 2.40237,-4.354652 4.87146,-5.530939 2.3374,-0.985571 6.35473,-1.622277 9.25087,-0.92196 2.6008,0.604031 5.92583,2.606929 6.9464,4.80057 0.82395,2.319953 -1.41559,6.898871 -1.38176,8.582965 -0.0659,1.526035 0.36212,1.939332 1.28299,0.986445 0.39508,-0.06358 0.82398,0.158068 1.15226,0.540473 0.23137,0.412405 0.49382,1.049137 0.65935,2.033781 l 11.15941,10.587646 c -1.84359,2.225443 -3.68717,4.514469 -5.52987,6.802612 z"
       clip-rule="evenodd"
       inkscape:connector-curvature="0"
       style="fill-rule:evenodd;stroke:#000000;stroke-width:0.04575228;stroke-miterlimit:10" />
    <path
       id="svg_21"
       stroke-miterlimit="10"
       d="M 437.05208,39.793025 424.04816,27.235173 c -0.0338,-1.111829 -0.33013,-1.843054 -1.02148,-2.06559 -0.79103,-0.253453 -1.97527,-9e-6 -3.42382,0.635823 -0.39413,-2.226334 -1.35068,-4.29105 -2.99583,-6.580959 -1.71098,-2.162723 -6.09044,-4.99134 -6.91347,-6.676317 -1.08643,-1.81212 0.16461,-2.7659071 1.08731,-3.7205423 0.69135,-0.9855529 2.13989,-2.1936589 3.72012,-1.5578183 1.34887,0.9228608 2.69862,4.1338736 5.06897,5.9777846 2.27248,1.684095 5.23448,3.020234 8.88872,4.005805 -0.29445,0.856627 -0.26243,1.588736 -0.0329,2.066482 0.22954,0.477755 0.69226,0.857501 1.51438,1.017327 l 13.39899,12.939365 -5.2336,6.071395 -1.05347,0.445097 z"
       clip-rule="evenodd"
       inkscape:connector-curvature="0"
       style="fill-rule:evenodd;stroke:#000000;stroke-width:0.04575228;stroke-miterlimit:10" />
    <path
       id="svg_22"
       stroke-miterlimit="10"
       d="m 445.87408,64.528108 13.00483,12.558735 c 1.15134,-0.03268 1.81159,0.348829 2.10604,1.01647 0.19847,0.763875 0.0338,1.813029 -0.62456,3.273688 2.27337,0.349721 4.41144,1.273465 6.8156,2.893966 2.13807,1.557783 5.06897,5.785267 6.91255,6.675435 1.68084,1.050903 2.8651,-0.348821 3.82072,-1.01557 0.9218,-0.763018 2.17191,-2.162759 1.61315,-3.592526 -0.95562,-1.4951 -4.44437,-2.638712 -6.1563,-4.927738 -1.77684,-2.226334 -3.1266,-5.117661 -4.18099,-8.553831 -0.88888,0.224328 -1.67898,0.224301 -2.10516,0.0018 -0.56147,-0.224311 -0.92087,-0.700299 -1.08547,-1.431525 l -13.40172,-12.942005 -6.28979,4.993106 -0.4289,1.050029 z"
       clip-rule="evenodd"
       inkscape:connector-curvature="0"
       style="fill-rule:evenodd;stroke:#000000;stroke-width:0.04575228;stroke-miterlimit:10" />
    <path
       id="svg_23"
       stroke-miterlimit="10"
       d="m 458.35034,49.046272 11.19509,11.000034 c -0.29629,0.983786 -0.0339,1.556935 0.29628,1.939322 0.42797,0.28612 0.95381,0.414198 1.94145,0.03268 1.02149,0.603165 1.31869,1.397092 1.38359,2.160975 -0.13167,0.890176 -1.51436,1.335247 -1.71465,2.669656 -0.49291,1.304347 -0.78825,3.306362 0.002,4.895981 0.62551,1.621376 2.13987,3.590733 4.80743,4.449984 2.6648,0.793034 7.93221,1.050903 10.96098,0.284371 2.83125,-0.761243 4.41143,-2.414437 5.72832,-4.703463 0.98762,-2.416195 1.61311,-6.263022 0.98762,-8.963587 -0.65933,-2.671422 -2.83123,-5.724331 -5.00497,-6.678967 -2.33648,-0.921103 -7.27469,1.367923 -8.82107,1.337023 -1.74756,0.0309 -2.10788,-0.382387 -1.08824,-1.239898 0.0979,-0.477746 -0.16461,-0.858367 -0.52583,-1.145379 -0.46089,-0.317911 -1.21808,-0.476871 -2.1399,-0.604048 L 465.3937,43.703445 c -2.30083,1.780345 -4.67211,3.56159 -7.04336,5.342827 z"
       clip-rule="evenodd"
       inkscape:connector-curvature="0"
       style="fill-rule:evenodd;stroke:#000000;stroke-width:0.04575228;stroke-miterlimit:10" />
  </g>
</svg>
