<?xml version="1.0" encoding="UTF-8" standalone="no"?>
<!-- Created with Inkscape (http://www.inkscape.org/) -->

<svg
   xmlns:dc="http://purl.org/dc/elements/1.1/"
   xmlns:cc="http://creativecommons.org/ns#"
   xmlns:rdf="http://www.w3.org/1999/02/22-rdf-syntax-ns#"
   xmlns:svg="http://www.w3.org/2000/svg"
   xmlns="http://www.w3.org/2000/svg"
   xmlns:sodipodi="http://sodipodi.sourceforge.net/DTD/sodipodi-0.dtd"
   xmlns:inkscape="http://www.inkscape.org/namespaces/inkscape"
   id="svg2"
   version="1.1"
   inkscape:version="0.48+devel r12322"
   width="90"
   height="90"
   xml:space="preserve"
   sodipodi:docname="chevron.svg"><metadata
     id="metadata8"><rdf:RDF><cc:Work
         rdf:about=""><dc:format>image/svg+xml</dc:format><dc:type
           rdf:resource="http://purl.org/dc/dcmitype/StillImage" /><dc:title></dc:title></cc:Work></rdf:RDF></metadata><defs
     id="defs6"><clipPath
       clipPathUnits="userSpaceOnUse"
       id="clipPath16"><path
         d="m 0,595.28 841.89,0 L 841.89,0 0,0 0,595.28 Z"
         id="path18"
         inkscape:connector-curvature="0" /></clipPath></defs><sodipodi:namedview
     pagecolor="#ffffff"
     bordercolor="#666666"
     borderopacity="1"
     objecttolerance="10"
     gridtolerance="10"
     guidetolerance="10"
     inkscape:pageopacity="0"
     inkscape:pageshadow="2"
     inkscape:window-width="640"
     inkscape:window-height="480"
     id="namedview4"
     showgrid="false"
     fit-margin-top="0"
     fit-margin-left="0"
     fit-margin-right="0"
     fit-margin-bottom="0"
     inkscape:zoom="3.79254"
     inkscape:cx="-56.806994"
     inkscape:cy="96.710039"
     inkscape:current-layer="g10" /><g
     id="g10"
     inkscape:groupmode="layer"
     inkscape:label="chevron"
     transform="matrix(1.25,0,0,-1.25,-406.97987,423.35437)"><g
       id="g12"
       transform="matrix(0.54716981,0,0,0.54545455,172.23422,121.21977)"><g
         id="g14"
         clip-path="url(#clipPath16)"><g
           id="g20"
           transform="translate(358.7529,350.7095)"><path
             d="M 0.08234413,-0.04707909 C -3.7872386,6.7930863 -8.1560576,13.837137 -13.025115,21.088072 c -4.866051,7.248937 -10.085977,14.383937 -15.657776,21.400003 -1.493699,1.879947 -2.9884,3.705923 -4.486109,5.485925 l 0,-20.343595 c 3.055567,-4.021746 6.04898,-8.184412 8.972219,-12.50499 3.403428,-5.03018 6.597338,-10.1742961 9.588746,-15.43634617 C -11.61763,-5.5719818 -7.9465387,-12.998818 -5.6007295,-18.026 c -2.3458092,-5.026182 -6.0169005,-12.453019 -9.0073055,-17.715069 -2.991408,-5.26205 -6.185318,-10.406166 -9.588746,-15.435347 -2.923239,-4.321577 -5.916652,-8.484243 -8.972219,-12.505989 l 0,-20.343595 c 1.497709,1.780002 2.99241,3.606978 4.486109,5.485925 5.571799,7.017066 10.791725,14.151066 15.657776,21.400003 4.8690574,7.251934 9.2378764,14.294986 13.10745913,21.135151 C 3.9519268,-29.163756 7.0044862,-23.170116 9.231,-18.026 7.0044862,-12.881884 3.9519268,-6.8882439 0.08234413,-0.04707909"
             style="fill:#7f8183;fill-opacity:1;fill-rule:nonzero;stroke:none"
             id="path22"
             inkscape:connector-curvature="0" /></g></g></g></g></svg>