<svg id="svg3133" xmlns="http://www.w3.org/2000/svg" height="90" width="90" version="1.1">
<g id="layer1" transform="translate(4.2039e-7 -962.36)">
<g id="g4978" transform="matrix(.99934 0 0 1 -106.93 549)">
<g id="g4674" transform="matrix(1.0007 0 0 1 -155.17 -.0000026172)">
<rect id="rect4869" opacity="0.01" style="color:#000000" height="72" width="72" y="431.36" x="262" fill="none"/>
<path id="rect4871" style="color:#000000" d="m320.5 419.36c6.5 0 7.4996 0 7.4998 7l0.00021 10c0.00015 7-1 7-7.5 7s-7.5002 0-7.5-7l0.00021-10c0.00014-7 0.99979-7 7.4998-7z" fill="#808080"/>
<path id="rect4882" style="color:#000000" d="m262 428.36v6h45v-6zm72 0v6h18v-6z" fill="#808080"/>
<path id="path4887" style="color:#000000" d="m262 455.36v6h18v-6zm45 0v6h45v-6z" fill="#808080"/>
<path id="path4889" style="color:#000000" d="m262 482.36v6h45v-6zm72 0v6h18v-6z" fill="#808080"/>
<rect id="rect2993" style="color:#000000" height="90" width="90" y="413.36" x="262" fill="none"/>
<path id="path3775" style="color:#000000" d="m293.5 446.36c6.5 0 7.4996 0 7.4998 7l0.00021 10c0.00015 7-1 7-7.5 7s-7.5002 0-7.5-7l0.00021-10c0.00014-7 0.99979-7 7.4998-7z" fill="#808080"/>
<path id="path3777" style="color:#000000" d="m320.5 473.36c6.5 0 7.4996 0 7.4998 7l0.00021 10c0.00015 7-1 7-7.5 7s-7.5002 0-7.5-7l0.00021-10c0.00014-7 0.99979-7 7.4998-7z" fill="#808080"/>
</g>
</g>
</g>
</svg>
