<?xml version="1.0" encoding="UTF-8" standalone="no"?>
<!-- Created with Inkscape (http://www.inkscape.org/) -->

<svg
   xmlns:dc="http://purl.org/dc/elements/1.1/"
   xmlns:cc="http://creativecommons.org/ns#"
   xmlns:rdf="http://www.w3.org/1999/02/22-rdf-syntax-ns#"
   xmlns:svg="http://www.w3.org/2000/svg"
   xmlns="http://www.w3.org/2000/svg"
   xmlns:sodipodi="http://sodipodi.sourceforge.net/DTD/sodipodi-0.dtd"
   xmlns:inkscape="http://www.inkscape.org/namespaces/inkscape"
   width="90"
   height="90"
   id="svg3133"
   version="1.1"
   inkscape:version="0.48.3.1 r9886"
   sodipodi:docname="settings@30.svg">
  <defs
     id="defs3135" />
  <sodipodi:namedview
     id="base"
     pagecolor="#ffffff"
     bordercolor="#666666"
     borderopacity="1.0"
     inkscape:pageopacity="0.0"
     inkscape:pageshadow="2"
     inkscape:zoom="6.3664628"
     inkscape:cx="93.340685"
     inkscape:cy="27.377839"
     inkscape:document-units="px"
     inkscape:current-layer="g4674"
     showgrid="true"
     inkscape:window-width="1920"
     inkscape:window-height="1029"
     inkscape:window-x="0"
     inkscape:window-y="24"
     inkscape:window-maximized="1"
     fit-margin-top="0"
     fit-margin-left="0"
     fit-margin-right="0"
     fit-margin-bottom="0"
     showguides="true"
     inkscape:guide-bbox="true">
    <inkscape:grid
       type="xygrid"
       id="grid2992"
       empspacing="6"
       visible="true"
       enabled="true"
       snapvisiblegridlinesonly="true"
       originx="4.2039363e-07px"
       originy="0px" />
    <sodipodi:guide
       orientation="1,0"
       position="45,11"
       id="guide3763" />
    <sodipodi:guide
       orientation="0,1"
       position="48,45"
       id="guide3765" />
  </sodipodi:namedview>
  <metadata
     id="metadata3138">
    <rdf:RDF>
      <cc:Work
         rdf:about="">
        <dc:format>image/svg+xml</dc:format>
        <dc:type
           rdf:resource="http://purl.org/dc/dcmitype/StillImage" />
        <dc:title />
      </cc:Work>
    </rdf:RDF>
  </metadata>
  <g
     inkscape:label="Layer 1"
     inkscape:groupmode="layer"
     id="layer1"
     transform="translate(4.2039363e-7,-962.3622)">
    <g
       id="g4978"
       transform="matrix(0.99934414,0,0,1,-106.92982,549.00002)">
      <g
         id="g4674"
         transform="matrix(1.0006563,0,0,1,-155.17195,-2.6171874e-6)">
        <rect
           y="431.36218"
           x="262"
           height="72"
           width="72"
           id="rect4869"
           style="opacity:0.01000001;color:#000000;fill:none;stroke:none;stroke-width:2;marker:none;visibility:visible;display:inline;overflow:visible;enable-background:accumulate" />
        <path
           style="color:#000000;fill:#808080;fill-opacity:1;fill-rule:nonzero;stroke:none;stroke-width:3;marker:none;visibility:visible;display:inline;overflow:visible;enable-background:accumulate"
           d="m 320.5,419.36218 c 6.5,0 7.49965,0 7.49979,7 l 2.1e-4,10 c 1.5e-4,7 -1,7 -7.5,7 -6.5,0 -7.50015,0 -7.5,-7 l 2.1e-4,-9.99997 c 1.4e-4,-7.00003 0.99979,-7.00003 7.49979,-7.00003 z"
           id="rect4871"
           inkscape:connector-curvature="0"
           sodipodi:nodetypes="zsszssz" />
        <path
           style="color:#000000;fill:#808080;fill-opacity:1;fill-rule:nonzero;stroke:none;stroke-width:3;marker:none;visibility:visible;display:inline;overflow:visible;enable-background:accumulate"
           d="m 262,428.36218 0,6 45,0 0,-6 z m 72,0 0,6 18,0 0,-6 z"
           id="rect4882"
           inkscape:connector-curvature="0"
           sodipodi:nodetypes="cccccccccc" />
        <path
           id="path4887"
           d="m 262,455.36218 0,6 18,0 0,-6 z m 45,0 0,6 45,0 0,-6 z"
           style="color:#000000;fill:#808080;fill-opacity:1;fill-rule:nonzero;stroke:none;stroke-width:3;marker:none;visibility:visible;display:inline;overflow:visible;enable-background:accumulate"
           inkscape:connector-curvature="0"
           sodipodi:nodetypes="cccccccccc" />
        <path
           sodipodi:nodetypes="cccccccccc"
           inkscape:connector-curvature="0"
           style="color:#000000;fill:#808080;fill-opacity:1;fill-rule:nonzero;stroke:none;stroke-width:3;marker:none;visibility:visible;display:inline;overflow:visible;enable-background:accumulate"
           d="m 262,482.36218 0,6 45,0 0,-6 z m 72,0 0,6 18,0 0,-6 z"
           id="path4889" />
        <rect
           y="413.36218"
           x="262"
           height="90"
           width="90"
           id="rect2993"
           style="color:#000000;fill:none;stroke:none;stroke-width:11.80000019;marker:none;visibility:visible;display:inline;overflow:visible;enable-background:accumulate" />
        <path
           sodipodi:nodetypes="zsszssz"
           inkscape:connector-curvature="0"
           id="path3775"
           d="m 293.5,446.36218 c 6.5,0 7.49965,0 7.49979,7 l 2.1e-4,10 c 1.5e-4,7 -1,7 -7.5,7 -6.5,0 -7.50015,0 -7.5,-7 l 2.1e-4,-9.99997 c 1.4e-4,-7.00003 0.99979,-7.00003 7.49979,-7.00003 z"
           style="color:#000000;fill:#808080;fill-opacity:1;fill-rule:nonzero;stroke:none;stroke-width:3;marker:none;visibility:visible;display:inline;overflow:visible;enable-background:accumulate" />
        <path
           style="color:#000000;fill:#808080;fill-opacity:1;fill-rule:nonzero;stroke:none;stroke-width:3;marker:none;visibility:visible;display:inline;overflow:visible;enable-background:accumulate"
           d="m 320.5,473.36218 c 6.5,0 7.49965,0 7.49979,7 l 2.1e-4,10 c 1.5e-4,7 -1,7 -7.5,7 -6.5,0 -7.50015,0 -7.5,-7 l 2.1e-4,-9.99997 c 1.4e-4,-7.00003 0.99979,-7.00003 7.49979,-7.00003 z"
           id="path3777"
           inkscape:connector-curvature="0"
           sodipodi:nodetypes="zsszssz" />
      </g>
    </g>
  </g>
</svg>
