<svg xmlns="http://www.w3.org/2000/svg" viewBox="0 0 210 210">
<defs>
<linearGradient id="SVGID_1_" gradientUnits="userSpaceOnUse" x2="0" y2="80" y1="12.369">
<stop stop-color="#ccf8ff" offset="0"/>
<stop stop-color="#67d4ff" offset="1"/>
</linearGradient>
<linearGradient id="SVGID_2_" y2="-94.676" gradientUnits="userSpaceOnUse" y1="-165.47" gradientTransform="matrix(1 0 0 -1 -315.99 -16.6)" x2="419.8" x1="348.37">
<stop stop-color="#ebffff" offset="0"/>
<stop stop-color="#0ab2ff" offset="1"/>
</linearGradient>
<linearGradient id="SVGID_3_" y2="-105.51" gradientUnits="userSpaceOnUse" y1="-166.64" gradientTransform="matrix(1 0 0 -1 -315.99 -16.6)" x2="451.26" x1="478.94">
<stop stop-color="#a2ffff" offset="0"/>
<stop stop-color="#32c8ff" offset="1"/>
</linearGradient>
<linearGradient id="SVGID_5_" gradientUnits="userSpaceOnUse" x2="0" y2="5" y1="205">
<stop stop-color="#244d80" offset="0"/>
<stop stop-color="#0176c5" offset="1"/>
</linearGradient>
</defs>
<title>Nuvola apps package</title>
<path d="m105 12.369-90.093 33.091 90.093 34.54 90.093-34.54-90.093-33.091z" fill="url(#SVGID_1_)"/>
<path d="m14.907 45.46v119.32l90.093 32.85v-117.63l-90.093-34.54z" fill="url(#SVGID_2_)"/>
<path d="m195.09 45.46-90.093 34.54v117.63l90.093-32.85v-119.32z" fill="url(#SVGID_3_)"/>
<path stroke-linejoin="round" stroke="#fff" stroke-width="2.4" d="m14.907 45.46 90.093 34.54 90.093-34.54m-90.093 34.54v117.63" fill="none"/>
<path d="m197.48 38.966-90.097-33.091-2.384-0.875-2.385 0.875-90.092 33.091-4.533 1.665v128.99l4.549 1.658 90.089 32.851 2.372 0.865 2.37-0.865 90.094-32.851 4.55-1.658v-128.99l-4.533-1.665zm-2.387 125.82-90.094 32.851-90.093-32.851v-119.32l90.093-33.092 90.094 33.092v119.32z" fill="url(#SVGID_5_)"/>
</svg>
