<?xml version="1.0" encoding="UTF-8" standalone="no"?>
<svg id="svg1307" xmlns="http://www.w3.org/2000/svg" height="128" width="128" version="1.0" xmlns:xlink="http://www.w3.org/1999/xlink">
<defs id="defs1309">
<linearGradient id="linearGradient2928">
<stop id="stop2930" stop-color="#f6f6f6" offset="0"/>
<stop id="stop2932" stop-color="#f6f6f6" stop-opacity="0" offset="1"/>
</linearGradient>
<linearGradient id="linearGradient2905">
<stop id="stop2907" stop-color="#fff" offset="0"/>
<stop id="stop2909" stop-color="#fff" stop-opacity="0" offset="1"/>
</linearGradient>
<radialGradient id="radialGradient4433" gradientUnits="userSpaceOnUse" cy="115.71" cx="63.912" gradientTransform="matrix(1 0 0 .19780 0 92.822)" r="63.912">
<stop id="stop3293-0" stop-color="#43ACE8" offset="0"/>
<stop id="stop3295-3" stop-color="#43ACE8" stop-opacity="0" offset="1"/>
</radialGradient>
<linearGradient id="linearGradient4435" y2="68.546" gradientUnits="userSpaceOnUse" x2="8.878" gradientTransform="matrix(.97642 0 0 .97642 89.254 -30.605)" y1="68.546" x1="-36.688">
<stop id="stop2894-7" stop-color="#fff" offset="0"/>
<stop id="stop2896-3" stop-color="#fff" stop-opacity="0" offset="1"/>
</linearGradient>
<linearGradient id="linearGradient4437" y2="150.66" xlink:href="#linearGradient2905" gradientUnits="userSpaceOnUse" x2="-68.625" gradientTransform="matrix(.97642 0 0 .97642 188.53 -53.552)" y1="162.55" x1="-140.06"/>
<linearGradient id="linearGradient4439" y2="150.66" xlink:href="#linearGradient2905" gradientUnits="userSpaceOnUse" x2="-68.625" gradientTransform="matrix(-.97642 0 0 .97642 -58.973 -53.552)" y1="159.35" x1="-185.31"/>
<linearGradient id="linearGradient4441" y2="169.16" xlink:href="#linearGradient2928" gradientUnits="userSpaceOnUse" x2="75.186" gradientTransform="matrix(.97642 0 0 .97642 1.5136 .0095408)" y1="-217.56" x1="91.829"/>
<linearGradient id="linearGradient4443" y2="169.16" xlink:href="#linearGradient2928" gradientUnits="userSpaceOnUse" x2="75.186" gradientTransform="matrix(.97642 0 0 .97642 1.5136 .0095408)" y1="-92.147" x1="121.81"/>
<radialGradient id="radialGradient4445" gradientUnits="userSpaceOnUse" cy="140.99" cx="64.203" gradientTransform="matrix(1.3871 0 0 .91142 -24.324 10.49)" r="59.669">
<stop id="stop2820-1" stop-color="#fff" offset="0"/>
<stop id="stop2822-0" stop-color="#fff" stop-opacity="0" offset="1"/>
</radialGradient>
<radialGradient id="radialGradient4447" gradientUnits="userSpaceOnUse" cy="115.71" cx="63.912" gradientTransform="matrix(1 0 0 .19780 0 92.822)" r="63.912">
<stop id="stop3293" offset="0"/>
<stop id="stop3295" stop-opacity="0" offset="1"/>
</radialGradient>
<linearGradient id="linearGradient4449" y2="68.546" gradientUnits="userSpaceOnUse" x2="8.878" gradientTransform="matrix(.97642 0 0 .97642 89.254 -30.605)" y1="68.546" x1="-36.688">
<stop id="stop2894" stop-color="#fff" offset="0"/>
<stop id="stop2896" stop-color="#fff" stop-opacity="0" offset="1"/>
</linearGradient>
<linearGradient id="linearGradient4451" y2="150.66" xlink:href="#linearGradient2905" gradientUnits="userSpaceOnUse" x2="-68.625" gradientTransform="matrix(.97642 0 0 .97642 188.53 -53.552)" y1="162.55" x1="-140.06"/>
<linearGradient id="linearGradient4453" y2="150.66" xlink:href="#linearGradient2905" gradientUnits="userSpaceOnUse" x2="-68.625" gradientTransform="matrix(-.97642 0 0 .97642 -58.973 -53.552)" y1="159.35" x1="-185.31"/>
<radialGradient id="radialGradient4459" gradientUnits="userSpaceOnUse" cy="140.99" cx="64.203" gradientTransform="matrix(1.3871 0 0 .91142 -24.856 13.662)" r="59.669">
<stop id="stop2820" stop-color="#fff" offset="0"/>
<stop id="stop2822" stop-color="#fff" stop-opacity="0" offset="1"/>
</radialGradient>
</defs>
<g id="layer1">
<g id="g3972" transform="matrix(.74813 0 0 .74813 33.598 6.2562)">
<path id="path2876-4" d="m64.127 1.3826c-5.7004 0.072827-11.221 2.7577-15.745 9.0319-12.471 3.3415-15.686 21.062-16.782 33.382-1.3923 15.651 6.6159 25.489 17.515 29.72-0.15881 1.7764-0.55426 3.2895-1.0985 4.2108-2.0478 3.467-6.6974 6.4746-14.738 8.7573-8.9704 2.5467-16.085 5.0215-21.237 9.5507-4.5609 4.0097-7.5063 8.6462-7.5063 14.585 0 15.416 119.34 16.232 119.34 0 0.00001-5.9391-2.9454-10.576-7.5063-14.585-5.1-4.482-12.21-7.113-21.242-9.676-8.1-2.3-12.746-5.212-14.768-8.635-0.675-1.143-1.095-3.167-1.16-5.523 9.917-4.632 17.762-13.575 18.919-26.76 1.836-20.931-16.891-44.28-33.992-44.061z" stroke-opacity=".20732" stroke="#43ace8" stroke-width="1.9528" fill="#43ace8"/>
<path id="path2276-8" d="m50.893 3.2813v-2.7947 2.7947z" fill-opacity=".75688" fill="#fff"/>
<path id="path3289-7" opacity=".38140" d="m127.82 115.71c0 6.982-28.614 12.642-63.912 12.642-35.294 0-63.908-5.66-63.908-12.64 0-6.982 28.614-12.642 63.912-12.642s63.912 5.66 63.912 12.642z" transform="matrix(1 0 0 .41667 .26644 74.258)" fill="url(#radialGradient4433)"/>
<path id="path2375-0" d="m64.127 1.3826c-5.7004 0.072827-11.221 2.7577-15.745 9.0319-12.471 3.3415-15.686 21.062-16.782 33.382-1.3923 15.651 6.6159 25.489 17.515 29.72-0.15881 1.7764-0.55426 3.2895-1.0985 4.2108-2.0478 3.467-6.6974 6.4746-14.738 8.7573-8.9704 2.5467-16.085 5.0215-21.237 9.5507-4.5609 4.0097-7.5063 8.6462-7.5063 14.585 0 15.416 119.34 16.232 119.34 0 0.00001-5.9391-2.9454-10.576-7.5063-14.585-5.1-4.482-12.21-7.113-21.242-9.676-8.1-2.3-12.746-5.212-14.768-8.635-0.675-1.143-1.095-3.167-1.16-5.523 9.917-4.632 17.762-13.575 18.919-26.76 1.836-20.931-16.891-44.28-33.992-44.061z" fill="#43ace8"/>
<path id="path2878-8" d="m64.127 1.3826c-5.7004 0.072827-11.221 2.7577-15.745 9.0319-12.471 3.3415-15.686 21.062-16.782 33.382-1.3923 15.651 6.6159 25.489 17.515 29.72-0.15881 1.7764-0.55426 3.2895-1.0985 4.2108-2.0478 3.467-6.6974 6.4746-14.738 8.7573-8.9704 2.5467-16.085 5.0215-21.237 9.5507-4.5609 4.0097-7.5063 8.6462-7.5063 14.585 0 15.416 119.34 16.232 119.34 0 0.00001-5.9391-2.9454-10.576-7.5063-14.585-5.1-4.482-12.21-7.113-21.242-9.676-8.1-2.3-12.746-5.212-14.768-8.635-0.675-1.143-1.095-3.167-1.16-5.523 9.917-4.632 17.762-13.575 18.919-26.76 1.836-20.931-16.891-44.28-33.992-44.061z" fill="#43ace8"/>
<path id="path2882-6" d="m63.806 2.319c-3.601 0.046-7.123 1.1624-10.375 3.5395 2.947-1.8678 7.703-2.1105 10.896-1.8186 15.05 1.3757 34.238 22.173 32.403 43.103-0.909 10.362-5.947 18.101-12.877 23.19 7.479-5.064 12.989-13.063 13.944-23.953 1.836-20.93-16.89-44.28-33.991-44.061z" fill="url(#linearGradient4435)"/>
<path id="path2900-2" d="m79.147 75.901c-0.04709 0.02225-0.09802 0.03604-0.14522 0.05809 0.06127 2.2431 0.46091 4.1689 1.1037 5.2571 1.9245 3.2581 6.3475 6.0308 14.058 8.2197 8.5937 2.4398 15.366 4.944 20.215 9.2073 4.0003 3.5169 6.6883 7.5432 7.087 12.577 0.0254-0.16046 0.0581-0.32964 0.0581-0.49377 0-5.6534-2.8037-10.067-7.1451-13.884-4.85-4.263-11.62-6.767-20.216-9.207-7.711-2.188-12.134-4.961-14.058-8.219-0.469-0.794-0.786-2.031-0.959-3.515z" fill="url(#linearGradient4437)"/>
<path id="path2913-4" d="m50.41 75.901c0.04709 0.02225 0.09802 0.03604 0.14522 0.05809-0.06127 2.2431-0.46091 4.1689-1.1037 5.2571-1.9245 3.2581-6.3475 6.0308-14.058 8.2197-8.5937 2.4398-15.366 4.944-20.215 9.2073-4.0003 3.5169-6.6883 7.5432-7.087 12.577-0.025367-0.16046-0.058097-0.32964-0.058097-0.49377 0-5.6534 2.8037-10.067 7.1451-13.884 4.8494-4.2633 11.622-6.7675 20.215-9.2073 7.7103-2.189 12.133-4.9616 14.058-8.2197 0.46906-0.79411 0.78538-2.0306 0.95849-3.5144z" fill="url(#linearGradient4439)"/>
<path id="path2923-7" opacity=".19262" d="m64.127 1.3826c-5.7004 0.072827-11.221 2.7577-15.745 9.0319-12.471 3.3415-15.686 21.062-16.782 33.382-1.3923 15.651 6.6159 25.489 17.515 29.72-0.15881 1.7764-0.55426 3.2895-1.0985 4.2108-2.0478 3.467-6.6974 6.4746-14.738 8.7573-8.971 2.546-16.087 5.021-21.238 9.55-1.107 0.973-2.0933 1.995-2.9906 3.051 34.74 13.124 77.188-5.218 111.4 1.374-1.13-1.565-2.51-3.039-4.08-4.425-5.1-4.479-12.21-7.11-21.242-9.673-8.1-2.3-12.746-5.212-14.768-8.635-0.675-1.143-1.095-3.167-1.16-5.523 9.917-4.632 17.762-13.575 18.919-26.76 1.836-20.931-16.891-44.28-33.992-44.061z" fill="url(#linearGradient4441)"/>
<path id="path2936-9" opacity=".14754" d="m64.127 1.3826c-5.7004 0.072827-11.221 2.7577-15.745 9.0319-12.471 3.3415-15.686 21.062-16.782 33.382-1.009 11.343 2.9188 19.615 9.3065 24.929 5.592-25.64 19.346-45.543 41.009-59.837-5.48-4.6832-11.731-7.5838-17.789-7.5064zm27.462 19.009c-22.175 18.251-31.657 42.667-29.384 79.243 20.34-0.461 40.535-0.968 58.245 0.825-1.13-1.565-2.51-3.039-4.08-4.425-5.1-4.479-12.21-7.11-21.242-9.673-8.1-2.3-12.746-5.212-14.768-8.635-0.675-1.143-1.095-3.167-1.16-5.523 9.917-4.632 17.762-13.575 18.919-26.76 0.749-8.538-1.942-17.472-6.53-25.052z" fill="url(#linearGradient4443)"/>
<path id="path1928-3" opacity=".41803" d="m64.658-1.7895c-5.7 0.0728-11.221 2.7578-15.744 9.0319-12.471 3.3416-15.687 21.063-16.783 33.382-1.3923 15.651 6.6159 25.489 17.515 29.72-0.15881 1.7764-0.55426 3.2895-1.0985 4.2108-2.0478 3.467-6.6974 6.4746-14.738 8.7573-8.9704 2.5467-16.085 5.0215-21.237 9.5507-4.5609 4.0097-7.5063 8.6462-7.5063 14.585 0 15.416 119.34 16.232 119.34 0 0.00001-5.9391-2.9454-10.576-7.5063-14.585-5.1-4.479-12.21-7.11-21.24-9.673-8.1-2.3-12.747-5.212-14.769-8.635-0.675-1.144-1.095-3.167-1.159-5.523 9.916-4.632 17.762-13.575 18.918-26.76 1.84-20.931-16.89-44.28-33.992-44.062z" fill="url(#radialGradient4445)"/>
</g>
<g id="g4043" transform="matrix(.81216 0 0 .81216 -2.9537 22.876)">
<path id="path2876" d="m64.127 1.3826c-5.7004 0.072827-11.221 2.7577-15.745 9.0319-12.471 3.3415-15.686 21.062-16.782 33.382-1.3923 15.651 6.6159 25.489 17.515 29.72-0.15881 1.7764-0.55426 3.2895-1.0985 4.2108-2.0478 3.467-6.6974 6.4746-14.738 8.7573-8.9704 2.5467-16.085 5.0215-21.237 9.5507-4.5609 4.0097-7.5063 8.6462-7.5063 14.585 0 15.416 119.34 16.232 119.34 0 0.00001-5.9391-2.9454-10.576-7.5063-14.585-5.1-4.482-12.21-7.113-21.242-9.676-8.1-2.3-12.746-5.212-14.768-8.635-0.675-1.143-1.095-3.167-1.16-5.523 9.917-4.632 17.762-13.575 18.919-26.76 1.836-20.931-16.891-44.28-33.992-44.061z" stroke-opacity=".20732" stroke="#000" stroke-width="1.9528"/>
<path id="path2276" d="m50.893 3.2813v-2.7947 2.7947z" fill-opacity=".75688" fill="#fff"/>
<path id="path3289" opacity=".38140" d="m127.82 115.71c0 6.982-28.614 12.642-63.912 12.642-35.294 0-63.908-5.66-63.908-12.64 0-6.982 28.614-12.642 63.912-12.642s63.912 5.66 63.912 12.642z" transform="matrix(1 0 0 .41667 .26644 74.258)" fill="url(#radialGradient4447)"/>
<path id="path2375" d="m64.127 1.3826c-5.7004 0.072827-11.221 2.7577-15.745 9.0319-12.471 3.3415-15.686 21.062-16.782 33.382-1.3923 15.651 6.6159 25.489 17.515 29.72-0.15881 1.7764-0.55426 3.2895-1.0985 4.2108-2.0478 3.467-6.6974 6.4746-14.738 8.7573-8.9704 2.5467-16.085 5.0215-21.237 9.5507-4.5609 4.0097-7.5063 8.6462-7.5063 14.585 0 15.416 119.34 16.232 119.34 0 0.00001-5.9391-2.9454-10.576-7.5063-14.585-5.1-4.482-12.21-7.113-21.242-9.676-8.1-2.3-12.746-5.212-14.768-8.635-0.675-1.143-1.095-3.167-1.16-5.523 9.917-4.632 17.762-13.575 18.919-26.76 1.836-20.931-16.891-44.28-33.992-44.061z"/>
<path id="path2878" d="m64.127 1.3826c-5.7004 0.072827-11.221 2.7577-15.745 9.0319-12.471 3.3415-15.686 21.062-16.782 33.382-1.3923 15.651 6.6159 25.489 17.515 29.72-0.15881 1.7764-0.55426 3.2895-1.0985 4.2108-2.0478 3.467-6.6974 6.4746-14.738 8.7573-8.9704 2.5467-16.085 5.0215-21.237 9.5507-4.5609 4.0097-7.5063 8.6462-7.5063 14.585 0 15.416 119.34 16.232 119.34 0 0.00001-5.9391-2.9454-10.576-7.5063-14.585-5.1-4.482-12.21-7.113-21.242-9.676-8.1-2.3-12.746-5.212-14.768-8.635-0.675-1.143-1.095-3.167-1.16-5.523 9.917-4.632 17.762-13.575 18.919-26.76 1.836-20.931-16.891-44.28-33.992-44.061z"/>
<path id="path2882" d="m63.806 2.319c-3.601 0.046-7.123 1.1624-10.375 3.5395 2.947-1.8678 7.703-2.1105 10.896-1.8186 15.05 1.3757 34.238 22.173 32.403 43.103-0.909 10.362-5.947 18.101-12.877 23.19 7.479-5.064 12.989-13.063 13.944-23.953 1.836-20.93-16.89-44.28-33.991-44.061z" fill="url(#linearGradient4449)"/>
<path id="path2900" d="m79.147 75.901c-0.04709 0.02225-0.09802 0.03604-0.14522 0.05809 0.06127 2.2431 0.46091 4.1689 1.1037 5.2571 1.9245 3.2581 6.3475 6.0308 14.058 8.2197 8.5937 2.4398 15.366 4.944 20.215 9.2073 4.0003 3.5169 6.6883 7.5432 7.087 12.577 0.0254-0.16046 0.0581-0.32964 0.0581-0.49377 0-5.6534-2.8037-10.067-7.1451-13.884-4.85-4.263-11.62-6.767-20.216-9.207-7.711-2.188-12.134-4.961-14.058-8.219-0.469-0.794-0.786-2.031-0.959-3.515z" fill="url(#linearGradient4451)"/>
<path id="path2913" d="m50.41 75.901c0.04709 0.02225 0.09802 0.03604 0.14522 0.05809-0.06127 2.2431-0.46091 4.1689-1.1037 5.2571-1.9245 3.2581-6.3475 6.0308-14.058 8.2197-8.5937 2.4398-15.366 4.944-20.215 9.2073-4.0003 3.5169-6.6883 7.5432-7.087 12.577-0.025367-0.16046-0.058097-0.32964-0.058097-0.49377 0-5.6534 2.8037-10.067 7.1451-13.884 4.8494-4.2633 11.622-6.7675 20.215-9.2073 7.7103-2.189 12.133-4.9616 14.058-8.2197 0.46906-0.79411 0.78538-2.0306 0.95849-3.5144z" fill="url(#linearGradient4453)"/>
<path id="path2923" opacity=".19262" d="m64.127 1.3826c-5.7004 0.072827-11.221 2.7577-15.745 9.0319-12.471 3.3415-15.686 21.062-16.782 33.382-1.3923 15.651 6.6159 25.489 17.515 29.72-0.15881 1.7764-0.55426 3.2895-1.0985 4.2108-2.0478 3.467-6.6974 6.4746-14.738 8.7573-8.971 2.546-16.087 5.021-21.238 9.55-1.107 0.973-2.0933 1.995-2.9906 3.051 34.74 13.124 77.188-5.218 111.4 1.374-1.13-1.565-2.51-3.039-4.08-4.425-5.1-4.479-12.21-7.11-21.242-9.673-8.1-2.3-12.746-5.212-14.768-8.635-0.675-1.143-1.095-3.167-1.16-5.523 9.917-4.632 17.762-13.575 18.919-26.76 1.836-20.931-16.891-44.28-33.992-44.061z" fill="url(#linearGradient4441)"/>
<path id="path2936" opacity=".14754" d="m64.127 1.3826c-5.7004 0.072827-11.221 2.7577-15.745 9.0319-12.471 3.3415-15.686 21.062-16.782 33.382-1.009 11.343 2.9188 19.615 9.3065 24.929 5.592-25.64 19.346-45.543 41.009-59.837-5.48-4.6832-11.731-7.5838-17.789-7.5064zm27.462 19.009c-22.175 18.251-31.657 42.667-29.384 79.243 20.34-0.461 40.535-0.968 58.245 0.825-1.13-1.565-2.51-3.039-4.08-4.425-5.1-4.479-12.21-7.11-21.242-9.673-8.1-2.3-12.746-5.212-14.768-8.635-0.675-1.143-1.095-3.167-1.16-5.523 9.917-4.632 17.762-13.575 18.919-26.76 0.749-8.538-1.942-17.472-6.53-25.052z" fill="url(#linearGradient4443)"/>
<path id="path1928" opacity=".41803" d="m64.127 1.3826c-5.7004 0.072827-11.221 2.7577-15.745 9.0319-12.471 3.3415-15.686 21.062-16.782 33.382-1.3923 15.651 6.6159 25.489 17.515 29.72-0.15881 1.7764-0.55426 3.2895-1.0985 4.2108-2.0478 3.467-6.6974 6.4746-14.738 8.7573-8.9704 2.5467-16.085 5.0215-21.237 9.5507-4.5609 4.0097-7.5063 8.6462-7.5063 14.585 0 15.416 119.34 16.232 119.34 0 0.00001-5.9391-2.9454-10.576-7.5063-14.585-5.1-4.482-12.21-7.113-21.242-9.676-8.1-2.3-12.746-5.212-14.768-8.635-0.675-1.143-1.095-3.167-1.16-5.523 9.917-4.632 17.762-13.575 18.919-26.76 1.836-20.931-16.891-44.28-33.992-44.061z" fill="url(#radialGradient4459)"/>
</g>
</g>
</svg>
