<svg fill="#f0f0f0" viewBox="0 0 512 512" xmlns="http://www.w3.org/2000/svg">
<path d="m80,96h256c44,0 80,36 80,80v256c0,44-36,80-80,80h-256c-44,0-80-36-80-80v-256c0-44 36-80 80-80zm224,352c26.51,0 48-21.49 48-48s-21.49-48-48-48-48,21.49-48,48 21.49,48 48,48zm0-192c26.51,0 48-21.49 48-48s-21.49-48-48-48-48,21.49-48,48 21.49,48 48,48zm-96,96c26.51,0 48-21.49 48-48s-21.49-48-48-48-48,21.49-48,48 21.49,48 48,48zm-96,96c26.51,0 48-21.49 48-48s-21.49-48-48-48-48,21.49-48,48 21.49,48 48,48zm0-192c26.51,0 48-21.49 48-48s-21.49-48-48-48-48,21.49-48,48 21.49,48 48,48zm-14.38-192c7.465-36.402 39.855-64 78.38-64h256c44,0 80,36 80,80v256c0,38.523-27.598,70.915-64,78.38v-318.38c0-17.6-14.4-32-32-32h-318.38z"/>
</svg>
