<svg id="svg2" xmlns="http://www.w3.org/2000/svg" fill="#888888" height="512" width="512" version="1.1" viewBox="0 0 512 512">
<path id="path4" d="m457.06 380.26c-0.002-0.002-0.003-0.003-0.005-0.004l-124.26-124.26 124.26-124.26c0.002-0.002 0.003-0.002 0.005-0.004 1.3376-1.3384 2.3048-2.9016 2.9248-4.5664 1.6984-4.5504 0.7296-9.8728-2.9296-13.532l-58.704-58.706c-3.6592-3.6584-8.98-4.6264-13.531-2.928-1.664 0.62-3.228 1.5872-4.5672 2.924 0 0.0016-0.002 0.0024-0.003 0.004l-124.26 124.26-124.26-124.26-0.004-0.004c-1.3384-1.3368-2.9016-2.304-4.5656-2.924-4.552-1.6992-9.8728-0.7304-13.532 2.928l-58.715 58.706c-3.6592 3.6592-4.6272 8.9808-2.9288 13.531 0.6208 1.664 1.588 3.2288 2.9248 4.5664 0.0016 0.0008 0.0024 0.002 0.004 0.004l124.26 124.26-124.26 124.26c-0.0008 0.002-0.0024 0.002-0.0032 0.004-1.3368 1.3384-2.304 2.9016-2.9256 4.5656-1.6992 4.5504-0.7304 9.8728 2.9288 13.532l58.699 58.698c3.66 3.6592 8.9808 4.6272 13.532 2.9288 1.664-0.6208 3.228-1.588 4.5664-2.9248 0.0008-0.002 0.002-0.002 0.004-0.004l124.26-124.26 124.26 124.26c0.002 0.0008 0.003 0.002 0.005 0.003 1.3392 1.3376 2.9016 2.3048 4.5656 2.9256 4.5512 1.6984 9.8736 0.7304 13.531-2.9288l58.698-58.699c3.6592-3.6592 4.628-8.9816 2.9296-13.532-0.616-1.664-1.584-3.232-2.92-4.568z"/>
</svg>
