<svg id="svg2" xmlns="http://www.w3.org/2000/svg" version="1.1" xmlns:cc="http://creativecommons.org/ns#" xmlns:xlink="http://www.w3.org/1999/xlink" viewBox="0 0 128 128" xmlns:dc="http://purl.org/dc/elements/1.1/">
<defs id="defs4">
<linearGradient id="linearGradient3251" gradientUnits="userSpaceOnUse" x2="0" y2=".0005" y1="116">
<stop id="stop15" stop-color="#555" offset="0"/>
<stop id="stop17" stop-color="#595959" offset=".274"/>
<stop id="stop19" stop-color="#666" offset=".562"/>
<stop id="stop21" stop-color="#7b7b7b" offset=".856"/>
<stop id="stop23" stop-color="#888" offset="1"/>
</linearGradient>
<radialGradient id="radialGradient3246" gradientUnits="userSpaceOnUse" cy="64" cx="64" r="52">
<stop id="stop34" stop-color="#fff" offset="0"/>
<stop id="stop36" stop-color="#fff" offset=".574"/>
<stop id="stop38" stop-color="#fbfbfb" offset=".684"/>
<stop id="stop40" stop-color="#eee" offset=".8"/>
<stop id="stop42" stop-color="#ddd" offset=".9"/>
<stop id="stop44" stop-color="#bbb" offset="1"/>
</radialGradient>
</defs>
<path id="path46" fill="url(#linearGradient3251)" d="m116 58a58 58 0 1 0 -116 0 58 58 0 1 0 116 0" transform="matrix(1.10345,0,0,1.10345,0,-2.8e-6)"/>
<path id="path52" fill="url(#radialGradient3246)" d="m12 64c0 28.673 23.327 52 52 52s52-23.327 52-52-23.327-52-52-52-52 23.327-52 52z"/>
<path id="path58" fill="#00438a" d="m68.922 24c-2.3928 5.214-1.0894 11.253-2.1097 16.771l-2.0768 27.175c-14.023-6.2639-35.29 3.1797-32.358 14.489 1.1296 10.923 22.818 16.97 35.239 9.5647 11.614-7.2551 7.5155-18.867 9.0737-28.288l1.4472-25.436c6.0508 5.665 14.618 13.627 7.0845 20.535-5.211 2.9891-0.62147 10.073 6.177 7.1799 11.531-6.012 11.731-18.782 2.675-25.939-6.728-5.345-14.503-10.198-21.912-15.149-0.926-0.313-2.022-1.775-3.24-0.903z"/>
</svg>
