<svg xmlns="http://www.w3.org/2000/svg" viewBox="0 0 128 128" fill="#bebebe">
<g id="g2987" transform="matrix(.90823 0 0 .90823 7.2087 5.7018)">
<path id="path58" d="m68.922 24c-2.3928 5.214-1.0894 11.253-2.1097 16.771l-2.0768 27.175c-14.023-6.2639-35.29 3.1797-32.358 14.489 1.1296 10.923 22.818 16.97 35.239 9.5647 11.614-7.2551 7.5155-18.867 9.0737-28.288l1.4472-25.436c6.0508 5.665 14.618 13.627 7.0845 20.535-5.211 2.9891-0.62147 10.073 6.177 7.1799 11.531-6.012 11.731-18.782 2.675-25.939-6.728-5.345-14.503-10.198-21.912-15.149-0.926-0.313-2.022-1.775-3.24-0.903z"/>
<path id="path3090" d="m63.775 3.0296c-34.271 0-62.055 27.784-62.055 62.055s27.784 62.055 62.055 62.055 62.055-27.784 62.055-62.055-27.784-62.055-62.055-62.055zm0 108.6c-25.704 0-46.541-20.837-46.541-46.541s20.837-46.541 46.541-46.541 46.541 20.837 46.541 46.541-20.837 46.541-46.541 46.541z"/>
</g>
</svg>
