<?xml version="1.0" encoding="UTF-8" standalone="no"?>
<svg id="svg2" xmlns="http://www.w3.org/2000/svg" viewBox="0 0 128 128" version="1.1">
 <path id="path46" fill="#606060" d="m128 64.094a63.906 63.906 0 1 0 -127.81 0 63.906 63.906 0 0 0 127.81 0"/>
 <path id="path52" d="m12 64c0 28.673 23.327 52 52 52s52-23.327 52-52-23.327-52-52-52-52 23.327-52 52z" fill="#fff"/>
 <path id="path58" d="m68.922 24c-2.3928 5.214-1.0894 11.253-2.1097 16.771l-2.0768 27.175c-14.023-6.2639-35.29 3.1797-32.358 14.489 1.1296 10.923 22.818 16.97 35.239 9.5647 11.614-7.2551 7.5155-18.867 9.0737-28.288l1.4472-25.436c6.0508 5.665 14.618 13.627 7.0845 20.535-5.211 2.9891-0.62147 10.073 6.177 7.1799 11.531-6.012 11.731-18.782 2.675-25.939-6.728-5.345-14.503-10.198-21.912-15.149-0.926-0.313-2.022-1.775-3.24-0.903z" fill="#00438a"/>
</svg>
