<?xml version="1.0" encoding="UTF-8" standalone="no"?>
<svg id="svg2211" xmlns="http://www.w3.org/2000/svg" height="42.28" width="42.28" version="1.0">
 <g id="layer2" transform="translate(.645 15.11)" stroke="#000">
  <path id="path3178" d="m24.473 7.9a11.4 11.4 0 0 1 -12.824 5.312 11.4 11.4 0 0 1 -8.449 -11.012 11.4 11.4 0 0 1 8.449 -11.012 11.4 11.4 0 0 1 12.824 5.312l-9.873 5.7z" transform="matrix(1.5736 0 0 1.4684 -1.1223 2.5823)" stroke-width="3" fill="none"/>
  <path id="path4158" d="m20-6a1 1 0 0 1 -1 1 1 1 0 0 1 -1 -1 1 1 0 0 1 1 -1 1 1 0 0 1 1 1z" transform="matrix(1.5748 0 0 1.4684 -8.0682 4.3444)" stroke-width="3.5"/>
 </g>
</svg>
