<?xml version="1.0" encoding="UTF-8" standalone="no"?>
<svg id="Layer_1" xmlns="http://www.w3.org/2000/svg" xml:space="preserve" viewBox="0 0 512 512" version="1.1" y="0px" x="0px"><g id="g4550" transform="matrix(.95339 0 0 .95339 14.173 13.017)"><path id="path2" fill="#e3e8f4" d="m285.98 7.411c-16.487-9.114-43.465-9.114-59.952 0l-171.25 94.669c-16.487 9.114-29.976 31.984-29.976 50.822v206.78c0 18.838 13.49 41.708 29.976 50.822l171.24 94.666c16.487 9.114 43.465 9.114 59.952 0l171.24-94.666c16.487-9.114 29.976-31.984 29.976-50.822v-206.78c0-18.838-13.49-41.708-29.976-50.822z"/><path id="path4" fill="#c7cfe2" d="m256 512v-235.38c0-18.697-10.158-35.918-26.52-44.963l-173.78-96.07c-13.42-7.419-30.784 1.689-30.896 17.023-0.001 0.095-0.001 0.192-0.001 0.287v206.78c0 18.838 13.489 41.707 29.975 50.821l171.24 94.666c8.246 4.559 19.115 6.836 29.986 6.835h-0.01z"/><path id="path6" fill="#d7deed" d="m256 512v-235.38c0-18.697 10.158-35.918 26.52-44.963l173.78-96.07c13.42-7.419 30.784 1.689 30.896 17.023 0.001 0.095 0.001 0.192 0.001 0.287v206.78c0 18.838-13.489 41.707-29.975 50.821l-171.24 94.664c-8.246 4.559-19.115 6.836-29.986 6.835h0.01z"/><path id="path8" fill="#eff2fa" d="m287.07 229.17 170.65-94.336c12.773-7.06 12.773-25.421 0-32.481l-170.65-94.331c-19.335-10.689-42.807-10.689-62.141 0l-170.65 94.334c-12.773 7.06-12.773 25.421 0 32.481l170.65 94.336c19.33 10.69 42.81 10.69 62.14 0z"/><path id="path10" fill="#5b5d6e" d="m165.91 335.48c0 19.857-12.073 28.984-26.965 20.386-14.893-8.598-26.965-31.665-26.965-51.522s12.073-28.984 26.965-20.386c14.9 8.59 26.97 31.66 26.97 51.52z"/><path id="path12" fill="#515262" d="m138.95 283.96c-10.77-6.219-19.992-3.064-24.313 6.611 3.538-0.231 7.456 0.646 11.647 3.067 14.893 8.598 26.965 31.665 26.965 51.523 0 5.497-0.999 10.071-2.653 13.774 9.035-0.591 15.32-9.183 15.32-23.451-0.02-19.86-12.09-42.93-26.98-51.52z"/><path id="path14" fill="#707487" d="m290.25 432.1c0 19.857 12.073 28.984 26.965 20.386s26.965-31.665 26.965-51.522-12.073-28.984-26.965-20.386c-14.9 8.59-26.97 31.66-26.97 51.52z"/><path id="path16" fill="#5b5d6e" d="m317.22 380.58c-1.965 1.135-3.87 2.55-5.717 4.148 9.168 0.448 15.557 9.088 15.557 23.486 0 17.237-9.108 36.863-21.25 47.375 3.477 0.17 7.315-0.736 11.409-3.101 14.893-8.598 26.965-31.665 26.965-51.522 0-19.88-12.07-29-26.96-20.4z"/><path id="path18" fill="#707487" d="m401.57 242.4c0 19.857 12.073 28.984 26.965 20.386 14.893-8.598 26.965-31.665 26.965-51.523s-12.073-28.984-26.965-20.386-26.97 31.66-26.97 51.52z"/><path id="path20" fill="#5b5d6e" d="m428.53 190.88c-1.965 1.135-3.87 2.55-5.717 4.148 9.168 0.448 15.557 9.088 15.557 23.486 0 17.237-9.108 36.863-21.25 47.375 3.477 0.17 7.315-0.736 11.409-3.101 14.893-8.598 26.965-31.665 26.965-51.522 0-19.87-12.07-29-26.97-20.4z"/><path id="path22" fill="#707487" d="m347.64 336.59c0 19.857 12.073 28.984 26.965 20.386 14.893-8.598 26.965-31.665 26.965-51.523 0-19.857-12.073-28.984-26.965-20.386-14.89 8.6-26.96 31.67-26.96 51.52z"/><path id="path24" fill="#5b5d6e" d="m374.6 285.07c-1.965 1.135-3.87 2.55-5.717 4.148 9.168 0.448 15.557 9.088 15.557 23.486 0 17.237-9.108 36.863-21.25 47.375 3.477 0.17 7.315-0.736 11.409-3.101 14.893-8.598 26.965-31.665 26.965-51.523 0.01-19.86-12.06-28.99-26.96-20.39z"/><ellipse id="ellipse26" rx="42.814" ry="21.407" cy="116.18" cx="256" fill="#707487"/><path id="path28" fill="#65687a" d="m256 94.766c-20.246 0-37.11 7.047-41.569 16.489 7.851-4.798 19.639-7.926 33.006-7.926 23.645 0 42.814 9.584 42.814 21.407 0 1.7-0.496 3.332-1.245 4.918 6.037-3.689 9.808-8.341 9.808-13.481 0-11.83-19.16-21.414-42.81-21.414z"/><ellipse id="ellipse30" rx="42.814" ry="21.407" cy="56.236" cx="256" fill="#707487"/><path id="path32" fill="#65687a" d="m256 34.827c-20.246 0-37.11 7.047-41.569 16.489 7.851-4.798 19.639-7.926 33.006-7.926 23.645 0 42.814 9.584 42.814 21.407 0 1.7-0.496 3.332-1.245 4.918 6.037-3.69 9.808-8.341 9.808-13.481 0-11.823-19.16-21.407-42.81-21.407z"/><ellipse id="ellipse34" rx="42.814" ry="21.407" cy="176.12" cx="256" fill="#707487"/><path id="path36" fill="#65687a" d="m256 154.71c-20.246 0-37.11 7.047-41.569 16.489 7.851-4.798 19.639-7.926 33.006-7.926 23.645 0 42.814 9.584 42.814 21.407 0 1.7-0.496 3.332-1.245 4.918 6.037-3.69 9.808-8.341 9.808-13.481 0-11.83-19.16-21.41-42.81-21.41z"/><ellipse id="ellipse38" rx="42.814" ry="21.407" cy="116.18" cx="367.31" fill="#707487"/><path id="path40" fill="#65687a" d="m367.32 94.766c-20.246 0-37.11 7.047-41.569 16.489 7.851-4.798 19.639-7.926 33.006-7.926 23.645 0 42.814 9.584 42.814 21.407 0 1.7-0.496 3.332-1.245 4.918 6.037-3.689 9.808-8.341 9.808-13.481 0-11.83-19.17-21.414-42.81-21.414z"/><ellipse id="ellipse42" rx="42.814" ry="21.407" cy="116.18" cx="144.68" fill="#707487"/><path id="path44" fill="#65687a" d="m144.68 94.766c-20.246 0-37.11 7.047-41.569 16.489 7.851-4.798 19.639-7.926 33.006-7.926 23.645 0 42.814 9.584 42.814 21.407 0 1.7-0.496 3.332-1.245 4.918 6.037-3.689 9.808-8.341 9.808-13.481 0.01-11.83-19.16-21.414-42.81-21.414z"/></g></svg>
