<?xml version="1.0" encoding="UTF-8" standalone="no"?>
<svg id="svg18" xmlns="http://www.w3.org/2000/svg" version="1" enable-background="new 0 0 48 48" viewBox="0 0 48 48">
 <g id="g6" fill="#37474f" transform="matrix(-1,0,0,1,48,0)">
  <rect id="rect2" y="20" x="9" height="13" width="30"/>
  <ellipse id="ellipse4" cy="33" cx="24" rx="15" ry="6"/>
 </g>
 <path id="path8" fill="#78909c" d="m24.9 8.2 22.5 9.9c0.8 0.4 0.8 1.5 0 1.9l-22.5 9.9c-0.6 0.2-1.2 0.2-1.8 0l-22.5-9.9c-0.8-0.4-0.8-1.5 0-1.9l22.5-9.9c0.6-0.3 1.2-0.3 1.8 0z"/>
 <g id="g16" fill="#37474f" transform="matrix(-1,0,0,1,48,0)">
  <path id="path10" d="m43.2 20.4-20-3.4c-0.5-0.1-1.1 0.3-1.2 0.8s0.3 1.1 0.8 1.2l19.2 3.2v14.8c0 0.6 0.4 1 1 1s1-0.4 1-1v-15.6c0-0.5-0.4-0.9-0.8-1z"/>
  <circle id="circle12" cy="37" cx="43" r="2"/>
  <path id="path14" d="m46 40c0 1.7-3 6-3 6s-3-4.3-3-6 1.3-3 3-3 3 1.3 3 3z"/>
 </g>
</svg>
