<?xml version="1.0" encoding="UTF-8" standalone="no"?>
<svg id="svg50" xmlns="http://www.w3.org/2000/svg" fill-rule="evenodd" version="1.1" clip-rule="evenodd" image-rendering="optimizeQuality" viewBox="0 0 500 500">
 <defs id="defs39">
  <style id="style24" type="text/css"><![CDATA[
    .str0 {stroke:#434242;stroke-width:10}
    .fil1 {fill:#E5E5E6}
    .fil3 {fill:url(#id0)}
    .fil2 {fill:url(#id1)}
    .fil0 {fill:url(#id2)}
   ]]></style>
  <linearGradient id="id0" y2="374.71" gradientUnits="userSpaceOnUse" y1="374.71" x2="200.58" x1="422.94">
   <stop id="stop26" stop-color="#008BFF" offset="0"/>
   <stop id="stop28" stop-color="#0af" offset="1"/>
  </linearGradient>
  <linearGradient id="id1" y2="374.71" gradientUnits="userSpaceOnUse" y1="374.71" x2="95.585" x1="132.64"/>
  <linearGradient id="id2" y2="191.15" gradientUnits="userSpaceOnUse" y1="191.15" x2="74.991" x1="425.01">
   <stop id="stop32" stop-color="#CDCDCE" offset="0"/>
   <stop id="stop34" stop-color="#f5f5f5" offset=".502"/>
   <stop id="stop36" stop-color="#CDCDCE" offset="1"/>
  </linearGradient>
 </defs>
 <path id="path41" d="m114 54h269c6 0 11 4 12 9l63 266c-3-9-12-16-23-16h-370c-11 0-20 7-23 16l60-266c1-5 6-9 12-9z" stroke="#434242" stroke-width="10" class="fil0 str0" fill="#cdcdce"/>
 <rect id="rect43" class="fil1 str0" rx="25" ry="25" height="124" width="420" stroke="#434242" y="313" x="40" stroke-width="10" fill="#e5e5e6"/>
 <circle id="circle45" stroke-width="10" stroke="#434242" class="fil2 str0" cy="375" cx="114" r="19" fill="url(#id1)"/>
 <path id="path47" d="m404 356h-185c-10 0-18 9-18 19s8 18 18 18h185c11 0 19-8 19-18s-8-19-19-19z" stroke="#434242" stroke-width="10" class="fil3 str0" fill="url(#id0)"/>
</svg>
