<?xml version="1.0" encoding="UTF-8" standalone="no"?>
<svg id="svg3367" xmlns="http://www.w3.org/2000/svg" height="128" width="128" version="1.0" xmlns:xlink="http://www.w3.org/1999/xlink">
 <defs id="defs3369">
  <linearGradient id="linearGradient6036">
   <stop id="stop6038" stop-color="#fff" offset="0"/>
   <stop id="stop6040" stop-color="#fff" stop-opacity="0" offset="1"/>
  </linearGradient>
  <linearGradient id="linearGradient2642" x1="10.502" xlink:href="#linearGradient6036" gradientUnits="userSpaceOnUse" y1="3.61" gradientTransform="matrix(2.7529 0 0 2.7529 -3.0238 -4.8214)" x2="48.799" y2="54.698"/>
  <linearGradient id="linearGradient2651" x1="18.776" xlink:href="#linearGradient6036" gradientUnits="userSpaceOnUse" y1="4.0378" gradientTransform="matrix(1.086 0 0 1.086 37.559 36.85)" x2="18.203" y2="45.962"/>
  <linearGradient id="linearGradient2654" x1="21.448" gradientUnits="userSpaceOnUse" y1="15.5" gradientTransform="matrix(2.5381 0 0 2.5381 3.0854 3.0854)" x2="21.448" y2="32.509">
   <stop id="stop3430" stop-color="#aaa" offset="0"/>
   <stop id="stop3432" stop-color="#d4d4d4" offset="1"/>
  </linearGradient>
  <linearGradient id="linearGradient2658" x1="12.274" gradientUnits="userSpaceOnUse" y1="32.416" gradientTransform="matrix(0 3.1715 -3.1715 0 137.26 -12.115)" x2="35.391" y2="14.203">
   <stop id="stop3265" stop-color="#dedbde" offset="0"/>
   <stop id="stop3267" stop-color="#e6e6e6" offset=".5"/>
   <stop id="stop3269" stop-color="#d2d2d2" offset="1"/>
  </linearGradient>
  <linearGradient id="linearGradient2660" x1="-21.916" gradientUnits="userSpaceOnUse" y1="3" gradientTransform="matrix(2.7073 0 0 2.7073 135.11 -.97559)" x2="-21.916" y2="45.033">
   <stop id="stop3774" stop-color="#b4b4b4" offset="0"/>
   <stop id="stop3776" stop-color="#969696" offset="1"/>
  </linearGradient>
  <linearGradient id="linearGradient2672" x1="20.58" spreadMethod="reflect" gradientUnits="userSpaceOnUse" y1="10.775" x2="24.274" y2="9.8622">
   <stop id="stop3489" stop-color="#e6cde2" offset="0"/>
   <stop id="stop3491" stop-color="#e6cde2" stop-opacity="0" offset="1"/>
  </linearGradient>
  <linearGradient id="linearGradient2674" x1="17.495" spreadMethod="reflect" gradientUnits="userSpaceOnUse" y1="11.2" x2="21.047" y2="9.7956">
   <stop id="stop3497" stop-color="#c1cbe4" offset="0"/>
   <stop id="stop3499" stop-color="#c1cbe4" stop-opacity="0" offset="1"/>
  </linearGradient>
  <linearGradient id="linearGradient2676" x1="14.085" spreadMethod="reflect" gradientUnits="userSpaceOnUse" y1="13.046" x2="16.994" y2="10.732">
   <stop id="stop3505" stop-color="#c4ebdd" offset="0"/>
   <stop id="stop3507" stop-color="#c4ebdd" stop-opacity="0" offset="1"/>
  </linearGradient>
  <linearGradient id="linearGradient2678" x1="12.372" spreadMethod="reflect" gradientUnits="userSpaceOnUse" y1="16.188" x2="14.609" y2="13.462">
   <stop id="stop3513" stop-color="#ebeec7" offset="0"/>
   <stop id="stop3515" stop-color="#ebeec7" stop-opacity="0" offset="1"/>
  </linearGradient>
  <linearGradient id="linearGradient2680" x1="10.609" spreadMethod="reflect" gradientUnits="userSpaceOnUse" y1="17.886" x2="9.7298" y2="20.613">
   <stop id="stop3521" stop-color="#fcd9cd" offset="0"/>
   <stop id="stop3523" stop-color="#fcd9cd" stop-opacity="0" offset="1"/>
  </linearGradient>
 </defs>
 <path id="path2781" fill="url(#linearGradient2658)" stroke="url(#linearGradient2660)" d="m119.5 64c0-30.763-24.737-55.5-55.5-55.5s-55.5 24.737-55.5 55.5 24.737 55.5 55.5 55.5c30.763-0.00001 55.5-24.737 55.5-55.5zm-35.195 0c0 11.176-8.9051 20.305-20.305 20.305-11.623 0-20.305-9.3546-20.305-20.305 0-11.174 8.2342-20.305 20.305-20.305s20.305 9.3523 20.305 20.305z"/>
 <path id="path2474" opacity=".5" fill="#fff" d="m64 43c-11.592 0-21 9.408-21 21s9.408 21 21 21 21-9.408 21-21-9.408-21-21-21zm0 10.5c5.796 0 10.5 4.704 10.5 10.5s-4.704 10.5-10.5 10.5-10.5-4.704-10.5-10.5 4.704-10.5 10.5-10.5z"/>
 <path id="path3418" stroke-linejoin="round" d="m64 43.695c-11.208 0-20.305 9.0966-20.305 20.305s9.0966 20.305 20.305 20.305 20.305-9.0966 20.305-20.305-9.0966-20.305-20.305-20.305zm0 10.152c5.6041 0 10.152 4.5483 10.152 10.152 0 5.6041-4.5483 10.152-10.152 10.152-5.6041 0-10.152-4.5483-10.152-10.152 0-5.6041 4.5483-10.152 10.152-10.152z" stroke="url(#linearGradient2654)" fill="none"/>
 <g id="g3527" transform="matrix(2.732 0 0 2.732 -1.0901 -1.0743)">
  <path id="path3296" opacity=".8" d="m15.857 5.7308 4.768 10.613c1.035-0.459 2.17-0.719 3.375-0.719 0.03206 0 0.06178-0.00036 0.09375 0l0.014-11.62c-2.9422-0.070687-5.543 0.65729-8.2511 1.726z" transform="matrix(.99960 .028243 -.028243 .99960 .69241 -.67083)" fill="url(#linearGradient2672)"/>
  <path id="path3308" opacity=".8" fill="url(#linearGradient2674)" d="m12.121 7.906 6.931 9.3601c0.91311-0.66976 1.9659-1.1671 3.1426-1.4252 0.03132-0.0069 0.06026-0.01359 0.09157-0.02009l-2.429-11.395c-2.889 0.56132-5.3195 1.8556-7.7357 3.4797z"/>
  <path id="path3310" opacity=".8" fill="url(#linearGradient2676)" d="m8.2524 11.647 9.2137 7.1558c0.70865-0.88326 1.5969-1.6361 2.6667-2.19 0.02847-0.01474 0.05469-0.02872 0.08325-0.0431l-5.35-10.319c-2.645 1.2895-4.7 3.2014-6.6136 5.396z"/>
  <path id="path3312" opacity=".8" fill="url(#linearGradient2678)" d="m5.6329 16.074c7.1748 2.2422 7.8503 7.0315 12.777 1.7541l-7.91-8.6959c-2.2213 1.9309-3.5867 4.3269-4.8671 6.9419z"/>
  <path id="path3314" opacity=".8" fill="url(#linearGradient2680)" d="m7.1553 13.193c-1.1831 1.752-1.9077 3.637-2.5251 5.644l11.339 2.975c0.215-0.763 0.518-1.514 0.969-2.218 0.017-0.027 0.044-0.067 0.062-0.094l-9.8447-6.307z"/>
 </g>
 <path id="path3272" opacity=".5" d="m64 9.5c-30.209 0-54.5 24.291-54.5 54.5s24.291 54.5 54.5 54.5 54.5-24.291 54.5-54.5-24.291-54.5-54.5-54.5z" stroke="url(#linearGradient2642)" fill="none"/>
 <g id="g3297" transform="matrix(-2.7073 0 0 -2.7073 128.98 128.95)">
  <path id="path3299" opacity=".8" d="m15.857 5.7308 4.768 10.613c1.035-0.459 2.17-0.719 3.375-0.719 0.03206 0 0.06178-0.00036 0.09375 0l0.014-11.62c-2.9422-0.070687-5.543 0.65729-8.2511 1.726z" transform="matrix(.99960 .028243 -.028243 .99960 .69241 -.67083)" fill="url(#linearGradient2672)"/>
  <path id="path3301" opacity=".8" fill="url(#linearGradient2674)" d="m12.121 7.906 6.931 9.3601c0.91311-0.66976 1.9659-1.1671 3.1426-1.4252 0.03132-0.0069 0.06026-0.01359 0.09157-0.02009l-2.429-11.395c-2.889 0.56132-5.3195 1.8556-7.7357 3.4797z"/>
  <path id="path3303" opacity=".8" fill="url(#linearGradient2676)" d="m8.2524 11.647 9.2137 7.1558c0.70865-0.88326 1.5969-1.6361 2.6667-2.19 0.02847-0.01474 0.05469-0.02872 0.08325-0.0431l-5.35-10.319c-2.645 1.2895-4.7 3.2014-6.6136 5.396z"/>
  <path id="path3305" opacity=".8" fill="url(#linearGradient2678)" d="m5.6329 16.074c7.1748 2.2422 7.8503 7.0315 12.777 1.7541l-7.91-8.6959c-2.2213 1.9309-3.5867 4.3269-4.8671 6.9419z"/>
  <path id="path3307" opacity=".8" fill="url(#linearGradient2680)" d="m7.1553 13.193c-1.1831 1.752-1.9077 3.637-2.5251 5.644l11.339 2.975c0.215-0.763 0.518-1.514 0.969-2.218 0.017-0.027 0.044-0.067 0.062-0.094l-9.8447-6.307z"/>
 </g>
 <path id="path3281" opacity=".8" d="m64 42.5c-11.917 0-21.5 9.5829-21.5 21.5s9.5829 21.5 21.5 21.5 21.5-9.5829 21.5-21.5-9.5829-21.5-21.5-21.5z" stroke="url(#linearGradient2651)" fill="none"/>
</svg>
