<svg xmlns="http://www.w3.org/2000/svg" height="128pt" width="128pt" version="1.1" xmlns:xlink="http://www.w3.org/1999/xlink" viewBox="0 0 128 128">
<g id="surface1" fill="#000">
<path d="m8 32c1.418 0.062 2.809 0.473 4 1.25l40 24c2.258 1.438 3.5 4.094 3.5 6.75s-1.242 5.312-3.5 6.75l-40 24c-1.191 0.777-2.582 1.188-4 1.25h-8v-64z"/>
<path d="m112 32v64h16v-64z"/>
<path d="m64 32c1.418 0.062 2.809 0.473 4 1.25l40 24c2.26 1.438 3.5 4.094 3.5 6.75s-1.24 5.312-3.5 6.75l-40 24c-1.191 0.777-2.582 1.188-4 1.25h-8v-64z"/>
</g>
</svg>
