<?xml version="1.0" encoding="UTF-8" standalone="no"?>
<!-- Created with Sodipodi ("http://www.sodipodi.com/") -->
<svg id="svg1" xmlns:rdf="http://www.w3.org/1999/02/22-rdf-syntax-ns#" xmlns="http://www.w3.org/2000/svg" height="128" width="128" version="1.0" y="0" x="0" xmlns:cc="http://creativecommons.org/ns#" xmlns:xlink="http://www.w3.org/1999/xlink" xmlns:dc="http://purl.org/dc/elements/1.1/">
 <defs id="defs3">
  <linearGradient id="linearGradient1068">
   <stop id="stop1070" stop-color="#d2d2d2" offset="0"/>
   <stop id="stop1069" stop-color="#fff" offset="1"/>
  </linearGradient>
  <linearGradient id="linearGradient573" y2="357.28" xlink:href="#linearGradient1068" gradientUnits="userSpaceOnUse" x2="36.064" gradientTransform="matrix(2.3025 0 0 .29683 -.91913 -1.5117)" y1="389.66" x1="40.459"/>
  <linearGradient id="linearGradient1213" y2="113.41" xlink:href="#linearGradient1068" gradientUnits="userSpaceOnUse" x2="98.354" gradientTransform="matrix(.91680 0 0 .74548 -.91913 -1.5117)" y1="141.42" x1="123.71"/>
  <linearGradient id="linearGradient580" y2="111.07" xlink:href="#linearGradient1068" gradientUnits="userSpaceOnUse" x2="119.62" gradientTransform="matrix(.90171 0 0 .75796 -.91913 -1.5117)" y1="135.68" x1="132.04"/>
  <linearGradient id="linearGradient2924" y2="279.22" xlink:href="#linearGradient1068" gradientUnits="userSpaceOnUse" x2="36.083" gradientTransform="matrix(2.3376 0 0 .29237 -.91913 -1.5117)" y1="320.41" x1="41.674"/>
  <linearGradient id="linearGradient2926" y2="71.836" xlink:href="#linearGradient1068" gradientUnits="userSpaceOnUse" x2="102.05" gradientTransform="matrix(.91680 0 0 .74548 -.91913 -1.5117)" y1="108.17" x1="134.95"/>
  <linearGradient id="linearGradient2928" y2="70.041" xlink:href="#linearGradient1068" gradientUnits="userSpaceOnUse" x2="129.22" gradientTransform="matrix(.90171 0 0 .75796 -.91913 -1.5117)" y1="101.97" x1="145.32"/>
 </defs>
 <rect id="rect918" rx=".78110" fill-rule="evenodd" fill-opacity=".47154" ry=".74231" height="42.168" width="48.725" y="66.475" x="67.536" stroke-width="3pt"/>
 <rect id="rect1006" rx=".78110" fill-rule="evenodd" fill-opacity=".47154" ry=".74231" height="54.706" width="63.211" y="30.558" x="64.472" stroke-width="3pt"/>
 <rect id="rect1005" rx=".66176" fill-rule="evenodd" fill-opacity=".47059" ry=".62889" height="9.0051" width="57.843" y="82.153" x="65.398"/>
 <rect id="rect1007" rx=".44939" fill-rule="evenodd" fill-opacity=".75" ry=".42912" height="6.1446" width="54.911" stroke="#000" y="82.283" x="64.622" stroke-width=".82671" fill="url(#linearGradient2924)"/>
 <rect id="rect1009" rx="1.6336" fill-rule="evenodd" ry="1.7822" height="47.084" width="57.905" y="32.457" x="63.785" stroke-width="0" fill="url(#linearGradient2926)"/>
 <rect id="rect971" rx=".66176" fill-rule="evenodd" fill-opacity=".47059" ry=".62889" height="6.9413" width="44.587" y="106.25" x="68.25"/>
 <rect id="rect1008" rx="1.3971" fill-rule="evenodd" ry="1.4121" height="54.069" width="64.637" stroke="#000" y="28.741" x="59.853" stroke-width="1.6587" fill="url(#linearGradient2928)"/>
 <rect id="rect976" stroke-linejoin="round" rx=".54229" fill-rule="evenodd" ry=".54229" height="39.964" width="51.129" stroke="#000" y="34.896" x="66.359" stroke-width=".79054" fill="#00b4ed"/>
 <metadata id="metadata982">
  <rdf:RDF>
   <cc:Work rdf:about="">
    <dc:format>image/svg+xml</dc:format>
    <dc:type rdf:resource="http://purl.org/dc/dcmitype/StillImage"/>
   </cc:Work>
  </rdf:RDF>
 </metadata>
 <rect id="rect575" rx="1.6336" fill-rule="evenodd" ry="1.7822" height="36.294" width="44.635" y="67.938" x="67.006" stroke-width="0" fill="url(#linearGradient1213)"/>
 <path id="path672" d="m68.473 57.852a23.63 3.2223 0 1 1 -47.26 0 23.63 3.2223 0 1 1 47.26 0z" fill-rule="evenodd" fill-opacity=".47059" transform="matrix(1.4221 0 -.30247 1.9835 9.6202 -10.429)" fill="#444040"/>
 <path id="path625" d="m58.291 27.532a19.367 19.557 0 1 1 -38.734 0 19.367 19.557 0 1 1 38.734 0z" stroke-opacity=".9565" fill-rule="evenodd" transform="matrix(-1.0172 -.47377 -.55238 1.3286 116.85 57.273)" stroke="#000" stroke-width="2.3002" fill="#4e4d4b"/>
 <path id="path605" d="m58.291 27.532a19.367 19.557 0 1 1 -38.734 0 19.367 19.557 0 1 1 38.734 0z" stroke-opacity=".9565" fill-rule="evenodd" transform="matrix(-1.4321 -.79697 -1.13 2.235 128.08 29.383)" stroke="#000" stroke-width="2.061" fill="#6e6e6e"/>
 <path id="path606" d="m58.291 27.532a19.367 19.557 0 1 1 -38.734 0 19.367 19.557 0 1 1 38.734 0z" stroke-opacity=".97830" fill-rule="evenodd" fill-opacity=".62350" transform="matrix(-1.1546 -.69851 -.95635 1.9589 108.07 31.116)" stroke="#000" stroke-width=".317" fill="#fff"/>
 <path id="path686" d="m58.291 27.532a19.367 19.557 0 1 1 -38.734 0 19.367 19.557 0 1 1 38.734 0z" fill-rule="evenodd" transform="matrix(-.39495 -.45462 -.52881 .94219 73.198 52.428)" stroke-width="1.635"/>
 <path id="path611" d="m58.291 27.532a19.367 19.557 0 1 1 -38.734 0 19.367 19.557 0 1 1 38.734 0z" fill-rule="evenodd" transform="matrix(-.36949 -.40958 -.49472 .84885 70.248 52.067)" stroke="#3f3b3b" stroke-width=".77380" fill="#646464"/>
 <rect id="rect934" rx=".44939" fill-rule="evenodd" fill-opacity=".75" ry=".42912" height="4.7364" width="42.326" stroke="#000" y="106.34" x="67.652" stroke-width=".82671" fill="url(#linearGradient573)"/>
 <rect id="rect562" rx="1.3971" fill-rule="evenodd" ry="1.4121" height="41.677" width="49.824" stroke="#000" y="65.074" x="63.976" stroke-width="1.2786" fill="url(#linearGradient580)"/>
 <rect id="rect975" stroke-linejoin="round" rx=".54229" stroke-opacity=".93023" fill-rule="evenodd" ry=".54229" height="30.806" width="39.412" stroke="#000" y="70.097" x="68.99" stroke-width=".61408" fill="#003d88"/>
</svg>
