<?xml version="1.0" encoding="UTF-8" standalone="no"?>
<svg id="Layer_1" xmlns="http://www.w3.org/2000/svg" enable-background="new 0 0 512 512" xml:space="preserve" height="512px" viewBox="0 0 512 512" width="512px" version="1.1" y="0px" x="0px"><rect id="rect2" height="45" width="150" y="434" x="14" fill="#848484"/><rect id="rect4" height="45" width="150" y="334" x="14" fill="#848484"/><rect id="rect6" height="45" width="270" y="234" x="14" fill="#848484"/><rect id="rect8" height="45" width="270" y="134" x="14" fill="#848484"/><rect id="rect10" height="45" width="270" y="34" x="14" fill="#848484"/><path id="path12" fill="#626aa1" d="m253.8 471.33c-20.471-5.189-39.48-20.199-44.87-41.26-5.641-20.109 1.74-41.701 14.399-57.58 23.49-29.4 63.79-44.471 100.78-37.52 0.3-98.411-0.02-196.83 0.16-295.24 8.92 13.15 18.55 26.01 30.59 36.51 25.59 23.2 57.43 37.94 83.74 60.2 22.68 19.311 42.37 43.26 52.42 71.62 7.37 20.28 8.87 42.55 4.58 63.68-5.65 27.109-22.28 42.379-40.2 63.301 6.1-25.25 13.06-42.271 5.26-67.611-5.189-17.57-16.58-32.82-30.76-44.209-16.21-13.09-35.2-22.13-54.27-30.23-0.25 65.02-0.03 130.05-0.11 195.08 1 22.449-10.45 43.93-26.85 58.68-25.12 22.72-61.83 33.07-94.87 24.58"/></svg>
