<?xml version="1.0" encoding="UTF-8" standalone="no"?>
<svg id="svg8" xmlns="http://www.w3.org/2000/svg" height="512" width="512" version="1.1" viewBox="0 0 512 512">
<path id="path4" d="m80.947 155.28h350.13c24.555 0 44.401 19.876 44.401 44.431v201.7c0 24.043-19.845 44.442-44.401 44.442h-350.13c-24.546 0-44.431-20.398-44.431-44.442v-201.71c0-24.546 19.886-44.421 44.431-44.421zm-1.556 53.32c-6.277 0-11.489 5.212-11.489 12.022 0 6.267 5.212 11.489 11.489 11.489h172.97c6.789 0 12.022-5.222 12.022-11.489 0-6.81-5.233-12.022-12.022-12.022h-172.97zm0 40.23c-6.277 0-11.489 5.222-11.489 11.49 0 6.8 5.212 12.042 11.489 12.042h172.97c6.789 0 12.022-5.243 12.022-12.042 0-6.267-5.233-11.489-12.022-11.489h-172.97zm0 39.73c-6.277 0-11.489 5.223-11.489 12.002 0 6.277 5.212 11.5 11.489 11.5h172.97c6.789 0 12.022-5.223 12.022-11.5 0-6.779-5.233-12.002-12.022-12.002h-172.97zm0 40.24c-6.277 0-11.489 5.223-11.489 11.479 0 6.779 5.212 12.002 11.489 12.002h172.97c6.789 0 12.022-5.223 12.022-12.002 0-6.257-5.233-11.479-12.022-11.479h-172.97zm0 39.72c-6.277 0-11.489 5.202-11.489 12.002 0 6.277 5.212 11.5 11.489 11.5h172.97c6.789 0 12.022-5.223 12.022-11.5 0-6.8-5.233-12.002-12.022-12.002h-172.97zm292.12-148.43c-44.411 0-80.466 36.065-80.466 80.476 0 44.421 36.055 80.476 80.466 80.476 44.401 0 80.476-36.055 80.476-80.476 0.01-44.411-36.075-80.476-80.476-80.476zm0 15.69c-35.553 0-64.788 28.723-64.788 64.788 0 35.543 29.235 64.798 64.788 64.798 35.533 0 64.809-29.255 64.809-64.798 0-36.065-29.276-64.788-64.809-64.788z" fill="#000"/>
 <path id="path6" d="m440.94 177.03l-286.69-92.511 5.928-18.37 286.69 92.511-5.928 18.37z" fill="#000"/>
</svg>
