<svg xmlns="http://www.w3.org/2000/svg" viewBox="0 0 512 512" fill="#000">
<path d="m256.27-0.5424c-141.53 0-256.27 114.74-256.27 256.27s114.74 256.27 256.27 256.27 256.27-114.74 256.27-256.27-114.74-256.27-256.27-256.27zm145 341.69c4.5808-21.598 7.4724-44.523 8.4132-68.339h68.043c-1.7811 23.596-7.2738 46.51-16.38 68.339h-60.076zm-290-170.85c-4.5808 21.598-7.4724 44.523-8.4132 68.339h-68.042c1.7811-23.595 7.2728-46.51 16.379-68.339h60.076zm255 0c5.1329 21.87 8.221 44.77 9.2258 68.339h-102.14v-68.339h92.918zm-92.918-34.17v-100.02c7.7896 2.2669 15.507 6.0704 23.079 11.409 14.192 10.005 27.769 25.418 39.263 44.573 7.9455 13.242 14.817 27.985 20.553 44.038h-82.895zm-96.512-44.038c11.494-19.155 25.07-34.569 39.263-44.573 7.5717-5.339 15.29-9.1425 23.079-11.409v100.02h-82.895c5.7373-16.052 12.608-30.795 20.553-44.038zm62.342 78.208v68.339h-102.14c1.0037-23.57 4.0929-46.469 9.2247-68.339h92.918zm-187.99 170.85c-9.1062-21.829-14.598-44.743-16.379-68.339h68.042c0.9407 23.816 3.8323 46.741 8.4132 68.339h-60.076zm85.85-68.339h102.14v68.339h-92.918c-5.1318-21.868-8.221-44.77-9.2247-68.339zm102.14 102.51v100.02c-7.7885-2.2669-15.506-6.0715-23.079-11.409-14.193-10.005-27.77-25.419-39.263-44.573-7.9455-13.243-14.816-27.986-20.554-44.038h82.896zm96.512 44.038c-11.494 19.154-25.071 34.568-39.263 44.573-7.5728 5.3379-15.29 9.1425-23.079 11.409v-100.02h82.896c-5.7373 16.052-12.608 30.795-20.554 44.038zm-62.342-78.208v-68.339h102.14c-1.0037 23.57-4.0929 46.47-9.2258 68.339h-92.916zm136.33-102.51c-0.9407-23.816-3.8323-46.741-8.4132-68.339h60.076c9.1062 21.829 14.599 44.744 16.38 68.339h-68.043zm33.801-102.51h-51.201c-9.9508-31.373-23.692-58.886-40.211-80.847 22.71 10.86 43.277 25.422 61.246 43.391 11.468 11.467 21.549 23.992 30.166 37.456zm-344.27-37.456c17.97-17.97 38.537-32.532 61.246-43.391-16.52 21.961-30.259 49.474-40.211 80.847h-51.2c8.616-13.464 18.698-25.989 30.165-37.456zm-30.165 276.64h51.2c9.9519 31.373 23.692 58.886 40.212 80.848-22.71-10.86-43.277-25.422-61.246-43.392-11.468-11.467-21.55-23.992-30.166-37.456zm344.26 37.456c-17.969 17.97-38.537 32.533-61.246 43.392 16.52-21.961 30.26-49.475 40.211-80.848h51.201c-8.6171 13.464-18.698 25.989-30.166 37.456z"/>
</svg>
