<svg fill="#282828" viewBox="0 0 512 512" xmlns="http://www.w3.org/2000/svg">
<path d="m256.2712-.5424c-141.5343,0-256.2712,114.7369-256.2712,256.2712s114.7369,256.2712 256.2712,256.2712 256.2712-114.7358 256.2712-256.2712-114.7358-256.2712-256.2712-256.2712zm145.0014,341.6949c4.5808-21.5983 7.4724-44.5228 8.4132-68.339h68.0432c-1.7811,23.5962-7.2738,46.51-16.38,68.339h-60.0764zm-290.0029-170.8475c-4.5808,21.5983-7.4724,44.5228-8.4132,68.339h-68.0421c1.7811-23.5951 7.2728-46.51 16.3789-68.339h60.0764zm255.0037,0c5.1329,21.8696 8.221,44.7695 9.2258,68.339h-102.1433v-68.339h92.9175zm-92.9175-34.1695v-100.0194c7.7896,2.2669 15.5066,6.0704 23.0794,11.4094 14.1921,10.0053 27.7691,25.4178 39.2629,44.573 7.9455,13.2417 14.8168,27.9848 20.553,44.0381h-82.8952zm-96.5117-44.0381c11.4938-19.1552 25.0697-34.5688 39.2629-44.573 7.5717-5.339 15.2898-9.1425 23.0794-11.4094v100.0205h-82.8952c5.7373-16.0522 12.6085-30.7952 20.553-44.0381zm62.3422,78.2076v68.339h-102.1422c1.0037-23.5695 4.0929-46.4694 9.2247-68.339h92.9175zm-187.992,170.8475c-9.1062-21.829-14.5978-44.7428-16.3789-68.339h68.0421c.9407,23.8161 3.8323,46.7407 8.4132,68.339h-60.0764zm85.8498-68.339h102.1422v68.339h-92.9175c-5.1318-21.8685-8.221-44.7695-9.2247-68.339zm102.1422,102.5085v100.0205c-7.7885-2.2669-15.5065-6.0715-23.0794-11.4094-14.1932-10.0053-27.7702-25.4189-39.2629-44.573-7.9455-13.2428-14.8157-27.9859-20.554-44.0381h82.8962zm96.5117,44.0381c-11.4938,19.1541-25.0708,34.5678-39.2629,44.573-7.5728,5.3379-15.2898,9.1425-23.0794,11.4094v-100.0205h82.8963c-5.7373,16.0522-12.6085,30.7953-20.554,44.0381zm-62.3422-78.2075v-68.339h102.1422c-1.0037,23.5695-4.0929,46.4705-9.2258,68.339h-92.9165zm136.3299-102.5085c-.9407-23.8161-3.8323-46.7407-8.4132-68.339h60.0764c9.1062,21.829 14.5989,44.7439 16.38,68.339h-68.0432zm33.8011-102.5085h-51.2009c-9.9508-31.3729-23.6923-58.8858-40.2111-80.8471 22.7099,10.8595 43.2767,25.4221 61.2456,43.391 11.4681,11.4671 21.5492,23.9923 30.1663,37.4562zm-344.2651-37.4562c17.97-17.9699 38.5368-32.5315 61.2456-43.391-16.5199,21.9614-30.2592,49.4742-40.2111,80.8471h-51.1998c8.616-13.4638 18.6982-25.9891 30.1653-37.4562zm-30.1653,276.6426h51.1998c9.9519,31.3729 23.6923,58.8858 40.2122,80.8482-22.7099-10.8595-43.2767-25.4221-61.2456-43.392-11.4681-11.4671-21.5503-23.9923-30.1663-37.4562zm344.264,37.4562c-17.9689,17.97-38.5368,32.5326-61.2456,43.392 16.5199-21.9614 30.2603-49.4753 40.2111-80.8482h51.2009c-8.6171,13.4639-18.6982,25.9891-30.1663,37.4562z"/>
</svg>
