<svg xmlns="http://www.w3.org/2000/svg" viewBox="0 0 512 512" fill="#000">
<path d="m496.13 435.7l-121.27-103.15c-12.537-11.283-25.945-16.463-36.776-15.963 28.63-33.54 45.92-77.04 45.92-124.59 0-106.04-85.96-192-192-192s-192 85.961-192 192 85.961 192 192 192c47.549 0 91.054-17.293 124.59-45.922-0.5 10.831 4.68 24.239 15.963 36.776l103.15 121.28c17.661 19.623 46.511 21.277 64.11 3.678s15.94-46.46-3.68-64.12zm-304.13-115.7c-70.692 0-128-57.308-128-128s57.31-128 128-128 128 57.308 128 128-57.31 128-128 128z"/>
</svg>
