<svg fill="#404040" viewBox="0 0 512 512" xmlns="http://www.w3.org/2000/svg">
<path d="m367.497,402.687c-9.476-1.494-9.692-27.327-9.692-27.327s27.844-27.328 33.912-64.076c16.326,0 26.407-39.069 10.082-52.814 .681-14.47 20.984-113.588-81.799-113.588s-82.479,99.118-81.799,113.588c-16.327,13.745-6.244,52.814 10.081,52.814 6.067,36.748 33.913,64.076 33.913,64.076s-.216,25.833-9.692,27.327c-30.524,4.816-144.503,54.658-144.503,109.313h192 192c0-54.655-113.979-104.497-144.503-109.313zm-195.47,8.718c22.047-13.575 48.813-26.154 70.769-33.712-7.876-11.216-16.647-26.468-22.165-44.531-7.703-6.283-13.972-15.266-17.999-26.301-4.033-11.052-5.561-23.426-4.304-34.842 .902-8.196 3.239-15.833 6.825-22.544-2.175-23.293-3.707-69.017 26.224-102.366 11.607-12.933 26.278-22.23 43.85-27.843-3.137-32.38-19.58-70.385-83.227-70.385-102.782,0-82.479,99.118-81.799,113.588-16.327,13.745-6.244,52.814 10.081,52.814 6.067,36.748 33.913,64.076 33.913,64.076s-.216,25.833-9.692,27.327c-30.524,4.817-144.503,54.659-144.503,109.314h164.798c2.355-1.537 4.753-3.07 7.229-4.595z"></path>
</svg>
