<svg xmlns="http://www.w3.org/2000/svg" viewBox="0 0 512 512" fill="#f0f0f0">
<path d="m192 256a64 64 0 1 0 128 0 64 64 0 1 0 -128 0zm140.17-140.74c49.926 27.079 83.826 79.949 83.826 140.74s-33.9 113.66-83.826 140.74c22.033-35.063 35.826-85.135 35.826-140.74s-13.793-105.67-35.826-140.74zm-188.17 140.74c0 55.602 13.792 105.67 35.826 140.74-49.926-27.08-83.826-79.949-83.826-140.74s33.9-113.66 83.826-140.74c-22.034 35.063-35.826 85.135-35.826 140.74zm-96 0c0 85.95 27.202 163.09 70.326 215.86-71.151-45.474-118.33-125.16-118.33-215.86s47.175-170.39 118.33-215.86c-43.124 52.769-70.326 129.91-70.326 215.86zm345.68-215.86c71.149 45.473 118.32 125.16 118.32 215.86s-47.175 170.39-118.32 215.86c43.122-52.768 70.324-129.91 70.324-215.86s-27.202-163.09-70.324-215.86z"/>
</svg>
