<svg fill="#f0f0f0" viewBox="0 0 512 512" xmlns="http://www.w3.org/2000/svg">
<path d="m256,0c-141.385,0-256,114.615-256,256s114.615,256 256,256 256-114.615 256-256-114.615-256-256-256zm0,448c-106.039,0-192-85.961-192-192s85.961-192 192-192 192,85.961 192,192-85.961,192-192,192z"/>
<path d="m256,169.2203c-50.3235,0-91.1187,40.7952-91.1187,91.1187s40.7952,91.1186 91.1187,91.1186 91.1186-40.7952 91.1186-91.1186-40.7952-91.1187-91.1186-91.1187zm0,159.4576c-37.7427,0-68.339-30.5963-68.339-68.339s30.5963-68.339 68.339-68.339 68.339,30.5963 68.339,68.339-30.5963,68.339-68.339,68.339z"/>
</svg>
