<svg id="svg1307" xmlns="http://www.w3.org/2000/svg" height="128" width="128" version="1.0" xmlns:xlink="http://www.w3.org/1999/xlink">
<path id="path2876" d="m64.127 1.3826c-5.701 0.0729-11.221 2.7578-15.745 9.0324-12.471 3.341-15.686 21.062-16.782 33.381-1.393 15.652 6.616 25.489 17.514 29.72-0.158 1.776-0.554 3.289-1.098 4.211-2.048 3.467-6.698 6.474-14.738 8.757-8.97 2.547-16.086 5.022-21.237 9.551-4.5612 4.005-7.5066 8.645-7.5066 14.585 0 15.42 119.34 16.23 119.34 0 0-5.94-2.94-10.58-7.5-14.585-5.1-4.479-12.21-7.11-21.242-9.673-8.1-2.3-12.746-5.212-14.768-8.635-0.675-1.143-1.095-3.167-1.16-5.523 9.917-4.632 17.762-13.575 18.919-26.76 1.836-20.931-16.891-44.28-33.992-44.061z" stroke="#000" stroke-width="1.9528" fill="#000"/>
</svg>
