<svg xmlns="http://www.w3.org/2000/svg" viewBox="0 0 512 512" fill="#000">
<path d="m256 0c-141.38 0-256 114.62-256 256s114.62 256 256 256 256-114.62 256-256-114.62-256-256-256zm0 448c-106.04 0-192-85.961-192-192s85.961-192 192-192 192 85.961 192 192-85.961 192-192 192z"/>
<path d="m256 145.12c-63.368 0-115.22 51.85-115.22 115.22s51.85 115.22 115.22 115.22 115.22-51.85 115.22-115.22-51.85-115.22-115.22-115.22zm0 70.969c24.788 0 44.25 19.462 44.25 44.25s-19.462 44.25-44.25 44.25-44.25-19.462-44.25-44.25 19.462-44.25 44.25-44.25z" transform="matrix(.75867 0 0 .75867 61.541 57.506)"/>
</svg>
