<?xml version="1.0" encoding="UTF-8"?>
<!-- Generator: Adobe Illustrator 15.0.2, SVG Export Plug-In . SVG Version: 6.00 Build 0)  -->
<!DOCTYPE svg PUBLIC "-//W3C//DTD SVG 1.1//EN" "http://www.w3.org/Graphics/SVG/1.1/DTD/svg11.dtd">
<svg version="1.1" id="svg7854" inkscape:output_extension="org.inkscape.output.svg.inkscape" inkscape:export-filename="/home/lapo/Icone/gnome-icon-theme/32x32/status/media-playlist-repeat.png" inkscape:export-xdpi="90" sodipodi:docname="media-playlist-repeat.svg" xmlns:dc="http://purl.org/dc/elements/1.1/" xmlns:cc="http://web.resource.org/cc/" sodipodi:version="0.32" inkscape:version="0.45" sodipodi:docbase="/home/dobey/Projects/gnome-icon-theme/scalable/status" inkscape:export-ydpi="90" xmlns:inkscape="http://www.inkscape.org/namespaces/inkscape" xmlns:sodipodi="http://sodipodi.sourceforge.net/DTD/sodipodi-0.dtd" xmlns:rdf="http://www.w3.org/1999/02/22-rdf-syntax-ns#" xmlns:svg="http://www.w3.org/2000/svg" xmlns="http://www.w3.org/2000/svg" xmlns:xlink="http://www.w3.org/1999/xlink" x="0px" y="0px" width="35px" height="29px" viewBox="6.5 9.5 35 29" enable-background="new 6.5 9.5 35 29" xml:space="preserve">
<g>
	
		<linearGradient id="SVGID_1_" gradientUnits="userSpaceOnUse" x1="-11.9995" y1="-786.7451" x2="-11.9995" y2="-799.3781" gradientTransform="matrix(1 0 0 -1 25.5 -769)">
		<stop offset="0" style="stop-color:#000000;stop-opacity:0.2353"/>
		<stop offset="1" style="stop-color:#FFFFFF"/>
	</linearGradient>
	<path opacity="0.4" fill="url(#SVGID_1_)" enable-background="new    " d="M7,19.5v9.062c0,3.562,2.935,6.5,6.5,6.5h5   c0.828-0.002,1.499-0.672,1.5-1.5V31.5h-9V17"/>
	
		<linearGradient id="SVGID_2_" gradientUnits="userSpaceOnUse" x1="5.5005" y1="-786.8662" x2="5.5005" y2="-801.5566" gradientTransform="matrix(1 0 0 -1 25.5 -769)">
		<stop offset="0" style="stop-color:#000000;stop-opacity:0.2353"/>
		<stop offset="1" style="stop-color:#FFFFFF"/>
	</linearGradient>
	<path opacity="0.4" fill="url(#SVGID_2_)" enable-background="new    " d="M37,17v14.5H21c0,0.482,0.233,0.938,0.625,1.219l7,5   c0.457,0.326,1.062,0.381,1.562,0.125S30.998,37.062,31,36.5v-1.438h3.5c3.564,0,6.5-2.938,6.5-6.5V19.5"/>
	
		<linearGradient id="SVGID_3_" gradientUnits="userSpaceOnUse" x1="-9.9995" y1="-790.3438" x2="-9.9995" y2="-800.501" gradientTransform="matrix(1 0 0 -1 25.5 -769)">
		<stop offset="0" style="stop-color:#FFFFFF"/>
		<stop offset="0.5208" style="stop-color:#000000;stop-opacity:0.2353"/>
		<stop offset="0.8003" style="stop-color:#000000;stop-opacity:0.2353"/>
		<stop offset="1" style="stop-color:#FFFFFF"/>
	</linearGradient>
	<path opacity="0.4" fill="url(#SVGID_3_)" enable-background="new    " d="M11,17v14.5h9v-1.938c-0.001-0.828-0.672-1.498-1.5-1.5   H14V20"/>
	
		<linearGradient id="SVGID_4_" gradientUnits="userSpaceOnUse" x1="3.5005" y1="-790.3438" x2="3.5005" y2="-800.501" gradientTransform="matrix(1 0 0 -1 25.5 -769)">
		<stop offset="0" style="stop-color:#FFFFFF"/>
		<stop offset="0.5208" style="stop-color:#000000;stop-opacity:0.2353"/>
		<stop offset="0.8003" style="stop-color:#000000;stop-opacity:0.2353"/>
		<stop offset="1" style="stop-color:#FFFFFF"/>
	</linearGradient>
	<path opacity="0.4" fill="url(#SVGID_4_)" enable-background="new    " d="M34,20v8.062h-3V26.5   c-0.002-0.562-0.312-1.088-0.812-1.344s-1.104-0.201-1.562,0.125l-7,5C21.233,30.562,21,31.018,21,31.5h16V17"/>
	
		<linearGradient id="SVGID_5_" gradientUnits="userSpaceOnUse" x1="-597.8208" y1="-291.1875" x2="-597.8208" y2="-280.3413" gradientTransform="matrix(3.7501 0 0 -1.7575 2255.3855 -478.2007)">
		<stop offset="0" style="stop-color:#92948F"/>
		<stop offset="1" style="stop-color:#EEEEEC"/>
	</linearGradient>
	
		<path sodipodi:nodetypes="cccccccccccccccccccccccc" fill="url(#SVGID_5_)" stroke="#555753" stroke-linecap="round" stroke-linejoin="round" d="   M13.5,14.5c-2.736,0-5,2.264-5,5v9.062c0,2.734,2.264,5,5,5h5v-4h-5c-0.589,0-1-0.412-1-1V19.5c0-0.589,0.411-1,1-1"/>
	
		<radialGradient id="SVGID_6_" cx="-592.3057" cy="-289.9043" r="13.3534" gradientTransform="matrix(3.7501 0 0 -1.7575 2255.3855 -478.2007)" gradientUnits="userSpaceOnUse">
		<stop offset="0" style="stop-color:#92948F"/>
		<stop offset="1" style="stop-color:#EEEEEC"/>
	</radialGradient>
	
		<path sodipodi:nodetypes="cccccccccccccccccccccccc" fill="url(#SVGID_6_)" stroke="#555753" stroke-linecap="round" stroke-linejoin="round" d="   M34.5,18.5c0.589,0,1,0.411,1,1v9.062c0,0.588-0.411,1-1,1h-5V26.5l-7,5l7,5v-2.938h5c2.736,0,5-2.266,5-5V19.5   c0-2.736-2.264-5-5-5"/>
	
		<path inkscape:radius="-0.90625" inkscape:original="M 13.5 14.5 C 10.764102 14.5 8.5 16.764102 8.5 19.5 L 8.5 28.5625 C 8.5 31.298398 10.764102 33.5625 13.5 33.5625 L 18.5 33.5625 L 18.5 29.5625 L 13.5 29.5625 C 12.910913 29.5625 12.5 29.151587 12.5 28.5625 L 12.5 19.5 C 12.5 18.910914 12.910913 18.5 13.5 18.5 L 34.5 18.5 C 35.089091 18.5 35.5 18.910913 35.5 19.5 L 35.5 28.5625 C 35.5 29.151586 35.089087 29.5625 34.5 29.5625 L 29.5 29.5625 L 29.5 26.5 L 22.5 31.5 L 29.5 36.5 L 29.5 33.5625 L 34.5 33.5625 C 37.235898 33.5625 39.499998 31.298398 39.5 28.5625 L 39.5 19.5 C 39.5 16.764102 37.235899 14.5 34.5 14.5 L 13.5 14.5 z " sodipodi:type="inkscape:offset" fill="none" stroke="#FFFFFF" stroke-width="0.8" stroke-linecap="round" d="   M13.5,15.406c-2.236,0-4.094,1.858-4.094,4.094v9.062c0,2.234,1.858,4.094,4.094,4.094h4.094v-2.188H13.5   c-1.011,0-1.906-0.896-1.906-1.905V19.5c0-1.011,0.896-1.906,1.906-1.906"/>
	
		<path inkscape:radius="-0.90625" inkscape:original="M 13.5 14.5 C 10.764102 14.5 8.5 16.764102 8.5 19.5 L 8.5 28.5625 C 8.5 31.298398 10.764102 33.5625 13.5 33.5625 L 18.5 33.5625 L 18.5 29.5625 L 13.5 29.5625 C 12.910913 29.5625 12.5 29.151587 12.5 28.5625 L 12.5 19.5 C 12.5 18.910914 12.910913 18.5 13.5 18.5 L 34.5 18.5 C 35.089091 18.5 35.5 18.910913 35.5 19.5 L 35.5 28.5625 C 35.5 29.151586 35.089087 29.5625 34.5 29.5625 L 29.5 29.5625 L 29.5 26.5 L 22.5 31.5 L 29.5 36.5 L 29.5 33.5625 L 34.5 33.5625 C 37.235898 33.5625 39.499998 31.298398 39.5 28.5625 L 39.5 19.5 C 39.5 16.764102 37.235899 14.5 34.5 14.5 L 13.5 14.5 z " sodipodi:type="inkscape:offset" fill="none" stroke="#FFFFFF" stroke-width="0.8" stroke-linecap="round" d="   M34.5,17.594c1.012,0,1.906,0.896,1.906,1.906v9.062c0,1.011-0.896,1.904-1.906,1.904h-5c-0.5,0-0.906-0.404-0.906-0.904v-1.281   l-4.5,3.219l4.5,3.219v-1.156c0-0.5,0.406-0.904,0.906-0.904h5c2.236,0,4.094-1.857,4.094-4.096V19.5   c0-2.236-1.857-4.094-4.094-4.094"/>
	
		<linearGradient id="SVGID_7_" gradientUnits="userSpaceOnUse" x1="-12.8745" y1="-805.3857" x2="31.3391" y2="-781.046" gradientTransform="matrix(1 0 0 -1 25.5 -769)">
		<stop offset="0" style="stop-color:#FFFFFF"/>
		<stop offset="0.2097" style="stop-color:#FFFFFF;stop-opacity:0"/>
		<stop offset="0.3494" style="stop-color:#FFFFFF;stop-opacity:0.8107"/>
		<stop offset="0.4285" style="stop-color:#FFFFFF;stop-opacity:0"/>
		<stop offset="0.5213" style="stop-color:#FFFFFF"/>
		<stop offset="0.5575" style="stop-color:#FFFFFF;stop-opacity:0"/>
		<stop offset="0.71" style="stop-color:#FFFFFF;stop-opacity:0.568"/>
		<stop offset="0.7439" style="stop-color:#FFFFFF;stop-opacity:0"/>
		<stop offset="1" style="stop-color:#FFFFFF;stop-opacity:0"/>
	</linearGradient>
	
		<path inkscape:radius="-0.5" inkscape:original="M 13.5 14.5 C 10.764102 14.5 8.5 16.764102 8.5 19.5 L 8.5 28.5625 C 8.5 31.298398 10.764102 33.5625 13.5 33.5625 L 18.5 33.5625 L 18.5 29.5625 L 13.5 29.5625 C 12.910913 29.5625 12.5 29.151587 12.5 28.5625 L 12.5 19.5 C 12.5 18.910914 12.910913 18.5 13.5 18.5 L 34.5 18.5 C 35.089091 18.5 35.5 18.910913 35.5 19.5 L 35.5 28.5625 C 35.5 29.151586 35.089087 29.5625 34.5 29.5625 L 29.5 29.5625 L 29.5 26.5 L 22.5 31.5 L 29.5 36.5 L 29.5 33.5625 L 34.5 33.5625 C 37.235898 33.5625 39.499998 31.298398 39.5 28.5625 L 39.5 19.5 C 39.5 16.764102 37.235899 14.5 34.5 14.5 L 13.5 14.5 z " sodipodi:type="inkscape:offset" opacity="0.4" fill="url(#SVGID_7_)" enable-background="new    " d="   M34.5,18c0.822,0,1.5,0.678,1.5,1.5v9.062c0,0.82-0.678,1.5-1.5,1.5h-5c-0.275,0-0.5-0.226-0.5-0.5v-2.096L23.344,31.5L29,35.531   v-1.969c0-0.276,0.225-0.5,0.5-0.5h5c2.46,0,4.5-2.041,4.5-4.5V19.5c0-2.46-2.04-4.5-4.5-4.5"/>
	
		<linearGradient id="SVGID_8_" gradientUnits="userSpaceOnUse" x1="-23.1206" y1="-800.0781" x2="1.2058" y2="-786.6865" gradientTransform="matrix(1 0 0 -1 25.5 -769)">
		<stop offset="0" style="stop-color:#FFFFFF"/>
		<stop offset="0.2097" style="stop-color:#FFFFFF;stop-opacity:0"/>
		<stop offset="0.3494" style="stop-color:#FFFFFF;stop-opacity:0.8107"/>
		<stop offset="0.4285" style="stop-color:#FFFFFF;stop-opacity:0"/>
		<stop offset="0.5213" style="stop-color:#FFFFFF"/>
		<stop offset="0.5575" style="stop-color:#FFFFFF;stop-opacity:0"/>
		<stop offset="0.71" style="stop-color:#FFFFFF;stop-opacity:0.568"/>
		<stop offset="0.7439" style="stop-color:#FFFFFF;stop-opacity:0"/>
		<stop offset="1" style="stop-color:#FFFFFF;stop-opacity:0"/>
	</linearGradient>
	
		<path inkscape:radius="-0.5" inkscape:original="M 13.5 14.5 C 10.764102 14.5 8.5 16.764102 8.5 19.5 L 8.5 28.5625 C 8.5 31.298398 10.764102 33.5625 13.5 33.5625 L 18.5 33.5625 L 18.5 29.5625 L 13.5 29.5625 C 12.910913 29.5625 12.5 29.151587 12.5 28.5625 L 12.5 19.5 C 12.5 18.910914 12.910913 18.5 13.5 18.5 L 34.5 18.5 C 35.089091 18.5 35.5 18.910913 35.5 19.5 L 35.5 28.5625 C 35.5 29.151586 35.089087 29.5625 34.5 29.5625 L 29.5 29.5625 L 29.5 26.5 L 22.5 31.5 L 29.5 36.5 L 29.5 33.5625 L 34.5 33.5625 C 37.235898 33.5625 39.499998 31.298398 39.5 28.5625 L 39.5 19.5 C 39.5 16.764102 37.235899 14.5 34.5 14.5 L 13.5 14.5 z " sodipodi:type="inkscape:offset" opacity="0.4" fill="url(#SVGID_8_)" enable-background="new    " d="   M13.5,15C11.04,15,9,17.04,9,19.5v9.062c0,2.459,2.04,4.5,4.5,4.5H18v-3h-4.5c-0.822,0-1.5-0.68-1.5-1.5V19.5   c0-0.822,0.678-1.5,1.5-1.5"/>
</g>
<g>
	
		<linearGradient id="SVGID_9_" gradientUnits="userSpaceOnUse" x1="-1097.9995" y1="800.2568" x2="-1097.9995" y2="787.6238" gradientTransform="matrix(-1 0 0 1 -1063.5 -769.9961)">
		<stop offset="0" style="stop-color:#000000;stop-opacity:0.2353"/>
		<stop offset="1" style="stop-color:#FFFFFF"/>
	</linearGradient>
	<path opacity="0.4" fill="url(#SVGID_9_)" enable-background="new    " d="M41,28.504v-9.062c0-3.564-2.936-6.5-6.5-6.5h-5   c-0.828,0.002-1.498,0.672-1.5,1.5v2.062h9v14.5"/>
	
		<linearGradient id="SVGID_10_" gradientUnits="userSpaceOnUse" x1="-1080.4995" y1="800.1357" x2="-1080.4995" y2="785.4443" gradientTransform="matrix(-1 0 0 1 -1063.5 -769.9961)">
		<stop offset="0" style="stop-color:#000000;stop-opacity:0.2353"/>
		<stop offset="1" style="stop-color:#FFFFFF"/>
	</linearGradient>
	<path opacity="0.4" fill="url(#SVGID_10_)" enable-background="new    " d="M11,31.004v-14.5h16c0-0.482-0.232-0.936-0.625-1.219   l-7-5c-0.457-0.326-1.062-0.381-1.562-0.125c-0.5,0.256-0.811,0.783-0.813,1.344v1.438h-3.5c-3.564,0-6.5,2.936-6.5,6.5v9.062"/>
	
		<linearGradient id="SVGID_11_" gradientUnits="userSpaceOnUse" x1="-1082.4995" y1="796.6572" x2="-1082.4995" y2="786.499" gradientTransform="matrix(-1 0 0 1 -1063.5 -769.9961)">
		<stop offset="0" style="stop-color:#FFFFFF"/>
		<stop offset="0.5208" style="stop-color:#000000;stop-opacity:0.2353"/>
		<stop offset="0.8003" style="stop-color:#000000;stop-opacity:0.2353"/>
		<stop offset="1" style="stop-color:#FFFFFF"/>
	</linearGradient>
	<path opacity="0.4" fill="url(#SVGID_11_)" enable-background="new    " d="M14,28.004v-8.062h3v1.562   c0.002,0.562,0.312,1.088,0.812,1.344c0.5,0.256,1.105,0.201,1.562-0.125l7-5C26.768,17.441,27,16.986,27,16.504H11v14.5"/>
	
		<linearGradient id="SVGID_12_" gradientUnits="userSpaceOnUse" x1="-1095.9995" y1="796.6572" x2="-1095.9995" y2="786.499" gradientTransform="matrix(-1 0 0 1 -1063.5 -769.9961)">
		<stop offset="0" style="stop-color:#FFFFFF"/>
		<stop offset="0.5208" style="stop-color:#000000;stop-opacity:0.2353"/>
		<stop offset="0.8003" style="stop-color:#000000;stop-opacity:0.2353"/>
		<stop offset="1" style="stop-color:#FFFFFF"/>
	</linearGradient>
	<path opacity="0.4" fill="url(#SVGID_12_)" enable-background="new    " d="M37,31.004v-14.5h-9v1.938   c0.002,0.828,0.672,1.498,1.5,1.5H34v8.062"/>
	
		<linearGradient id="SVGID_13_" gradientUnits="userSpaceOnUse" x1="-887.4136" y1="611.7988" x2="-887.4136" y2="622.6445" gradientTransform="matrix(-3.7501 0 0 1.7575 -3293.3855 -1060.7954)">
		<stop offset="0" style="stop-color:#EEEEEC"/>
		<stop offset="1" style="stop-color:#808080"/>
	</linearGradient>
	
		<path sodipodi:nodetypes="cccccccccccccccccccccccc" fill="url(#SVGID_13_)" stroke="#555753" stroke-linecap="round" stroke-linejoin="round" d="   M34.5,33.504c2.736,0,5-2.264,5-5v-9.062c0-2.736-2.264-5-5-5h-5v4h5c0.589,0,1,0.412,1,1v9.062c0,0.59-0.411,1-1,1"/>
	
		<linearGradient id="SVGID_14_" gradientUnits="userSpaceOnUse" x1="-882.7466" y1="622.6455" x2="-882.7466" y2="610.1279" gradientTransform="matrix(-3.7501 0 0 1.7575 -3293.3855 -1060.7954)">
		<stop offset="0" style="stop-color:#92948F"/>
		<stop offset="1" style="stop-color:#EEEEEC"/>
	</linearGradient>
	
		<path sodipodi:nodetypes="cccccccccccccccccccccccc" fill="url(#SVGID_14_)" stroke="#555753" stroke-linecap="round" stroke-linejoin="round" d="   M13.5,29.504c-0.589,0-1-0.41-1-1v-9.062c0-0.588,0.411-1,1-1h5v3.062l7-5l-7-5v2.938h-5c-2.736,0-5,2.264-5,5v9.062   c0,2.736,2.264,5,5,5"/>
	
		<path inkscape:radius="-0.90625" inkscape:original="M 13.5 14.5 C 10.764102 14.5 8.5 16.764102 8.5 19.5 L 8.5 28.5625 C 8.5 31.298398 10.764102 33.5625 13.5 33.5625 L 18.5 33.5625 L 18.5 29.5625 L 13.5 29.5625 C 12.910913 29.5625 12.5 29.151587 12.5 28.5625 L 12.5 19.5 C 12.5 18.910914 12.910913 18.5 13.5 18.5 L 34.5 18.5 C 35.089091 18.5 35.5 18.910913 35.5 19.5 L 35.5 28.5625 C 35.5 29.151586 35.089087 29.5625 34.5 29.5625 L 29.5 29.5625 L 29.5 26.5 L 22.5 31.5 L 29.5 36.5 L 29.5 33.5625 L 34.5 33.5625 C 37.235898 33.5625 39.499998 31.298398 39.5 28.5625 L 39.5 19.5 C 39.5 16.764102 37.235899 14.5 34.5 14.5 L 13.5 14.5 z " sodipodi:type="inkscape:offset" fill="none" stroke="#FFFFFF" stroke-width="0.8" stroke-linecap="round" d="   M13.5,30.41c-1.011,0-1.906-0.895-1.906-1.906v-9.062c0-1.01,0.896-1.906,1.906-1.906h5c0.5,0,0.906,0.406,0.906,0.906v1.281   l4.5-3.219l-4.5-3.219v1.156c0,0.5-0.406,0.906-0.906,0.906h-5c-2.236,0-4.094,1.857-4.094,4.094v9.062   c0,2.236,1.857,4.095,4.094,4.095"/>
	
		<path inkscape:radius="-0.90625" inkscape:original="M 13.5 14.5 C 10.764102 14.5 8.5 16.764102 8.5 19.5 L 8.5 28.5625 C 8.5 31.298398 10.764102 33.5625 13.5 33.5625 L 18.5 33.5625 L 18.5 29.5625 L 13.5 29.5625 C 12.910913 29.5625 12.5 29.151587 12.5 28.5625 L 12.5 19.5 C 12.5 18.910914 12.910913 18.5 13.5 18.5 L 34.5 18.5 C 35.089091 18.5 35.5 18.910913 35.5 19.5 L 35.5 28.5625 C 35.5 29.151586 35.089087 29.5625 34.5 29.5625 L 29.5 29.5625 L 29.5 26.5 L 22.5 31.5 L 29.5 36.5 L 29.5 33.5625 L 34.5 33.5625 C 37.235898 33.5625 39.499998 31.298398 39.5 28.5625 L 39.5 19.5 C 39.5 16.764102 37.235899 14.5 34.5 14.5 L 13.5 14.5 z " sodipodi:type="inkscape:offset" fill="none" stroke="#FFFFFF" stroke-width="0.8" stroke-linecap="round" d="   M34.5,32.598c2.236,0,4.094-1.855,4.094-4.094v-9.062c0-2.236-1.857-4.094-4.094-4.094h-4.094v2.188H34.5   c1.012,0,1.906,0.896,1.906,1.906v9.062c0,1.012-0.896,1.906-1.906,1.906"/>
	
		<linearGradient id="SVGID_15_" gradientUnits="userSpaceOnUse" x1="-1109.1177" y1="786.9229" x2="-1084.7943" y2="800.313" gradientTransform="matrix(-1 0 0 1 -1063.5 -769.9961)">
		<stop offset="0" style="stop-color:#FFFFFF"/>
		<stop offset="0.2097" style="stop-color:#FFFFFF;stop-opacity:0"/>
		<stop offset="0.3494" style="stop-color:#FFFFFF;stop-opacity:0.8107"/>
		<stop offset="0.4285" style="stop-color:#FFFFFF;stop-opacity:0"/>
		<stop offset="0.5213" style="stop-color:#FFFFFF"/>
		<stop offset="0.5575" style="stop-color:#FFFFFF;stop-opacity:0"/>
		<stop offset="0.71" style="stop-color:#FFFFFF;stop-opacity:0.568"/>
		<stop offset="0.7439" style="stop-color:#FFFFFF;stop-opacity:0"/>
		<stop offset="1" style="stop-color:#FFFFFF;stop-opacity:0"/>
	</linearGradient>
	
		<path inkscape:radius="-0.5" inkscape:original="M 13.5 14.5 C 10.764102 14.5 8.5 16.764102 8.5 19.5 L 8.5 28.5625 C 8.5 31.298398 10.764102 33.5625 13.5 33.5625 L 18.5 33.5625 L 18.5 29.5625 L 13.5 29.5625 C 12.910913 29.5625 12.5 29.151587 12.5 28.5625 L 12.5 19.5 C 12.5 18.910914 12.910913 18.5 13.5 18.5 L 34.5 18.5 C 35.089091 18.5 35.5 18.910913 35.5 19.5 L 35.5 28.5625 C 35.5 29.151586 35.089087 29.5625 34.5 29.5625 L 29.5 29.5625 L 29.5 26.5 L 22.5 31.5 L 29.5 36.5 L 29.5 33.5625 L 34.5 33.5625 C 37.235898 33.5625 39.499998 31.298398 39.5 28.5625 L 39.5 19.5 C 39.5 16.764102 37.235899 14.5 34.5 14.5 L 13.5 14.5 z " sodipodi:type="inkscape:offset" opacity="0.4" fill="url(#SVGID_15_)" enable-background="new    " d="   M34.5,33.004c2.46,0,4.5-2.039,4.5-4.5v-9.062c0-2.459-2.04-4.5-4.5-4.5H30v3h4.5c0.822,0,1.5,0.678,1.5,1.5v9.062   c0,0.822-0.678,1.5-1.5,1.5"/>
	
		<linearGradient id="SVGID_16_" gradientUnits="userSpaceOnUse" x1="-1098.874" y1="781.6133" x2="-1054.6606" y2="805.9531" gradientTransform="matrix(-1 0 0 1 -1063.5 -769.9961)">
		<stop offset="0" style="stop-color:#FFFFFF"/>
		<stop offset="0.2097" style="stop-color:#FFFFFF;stop-opacity:0"/>
		<stop offset="0.3494" style="stop-color:#FFFFFF;stop-opacity:0.8107"/>
		<stop offset="0.4285" style="stop-color:#FFFFFF;stop-opacity:0"/>
		<stop offset="0.5213" style="stop-color:#FFFFFF"/>
		<stop offset="0.5575" style="stop-color:#FFFFFF;stop-opacity:0"/>
		<stop offset="0.71" style="stop-color:#FFFFFF;stop-opacity:0.568"/>
		<stop offset="0.7439" style="stop-color:#FFFFFF;stop-opacity:0"/>
		<stop offset="1" style="stop-color:#FFFFFF;stop-opacity:0"/>
	</linearGradient>
	
		<path inkscape:radius="-0.5" inkscape:original="M 13.5 14.5 C 10.764102 14.5 8.5 16.764102 8.5 19.5 L 8.5 28.5625 C 8.5 31.298398 10.764102 33.5625 13.5 33.5625 L 18.5 33.5625 L 18.5 29.5625 L 13.5 29.5625 C 12.910913 29.5625 12.5 29.151587 12.5 28.5625 L 12.5 19.5 C 12.5 18.910914 12.910913 18.5 13.5 18.5 L 34.5 18.5 C 35.089091 18.5 35.5 18.910913 35.5 19.5 L 35.5 28.5625 C 35.5 29.151586 35.089087 29.5625 34.5 29.5625 L 29.5 29.5625 L 29.5 26.5 L 22.5 31.5 L 29.5 36.5 L 29.5 33.5625 L 34.5 33.5625 C 37.235898 33.5625 39.499998 31.298398 39.5 28.5625 L 39.5 19.5 C 39.5 16.764102 37.235899 14.5 34.5 14.5 L 13.5 14.5 z " sodipodi:type="inkscape:offset" opacity="0.4" fill="url(#SVGID_16_)" enable-background="new    " d="   M13.5,30.004c-0.822,0-1.5-0.678-1.5-1.5v-9.062c0-0.822,0.678-1.5,1.5-1.5h5c0.276,0,0.5,0.225,0.5,0.5v2.094l5.656-4.031   L19,12.473v1.969c0,0.277-0.224,0.5-0.5,0.5h-5c-2.46,0-4.5,2.041-4.5,4.5v9.062c0,2.461,2.04,4.5,4.5,4.5"/>
</g>
</svg>