<svg viewBox="0 0 256 256" xmlns="http://www.w3.org/2000/svg">
<g transform="matrix(7.66317,0,0,7.47975,-602.60194,-6016.62938)">
<path d="m79.8829,821.5403c0,8.59 6.988,15.578 15.576,15.578s15.577-6.988 15.577-15.578-6.988-15.574-15.577-15.574-15.576,6.988-15.576,15.574zm3.151,0c0-6.852 5.574-12.424 12.425-12.424s12.428,5.572 12.428,12.424c0,6.855-5.577,12.428-12.428,12.428s-12.425-5.573-12.425-12.428z" fill="#006da5"/>
<path d="m97.2079,827.9483c0,1.008-.817,1.824-1.825,1.824-1.005,0-1.822-.816-1.822-1.824v-14.588c0-1.008.816-1.824 1.822-1.824s1.825.816 1.825,1.824v14.588z" fill="#006da5"/>
<path d="m91.2059,827.9483c0,1.008-.818,1.824-1.826,1.824-1.005,0-1.822-.816-1.822-1.824v-7.752c0-1.004.817-1.822 1.822-1.822s1.826.818 1.826,1.822v7.752z" fill="#006da5"/>
<path d="m103.2099,827.9483c0,1.008-.816,1.824-1.824,1.824-1.005,0-1.822-.816-1.822-1.824v-7.752c0-1.004.817-1.822 1.822-1.822s1.824.818 1.824,1.822v7.752z" fill="#006da5"/>
</g>
</svg>
