<svg id="svg1307" xmlns="http://www.w3.org/2000/svg" height="128" width="128" version="1.0" xmlns:xlink="http://www.w3.org/1999/xlink">
<defs id="defs1309">
<linearGradient id="linearGradient2905">
<stop id="stop2907" stop-color="#fff" offset="0"/>
<stop id="stop2909" stop-color="#fff" stop-opacity="0" offset="1"/>
</linearGradient>
<linearGradient id="linearGradient3082" y2="169.16" gradientUnits="userSpaceOnUse" x2="75.186" gradientTransform="matrix(.97642 0 0 .97642 1.5136 .0095408)" y1="-217.56" x1="91.829">
<stop id="stop2930" stop-color="#f6f6f6" offset="0"/>
<stop id="stop2932" stop-color="#f6f6f6" stop-opacity="0" offset="1"/>
</linearGradient>
<linearGradient id="linearGradient3085" y2="150.66" xlink:href="#linearGradient2905" gradientUnits="userSpaceOnUse" x2="-68.625" gradientTransform="matrix(-.97642 0 0 .97642 -58.973 -53.552)" y1="159.35" x1="-185.31"/>
<linearGradient id="linearGradient3088" y2="150.66" xlink:href="#linearGradient2905" gradientUnits="userSpaceOnUse" x2="-68.625" gradientTransform="matrix(.97642 0 0 .97642 188.53 -53.552)" y1="162.55" x1="-140.06"/>
<linearGradient id="linearGradient3091" y2="68.546" gradientUnits="userSpaceOnUse" x2="8.878" gradientTransform="matrix(.97642 0 0 .97642 89.254 -30.605)" y1="68.546" x1="-36.688">
<stop id="stop2894" stop-color="#fff" offset="0"/>
<stop id="stop2896" stop-color="#fff" stop-opacity="0" offset="1"/>
</linearGradient>
</defs>
<path id="path2876" d="m64.127 1.3826c-5.701 0.0729-11.221 2.7578-15.745 9.0324-12.471 3.341-15.686 21.062-16.782 33.381-1.393 15.652 6.616 25.489 17.514 29.72-0.158 1.776-0.554 3.289-1.098 4.211-2.048 3.467-6.698 6.474-14.738 8.757-8.97 2.547-16.086 5.022-21.237 9.551-4.5612 4.005-7.5066 8.645-7.5066 14.585 0 15.42 119.34 16.23 119.34 0 0-5.94-2.94-10.58-7.5-14.585-5.1-4.479-12.21-7.11-21.242-9.673-8.1-2.3-12.746-5.212-14.768-8.635-0.675-1.143-1.095-3.167-1.16-5.523 9.917-4.632 17.762-13.575 18.919-26.76 1.836-20.931-16.891-44.28-33.992-44.061z" stroke-opacity=".20732" stroke="#000" stroke-width="1.9528"/>
<path id="path2276" d="m50.893 3.2813v-2.7947 2.7947z" fill-opacity=".75688" fill="#fff"/>
<path id="path2882" fill="url(#linearGradient3091)" d="m63.806 2.319c-3.601 0.046-7.123 1.1624-10.375 3.5395 2.947-1.8678 7.703-2.1105 10.896-1.8186 15.05 1.3757 34.238 22.173 32.403 43.103-0.909 10.362-5.947 18.101-12.877 23.19 7.479-5.064 12.989-13.063 13.944-23.953 1.836-20.93-16.89-44.28-33.991-44.061z"/>
<path id="path2900" fill="url(#linearGradient3088)" d="m79.147 75.901c-0.047 0.023-0.098 0.036-0.145 0.058 0.061 2.244 0.461 4.169 1.104 5.258 1.924 3.258 6.347 6.03 14.058 8.219 8.596 2.44 15.366 4.944 20.216 9.208 4 3.516 6.69 7.546 7.09 12.576 0.02-0.16 0.05-0.33 0.05-0.49 0-5.66-2.8-10.07-7.14-13.887-4.85-4.264-11.62-6.768-20.216-9.208-7.711-2.188-12.134-4.961-14.058-8.219-0.469-0.794-0.786-2.031-0.959-3.515z"/>
<path id="path2913" fill="url(#linearGradient3085)" d="m50.41 75.901c0.047 0.023 0.098 0.036 0.146 0.058-0.062 2.244-0.461 4.169-1.104 5.258-1.925 3.258-6.348 6.03-14.058 8.219-8.594 2.44-15.366 4.944-20.215 9.208-4.001 3.516-6.6885 7.546-7.0872 12.576-0.0254-0.16-0.0581-0.33-0.0581-0.49 0-5.66 2.8033-10.07 7.1453-13.887 4.849-4.264 11.621-6.768 20.215-9.208 7.71-2.188 12.133-4.961 14.058-8.219 0.469-0.794 0.785-2.031 0.958-3.515z"/>
<path id="path2923" opacity=".19262" d="m64.127 1.3826c-5.701 0.0729-11.221 2.7578-15.745 9.0324-12.471 3.341-15.686 21.062-16.782 33.381-1.393 15.652 6.616 25.489 17.514 29.72-0.158 1.776-0.554 3.289-1.098 4.211-2.048 3.467-6.698 6.474-14.738 8.757-8.97 2.547-16.086 5.022-21.237 9.551-1.107 0.973-2.0933 1.995-2.9906 3.051 34.74 13.124 77.188-5.218 111.4 1.374-1.13-1.565-2.51-3.039-4.08-4.425-5.1-4.479-12.21-7.11-21.242-9.673-8.1-2.3-12.746-5.212-14.768-8.635-0.675-1.143-1.095-3.167-1.16-5.523 9.917-4.632 17.762-13.575 18.919-26.76 1.836-20.931-16.891-44.28-33.992-44.061z" fill="url(#linearGradient3082)"/>
</svg>
