<svg viewBox="0 0 400 400" xmlns="http://www.w3.org/2000/svg" xmlns:xlink="http://www.w3.org/1999/xlink">
<defs>
<linearGradient id="linearGradient3544">
<stop offset="0" stop-color="#fff"/>
<stop offset="1" stop-color="#fff" stop-opacity="0"/>
</linearGradient>
<linearGradient gradientUnits="userSpaceOnUse" id="linearGradient3829" x1="406.1798" x2="371.1798" xlink:href="#linearGradient3544" y1="393.4812" y2="486.367"/>
<linearGradient gradientUnits="userSpaceOnUse" id="linearGradient3831" x1="234.1953" x2="280.644" xlink:href="#linearGradient3544" y1="446.1751" y2="493.6751"/>
<linearGradient gradientUnits="userSpaceOnUse" id="linearGradient3833" x1="478.8583" x2="480.5251" xlink:href="#linearGradient3544" y1="485.274" y2="577.274"/>
<linearGradient gradientUnits="userSpaceOnUse" id="linearGradient3835" x1="260" x2="318.7592" xlink:href="#linearGradient3544" y1="557.8622" y2="636.8622"/>
<linearGradient gradientUnits="userSpaceOnUse" id="linearGradient3837" x1="331.2673" x2="360.5369" xlink:href="#linearGradient3544" y1="357.1258" y2="409.2445"/>
<linearGradient gradientUnits="userSpaceOnUse" id="linearGradient3185" x1="472.8832" x2="465.4586" xlink:href="#linearGradient3544" y1="371.687" y2="461.4627"/>
</defs>
<g transform="matrix(1.51953,0,0,1.49827,-372.59424,-585.1649)">
<path d="m520.2286,542.2352a125.2589,127.2792 0 1,1 -250.5178,0 125.2589,127.2792 0 1,1 250.5178,0z" fill="none" stroke="#000" transform="matrix(1.04416,0,0,1.0514,-35.12116,-45.54835)"/>
<path d="m280.3391,484.8548c2.744-4.1424 40.9196-9.0952 46.5824-6.5479 5.9583,2.6802 29.0909,36.123 29.8391,41.889 .7027,5.4147-12.1663,52.0955-16.1047,55.6052-3.7354,3.3287-43.0569,8.6731-46.1712,7.2443-3.412-1.5655-29.1419-38.6416-29.4063-44.8508-.2794-6.5611 12.6205-49.3541 15.2607-53.3398z" fill="#fff" fill-rule="evenodd" stroke="#000"/>
<path d="m327.8571,478.0765c-1.0356,4.5461 27.7561,38.5087 29.2821,42.666 10.546-3.6703 50.4498-10.2868 53.575-13.7374 3.2909-3.6337 3.7069-44.9714 2.5-51.7857-4.3486-3.8092-44.9191-21.4523-49.6429-18.2143-6.8691,1.9234-34.6639,36.4607-35.7143,41.0714z" fill-rule="evenodd" stroke="#000"/>
<path d="m357.5,521.2908c4.706-4.156 48.0765-15.3779 54.2929-13.3839 6.1041,1.958 35.1779,33.3603 36.591,39.8124-.6061,5.9341-13.8713,44.5669-15.8839,50.7143-4.7162,3.5775-49.3248,15.9003-53.5714,14.2857-3.9364-1.4967-38.1735-32.6221-37.8571-37.8571s11.9266-49.5956 16.4286-53.5714z" fill="#fff" fill-rule="evenodd" stroke="#000"/>
<path d="m270.1983,454.1515c0,0 6.3916,27.7383 9.4445,29.9964 2.8735,2.1253 43.3477-4.3562 46.7857-6.4286 3.1724-1.9123 36.6367-36.9745 36.4286-41.4286-.2082-4.4565-7.3427-26.1938-11.4286-28.5714-4.3555-2.5345-45.7143,5.7143-45.7143,5.7143-12.3673,9.2855-40.1336,30.7841-35.516,40.7179z" fill="#fff" fill-rule="evenodd" stroke="#000"/>
<path d="m351.6197,407.1782c5.1569-2.8558 33.0196-11.075 41.0427-15.1588 18.334-.6022 47.2986,14.2418 51.2662,18.5786 0,0 8.5549,21.804 9.2714,29.441-3.3768,3.8208-31.8763,13.8017-38.3695,14.6357-6.5289.8386-51.4393-19.1089-51.4393-19.1089s-7.3842-23.922-11.7714-28.3875z" fill="#fff" fill-rule="evenodd" stroke="#000"/>
<path d="m453.2143,440.9336c5.2115-2.0583 30.3151,28.2673 37.4964,39.3813 3.3806,14.9147-4.6393,52.4044-4.6393,52.4044s-33.4504,15.5016-37.8643,14.8053c-3.1013-4.8594-36.4142-40.3356-36.4142-40.3356s1.6667-50.9644 2.85-52.3268c1.5138-1.743 33.5648-11.9512 38.5714-13.9286z" fill="#fff" fill-rule="evenodd" stroke="#000"/>
<path d="m269.4661,449.5158c0,0 7.4418,31.5312 10.5339,36.0607-2.2747,5.2435-10.1792,26.0687-15.2723,52.4044-3.0774.799-16.8705-.6187-16.8705-.6187-5.7774-27.2764 8.7339-72.2565 21.6089-87.8464z" fill-rule="evenodd" stroke="#000"/>
<path d="m448.6706,548.4372c4.239-2.1554 15.2172-4.1142 38.1151-15.3607 4.6837,9.8249 9.5426,28.9855 5.7143,42.5-.7926,5.3003-32.1429,39.2857-32.1429,39.2857s-19.6254-6.7-27.1428-17.1429c4.2682-10.4429 10.634-36.0734 15.4563-49.2821z" fill-rule="evenodd" stroke="#000"/>
<path d="m294.9188,583.7024c14.0983.5896 40.0812-5.6259 45.0812-7.7687 2.6136,4.4231 27.3611,30.5973 38.483,37.3304-7.5,3.5714-22.0545,28.0267-22.0545,28.0267s-44.2298-9.0177-48.2955-15.6259c-4.1669-6.7725-11.7549-37.8985-13.2143-41.9625z" fill-rule="evenodd" stroke="#000"/>
<path d="m247.3232,538.1846c0,0 11.1435-1.3049 17.6768.6062 4.1727,8.6279 29.2857,44.2857 29.2857,44.2857s12.4163,37.1204 13.2143,42.5c-3.2143,3.2143-8.2143,6.0714-8.2143,6.0714s-20.8817-16.6517-34.1071-38.125c-13.3227-21.6312-17.8554-55.3383-17.8554-55.3383z" fill="#fff" fill-rule="evenodd" stroke="#000"/>
<path d="m306.6233,412.4398c23.77-4.1181 43.1531-5.4373 45.3392-5.7071 2.0897-.2579 40.1804-14.7277 40.1804-14.7277s-27.9785-1.5855-45.7143,2.5c-15.2795,3.5196-35.6445,14.4514-39.8053,17.9348z" fill-rule="evenodd" stroke="#000"/>
<path d="m444.2857,410.2193c0,0 8.1961,24.6903 9.7348,29.816 12.1141,4.8232 37.0509,38.7554 37.0509,38.7554l6.8669-5.3607c0,0-13.1268-26.5082-20.7955-35.7107-7.1429-8.5714-31.4286-27.5-32.8571-27.5z" fill-rule="evenodd" stroke="#000"/>
<path d="m490.73,479.5343c5.9553-4.7818 7.4844-5.9028 7.4844-5.9028 .0655,0 10.9165,30.1783 9.9607,52.8328-.7482,17.7344-5.004,36.9017-7.9457,43.9738-.9145,1.5036-2.5394,2.2696-7.541,4.4941 4.7211-11.2863-2.5629-38.1349-6.425-42.4235 2.3957-8.1845 4.7612-48.0675 4.4665-52.9744z" fill="#fff" fill-rule="evenodd" stroke="#000"/>
<path d="m300.2678,631.6336 7.0711-5.8084c0,0 18.694,10.5604 48.9924,15.9099 .2167,5.4322 10.3541,16.1624 10.3541,16.1624s-25.5064-3.5355-44.6992-13.132-21.7183-12.8794-21.7183-13.132z" fill="#fff" fill-rule="evenodd" stroke="#000"/>
<path d="m378.7062,612.9963c18.2383-1.475 54.9018-14.4452 54.9018-14.4452s22.218,15.5404 26.7691,15.9099c.005,6.4305-.7576,13.6371-.7576,13.6371s-17.9302,16.1624-41.6688,23.2335c-31.2377,9.3048-51.5178,6.566-51.5178,6.566s-6.8173-7.9954-10.1015-15.4048c1.0089-5.3891 18.4649-27.1243 22.3749-29.4965z" fill="#fff" fill-rule="evenodd" stroke="#000"/>
<path d="m460.8929,614.3265c11.9894-11.0753 32.1429-39.2857 32.1429-39.2857l6.25-3.0357c0,0-9.1202,22.2198-16.4286,31.4286-8.1888,10.318-23.0357,24.2857-23.0357,24.2857s1.4035-4.8176 1.0714-13.3928z" fill="#fff" fill-rule="evenodd" stroke="#000"/>
<path d="m328.5012,478.8812c45.938,1.8037 77.1959-.499 85.3571-22.8572-4.3486-3.8092-44.9191-18.7023-49.6429-19.4643-5.3691,4.1734-34.6639,37.7107-35.7143,42.3214z" fill="url(#linearGradient3829)" fill-rule="evenodd"/>
<path d="m269.6101,449.3205c0,0 6.4418,28.0312 9.5339,32.5607-2.2747,5.2435-11.6792,6.5687-19.7723,31.4044-15.4227-18.9889.8465-33.5756 10.2384-63.9651z" fill="url(#linearGradient3831)" fill-rule="evenodd"/>
<path d="m448.3146,548.7419c4.239-2.1554 15.2172-4.1142 38.1151-15.3607 18.3737,36.5652-9.1997,9.0967-53.5714,64.6428 4.2682-10.4429 10.634-36.0734 15.4563-49.2821z" fill="url(#linearGradient3833)" fill-rule="evenodd"/>
<path d="m294.977,583.4152c14.0983.5896 40.0812-5.6259 45.0812-7.7687 2.6136,4.4231 18.8611,22.5973 29.983,29.3304-36.0897,3.7731-60.566,28.2675-75.0643-21.5617z" fill="url(#linearGradient3835)" fill-rule="evenodd"/>
<path d="m307.0173,411.9945c23.77-4.1181 37.4962-5.4373 39.6823-5.7071 7.0893-9.876 46.1924-19.5129.1229-12.2277-15.2795,3.5196-35.6445,14.4514-39.8053,17.9348z" fill="url(#linearGradient3837)" fill-rule="evenodd"/>
<path d="m443.456,409.1727c0,0 8.1961,24.6903 9.7348,29.816 21.5031,2.9991 40.5797,29.6174 23.1223-2.316-7.1429-8.5714-31.4286-27.5-32.8571-27.5z" fill="url(#linearGradient3185)" fill-rule="evenodd"/>
</g>
</svg>
