<svg enable-background="new 0 0 120 120" viewBox="0 0 120 120" xml:space="preserve" xmlns="http://www.w3.org/2000/svg" xmlns:osb="http://www.openswatchbook.org/uri/2009/osb"><defs>
	
	

		
		
		
		
		
		
		
		
		
	
			
			
			
			
		
					
					
					
			<linearGradient gradientUnits="userSpaceOnUse" id="linearGradient3588" x1="73.625" x2="89.503" y1="51.348" y2="46.185">
				<stop offset="0" stop-color="#fff"></stop>
				<stop offset="1" stop-color="#9c9c9c"></stop>
			</linearGradient><linearGradient gradientUnits="userSpaceOnUse" id="linearGradient3590" x1="10.891" x2="37.954">
				<stop offset="0" stop-color="#424242"></stop>
				<stop offset="1" stop-color="#8c94a3"></stop>
			</linearGradient><linearGradient gradientUnits="userSpaceOnUse" id="linearGradient3950" x1="8.0332" x2="31.704" y1="43.904" y2="96.068">
					<stop offset=".11" stop-color="#e8e8e8"></stop>
					<stop offset=".121" stop-color="#b7b7b7"></stop>
					<stop offset=".5" stop-color="#bdbdbd"></stop>
					<stop offset="1" stop-color="#a1a1a0"></stop>
				</linearGradient><linearGradient gradientUnits="userSpaceOnUse" id="linearGradient3952" x1="17.882" x2="41.184" y1="36.577" y2="87.929">
					<stop offset="0" stop-color="#e8e8e8"></stop>
					<stop offset="1" stop-color="#bdbdbd"></stop>
				</linearGradient><linearGradient gradientUnits="userSpaceOnUse" id="linearGradient3954" x1="23.361" x2="39.994" y1="35.227" y2="71.88">
					<stop offset="0" stop-color="#d6d6d6"></stop>
					<stop offset="1" stop-color="#969696"></stop>
				</linearGradient><linearGradient gradientUnits="userSpaceOnUse" id="linearGradient4012" x1="22.913" x2="36.648"><stop offset="0"></stop><stop offset="1" stop-opacity="0"></stop></linearGradient></defs>
<g transform="matrix(1.04858,0,0,1.32809,-2.16799,-18.96504)">
					
					<path d="m14.536,35.947 71.89-17.145c0,0 7.014,38.965 23.963,50.069 0,0-69.747,32.926-74.13,34.971 0,0-7.598-4.092-16.95-21.918-6.194-11.803-15.49-40.618-15.49-40.618l3.653-.73 .828-2.971 2.679-.536 3.556-1.12z"></path>
					
					<path d="m35.871,104.56c-.162-.084-7.878-4.318-17.289-22.26-6.257-11.943-15.531-40.72-15.54-40.745l-.282-.873 4.059-.813 .829-2.972 3.12-.623 3.522-1.108 .246.78-.19-.796 72.731-17.346 .154.852c.01.02 1.743,9.686 5.593,20.747 3.831,11.066 9.842,23.464 18.012,28.783l1.227.801-1.325.623c0,.004-69.744,32.924-74.131,34.973l-.374.174-.364-.19zm-25.858-47.649c3.089,8.662 6.965,18.816 10.021,24.632 6.968,13.283 12.921,18.828 15.391,20.732 .39.301.684.506.886.639 3.473-1.629 21.143-9.965 38.307-18.064l34.155-16.121c-15.114-11.381-21.852-43.322-22.98-48.935l-71.056,16.941-3.548,1.12-2.233.444-.828,2.971-3.242.649c.708,2.166 2.673,8.107 5.13,14.986z"></path>
			</g><g transform="matrix(1.04858,0,0,1.32809,-2.16799,-18.96504)">
				
				<path d="m21.062,70.332c-3.029-6.936-11.397-27.859-11.397-27.859l-1.899.731c0,0 12.858,40.037 25.424,55.816 4.478,5.625 1.169,1.607 1.169,1.607v-1.61c0,0-10.152-21.487-13.297-28.688z" fill="url(#linearGradient3950)"></path>
				
				<path d="m10.834,38.966c0,0 7.598,21.041 11.543,30.685s13.297,28.348 13.297,28.348l13.004-11.689-21.333-52.312-16.511,4.968z" fill="url(#linearGradient3952)"></path>
			</g><g transform="matrix(1.04858,0,0,1.32809,-2.16799,-18.96504)">
				
				<path d="m11.272,40.135c0,0 16.949,25.133 19.872,34.484s21.771-4.531 21.771-4.531l-16.657-37.989-24.986,8.036z" fill="url(#linearGradient3954)"></path>
			</g><path d="m7.9666,23.0092c0,0 45.3513-17.5945 63.2275-20.0528 14.6351-2.0107 17.0573-1.6814 17.0573-1.6814s12.3345,58.3137 30.107,73.0634l-1.9147,1.2604c0,0-73.1608,36.0709-79.9021,42.281 0,0-.1783-18.5414-9.5757-53.7305-6.3901-23.9521-18.993-41.1415-18.993-41.1415z" fill="#fff"></path><path d="m35.6828,117.8945c-.0073-.0106-.0409-4.5208-1.251-13.4987s-3.5956-22.3517-8.2796-39.8944c-3.1625-11.8452-7.8749-22.0502-11.7913-29.2857-3.9196-7.2301-7.0161-11.4521-7.0234-11.4641l.6302-.7371 .2506,1.0386-.2506-1.0386-.6302.7371-.929-1.2697 1.3065-.506c.0346-.0066 45.3198-17.5998 63.3859-20.094 11.0384-1.5167 15.1499-1.7092 16.5582-1.7092 .4645,0 .6417.0226.6868.0279l.582.081 .1531.7185c.0136.0292 3.0713,14.5173 8.3562,30.8701 5.2586,16.3488 12.8263,34.5051 21.3911,41.5639l1.2279,1.0147c0,0-21.5862,11.1852-40.7134,20.9718-19.0779,9.7535-39.1992,20.4473-42.2957,23.3451l-1.3453,1.2325-.0178-2.1117zm-7.9053-54.093c7.7186,28.8992 9.2475,46.6464 9.5484,52.1899 5.763-4.1011 23.8354-13.6023 41.3729-22.5908 18.6145-9.5277 38.0154-19.2055 38.0154-19.2055-16.402-15.6183-27.5809-65.0272-29.1139-71.8549-1.3527.0027-5.4694.2045-16.317,1.696-8.8102,1.2032-24.625,6.2128-38.1769,10.9116-10.8696,3.7691-20.288,7.335-23.6089,8.6073 3.0073,4.4278 12.8399,19.8775 18.2842,40.2424z"></path><g transform="matrix(1.04858,0,0,1.32809,-2.16799,-18.96504)">
			<path d="m29.099,45.688c0,0 18.045-7.16 27.981-10.74 8.738-3.148 26.228-7.744 26.228-7.744" stroke="#979797"></path>
		</g><g fill="url(#linearGradient4012)" transform="matrix(1.04858,0,0,1.32809,-2.16799,-18.96504)">
			
			<path d="m32.362,31.271 4.286,8.572-9.449,3.993-4.286-8.669z" fill="url(#linearGradient4012)"></path>
		</g><g transform="matrix(1.04858,0,0,1.32809,-2.16799,-18.96504)">
			
				<path d="m39.429,31.211c-.294-.601-.81-.833-1.237-.718l-.485.13c-.059.017-.09-.02-.106-.05l-.129-.265c-.021-.04-.018-.063.04-.081s.158-.034.334-.086c.18-.041.443-.107.842-.224s.635-.209.773-.252c.153-.045.267-.031.406.032 .089.044 3.616,1.937 3.815,2.042s3.209,1.625 3.65,1.868l.046-.014-.591-1.208c-.444-.905-.7-1.399-.972-1.9-.207-.393-.753-1.373-.909-1.524-.218-.228-.51-.305-.838-.208l-.374.11c-.048.014-.081.001-.107-.051l-.128-.264c-.02-.041-.005-.067.041-.081 .165-.048.554-.128 1.303-.349 .703-.208.97-.319 1.123-.364 .083-.026.108.001.128.042l.125.255c.02.04.012.077-.035.091l-.317.092c-.316.093-.348.299-.183.694 .287.693.78,1.701 1.105,2.362l1.862,3.798c.07.145.107.25.061.264-.141.04-.307-.051-.362-.081-.021-.016-1.081-.566-2.195-1.144-1.255-.645-2.567-1.328-2.669-1.368-.177-.063-3.484-1.777-3.594-1.837l-.07.02 1.105,2.256c.463.946 1.369,2.575 1.491,2.771 .241.383.407.555.723.462l.351-.104c.083-.025.109.003.14.064l.109.223c.031.062.028.084-.054.109-.118.034-.836.211-1.151.304-.247.072-1.04.341-1.157.374-.047.014-.067-.002-.093-.052l-.131-.265c-.014-.029-.017-.063.041-.081l.398-.117c.34-.099.41-.26.223-.775-.07-.199-.615-1.365-1.501-3.174l-.847-1.726z"></path>
				<path d="m50.926,30.098c.094-.027 1.327-.438 1.458-.5 .315-.151.369-.26.321-.604-.015-.112-.067-.33-.15-.527-.025-.051.001-.081.047-.094l.297-.076c.06-.018.102.015.11.059 .05.185.459,1.018.534,1.17 .175.356.459.831.588,1.037 .025.05.012.077-.03.101l-.241.107c-.054.025-.094.003-.14-.065-.088-.124-.273-.337-.364-.44-.175-.191-.376-.307-.698-.248-.575.112-1.383.351-1.571.405l.309.629c.269.549.775,1.53.875,1.732 .271.526.663.642 1.056.596 .255-.028.609-.098.902-.184 .199-.058.782-.241 1.017-.334 .189-.078.65-.342.845-.654 .091-.144.389-1.068.438-1.352 .011-.06.025-.111.112-.102l.232.038c.074.012.087.042.093.135l.11,1.676c.01.104-.043.187-.183.229-.06.017-.321.083-1.029.28-.703.207-1.845.53-3.673,1.066-.433.128-.756.236-.989.304-.243.083-.39.138-.496.169-.071.019-.114.012-.14-.041l-.134-.274c-.02-.041.01-.062.093-.084l.467-.138c.54-.159.552-.243.368-.62l-1.182-2.409-.487-.996c-.414-.844-1.058-2.107-1.119-2.206-.208-.312-.36-.348-.793-.221l-.422.124c-.06.018-.099.018-.129-.043l-.134-.273c-.017-.032-.001-.059.057-.075 .257-.076.683-.167 1.456-.394l.517-.152 3.474-1.034c.188-.054.401-.139.458-.157s.092-.004.119.023c.117.127 1.315,1.369 1.399,1.46 .032.038.046.068.011.102l-.137.134c-.024.03-.087.013-.109-.004-.043-.035-1.382-.745-1.739-.815-.316-.071-.702-.094-1.026-.013l-2.105.573 1.457,2.98z"></path>
				<path d="m61.129,30.039 .023-.007c-.037-.187-.42-5.041-.581-5.48-.028-.084-.196-.234-.359-.324-.167-.091-.354-.116-.564-.055l-.294.086c-.059.017-.079.002-.109-.061l-.12-.244c-.02-.041-.023-.075.047-.094 .105-.031.533-.122 1.445-.391 .984-.289 1.415-.45 1.532-.485 .069-.021.096.007.115.047l.125.254c.021.041.023.075-.047.094l-.468.139c-.295.086-.29.341-.13.503l4.328,4.565 .023-.007c-.029-.363-.433-5.151-.718-5.73-.079-.163-.247-.288-.564-.196l-.315.094c-.069.02-.097-.007-.127-.067l-.114-.234c-.02-.041-.023-.074.061-.098 .115-.034.541-.124 1.266-.338 .658-.192.982-.324 1.076-.351 .07-.02.092-.004.116.047l.125.253c.02.041.035.071-.048.095l-.28.083c-.199.058-.309.219-.334.412-.024.17.4,6.755.404,7.312-.003.129.013.297-.116.335-.141.042-.238-.021-.366-.147l-4.902-4.942-.024.007c.03.305.457,6.156.442,6.29-.01.119-.034.23-.141.26-.093.028-.185.007-.291-.099l-5.8-5.737c-.255-.25-.46-.283-.683-.218l-.398.118c-.059.017-.09-.021-.11-.063l-.119-.242c-.025-.053-.023-.075.058-.1 .095-.028.472-.103 1.269-.338 .844-.247 1.31-.419 1.427-.454 .082-.025.108.002.123.033l.124.254c.025.051.028.084-.054.109l-.199.058c-.305.09-.34.264-.16.467l4.406,4.587z"></path>
				<path d="m71.345,28.116c-.185-.049-.27-.058-.327-.041-.072.021-.083.105-.104.227-.017.132-.067.16-.15.185-.07.021-.156-.013-.186-.131-.077-.269-.593-1.593-.702-1.898-.019-.064.005-.071.051-.085l.181-.042c.046-.015.081,0 .11.06 .171.32.358.651 1,1.057 .585.373 1.364.458 2.01.269 .703-.207 1.408-.844.96-1.76-.514-1.047-1.57-1.178-2.645-1.188-.42-.004-1.388-.01-2.115-.319-.551-.222-.984-.64-1.313-1.312-.25-.508-.13-1.112.088-1.515 .253-.469.771-.783 1.403-.969 .666-.196 1.268-.174 1.505-.152 .133.019.185-.009.222-.076l.089-.167c.04-.059.065-.088.125-.105s.132.053.177.144c.175.356.836,1.348.955,1.568 .026.053.023.075-.017.1l-.127.071c-.031.02-.059.017-.084-.01-.24-.267-.587-.619-1.279-.915-.462-.201-.941-.224-1.491-.063-1.043.307-1.091,1.089-.837,1.606 .14.284.375.601.798.779 .485.195 1.25.224 1.634.216 .917-.013 1.657-.036 2.301.29 .459.224.863.558 1.191,1.23 .59,1.2.248,2.474-1.296,2.928-.824.24-1.504.197-2.127.018z"></path>
			
		</g><g transform="matrix(1.04858,0,0,1.32809,-2.16799,-18.96504)">
			<path d="m68.307,36.531 11.494-4.091" fill="none" stroke="#999"></path>
			
			<path d="m68.404,39.648 16.366-6.819 11.494,23.671-17.243,7.988z" fill="url(#linearGradient3588)" stroke="#ccc"></path>
		</g><g transform="matrix(1.04858,0,0,1.32809,-2.16799,-18.96504)">
			
				<path d="m91.772,46.046v-.111c-.19-.473-.38-.789-.635-.931-.22-.379-.617-.868-1.154-1.436-1.028-1.104-2.23-2.083-3.622-2.98-.252-.158-.521-.331-.774-.474-.458-.314-.979-.566-1.55-.803-.868-.378-1.721-.677-2.575-.865-1.942-.439-3.712-.311-5.338.339 .047.063.174.11.363.11 .127,0 .917-.064 2.385-.208 1.612-.002 3.144.248 4.583.736 .331.237.885.615 1.643,1.167 1.408.993 2.167,1.592 2.324,1.813 .382.552.919,1.183 1.647,1.924 .695.694 1.233,1.136 1.643,1.325 .128.078.239.188.397.299 .157.125.316.188.426.188 .127,0 .205-.016.205-.047 0-.015 0-.031.032-.046z"></path>
				<path d="m88.172,47.204c.017-.379.016-.647.016-.821-.002-.664-.16-1.122-.477-1.374-.27-.205-.648-.299-1.153-.283-.158-.173-.348-.347-.57-.536-.899-.725-1.485-1.198-1.723-1.435l-.396-.284c0-.047-.016-.079-.03-.079l-.048-.032h-.079c-.237-.173-.442-.299-.601-.426-.507-.346-.948-.615-1.359-.804-1.154-.519-2.434-.581-3.809-.168-2.241.65-3.662,1.601-4.292,2.786-.236.459-.378.996-.423,1.597 0,.142-.016.663-.014,1.564 0,.489.001.79.017.899 0,.174.015.301.031.443l.001.015v.19c0,.031 0,.031.016.047-.109.537-.251,1.138-.408,1.754-.078.315-.125.806-.124,1.469 0,.016 0,.315.002.869 0,.126.016.221.031.315-.031.048-.079.064-.126.111-.142.095-.236.174-.315.237-.142.08-.237.144-.284.238-.221.221-.331.553-.331.963 .001.317.113.648.303,1.027 .031.063.253.395.649,1.026 .632.962.949,1.957.951,2.92 .001.174.316.521.315,0-.001-1.169-.318-2.195-.95-3.079-.317-.41-.523-.709-.651-.915-.205-.332-.3-.647-.301-.963 0-.142.078-.332.252-.569 .063-.031.142-.079.221-.126 .237-.143.41-.238.49-.27 .142-.048.268-.127.363-.237 .047-.032.109-.095.189-.174 .124-.111.268-.221.44-.348 .079-.063.159-.126.269-.206 .27-.206.441-.348.521-.443 .379-.301.631-.491.789-.554 .096.221.222.489.381.805 .252.506.491.899.728,1.168 .078.142.237.3.428.489 .222.205.538.457.95.819 .142.127.409.41.79.805 .11.095.3.251.537.472h.015c.255.269.396.395.46.395 .111,0 .205-.048.253-.159 .047-.079.062-.157.062-.284 0-.174-.142-.396-.411-.647-.316-.252-.521-.442-.616-.537 .205-.031.316-.095.395-.19l.014-.016c0-.158.128-.285.364-.348 .017-.017.017-.017.032-.017 .031-.016.063-.016.095-.032 .095-.031.269-.063.536-.111l.238-.064c.078-.031.189-.047.3-.063 .079,0 .157-.016.204-.016 .08-.032.143-.047.206-.063 .063.015.158.015.268.015 .902-.001 1.405-.16 1.453-.46 .016-.063 0-.221-.033-.474-.016-.237-.016-.411.032-.569 .125-.348.505-.632 1.136-.902-.016.679.001,1.469.052,2.353 0,.237-.175.522-.553.839l-1.057.901c-.126.127-.49.413-1.152.855l-.711.475c-.016-.016-.063-.016-.079-.016-.221,0-.314.111-.313.348 0,.285.568.71 1.706,1.293 .57.314 5.329,3.72 5.456,3.72 .142,0 .394-.522.786-1.55 .394-1.058.582-1.817.581-2.275l-.001-.948c0-.142.631-.964.647-.996 .063-.269.094-.664.092-1.185-.016-.474-.032-.758-.032-.837 .048-.568.046-1.09.014-1.58-.08-.932-.364-1.484-.841-1.657-.663-.236-.979-.726-.949-1.468 .189-.854.236-1.454.188-1.802-.036-.214-.052-.498-.053-.83zm-13.994.699zm-.194-3.111c-.3.332-.505.585-.599.744 .156-.87.502-1.644 1.054-2.34 1.15-1.471 2.919-2.216 5.319-2.219 1.106-.001 2.341.471 3.652,1.385-.633.032-1.675.113-3.112.226-1.988.161-3.205.289-3.615.416-.822.222-1.405.476-1.69.745-.267.251-.614.6-1.009,1.043zm-.645,1.091c.016.015.048.031.109.046 .506-.253.821-.585.962-.965 .174-.474.347-.759.505-.885 .789-.633 3.742-1.111 8.876-1.402 0-.016 0-.016.016-.016 .142.095.269.205.396.315 .696.552 1.327,1.152 1.882,1.782-.096,0-.206.017-.317.048-.157.016-.314.048-.474.08 0,0-.03,0-.03-.016-1.691-.629-3.051-.801-4.075-.5-2.29.446-3.979.906-5.085,1.414-.537.253-.947.491-1.216.76-.11.063-.204.127-.284.174-.077.032-.142.079-.189.095-.077.047-.189.126-.299.221-.396.364-.632.65-.71.871-.13-.711-.147-1.391-.067-2.022zm1.708,1.814c.032-.08.079-.159.11-.238 .283-.505.551-.822.788-1.012 .441-.333 1.357-.649 2.716-.967 1.421-.319 2.699-.478 3.837-.479 .632-.001 1.249.077 1.85.25-.442.206-.838.459-1.185.744-.601.506-1.104.712-1.516.586l-.553-.141c-.269-.016-.553.048-.885.19-.142.063-.268.126-.362.19-.063-.016-.143-.031-.221-.031-.253,0-.411.142-.49.443l.001.9c.002.521.002.837.019.948 .047.316.142.631.302.948 .063.095.143.22.236.394 .016.016.063.032.078.047 .634.536.966.899.967,1.057 0,.095-.016.158-.048.19-.063.047-.157.095-.316.095 0,.016 0,.016-.016.032-.095.079-.269.111-.521.111-.269,0-.458-.063-.568-.189-.189,0-.284.095-.284.301 0,.126.015.173.047.126 .078.031.284.046.631.046 .27,0 .601-.063.98-.19 .205-.08.363-.143.474-.206 .126-.033.222-.049.285-.111 .078-.048.11-.158.109-.285 0-.205-.08-.363-.222-.521-.016-.047-.174-.189-.444-.41-.458-.379-.68-.852-.68-1.421-.002-.11.093-.379.284-.806 .077-.189.124-.348.188-.442h.236l.127.047c.032.031.047.047.095.079l-.175.158 .017.031c.016.048.048.048.096.048 .063,0 .126-.032.221-.095 .348.015 1.342.014 2.954.012 .063.031.11.047.143.079 0,.031 0,.047.001.079 0,.458.032,1.137.081,2.021 0,.11-.016.252-.031.379l-.126.126-.111.111c0,.016-.016.016-.016.016-.726.349-1.183.665-1.404.95-.078.095-.158.237-.236.443-.03.079-.047.142-.078.22-.206.049-.411.159-.633.349-.047.032-.063.064-.094.08-.063.111-.125.206-.188.269-.016.158-.08.269-.19.348-.252.206-.771.302-1.547.303h-.063-.017-.031-.111-.125c0,0-.095.016-.143.016h-.047-.017c-.205-.016-.412-.173-.616-.41-.096-.063-.19-.11-.284-.158-.664-.314-1.075-.377-1.232-.171-.238-.348-.507-.757-.808-1.247-.143-.206-.253-.395-.364-.553 .283-.189.71-.443 1.215-.775 .71-.459 1.073-.743 1.136-.854 .016,0 .032-.032.048-.032 .047-.063.079-.111.079-.127 0-.079-.017-.111-.048-.111v-.126c0-.08 0-.126-.017-.158 0-.047-.015-.063-.015-.078-.127-.016-.268-.031-.38-.016l-.143-.173c-.411-.521-.886-.788-1.424-.788-.172.159-.361.317-.567.475-.125.111-.252.222-.363.301-.031-.063-.078-.142-.125-.221-.16-.255-.255-.586-.271-.996z"></path>
			
		</g><g transform="matrix(1.04858,0,0,1.32809,-2.16799,-18.96504)">
			
			<path d="m34.91,87.414c-1.632-8.162-4.062-18.408-7.253-26.719-5.527-14.405-16.744-28.469-16.766-28.493h.002l.456-.366c.01.012 11.275,14.126 16.853,28.65 6.42,16.727 9.749,41.079 9.753,41.094l-.58.076c-.004-.02-.834-6.082-2.465-14.246z" fill="url(#linearGradient3590)"></path>
		</g><g fill="#006000" stroke="#8b9298" stroke-width=".5" transform="matrix(1.04858,0,0,1.32809,-2.16799,-18.96504)">
			<path d="m31.437,50.802 24.109-8.329" fill="#006000"></path>
			<path d="m31.875,53.139 31.415-11.689" fill="#006000"></path>
			<path d="m32.897,54.747 28.055-10.374" fill="#006000"></path>
			<path d="m33.336,56.938 30.977-11.25" fill="#006000"></path>
			<path d="m34.213,58.838 31.999-11.69" fill="#006000"></path>
			<path d="m34.943,61.029 31.269-12.127" fill="#006000"></path>
			<path d="m35.528,63.075 30.83-12.127" fill="#006000"></path>
			<path d="m36.404,65.268 32.584-12.859" fill="#006000"></path>
			<path d="m37.135,67.313 30.684-12.274" fill="#006000"></path>
			<path d="m38.158,69.213 29.516-11.983" fill="#006000"></path>
			<path d="m39.181,71.404 28.346-11.836" fill="#006000"></path>
			<path d="m39.473,73.449 31.123-13.296" fill="#006000"></path>
			<path d="m40.35,75.787 31.123-13.588" fill="#006000"></path>
			<path d="m41.226,77.688 29.662-12.86" fill="#006000"></path>
			<path d="m42.249,80.172 32.584-15.051" fill="#006000"></path>
			<path d="m42.833,81.924 30.101-13.588" fill="#006000"></path>
			<path d="m43.71,84.701 29.954-14.174" fill="#006000"></path>
			<path d="m44.441,86.746 29.516-13.734" fill="#006000"></path>
			<path d="m45.171,89.084 30.1-14.904" fill="#006000"></path>
			<path d="m46.486,91.131 32.439-15.49" fill="#006000"></path>
			<path d="m46.779,93.76 26.74-13.151" fill="#006000"></path>
			<path d="m80.532,67.896 18.702-8.181" fill="#006000"></path>
			<path d="m81.116,69.066 18.703-8.182" fill="#006000"></path>
			<path d="m81.75,70.234 16.219-7.012" fill="#006000"></path>
			<path d="m81.993,71.551 16.219-7.014" fill="#006000"></path>
			<path d="m82.577,72.816 19.043-8.572" fill="#006000"></path>
			<path d="m82.772,73.986 15.927-6.916" fill="#006000"></path>
			<path d="m83.308,76.811 11.105-4.823" fill="#006000"></path>
			<path d="m83.308,75.057 15.001-6.284" fill="#006000"></path>
		</g>
</svg>
