<svg viewBox="0 0 48 48" xmlns="http://www.w3.org/2000/svg" xmlns:xlink="http://www.w3.org/1999/xlink"><defs><linearGradient id="linearGradient6974"><stop offset="0" stop-color="#eeeeec"/><stop offset="1" stop-color="#eeeeec" stop-opacity="0"/></linearGradient><linearGradient id="linearGradient9193"><stop offset="0" stop-color="#888a85"/><stop offset="1" stop-color="#eeeeec"/></linearGradient><linearGradient id="linearGradient5060"><stop offset="0"/><stop offset="1" stop-opacity="0"/></linearGradient><linearGradient gradientUnits="userSpaceOnUse" id="linearGradient6788" x2="0" y1="38.24171" y2="49.22208"><stop offset="0" stop-opacity="0"/><stop offset=".5"/><stop offset="1" stop-opacity="0"/></linearGradient><linearGradient gradientUnits="userSpaceOnUse" id="linearGradient6800" x1="106.30226" x2="108.06862" y1="29.44635" y2="36.18314"><stop offset="0" stop-color="#434542"/><stop offset=".666" stop-color="#5f615d"/><stop offset="1" stop-color="#6a6c67"/></linearGradient><linearGradient gradientUnits="userSpaceOnUse" id="linearGradient6802" x1="106.34682" x2="112.06232" y1="23.51493" y2="40.55166"><stop offset="0" stop-color="#eeeeec" stop-opacity=".575"/><stop offset="1" stop-opacity="0"/></linearGradient><linearGradient gradientUnits="userSpaceOnUse" id="linearGradient6806" x1="80.45108" x2="93.31552" y1="128.77937" y2="203.01593"><stop offset="0" stop-color="#444542"/><stop offset=".765" stop-color="#363734"/><stop offset="1" stop-color="#282927"/></linearGradient><linearGradient gradientUnits="userSpaceOnUse" id="linearGradient6808" x1="72.80943" x2="85.31001" y1="109.73547" y2="191.97672"><stop offset="0" stop-color="#eeeeec"/><stop offset="1" stop-color="#191c1d"/></linearGradient><linearGradient gradientUnits="userSpaceOnUse" id="linearGradient6810" x1="45.3805" x2="115.32317"><stop offset="0" stop-color="#444542"/><stop offset=".293" stop-color="#898a87"/><stop offset=".402" stop-color="#cecfcc"/><stop offset=".504" stop-color="#7b7c79"/><stop offset="1" stop-color="#282927"/></linearGradient><linearGradient gradientUnits="userSpaceOnUse" id="linearGradient3287" x1="39.99982" x2="41.42263"><stop offset="0" stop-color="#babdb6"/><stop offset="1" stop-color="#555753"/></linearGradient><linearGradient gradientUnits="userSpaceOnUse" id="linearGradient3310" x2="0" y1="12.41517" y2="11.24889"><stop offset="0" stop-color="#eeeeec"/><stop offset="1" stop-color="#aeaea5"/></linearGradient><linearGradient gradientUnits="userSpaceOnUse" id="linearGradient3318" x2="0" y1="18.46915" y2="19.5"><stop offset="0" stop-color="#538ac5"/><stop offset="1" stop-color="#729fcf"/></linearGradient><linearGradient gradientUnits="userSpaceOnUse" id="linearGradient6798" x1="39.33617" x2="51.18507" xlink:href="#linearGradient6974" y1="-132.08546" y2="41.8987"/><linearGradient gradientUnits="userSpaceOnUse" id="linearGradient3275" x1="40" x2="41" xlink:href="#linearGradient6974"/><linearGradient gradientUnits="userSpaceOnUse" id="linearGradient3281" x2="0" xlink:href="#linearGradient9193" y1="11.49794" y2="12.28515"/><linearGradient gradientUnits="userSpaceOnUse" id="linearGradient3284" x2="0" xlink:href="#linearGradient9193" y1="11.32468" y2="12.30068"/><linearGradient gradientUnits="userSpaceOnUse" id="linearGradient3315" x2="0" xlink:href="#linearGradient6974" y1="19.5" y2="15.8536"/><radialGradient cx="13.34159" cy="34.80877" gradientUnits="userSpaceOnUse" id="radialGradient6734" r=".87855"><stop offset="0" stop-color="#fff"/><stop offset="1" stop-color="#fff" stop-opacity="0"/></radialGradient><radialGradient cx="38.61436" cy="19.06562" gradientTransform="matrix(1.175132,-.289172,.375121,1.285688,-15.731732,5.987068)" gradientUnits="userSpaceOnUse" id="radialGradient6828" r="20.9744"><stop offset="0" stop-color="#80857d"/><stop offset="1" stop-color="#313330"/></radialGradient><radialGradient cx="80.45108" cy="161.30241" gradientUnits="userSpaceOnUse" id="radialGradient6830" r="39.35832"><stop offset="0" stop-color="#2e3436"/><stop offset="1" stop-color="#2e3436" stop-opacity="0"/></radialGradient><radialGradient cx="14" cy="33" gradientUnits="userSpaceOnUse" id="radialGradient3305" r="7.5"><stop offset="0" stop-color="#888a85"/><stop offset="1"/></radialGradient><radialGradient cx="602.63416" cy="487.90417" gradientTransform="matrix(.068028,0,0,.046349,-1.547066,21.111496)" gradientUnits="userSpaceOnUse" id="radialGradient6790" r="117.14286" xlink:href="#linearGradient5060"/><radialGradient cx="603.10455" cy="487.93558" gradientTransform="matrix(-.075523,0,0,.04681,54.099037,20.885339)" gradientUnits="userSpaceOnUse" id="radialGradient6792" r="117.14286" xlink:href="#linearGradient5060"/></defs>    <g transform="matrix(1.023852,0,0,1.08402,-.595958,-6.198903)"><path d="m8.54939,38.24171h30.90122v10.98037h-30.90122z" fill="url(#linearGradient6788)" opacity=".5"/><path d="m39.45061,38.24208v10.97977c3.29567.02067 7.96732-2.46001 7.96732-5.49059s-3.67772-5.48918-7.96732-5.48918z" fill="url(#radialGradient6790)" opacity=".5"/><path d="m8.54939,38.24208v10.97977c-4.56628,0-7.96732-.4457-7.96732-5.49059 0-4.78149 3.67772-5.48918 7.96732-5.48918z" fill="url(#radialGradient6792)" opacity=".5"/></g><path d="m3.88374,9.5h40.23252a2.38374,2.4014 0 0,1 2.38374,2.4014v29.19721a2.38374,2.4014 0 0,1 -2.38374,2.4014h-40.23252a2.38374,2.4014 0 0,1 -2.38374-2.4014v-29.19721a2.38374,2.4014 0 0,1 2.38374-2.4014" fill="#cf7427" fill-rule="evenodd" stroke="#2e3436" stroke-linecap="round" stroke-linejoin="round"/><path d="m119.8094,161.30241a39.35832,39.35832 0 1,1 -78.71664,0 39.35832,39.35832 0 1,1 78.71664,0z" fill="url(#radialGradient6830)" fill-rule="evenodd" transform="matrix(.088189,0,0,.096943,28.744961,19.059052)"/><path d="m60.30496,31.35324a19.61245,18.01144 0 1,1 -39.2249,0 19.61245,18.01144 0 1,1 39.2249,0z" fill="none" stroke="url(#radialGradient6828)" stroke-dashoffset=".6" stroke-linecap="round" stroke-linejoin="round" stroke-width="4.69873" transform="matrix(.407904,0,0,.444162,-2.598641,19.074076)"/><path d="m24.65124,43.84693a5.67073,5.67073 0 1,1 10.81667.0089" fill="none" opacity=".6" stroke="#eeeeec" stroke-dasharray="0.98089929, 1.96179858" stroke-linecap="square" stroke-linejoin="round" stroke-width=".9809" transform="matrix(1.013123,0,0,1.025862,5.49107,-9.724302)"/><path d="m3.84557,10.9042h40.30886a1.34557,1.42446 0 0,1 1.34557,1.42446v28.74688a1.34557,1.42446 0 0,1 -1.34557,1.42446h-40.30886a1.34557,1.42446 0 0,1 -1.34557-1.42446v-28.74688a1.34557,1.42446 0 0,1 1.34557-1.42446" fill="none" stroke="#eeeeec" stroke-linecap="round" stroke-linejoin="round"/><path d="m7.48898,16.5h33.02205a1.48898,1.22932 0 0,1 1.48898,1.22932v3.54135a1.48898,1.22932 0 0,1 -1.48898,1.22932h-33.02205a1.48898,1.22932 0 0,1 -1.48898-1.22932v-3.54135a1.48898,1.22932 0 0,1 1.48898-1.22932" fill="url(#linearGradient3318)" fill-rule="evenodd" stroke="#204a87" stroke-linecap="round" stroke-linejoin="round"/><path d="m7.21983,17.5h33.56034a.21983,.21983 0 0,1 .21983.21983v3.56034a.21983,.21983 0 0,1 -.21983.21983h-33.56034a.21983,.21983 0 0,1 -.21983-.21983v-3.56034a.21983,.21983 0 0,1 .21983-.21983" fill="none" opacity=".5" stroke="url(#linearGradient3315)" stroke-linecap="round" stroke-linejoin="round"/><path d="m7.289,21h33.63229" fill="#eeeeec" fill-rule="evenodd" opacity=".7" stroke="#eeeeec" stroke-dasharray="1, 1" stroke-dashoffset=".2" stroke-width="2"/><path d="m15.5,17.49978v4.00043" fill="#c00" fill-rule="evenodd" stroke="#c00" stroke-linecap="square"/><path d="m3.85705,9.99049h40.28591a1.85705,1.98681 0 0,1 1.85705,1.98681v.87215a1.85705,1.98681 0 0,1 -1.85705,1.98681h-40.28591a1.85705,1.98681 0 0,1 -1.85705-1.98681v-.87215a1.85705,1.98681 0 0,1 1.85705-1.98681" fill="url(#linearGradient3310)" fill-rule="evenodd"/><path d="m2,12.15018c.01111.50861 1.11959,1.69602 2.06168,1.69602h39.90818c1.2031,0 2.09113-1.19051 2.09113-1.69602 0,1.20696-.86676,2.42288-2.09113,2.42288h-39.90818c-1.20059,0-2.06168-1.23426-2.06168-2.42288z" fill="#eeeeec" fill-rule="evenodd"/><path d="m2,12.14342c0,.21177.68393.98286 2.06168.98286h39.90818c1.2031,0 2.09113-.7906 2.09113-.9761 0,.69275-1.06476,1.69602-2.09113,1.69602h-39.90818c-.82502,0-2.06168-1.14252-2.06168-1.70278z" fill="#e3e3df" fill-rule="evenodd"/><path d="m21.5,33c0,4.13999-3.36,7.5-7.5,7.5s-7.5-3.36-7.5-7.5 3.36-7.5 7.5-7.5 7.5,3.36 7.5,7.5z" fill="url(#radialGradient3305)" opacity=".585"/><path d="m119.8094,161.30241a39.35832,39.35832 0 1,1 -78.71664,0 39.35832,39.35832 0 1,1 78.71664,0z" fill="none" stroke="url(#linearGradient6808)" stroke-dashoffset=".6" stroke-linecap="round" stroke-linejoin="round" stroke-width="5.24778" transform="matrix(.190557,0,0,.190557,-1.330509,2.262712)"/><path d="m119.8094,161.30241c0,21.73701-17.62132,39.35833-39.35832,39.35833s-39.35832-17.62132-39.35832-39.35833 17.62132-39.35832 39.35832-39.35832 39.35832,17.62132 39.35832,39.35832z" fill="url(#linearGradient6798)" fill-rule="evenodd" transform="matrix(.177853,0,0,.177852,-.308475,4.311972)"/><path d="m119.8094,161.30241c0,21.73701-17.62132,39.35833-39.35832,39.35833s-39.35832-17.62132-39.35832-39.35833 17.62132-39.35832 39.35832-39.35832 39.35832,17.62132 39.35832,39.35832z" fill="url(#linearGradient6798)" fill-rule="evenodd" transform="matrix(0,.177852,-.177853,0,42.688137,18.691632)"/><g transform="translate(0,-2)"><path d="m16.35376,35.68733c0,1.17776-.95587,2.13362-2.13362,2.13362s-2.13362-.95587-2.13362-2.13362 .95586-2.13362 2.13362-2.13362 2.13362.95586 2.13362,2.13362z" fill-rule="evenodd" opacity=".585" stroke="#2e3436" stroke-width=".71429"/><path d="m14.22013,34.80877c0,.48496-.39359.87855-.87855.87855s-.87855-.39359-.87855-.87855 .39359-.87855.87855-.87855 .87855.39359.87855.87855z" fill="url(#radialGradient6734)" fill-rule="evenodd" opacity=".585"/></g><path d="m82.45235,42.82719a35.4892,28.15121 0 1,1 -70.9784,0 35.4892,28.15121 0 1,1 70.9784,0z" fill="url(#linearGradient6798)" fill-rule="evenodd" transform="matrix(.177247,-.067912,.065382,.184106,2.529365,27.491872)"/><path d="m119.8094,161.30241a39.35832,39.35832 0 1,1 -78.71664,0 39.35832,39.35832 0 1,1 78.71664,0z" fill="url(#linearGradient6810)" fill-rule="evenodd" stroke="#2e3436" stroke-dashoffset=".6" stroke-linecap="round" stroke-linejoin="round" stroke-width="10.61961" transform="matrix(.088927,0,0,.099713,28.803175,17.114654)"/><path d="m119.8094,161.30241a39.35832,39.35832 0 1,1 -78.71664,0 39.35832,39.35832 0 1,1 78.71664,0z" fill="url(#linearGradient6806)" fill-rule="evenodd" stroke="url(#linearGradient6808)" stroke-dashoffset=".6" stroke-linecap="round" stroke-linejoin="round" stroke-width="11.24524" transform="matrix(.088927,0,0,.088927,28.803175,19.385911)"/><path d="m82.45235,42.82719a35.4892,28.15121 0 1,1 -70.9784,0 35.4892,28.15121 0 1,1 70.9784,0z" fill="url(#linearGradient6798)" fill-rule="evenodd" transform="matrix(.064105,-.023759,.023647,.064411,31.647618,31.357287)"/><path d="m113.1385,30.41931a5.06989,6.13723 0 1,1 -10.13977,0 5.06989,6.13723 0 1,1 10.13977,0z" fill="url(#linearGradient6800)" fill-rule="evenodd" stroke="url(#linearGradient6802)" stroke-dashoffset=".6" stroke-linecap="round" stroke-linejoin="round" stroke-width="2.23124" transform="matrix(.246554,0,0,.203675,8.855261,26.30435)"/><path d="m35.52217,10.5h6.91073a1.04464,.88422 0 0,1 1.04464.88422v.23156a1.04464,.88422 0 0,1 -1.04464.88422h-6.91073a1.04464,.88422 0 0,1 -1.04464-.88422v-.23156a1.04464,.88422 0 0,1 1.04464-.88422" fill="url(#linearGradient3281)" fill-rule="evenodd" stroke="#2e3436" stroke-dashoffset=".6" stroke-linecap="round" stroke-linejoin="round"/><path d="m39.5,11.66255v-4.18059h1v-2.42756-1.5544h-1v-2h4v2h-1v1.59711 2.38486h1v4.1806c0,1.16771-4,1.06427-4-1.3e-05z" fill="url(#linearGradient3287)" fill-rule="evenodd" stroke="#2e3436" stroke-dashoffset="1.5" stroke-linejoin="round"/><path d="m5.15079,10.5h2.69841a1.15079,1 0 0,1 1.15079,1 1.15079,1 0 0,1 -1.15079,1h-2.69841a1.15079,1 0 0,1 -1.15079-1 1.15079,1 0 0,1 1.15079-1" fill="url(#linearGradient3284)" fill-rule="evenodd" stroke="#2e3436" stroke-dashoffset=".6" stroke-linecap="round" stroke-linejoin="round"/><path d="m14.6466,10.5h14.90949a1.04525,1 0 0,1 1.04525,1 1.04525,1 0 0,1 -1.04525,1h-14.90949a1.04525,1 0 0,1 -1.04525-1 1.04525,1 0 0,1 1.04525-1" fill="url(#linearGradient3281)" fill-rule="evenodd" stroke="#2e3436" stroke-dashoffset=".6" stroke-linecap="round" stroke-linejoin="round"/><path d="m40.5,1.99958v1.00042" fill="none" stroke="url(#linearGradient3275)"/><path d="m40.5,8.5v2.84752" fill="none" stroke="url(#linearGradient3275)" stroke-linecap="round"/><path d="m23.5,10.49966v2.00034" fill="none" stroke="#2e3436"/><path d="m6.5,10.49966v2.00034" fill="none" stroke="#2e3436"/></svg>
