<svg viewBox="0 0 259.35626 274.01251" xmlns="http://www.w3.org/2000/svg">
<g transform="translate(-227.4647,-141.0702)">
<path d="m357.6828,151.1533-32.1904,11.1193 31.6651,11.703 32.0153-11.8197-31.49-11.0025z" fill="#c00" fill-rule="evenodd" stroke="#000" stroke-linecap="round" stroke-linejoin="round" stroke-width="2.0546"/>
<path d="m391.3032,162.8855-32.0737,11.8489 40.3037,14.8841 31.5192-12.8411-39.7492-13.8918z" fill="#c00" fill-rule="evenodd" stroke="#000" stroke-linecap="round" stroke-linejoin="round" stroke-width="2.0546"/>
<path d="m323.3619,163.0022-39.9535,13.8334 31.3733,12.7828 40.3037-14.8841-31.7235-11.7322z" fill="#c00" fill-rule="evenodd" stroke="#000" stroke-linecap="round" stroke-linejoin="round" stroke-width="2.0546"/>
<path d="m357.1574,175.4931-40.4205,14.9132 40.4205,16.46 40.4205-16.46-40.4205-14.9132z" fill="#c00" fill-rule="evenodd" stroke="#000" stroke-linecap="round" stroke-linejoin="round" stroke-width="2.0546"/>
<path d="m433.0662,177.4777-31.5484,12.8703 43.3681,16.0223 30.7896-14.0085-42.6093-14.8841z" fill="#c00" fill-rule="evenodd" stroke="#000" stroke-linecap="round" stroke-linejoin="round" stroke-width="2.0546"/>
<path d="m281.3654,177.536-42.8136,14.7965 30.7312,14.0669 43.5432-16.0515-31.4608-12.812z" fill="#c00" fill-rule="evenodd" stroke="#000" stroke-linecap="round" stroke-linejoin="round" stroke-width="2.0546"/>
<path d="m314.7816,191.136-43.6308,16.1098 40.0411,18.357 44.0977-17.9776-40.508-16.4892z" fill="#c00" fill-rule="evenodd" stroke="#000" stroke-linecap="round" stroke-linejoin="round" stroke-width="2.0546"/>
<path d="m399.5625,191.136-40.508,16.4892 43.7767,17.8609 40.2162-18.2986-43.4848-16.0515z" fill="#c00" fill-rule="evenodd" stroke="#000" stroke-linecap="round" stroke-linejoin="round" stroke-width="2.0546"/>
<path d="m237.0634,193.2081 4.3777,49.8178 29.593,15.6429-3.2103-51.1895 .3502-.0292-31.1106-14.242z" fill="#fce94f" fill-rule="evenodd" stroke="#000" stroke-linecap="round" stroke-linejoin="round" stroke-width="2.0546"/>
<path d="m477.2223,193.2081-31.3149,14.242 .5837.0584-4.7862,52.1526 29.4179-15.5553 6.0996-50.8977z" fill="#3465a4" fill-rule="evenodd" stroke="#000" stroke-linecap="round" stroke-linejoin="round" stroke-width="2.0546"/>
<path d="m444.9443,207.8879-41.0917,18.7072 .5253.0292-1.897,53.8161 37.7355-19.9914 4.8154-52.532-.0876-.0292z" fill="#3465a4" fill-rule="evenodd" stroke="#000" stroke-linecap="round" stroke-linejoin="round" stroke-width="2.0546"/>
<path d="m269.2831,207.9754 3.2395,51.4814 39.1363,20.6918-1.7219-53.5243h.0584l-40.7123-18.6489z" fill="#fce94f" fill-rule="evenodd" stroke="#000" stroke-linecap="round" stroke-linejoin="round" stroke-width="2.0546"/>
<path d="m357.1866,208.4132-44.2144,18.0068 43.7475,20.0497 44.3604-20.1956-43.8934-17.8609z" fill="#c00" fill-rule="evenodd" stroke="#000" stroke-linecap="round" stroke-linejoin="round" stroke-width="2.0546"/>
<path d="m402.8895,227.0329-45.411,20.6626 .4961,56.326 43.0762-22.8222 1.897-54.1371-.0584-.0292z" fill="#3465a4" fill-rule="evenodd" stroke="#000" stroke-linecap="round" stroke-linejoin="round" stroke-width="2.0546"/>
<path d="m311.3962,227.2663 1.6927,53.641 43.4848,22.9682-.4961-56.1217-44.6814-20.4875z" fill="#fce94f" fill-rule="evenodd" stroke="#000" stroke-linecap="round" stroke-linejoin="round" stroke-width="2.0546"/>
<path d="m241.587,244.6895 4.0858,46.3741 28.484,17.569-3.0352-48.3295-29.5347-15.6137z" fill="#fce94f" fill-rule="evenodd" stroke="#000" stroke-linecap="round" stroke-linejoin="round" stroke-width="2.0546"/>
<path d="m470.9184,245.7985-29.3596,15.5553-4.5236,49.2634 28.2214-17.6274 5.6618-47.1912z" fill="#3465a4" fill-rule="evenodd" stroke="#000" stroke-linecap="round" stroke-linejoin="round" stroke-width="2.0546"/>
<path d="m272.6101,261.0911 3.0352,48.4462 37.6771,23.26-1.6343-51.0144-39.078-20.6918z" fill="#fce94f" fill-rule="evenodd" stroke="#000" stroke-linecap="round" stroke-linejoin="round" stroke-width="2.0546"/>
<path d="m440.0705,262.1418-37.6479,19.933-1.8094,51.3354 34.9338-21.8591 4.5236-49.4093z" fill="#3465a4" fill-rule="evenodd" stroke="#000" stroke-linecap="round" stroke-linejoin="round" stroke-width="2.0546"/>
<path d="m313.1473,282.5417 1.6343,51.1311 42.2591,26.0909-.4669-54.2539-43.4265-22.9682z" fill="#fce94f" fill-rule="evenodd" stroke="#000" stroke-linecap="round" stroke-linejoin="round" stroke-width="2.0546"/>
<path d="m400.9925,282.8335-43.0179,22.7639 .4669,54.1663 40.7123-25.4488 1.8386-51.4814z" fill="#3465a4" fill-rule="evenodd" stroke="#000" stroke-linecap="round" stroke-linejoin="round" stroke-width="2.0546"/>
<path d="m245.8188,292.7854 3.794,43.1346 27.3458,17.5107-2.7142-43.1054-28.4257-17.5399z" fill="#fce94f" fill-rule="evenodd" stroke="#000" stroke-linecap="round" stroke-linejoin="round" stroke-width="2.0546"/>
<path d="m465.0232,294.7992-28.1338,17.5982-3.5605,38.7569 27.3166-19.7287 4.3777-36.6265z" fill="#3465a4" fill-rule="evenodd" stroke="#000" stroke-linecap="round" stroke-linejoin="round" stroke-width="2.0546"/>
<path d="m275.762,311.2592 2.685,43.1346 36.3055,23.26-1.3717-43.193-37.6188-23.2016z" fill="#fce94f" fill-rule="evenodd" stroke="#000" stroke-linecap="round" stroke-linejoin="round" stroke-width="2.0546"/>
<path d="m435.3718,313.3313-34.817,21.8008-1.43,40.7123 32.6866-23.6102 3.5605-38.9029z" fill="#3465a4" fill-rule="evenodd" stroke="#000" stroke-linecap="round" stroke-linejoin="round" stroke-width="2.0546"/>
<path d="m314.8108,335.3655 1.3717,43.2222 41.2376,26.4119-.3502-43.6016-42.2591-26.0325z" fill="#fce94f" fill-rule="evenodd" stroke="#000" stroke-linecap="round" stroke-linejoin="round" stroke-width="2.0546"/>
<path d="m399.0955,336.0368-40.6248,25.4196 .3502,43.4556 38.8445-28.0171 1.43-40.8582z" fill="#3465a4" fill-rule="evenodd" stroke="#000" stroke-linecap="round" stroke-linejoin="round" stroke-width="2.0546"/>
</g>
</svg>
