<svg height="160" viewBox="0 0 128 128" width="160" xmlns="http://www.w3.org/2000/svg">
<defs>
<linearGradient gradientUnits="userSpaceOnUse" id="linearGradient3242" x1="6.5969" x2="120.4055">
<stop offset="0" stop-color="rgb(79.607843%,0%,0%)"/>
<stop offset="1" stop-color="rgb(48.627451%,0%,0%)"/>
</linearGradient>
<linearGradient gradientUnits="userSpaceOnUse" id="linearGradient3244" x2="0" y1="11.637" y2="115.3635">
<stop offset=".28" stop-color="rgb(100%,100%,81.176471%)"/>
<stop offset="1" stop-color="rgb(100%,70.196078%,0%)"/>
</linearGradient>
<linearGradient gradientUnits="userSpaceOnUse" id="linearGradient3246" x2="0" y1="17.3684" y2="110.2434">
<stop offset=".17" stop-color="#fff"/>
<stop offset=".61" stop-color="rgb(100%,76.470588%,4.313725%)"/>
<stop offset="1" stop-color="#fff"/>
</linearGradient>
<linearGradient gradientUnits="userSpaceOnUse" id="linearGradient3248" x2="0" y1="14.1341" y2="112.8606">
<stop offset=".17" stop-color="#fff"/>
<stop offset=".61" stop-color="rgb(100%,65.882353%,0%)"/>
<stop offset="1" stop-color="#fff"/>
</linearGradient>
</defs>
<g transform="matrix(1.12417,0,0,1.18456,-7.34381,-10.90665)">
<path d="m95.5742,117.8633c-1.0273,0-2.0586-.3164-2.9375-.9531l-29.1367-21.1719-29.1406,21.1719c-.875.6367-1.9102.957-2.9375.957s-2.0625-.3203-2.9375-.957c-1.7539-1.2734-2.4883-3.5312-1.8203-5.5899l11.1328-34.2578-29.1406-21.1719c-1.75-1.2734-2.4844-3.5312-1.8164-5.5898s2.5898-3.457 4.7578-3.457h36.0156l11.1289-34.2539c.6719-2.0625 2.5938-3.4531 4.7578-3.4531 2.168,0 4.0859,1.3945 4.7578,3.4531l11.1289,34.2539h36.0156c2.168,0 4.0859,1.3945 4.7578,3.457s-.0625,4.3164-1.8164,5.5898l-29.1406,21.1719 11.1328,34.2578c.668,2.0586-.0664,4.3164-1.8203,5.5899-.875.6367-1.9062.9531-2.9414.9531z" fill="url(#linearGradient3242)"/>
<path d="m95.5742,115.3633c-.5156,0-1.0273-.1601-1.4648-.4766l-30.6133-22.2422-30.6055,22.2383c-.4375.3164-.9531.4766-1.4688.4766s-1.0312-.1602-1.4688-.4766c-.8789-.6367-1.2461-1.7656-.9102-2.793l11.6914-35.9844-30.6055-22.2422c-.8789-.6328-1.2461-1.7617-.9102-2.793s1.293-1.7266 2.3789-1.7266h37.832l11.6914-35.9805c.3359-1.0273 1.293-1.7266 2.3789-1.7266 1.082,0 2.043.6992 2.3789,1.7266l11.6914,35.9805h37.832c1.0859,0 2.043.6992 2.3789,1.7266s-.0273,2.1602-.9102,2.7969l-30.6094,22.2383 11.6914,35.9844c.3359,1.0273-.0273,2.1562-.9062,2.793-.4414.3164-.9531.4805-1.4727.4805z" fill="url(#linearGradient3244)"/>
<path d="m33.3203,110.2422 11.3008-34.7813 .2266-.6914-.5859-.4258-29.5859-21.5h37.2969l.2227-.6914 11.3047-34.7852 11.3008,34.7852 .2227.6914h37.3008l-29.5898,21.5-.5859.4258 .2227.6914 11.3086,34.7813-29.5938-21.4961-.5859-.4258-.5898.4258z" fill="url(#linearGradient3246)"/>
<path d="m63.5,14.1367 12.2539,37.707h39.6484l-32.0781,23.3086 12.2539,37.7109-32.0781-23.3086-32.0781,23.3086 12.2539-37.7109-32.082-23.3086h39.6523l12.2539-37.707m0,6.4688-10.3516,31.8594-.4492,1.3789h-34.9492l27.1016,19.6914 1.1719.8516-.4492,1.3828-10.3516,31.8555 27.0977-19.6875 1.1758-.8555 1.1797.8555 27.0977,19.6875-10.3516-31.8555-.4492-1.3828 1.1797-.8555 27.0977-19.6875h-34.9492l-.4492-1.3789z" fill="url(#linearGradient3248)"/>
</g>
</svg>
