<svg xmlns="http://www.w3.org/2000/svg" xmlns:xlink="http://www.w3.org/1999/xlink" viewBox="0 0 128 128">
<defs>
<filter id="AI_Sfocatura_4">
<feGaussianBlur stdDeviation="4"/>
</filter>
<linearGradient id="linearGradient3242" gradientUnits="userSpaceOnUse" x2="110.05" x1="17.949">
<stop stop-color="#fff" offset="0"/>
<stop stop-color="#fff" stop-opacity="0" offset=".8"/>
</linearGradient>
<linearGradient id="linearGradient3251" gradientUnits="userSpaceOnUse" x2="0" y2=".0005" y1="116">
<stop stop-color="#555" offset="0"/>
<stop stop-color="#595959" offset=".274"/>
<stop stop-color="#666" offset=".562"/>
<stop stop-color="#7b7b7b" offset=".856"/>
<stop stop-color="#888" offset="1"/>
</linearGradient>
<linearGradient id="linearGradient3579">
<stop stop-color="#fff" offset="0"/>
<stop stop-color="#fff" stop-opacity="0" offset="1"/>
</linearGradient>
<linearGradient id="linearGradient10462" y2="111.34" xlink:href="#linearGradient3579" gradientUnits="userSpaceOnUse" y1="52.714" gradientTransform="matrix(1.2691 -.13167 .08088 .77957 0 0)" x2="15.224" x1="-19.04"/>
<linearGradient id="linearGradient10464" y2="37.164" xlink:href="#linearGradient3579" gradientUnits="userSpaceOnUse" y1="-6.6212" gradientTransform="matrix(.60451 -.06272 .1698 1.6366 0 0)" x2="97.343" x1="71.088"/>
<linearGradient id="linearGradient13837" y2="20.793" xlink:href="#linearGradient3579" gradientUnits="userSpaceOnUse" y1="4.4251" gradientTransform="scale(.583 1.715)" x2="156.68" x1="95.225"/>
<radialGradient id="radialGradient3246" gradientUnits="userSpaceOnUse" cy="64" cx="64" r="52">
<stop stop-color="#fff" offset="0"/>
<stop stop-color="#fff" offset=".574"/>
<stop stop-color="#fbfbfb" offset=".684"/>
<stop stop-color="#eee" offset=".8"/>
<stop stop-color="#ddd" offset=".9"/>
<stop stop-color="#bbb" offset="1"/>
</radialGradient>
</defs>
<path transform="matrix(1.10345,0,0,1.10345,0,-2.8e-6)" d="m116 58a58 58 0 1 0 -116 0 58 58 0 1 0 116 0" fill="url(#linearGradient3251)"/>
<g filter="url(#AI_Sfocatura_4)" opacity=".8" transform="matrix(1.0833 0 0 1.0833 1.1667 1.1667)">
<path d="m10 58c0 26.467 21.533 48 48 48s48-21.533 48-48-21.533-48-48-48-48 21.533-48 48z"/>
</g>
<path id="path52" fill="url(#radialGradient3246)" d="m12 64c0 28.673 23.327 52 52 52s52-23.327 52-52-23.327-52-52-52-52 23.327-52 52z"/>
<path id="path54" opacity=".5" fill="url(#linearGradient3242)" d="m64 64c17.789 0 33.967-5.13 46.05-13.509-5.85-19.909-24.274-34.491-46.05-34.491s-40.201 14.583-46.051 34.491c12.083 8.379 28.261 13.509 46.051 13.509z"/>
<g id="g56" transform="matrix(.98393 -.18258 .25614 .66198 .43822 35.067)">
<path id="path58" fill="#00438a" d="m69 2.3125c-4.182 6.7229-5.162 15.576-8.154 23.086l-11.94 37.758c-10.999-12.496-34.63-4.748-36 11.959-2.9364 15.69 15.411 29.885 29.906 22.697 13.675-7.188 14.049-24.626 18.983-37.496l10.705-35.472c3.6591 9.5669 8.8614 23.029-0.8167 30.796-6.038 2.85-4.285 14.034 3.223 11.735 13.141-5.459 18.013-23.406 12.055-35.86-4.419-9.293-10.011-18.167-15.22-27.083-0.763-0.6828-1.266-3.03-2.741-2.1195z"/>
<path id="path60" fill="url(#linearGradient10462)" d="m28.343 60.415c-7.297 2.356-11.243 7.731-12.469 14.228 6.647 28.457 14.41-11.38 33.392-6.187 0.368-1.99-8.962-11.57-20.923-8.041z"/>
<path id="path62" fill="url(#linearGradient10464)" d="m50.706 66.934c4.801-2.272 14.704-50.34 20.975-50.353-1.84-0.43-2.171-3.24-2.286-9.7914-0.328 1.0519-18.474 60.366-18.689 60.144z"/>
<path id="path64" fill-rule="evenodd" fill="url(#linearGradient13837)" d="m71.542 16.852s22.416 33.863 6.5183 35.93c3.6566-4.2925 3.8156-16.534-6.5183-35.93z"/>
</g>
</svg>
