<svg id="svg1307" xmlns="http://www.w3.org/2000/svg" height="128" width="128" version="1.0" xmlns:xlink="http://www.w3.org/1999/xlink" xmlns:dc="http://purl.org/dc/elements/1.1/">
<defs id="defs1309">
<radialGradient id="radialGradient2995" gradientUnits="userSpaceOnUse" cy="115.71" cx="63.912" gradientTransform="matrix(.74813 0 0 .061658 32.713 93.457)" r="63.912">
<stop id="stop3293-0" stop-color="#43ACE8" offset="0"/>
<stop id="stop3295-3" stop-color="#43ACE8" stop-opacity="0" offset="1"/>
</radialGradient>
</defs>
<path id="path2876-4" d="m79.947 13.799c-4.265 0.0544-8.395 2.0631-11.779 6.7574-9.33 2.5-11.736 15.757-12.556 24.973-1.0416 11.709 4.9496 19.069 13.103 22.234-0.11881 1.329-0.41466 2.4609-0.8218 3.1502-1.532 2.5938-5.0105 4.8438-11.026 6.5516-6.711 1.9053-12.034 3.7568-15.888 7.1451-3.4121 2.9998-5.6157 6.4685-5.6157 10.912 0 11.533 89.28 12.144 89.28 0 0-4.4432-2.2035-7.912-5.6157-10.912-3.8114-3.3507-9.134-5.3189-15.888-7.2364-6.0599-1.7204-9.5362-3.8996-11.049-6.4603-0.50521-0.85532-0.81931-2.3689-0.86746-4.1318 7.42-3.465 13.29-10.156 14.15-20.02 1.38-15.659-12.632-33.127-25.426-32.963z" stroke-opacity=".20732" stroke="#43ace8" stroke-width="1.461" fill="#43ace8"/>
<path id="path2276-8" d="m70.588 11.423v-2.0909 2.0909z" fill-opacity=".75688" fill="#fff"/>
<path id="path3289-7" opacity=".38140" d="m128.34 100.59a47.814 3.9408 0 1 1 -95.626 0 47.814 3.9408 0 1 1 95.626 0z" fill="url(#radialGradient2995)"/>
<path id="path2876" d="m52.12 22.172c-4.6296 0.05915-9.1134 2.2397-12.787 7.3353-10.128 2.7139-12.74 17.106-13.63 27.111-1.1308 12.711 5.3732 20.701 14.225 24.137-0.12897 1.4427-0.45014 2.6716-0.89213 3.4199-1.6632 2.8158-5.4393 5.2584-11.969 7.1123-7.2854 2.0684-13.064 4.0783-17.248 7.7566-3.7041 3.2565-6.0963 7.0221-6.0963 11.846 0 12.52 96.921 13.183 96.921 0 0-4.8235-2.3921-8.5891-6.0963-11.846-4.1376-3.6375-9.9158-5.7741-17.248-7.8557-6.5786-1.8677-10.352-4.2333-11.994-7.0132-0.54845-0.92852-0.88943-2.5716-0.9417-4.4855 8.0534-3.7619 14.425-11.025 15.365-21.733 1.489-16.999-13.72-35.962-27.609-35.785z" stroke-opacity=".20732" stroke="#000" stroke-width="1.586"/>
<path id="path2276" d="m37.294 28.253v-2.2697 2.2697z" fill-opacity=".75688" fill="#fff"/>
</svg>
