<!-- Created with Inkscape (http://www.inkscape.org/) -->
<svg id="svg3747" xmlns:rdf="http://www.w3.org/1999/02/22-rdf-syntax-ns#" xmlns="http://www.w3.org/2000/svg" height="90" width="90" version="1.1" xmlns:cc="http://creativecommons.org/ns#" xmlns:dc="http://purl.org/dc/elements/1.1/">
<g id="layer1" transform="translate(-144 -962.36)">
<g id="g4171" transform="translate(-198,611)">
<rect id="rect4173" opacity="0.01" style="color:#000000" height="90" width="90" y="351.36" x="342" fill="none"/>
<path id="path4185" style="color:#000000" d="m360 369.36c-4.5 0-6 0.00002-6 6.8478v40.304c0 6.8478 1.5 6.8478 6 6.8479 4.5 0.00005 6-0.00002 6-6.8479v-40.304c0-6.8478-1.5-6.8478-6-6.8478z" fill="#808080"/>
<path id="path4984" style="color:#000000" transform="matrix(5.9081 0 0 5.9246 -258.35 -635.08)" fill="#808080" d="m113.92 179.14c-0.52479 0.30299-8.7464-4.4438-8.7464-5.0498 0-0.60597 8.2216-5.3527 8.7464-5.0498 0.52478 0.30299 0.52478 9.7965 0 10.1z"/>
</g>
</g>
</svg>
