<svg id="svg2" xmlns="http://www.w3.org/2000/svg" height="256" width="256" version="1.1">
<path id="path2812" fill="#d11007" d="m20.292 15.452c-3.369 0-6.1321 3.1667-6.1321 7.0671v211.82c0 3.9005 2.7634 7.0671 6.1321 7.0671h217.24c3.369 0 6.1321-3.1668 6.1321-7.0671v-211.82c0-3.9005-2.7634-7.0671-6.1321-7.0671h-217.24z"/>
<g id="g54198" transform="matrix(8.3389 0 0 8.1813 -762.32 -789.61)">
<rect id="rect54306" fill-opacity="0" height="24" width="24" y="100.07" x="94.971"/>
<path id="path54308" d="m101.94 104.8c-2.295 0.09-4.511 1.3-5.799 3.42-2.051 3.38-0.939 7.74 2.325 9.93 2.704 1.81 7.754 0.95 8.694-1.49l-0.15-2.53c-1.49 3.03-5.08 3.69-7.447 2.21-0.887-0.55-1.534-1.34-1.932-2.23-0.075-0.03-0.451-1.1-0.442-1.76-0.065-1.01 0.168-2.07 0.737-3 1.456-2.4 4.524-3.16 6.894-1.68 0.74 0.46 1.04 0.58 1.78 1.66 0.76 1.1 1.14 2.1 1.63 3.82 0.39 1.38 0.98 2.85 1.93 4.05 0.94 1.2 2.31 2.15 4.01 2.15 1.51 0 2.72-0.42 3.5-1.28 0.78-0.87 1.17-2.04 1.17-3.23 0-1.31-0.72-2.4-1.56-3.07s-1.84-0.98-2.87-1.16c-0.81-0.15-1.37-0.42-1.7-0.73-0.32-0.32-0.5-0.68-0.51-1.4 0-0.4 0.48-1.18 1.2-1.49s1.53-0.32 2.49 0.73l1.46-1.38c-1.08-1.17-2.4-1.6-3.59-1.49-0.4 0.03-0.78 0.13-1.13 0.28-1.39 0.59-2.43 1.85-2.42 3.35 0 1.14 0.39 2.16 1.11 2.86s1.68 1.07 2.73 1.26c0.86 0.16 1.57 0.42 2 0.77 0.43 0.34 0.79 0.68 0.79 1.47 0 0.92-0.33 1.5-0.64 1.85-0.31 0.34-0.86 0.63-2.03 0.63-1.01 0-1.76-0.5-2.46-1.38-0.69-0.88-1.23-2.14-1.57-3.35-0.53-1.9-1.09-3.16-1.85-4.31-0.77-1.15-1.39-1.81-2.37-2.42-1.23-0.76-2.59-1.11-3.93-1.06h-0.05z" fill-rule="evenodd" fill="#fff"/>
</g>
</svg>
