<svg xmlns:rdf="http://www.w3.org/1999/02/22-rdf-syntax-ns#" xmlns="http://www.w3.org/2000/svg" height="100%" width="100%" version="1.1" xmlns:cc="http://creativecommons.org/ns#" xmlns:dc="http://purl.org/dc/elements/1.1/" viewBox="0 0 128 128">
<metadata>
<rdf:RDF>
<cc:Work rdf:about="">
<dc:format>image/svg+xml</dc:format>
<dc:type rdf:resource="http://purl.org/dc/dcmitype/StillImage"/>
<dc:title/>
</cc:Work>
</rdf:RDF>
</metadata>
<defs>
<filter id="filter45478">
<feGaussianBlur stdDeviation="1.031"/>
</filter>
<linearGradient id="linearGradient45381" gradientUnits="userSpaceOnUse" x2="0" y2="1011.4" y1="921.47">
<stop stop-color="#633" offset="0"/>
<stop stop-color="#8c0000" offset="1"/>
</linearGradient>
<linearGradient id="linearGradient45395" gradientUnits="userSpaceOnUse" x2="0" y2="1009" y1="923.94">
<stop stop-color="#f80000" offset="0"/>
<stop stop-color="#f74f4f" offset="1"/>
</linearGradient>
<linearGradient id="linearGradient45462" gradientUnits="userSpaceOnUse" x2="0" y2="74.565" y1="23.76">
<stop stop-color="#deb9b9" offset="0"/>
<stop stop-color="#de1212" offset="1"/>
</linearGradient>
<radialGradient id="radialGradient45434" gradientUnits="userSpaceOnUse" cy="64.205" cx="64.586" gradientTransform="matrix(-6.1526273e-7,.77699,-1.03492,0,131.03309,13.73394)" r="47.328">
<stop stop-color="#f20000" offset="0"/>
<stop stop-color="#bf0000" offset="1"/>
</radialGradient>
</defs>
<g transform="matrix(1.08911,0,0,1.16485,240.46736,-1061.9861)">
<path filter="url(#filter45478)" fill-rule="evenodd" d="m-180.81,921.68c-19.771-0.3761-37.469,13.878-37.469,33.75,0,10.036,3.7809,17.005,9.2812,22.719s12.626,10.298,19.719,16.031l20.75,16.75c1.6646,1.3454,2.7151,2.2022,3.7188,2.8124s2.0546,0.9376,3.125,0.9376,2.1526-0.3273,3.1562-0.9376,2.0541-1.467,3.7188-2.8124l20.719-16.75c7.0927-5.7328,14.25-10.318,19.75-16.031s9.2812-12.683,9.2812-22.719c0-26.243-30.886-42.674-56.625-28.562-6.2477-3.4244-12.787-5.0669-19.125-5.1875z" fill-opacity=".502"/>
<path fill-rule="evenodd" d="m-182.01,922.97c6.1316,0.138,12.488,1.7999,18.569,5.2875l0.7554,0.4092,0.7554-0.4092c24.326-13.95,53.253,1.455,53.253,25.745,0,9.372-3.3155,15.421-8.4978,20.804s-12.307,9.9616-19.608,15.862l-20.898,16.87c-1.6798,1.3577-2.7081,2.1921-3.3991,2.6123s-0.9388,0.5035-1.6051,0.5036-0.8827-0.083-1.5737-0.5036-1.7508-1.2546-3.4306-2.6123l-20.867-16.87c-7.3007-5.901-14.426-10.48-19.608-15.862s-8.4978-11.432-8.4978-20.804c0-18.218,16.257-31.447,34.652-31.033z" fill="url(#linearGradient45395)"/>
<path fill-rule="evenodd" d="m44.5,24.812c-15.392-0.0596-27.656,10.179-27.656,25.656,0.000001,8.3082,1.724,13.666,6.5938,18.438s10.608,8.8313,17.469,14.062l18.562,14.969c1.5785,1.2036,2.5382,1.94,3.1875,2.3125s0.8739,0.4374,1.5,0.4375,0.8819-0.0651,1.5312-0.4375,1.609-1.1089,3.1875-2.3125l18.562-14.969c6.8605-5.2312,12.599-9.2905,17.469-14.062s6.5938-10.129,6.5938-18.438c0-21.533-23.766-32.898-46.625-20.531-0.4688,0.227-0.9375,0.2964-1.4062,0-6.4292-3.4782-12.946-5.1017-18.969-5.125z" transform="translate(-226.8571,902.6479)" fill="url(#radialGradient45434)"/>
<path stroke="url(#linearGradient45381)" stroke-width="3" d="m-162.68,1011.8c1.732,0,2.5791-0.7081,5.9116-3.4017l20.735-16.76c14.342-11.592,28.462-18.242,28.462-37.583,0-25.307-30.091-41.211-55.11-26.863-25.019-14.348-55.11,1.5564-55.11,26.863,0,19.341,14.121,25.991,28.462,37.583l20.735,16.76c3.3325,2.6936,4.1796,3.4017,5.9116,3.4017z" fill="none"/>
<path fill-rule="evenodd" d="m42.969,22.969c-15.914,0-29.812,10.879-29.812,26.281,0,8.5098,2.8765,12.144,8.125,17.031,3.2803,3.0548,6.9026,5.421,10.812,8.25h0.0312c36.569-8.4723,52.826-38.213,81.531-33.875-4.0477-10.704-15.495-17.688-28.25-17.688-6.4916,0.0239-13.317,1.8839-20.438,7.2188-0.2526,0.1518-0.5286,0.2276-0.7812,0.2188-0.2526,0.0089-0.5286-0.0669-0.7812-0.2188-7.1208-5.3348-13.946-7.1949-20.438-7.2188z" transform="translate(-226.8571,902.6479)" fill="url(#linearGradient45462)"/>
</g>
</svg>
