<svg viewBox="0 0 128 128" xmlns="http://www.w3.org/2000/svg">
<defs>
<filter id="filter45478">
<feGaussianBlur stdDeviation="1.031"/>
</filter>
<linearGradient gradientUnits="userSpaceOnUse" id="linearGradient45381" x2="0" y1="921.4669" y2="1011.369">
<stop offset="0" stop-color="#633"/>
<stop offset="1" stop-color="#8c0000"/>
</linearGradient>
<linearGradient gradientUnits="userSpaceOnUse" id="linearGradient45395" x2="0" y1="923.9423" y2="1009.044">
<stop offset="0" stop-color="#f80000"/>
<stop offset="1" stop-color="#f74f4f"/>
</linearGradient>
<linearGradient gradientUnits="userSpaceOnUse" id="linearGradient45462" x2="0" y1="23.7595" y2="74.5653">
<stop offset="0" stop-color="#deb9b9"/>
<stop offset="1" stop-color="#de1212"/>
</linearGradient>
<radialGradient cx="64.5856" cy="64.2051" gradientTransform="matrix(-6.1526273e-7,.77699,-1.03492,0,131.03309,13.73394)" gradientUnits="userSpaceOnUse" id="radialGradient45434" r="47.3281">
<stop offset="0" stop-color="#f20000"/>
<stop offset="1" stop-color="#bf0000"/>
</radialGradient>
</defs>
<g transform="matrix(1.08911,0,0,1.16485,240.46736,-1061.9861)">
<path d="m-180.8086,921.6823c-19.7712-.3761-37.4688,13.8781-37.4688,33.75 0,10.0356 3.7809,17.0054 9.2812,22.7188s12.626,10.2984 19.7188,16.0312l20.75,16.7501c1.6646,1.3454 2.7151,2.2022 3.7188,2.8124s2.0546.9376 3.125.9376 2.1526-.3273 3.1562-.9376 2.0541-1.467 3.7188-2.8124l20.7188-16.7501c7.0927-5.7328 14.2497-10.3179 19.75-16.0312s9.2812-12.6832 9.2812-22.7188c0-26.2431-30.8856-42.6738-56.625-28.5625-6.2477-3.4244-12.7874-5.0669-19.125-5.1875z" fill-opacity=".502" fill-rule="evenodd" filter="url(#filter45478)"/>
<path d="m-182.0122,922.9703c6.1316.138 12.4877,1.7999 18.5692,5.2875l.7554.4092 .7554-.4092c24.3262-13.9503 53.2528,1.455 53.2528,25.7451 0,9.372-3.3155,15.4208-8.4978,20.8038s-12.3071,9.9616-19.6079,15.8625l-20.8983,16.8697c-1.6798,1.3577-2.7081,2.1921-3.3991,2.6123s-.9388.5035-1.6051.5036-.8827-.083-1.5737-.5036-1.7508-1.2546-3.4306-2.6123l-20.8668-16.8697c-7.3007-5.901-14.4256-10.4795-19.6079-15.8625s-8.4978-11.4319-8.4978-20.8038c0-18.2176 16.2572-31.4467 34.6521-31.0327z" fill="url(#linearGradient45395)" fill-rule="evenodd"/>
<path d="m44.5,24.8125c-15.3924-.0596-27.6562,10.1793-27.6562,25.6562 1e-06,8.3082 1.724,13.6655 6.5938,18.4375s10.6082,8.8313 17.4688,14.0625l18.5625,14.9688c1.5785,1.2036 2.5382,1.94 3.1875,2.3125s.8739.4374 1.5.4375 .8819-.0651 1.5312-.4375 1.609-1.1089 3.1875-2.3125l18.5625-14.9688c6.8605-5.2312 12.599-9.2905 17.4688-14.0625s6.5938-10.1293 6.5938-18.4375c0-21.5331-23.7657-32.8981-46.625-20.5312-.4688.227-.9375.2964-1.4062,0-6.4292-3.4782-12.9456-5.1017-18.9688-5.125z" fill="url(#radialGradient45434)" fill-rule="evenodd" transform="translate(-226.8571,902.6479)"/>
<path d="m-162.6762,1011.8289c1.732,0 2.5791-.7081 5.9116-3.4017l20.7354-16.7597c14.3417-11.5919 28.4625-18.2418 28.4625-37.5829 0-25.3069-30.0906-41.2107-55.1095-26.8632-25.0189-14.3475-55.1095,1.5564-55.1095,26.8632 0,19.3411 14.1208,25.9909 28.4625,37.5829l20.7354,16.7597c3.3325,2.6936 4.1796,3.4017 5.9116,3.4017z" fill="none" stroke="url(#linearGradient45381)" stroke-width="3"/>
<path d="m42.9688,22.9688c-15.9145,0-29.8125,10.879-29.8125,26.2812 0,8.5098 2.8765,12.1435 8.125,17.0312 3.2803,3.0548 6.9026,5.421 10.8125,8.25h.0312c36.5692-8.4723 52.8256-38.2129 81.5312-33.875-4.0477-10.7039-15.4952-17.6875-28.25-17.6875-6.4916.0239-13.3167,1.8839-20.4375,7.2188-.2526.1518-.5286.2276-.7812.2188-.2526.0089-.5286-.0669-.7812-.2188-7.1208-5.3348-13.9459-7.1949-20.4375-7.2188z" fill="url(#linearGradient45462)" fill-rule="evenodd" transform="translate(-226.8571,902.6479)"/>
</g>
</svg>
