<svg height="128" viewBox="0 0 256 256" width="128" xmlns="http://www.w3.org/2000/svg">
<defs>
<linearGradient gradientUnits="userSpaceOnUse" id="linearGradient3105" x2="0" y1="-4.9601" y2="244.6244">
<stop offset="0" stop-color="#006a00"/>
<stop offset=".2" stop-color="#004000"/>
<stop offset="1" stop-color="#00d000"/>
</linearGradient>
<linearGradient gradientUnits="userSpaceOnUse" id="linearGradient3113" x1=".1949" x2="255.0462">
<stop offset="0" stop-color="#0053bd"/>
<stop offset="1" stop-color="#0032a4"/>
</linearGradient>
</defs>
<path d="m37.6964,37.8352c-24.1877,24.1847-37.5099,56.1687-37.5099,90.0548 0,70.5451 57.1624,127.9361 127.423,127.9361 70.272,0 127.4307-57.3909 127.4307-127.9361 0-70.3236-57.1624-127.5388-127.4307-127.5388-33.8159.0076-65.7475,13.3146-89.9116,37.484z" fill="url(#linearGradient3113)"/>
<path d="m41.4072,41.5706c-23.1934,23.184-35.97,53.8465-35.97,86.3194 0,67.6423 54.8072,122.6729 122.1731,122.6729s122.1807-55.0305 122.1807-122.6729c0-67.4132-54.808-122.268-122.1807-122.268-32.4086.0076-63.025,12.7722-86.2009,35.9486z" fill="#b0d9ff"/>
<path d="m86.2173,14.3246c-.6163,0-1.292.2503-1.9822.6458 1.6223-.4763 2.3856-.6458 1.9822-.6458m40.1433,7.8631 .4034-5.9014-6.1965.3956 .8188,5.5058h4.9744m-69.9393,101.9703c-1.2486-1.1787-.4114-6.305-.4114-6.305s-18.6274-9.8329-38.9027-15.7424c-2.4997-.7266-1.2382-5.9014 1.2366-7.8631l-.8212-5.5219c-.4114-2.7529 4.1436-16.138 8.6938-17.3086 4.555-1.1867-.4154,7.8631-.4154,7.8631l-4.5486,2.7529c0,0 5.3778,6.297 6.624,6.297 1.239,0 3.308-3.1485 3.308-3.1485l-5.7908-3.9316 5.3794-2.3654 .3391-2.0748 .9039-.2906 8.9083-13.5546c6.1564-2.5349 13.7237-5.6673 14.6846-6.1274 1.6584-.7831 13.24-7.4756 15.3114-9.0418 2.0757-1.5904 6.6182-1.1867 8.2696-1.1867 1.6648,0 4.1436-.7912 4.555-5.1264 .413-4.3271 2.0714-5.1183 3.316-3.9316 1.2446,1.1706-1.2446,3.1485 1.656,3.9316 2.8942.7912 5.3754,2.761 7.4508.7912 1.5114-1.437-.5126-3.0839-1.877-4.3191h22.9791l2.4876-7.1043-5.3794-.7831-19.8744-1.9617v-2.3654l-1.5837.2664c2.1525-11.8754 14.9289-9.9217 5.3095-16.7919-.5857-.4279-9.0015,13.3205-11.1437,13.0541-3.8809-.5167-8.8923-.557-9.9593.7104-1.4137,1.6792 3.1738-5.7561 7.1206-8.0084-6.3034,1.8649-26.2148,8.7108-47.2615,31.2426-20.1243,21.5307-28.148,50.5532-28.148,51.5704 0,1.9617 4.1428,2.7529 4.5542,5.1183 .4162,2.3493-7.8622,10.2366-7.8622,14.1682 0,1.8164-1.9493,26.0758 4.9575,46.0647 8.0759,23.3229 25.3141,42.8112 27.3196,44.0948l4.1348-1.9698c0,0-9.519-16.9291-9.9304-18.5114-.409-1.5662 10.7596-24.4047 16.1446-23.6055 5.3778.7669 4.1396,2.3573 7.4492.3875 3.312-1.9617 5.3795-18.1158 9.1052-19.682 3.7276-1.5823 7.8624-3.544 7.451-7.4837-.4321-3.9477-14.5006-11.0277-15.7396-12.2064m89.8064-115.7429-11.1726-3.9396 2.0714,6.305 9.1012-2.3654m-41.7993,14.5637c1.247,0 26.0725-16.5255 23.5898-16.921-2.4748-.3956-2.891,0-9.5246-.7912-6.612-.7912-13.6538,9.4454-15.3057,11.0277-1.656,1.5742-1.0976,6.6845 1.2406,6.6845m113.9354,118.7057 3.206-4.1818-3.206-1.1302-2.4024,3.0355-2.7962,4.1657 2.4024,1.1383 2.7961-3.0274m14.021,13.6676-.8035-6.079h-5.2066l-.4017,4.5532-4.8129-.7508-1.1892-4.9407-2.4024-1.5177-2.8122,3.4149-2.7961-.7589-.8035,2.656 3.206.7669v24.655l11.3373,2.7448c-.2652.4521-.458.8316-.5223,1.0414-.8115,2.6561 3.1979,3.8105 5.994,2.6561 1.0445-.4117 4.3389-3.762 6.4119-8.7189 2.8845-6.8943 5.4075-16.0007 5.9137-19.2138l1.2936-2.7852-8.0108,3.0274-4.4112-.7508h.016m16.8252-45.9193-2.0971-4.0688c-2.4747-14.039-8.1554-32.0015-20.3283-50.5694-18.3197-27.9084-69.3094-44.006-69.3094-44.006l-2.7961,3.4068-1.607-2.6479-4.0094-1.5258v3.423l3.6157,3.0355-2.4024,1.1383-9.2209.7508-20.825,11.391 1.9991,9.1064-2.4081.7589-1.1916,1.8972 6.8088,10.2366 .3985,3.423-5.6068,1.1383v6.8217l-3.2027.7589 .4017,5.312-27.2432,18.9877 .8027,10.6079c1.9991,2.656 17.6246,18.6002 17.6246,18.6002s18.0216.7427 22.0262-1.5177c4.007-2.2766 1.1996,2.2766 2.4064,3.4149 1.1956,1.1464 1.5981,9.1064 2.7978,9.8652 1.2012.7508 0,5.304 1.6022,6.8298 1.5998,1.5097 1.5998,19.7305 1.5998,19.7305s9.6154,16.3075 9.6154,20.4812c0,4.1818-.4049,3.7943 7.2073,3.423 7.6171-.3794 9.2161-3.423 10.807-4.5532 1.615-1.1383 1.615-3.7943 3.214-6.0709 1.607-2.2847 4.4031-11.0035 8.0189-14.039 3.5996-3.0435 13.2175-5.3201 14.0049-10.6241 .8035-5.3121 4.4112-9.4858 4.4112-9.4858l17.3153-18.4065-.4821,2.4703-.4017,9.4777 5.2066-1.8891-.3937-10.2527-1.8721-1.986 .2652-.2906c0,0-1.1972-2.2766-2.7962-2.2766s-11.2248,2.2766-12.8157,1.8972c-1.607-.3795-8.4206-18.5922-9.6178-19.343-1.2052-.7589-8.8143-13.2882-8.8143-13.2882s17.6206,21.2482 20.4328,29.5957c1.623,4.86 7.7377.331 12.7113-4.7389l1.3177,3.2292 3.1979-.7669-.4017-3.7943h3.5996v5.6915l-1.1972,3.0354-.4098,4.9245 3.2059,3.0435 1.607-2.6479 5.1986-4.9407 6.0101-3.0355 1.607,3.0355 .8035,4.1818-1.607,4.5451-3.2059,2.656-1.599,6.8298v3.4149l-3.5997-2.2766-.3937-7.2092-5.2147.3875-2.4024,6.4423 3.6077,5.3201 8.4045,1.1383 6.8136-6.4584 .8035-12.5051 3.0292-4.0203c1.9686,5.0941 3.3827,10.4303 3.3827,15.4033 0,5.4412 2.4747-3.7782.3696-20.3924l1.2213-1.6307m-100.9429-38.7021-21.6276-.7669 9.208-7.5806h4.8073l7.6123,5.304v3.0435m26.4454-2.656v3.4149h-9.208l.7954,2.2847-5.6084.7669-.3937,1.8891-4.0094-.7508-7.2154-1.5258 1.2052-1.8891 1.2052-2.2927 4.0014-4.1657 1.607,3.0355 6.0101-.3875 3.1979-3.4149 12.422,2.2766-4.0094.7589m.7874-4.9326-4.7969.7589-.8035-3.423 6.0021-.7508 .8035-3.4149 4.4192,4.5613-5.6245,2.2604v.008m23.245,117.9952-2.8122,2.2766 .4018,5.6995h3.6077v-4.9245l3.2059-4.1818v-8.7269l-2.0087-.3875-2.3944,10.2447m-26.8367-11.3668c0,0-2.8042.7346.3937,1.881s16.0217-18.576 16.0217-18.576l-10.815,6.8217-5.6084,9.8733h.008m-21.8068,72.7137-2.3928-2.2927-4.8089-.7669-.7963,2.2927-6.4087-.7589-.401-3.0516h-4.8049l-5.2034,3.0516h-9.2064l-.8003-2.2928-14.8108-1.5339-2.4065,2.2927-5.9957-1.5177-.8043-5.3524-2.8018-.3956-3.2043,5.748-10.8086-.3794c1.9355.9122 18.0714,10.5918 42.827,12.602 32.8275,2.6722 48.4474-5.3443 48.4474-5.3443l-1.2052-1.1544-14.4147-1.1383v-.008z" fill="url(#linearGradient3105)"/>
</svg>
