<svg viewBox="0 0 880.00006 880.00006" xmlns="http://www.w3.org/2000/svg">
<path d="m800,600a300,300 0 1,1 -600,0 300,300 0 1,1 600,0z" fill="#ff0" stroke="#000" stroke-width="15" transform="matrix(1.43089,0,0,1.43089,-275.44717,-418.53661)"/>
<path d="m900,500a400,400 0 0,1 -200,346.4102l-200-346.4102z" transform="matrix(.5,.86603,-.86603,.5,623.01273,-244.62283)"/>
<path d="m900,500a400,400 0 0,1 -200,346.4102l-200-346.4102z" transform="matrix(-1,8.4710321e-08,-8.4710321e-08,-1,940,939.99994)"/>
<path d="m900,500a400,400 0 0,1 -200,346.4102l-200-346.4102z" transform="matrix(.5,-.86603,.86603,.5,-243.01269,623.01273)"/>
<path d="m600,500a100,100 0 1,1 -200,0 100,100 0 1,1 200,0z" stroke="#ff0" stroke-width="39.1182" transform="matrix(.51127,0,0,.51127,184.36473,184.36473)"/>
</svg>
