<svg xmlns:rdf="http://www.w3.org/1999/02/22-rdf-syntax-ns#" xmlns="http://www.w3.org/2000/svg" height="100%" width="100%" version="1.1" xmlns:cc="http://creativecommons.org/ns#" xmlns:dc="http://purl.org/dc/elements/1.1/" viewBox="0 0 640 640">
<metadata>
<rdf:RDF>
<cc:Work rdf:about="">
<dc:format>image/svg+xml</dc:format>
<dc:type rdf:resource="http://purl.org/dc/dcmitype/StillImage"/>
<dc:title/>
</cc:Work>
</rdf:RDF>
</metadata>
<g transform="matrix(1.03253,0,0,1.04682,-.02626,-30.11268)" fill-rule="evenodd">
<path stroke="#000" stroke-width="1.3043" d="m304.3,281.82c-14.273,0.8446-28.966,2.6033-36.38-11.482-13.389-40.37,16.79-48.675,20.745-72.394,3.3726-20.226-14.914-31.115-28.906-26.857-54.845,16.692-67.967,83.345-96.78,130.48,0.001,0.0238-8.4437,13.733-45.469,25.223-51.845,15.97-90.151,43.017-99.978,57.525s-35.601,70.088,10.585,132.43c49.177,66.378,108.61,122.9,144.26,125.43,40.028,2.8385,78.52-16.219,110.25-104,11.275-44.736,39.751-61.626,70.575-77.324,25.822-13.15,62.081-27.913,43.644-73.313-0.5145-1.2669-12.146-12.981-33.023,0.3924-23.25,14.893-44.822,8.8268-54.466-17.48l-5.0651-88.632z"/>
<path d="m387.63,400.23c-23.138-1.7917-45.609,32.925-76.431-0.9114-21.891-35.183-24.892-70.762-42.169-100.83-4.1406-7.2054-14.626-7.0216-18.106,1.4554-14.86,20.8-24.391,46.564-50.082,57.275-15.579,10.948-35.348,13.246-51.042,23.18-32.759,20.735-26.404,36.308-26.768,48.53,0.161,6.3311,5.4795,13.699,11.181,21.143,26.619,30.912,64.156,55.221,79.845,92.744,6.177,20.305,0.9298,53.03,9.8008,60.696,5.6871,4.9148,20.246-5.8265,28.232-20.632,14.418-26.732,23.142-55.195,37.722-87.641,7.7751-17.302,9.8348-25.685,46.136-39.45,11.588-2.5727,26.358-10.012,38.28-22.133,22.788-23.169,18.103-33.068,13.401-33.432z" stroke="#000" stroke-width="1.2962" fill="#fff"/>
<path d="m708.15,130.77h26.264a4.7898,4.7898,0,0,1,4.7898,4.7898,4.7898,4.7898,0,0,1,-4.7898,4.7898h-26.264a4.7898,4.7898,0,0,1,-4.7898,-4.7898,4.7898,4.7898,0,0,1,4.7898,-4.7898" transform="matrix(1.26693,1.35501,-1.10266,1.24555,-502.82405,-773.06983)" stroke="#000" stroke-linecap="round" stroke-width="1.0169" fill="#e6e6e6"/>
<path d="m706.89,164.37h27.527a4.7814,4.7814,0,0,1,4.7814,4.7814,4.7814,4.7814,0,0,1,-4.7814,4.7814h-27.527a4.7814,4.7814,0,0,1,-4.7814,-4.7814,4.7814,4.7814,0,0,1,4.7814,-4.7814" transform="matrix(1.26693,1.35501,-1.10266,1.24555,-502.82405,-773.06983)" stroke="#000" stroke-linecap="round" stroke-width="1.0336" fill="#e6e6e6"/>
<path d="m728.08-99.51h26.838a4.8736,4.8736,0,0,1,4.8736,4.8736,4.8736,4.8736,0,0,1,-4.8736,4.8736h-26.838a4.8736,4.8736,0,0,1,-4.8736,-4.8736,4.8736,4.8736,0,0,1,4.8736,-4.8736" transform="matrix(1.09552,1.51977,1.27412,-1.03673,-502.82405,-773.06983)" stroke="#000" stroke-linecap="round" stroke-width="1.0364" fill="#e6e6e6"/>
<path d="m546.55,61.848-295.7,263.63c9.4297,13.406,22.885,25.728,41.59,36.635l284.85-273.19-30.741-27.078z" stroke="#000" stroke-width="1.6621" fill="#c87137"/>
<g transform="matrix(1.08676,0,0,1.1379,156.43993,-5.28275)">
<path d="m388.18,45.12-1.2797-0.049s-8.3364-5.2678-7.3364-8.7707,7.9707-6.9327,11.336-5.2408,2.1262,12.008,2.1262,12.008l-1.0749,1.25,2.1531,4.2764-3.5944,1.6617-2.3303-5.1359z" stroke="#000" stroke-width="1.3363" fill="#999"/>
<path d="m371.9,52.17-1.2797-0.049s-8.3364-5.2678-7.3364-8.7707,7.9707-6.9327,11.336-5.2408,2.1262,12.008,2.1262,12.008l-1.0749,1.25,2.1531,4.2765-3.5944,1.6617-2.3302-5.136z" stroke="#000" stroke-width="1.3363" fill="#999"/>
<path d="m353.75,60.002-1.2797-0.049s-8.3364-5.2678-7.3364-8.7707,7.9707-6.9327,11.336-5.2408,2.1262,12.008,2.1262,12.008l-1.0749,1.2501,2.1531,4.2764-3.5945,1.6617-2.3302-5.1359z" stroke="#000" stroke-width="1.3363" fill="#999"/>
<path d="m337.33,69.06-1.2797-0.049s-8.3363-5.2678-7.3364-8.7707,7.9707-6.9327,11.336-5.2408,2.1262,12.008,2.1262,12.008l-1.0749,1.25,2.1531,4.2764-3.5945,1.6617-2.3302-5.136z" stroke="#000" stroke-width="1.3363" fill="#999"/>
<path d="m320.5,76.087-1.2797-0.049s-8.3363-5.2678-7.3363-8.7706,7.9707-6.9327,11.336-5.2408,2.1262,12.008,2.1262,12.008l-1.0749,1.25,2.1531,4.2765-3.5945,1.6617-2.3302-5.136z" stroke="#000" stroke-width="1.3363" fill="#999"/>
<path d="m304.05,84.568-1.2798-0.049s-8.3363-5.2679-7.3364-8.7707,7.9708-6.9327,11.336-5.2409,2.1262,12.008,2.1262,12.008l-1.0749,1.25,2.1531,4.2764-3.5944,1.6617-2.3302-5.1359z" stroke="#000" stroke-width="1.3363" fill="#999"/>
<path d="m294.65,115.42c-6.8258-9.125-5.5248-17.124,3.9031-23.997,0.0471,0.7114,66.513-36.7,97.369-46.921,25.014-13.208,29.854,21.438,29.762,26.634-0.3393,19.115-28.13,24.566-33.261,11.768-13.019,18.992-20.807,44.989-37.584,58.478-12.033-1.111-24.308-1.9249-33.104,1.7046l-27.085-27.666z" stroke="#000" stroke-width="1.1656" fill="#9d530a"/>
<path d="m291.88-129.96h43.414a0.3303,0.3303,0,0,1,0.3303,0.3303v4.6532a0.3303,0.3303,0,0,1,-0.3303,0.3303h-43.414a0.3303,0.3303,0,0,1,-0.3303,-0.3303v-4.6532a0.3303,0.3303,0,0,1,0.3303,-0.3303" transform="matrix(.69956,.71457,-.67981,.73339,0,0)" stroke="#000" stroke-width="1.123" fill="#d38d5f"/>
<path d="m383.44,68.437c-1.8526,1.9986-5.0799,1.8562-7.2085-0.3181s-2.3523-5.557-0.4998-7.5556,5.08-1.8561,7.2085,0.318,2.3523,5.557,0.4998,7.5556z" fill="#b3b3b3"/>
<path d="m366.81,77.092c-1.8526,1.9986-5.0799,1.8562-7.2085-0.318s-2.3523-5.557-0.4997-7.5556,5.0799-1.8561,7.2085,0.3181,2.3523,5.557,0.4998,7.5556z" fill="#b3b3b3"/>
<path d="m349.7,85.656c-1.8526,1.9986-5.0799,1.8562-7.2085-0.318s-2.3523-5.557-0.4997-7.5556,5.08-1.8562,7.2085,0.318,2.3523,5.557,0.4997,7.5556z" fill="#b3b3b3"/>
<path d="m331.97,93.65c-1.8526,1.9986-5.0799,1.8562-7.2085-0.318s-2.3523-5.557-0.4998-7.5556,5.0799-1.8561,7.2085,0.3181,2.3523,5.557,0.4998,7.5556z" fill="#b3b3b3"/>
<path d="m399.45,60.585c-1.8526,1.9986-5.0799,1.8562-7.2085-0.318s-2.3523-5.557-0.4997-7.5556,5.0799-1.8562,7.2085,0.318,2.3523,5.557,0.4997,7.5556z" fill="#b3b3b3"/>
<path d="m316.94,101.72c-1.8526,1.9986-5.0799,1.8563-7.2085-0.318s-2.3523-5.557-0.4998-7.5556,5.08-1.8561,7.2085,0.318,2.3523,5.557,0.4997,7.5556z" fill="#b3b3b3"/>
</g>
<g stroke="#000" stroke-linecap="round" transform="matrix(.88608,.94768,-.8622,.97393,258.81268,-286.04253)" fill="#e6e6e6">
<path d="m384.93,434.46c0,4.5207-4.0973,8.1855-9.1515,8.1855s-9.1516-3.6648-9.1516-8.1855,4.0973-8.1854,9.1516-8.1854,9.1515,3.6647,9.1515,8.1854z"/>
<path d="m415.98,448.67c0,4.5206-4.0973,8.1855-9.1515,8.1855s-9.1515-3.6648-9.1515-8.1855,4.0973-8.1854,9.1515-8.1854,9.1515,3.6648,9.1515,8.1854z"/>
<path d="m439.45,467.4c0,4.5207-4.0973,8.1855-9.1515,8.1855s-9.1515-3.6648-9.1515-8.1855,4.0973-8.1854,9.1515-8.1854,9.1515,3.6648,9.1515,8.1854z"/>
</g>
<path d="m411.85,198.95h62.326a7.9539,7.9539,0,0,1,7.9539,7.9539v21.061a7.9539,7.9539,0,0,1,-7.9539,7.9539h-62.326a7.9539,7.9539,0,0,1,-7.9539,-7.9539v-21.061a7.9539,7.9539,0,0,1,7.9539,-7.9539" transform="matrix(.68297,.73045,-.66285,.74875,0,0)" stroke="#000" stroke-linecap="round" stroke-width="1.7567" fill="#858687"/>
<path d="m406.8,224.92h47.574a8.6091,8.6091,0,0,1,8.6091,8.6091v3.2434a8.6091,8.6091,0,0,1,-8.6091,8.6091h-47.574a8.6091,8.6091,0,0,1,-8.6091,-8.6091v-3.2434a8.6091,8.6091,0,0,1,8.6091,-8.6091" transform="matrix(.71039,.70381,-.63108,.77572,0,0)" stroke="#000" stroke-linecap="round" stroke-width="1.8363" fill="#2e3436"/>
<g stroke="#000" transform="matrix(.88608,.94768,-.8622,.97393,258.81268,-286.04253)">
<path d="m371.26,386.82c-0.7895,30.874-2.5913,54.65-7.9439,80.742-2.1543,2.094-3.2054,10.456,0.3612,8.3972,7.9117-14.425,10.251-59.543,12.277-89.139h-4.694z" fill="#2e3436"/>
<path d="m517.24,133.08a1.894,1.894,0,0,1,1.894,1.894v17.425a1.894,1.894,0,0,1,-1.894,1.894,1.894,1.894,0,0,1,-1.894,-1.894v-17.425a1.894,1.894,0,0,1,1.894,-1.894" transform="matrix(1.4293,.03435,-.0384,1.27843,-359.62271,172.75699)" stroke-linecap="round" fill="#ccc"/>
</g>
</g>
</svg>
