<svg viewBox="0 0 256 256" xmlns="http://www.w3.org/2000/svg">
<g fill="#f8b600" fill-rule="evenodd" transform="matrix(6.62315,0,0,5.19145,15.76741,55.66796)">
<path d="m0,38.2553 28.9837-18.5062-.0106-5.2205-3.8994-1.3654 9.198-9.2948v-3.8684l-27.7197,15.8613v5.2659h5.2973l-11.8427,11.9656-.0066,5.1759v-.0134z"/>
</g>
<g fill="#f8b600" fill-rule="evenodd" transform="matrix(6.62315,0,0,5.19145,15.86382,55.51865)">
<path d="m0,38.2559 28.9838-18.5048-.008-5.2211-3.9007-1.3655 9.1967-9.296v-3.8685l-27.7184,15.8626v5.2639h5.2972l-11.844,11.967-.0066,5.1745v-.0121z"/>
</g>
<g fill="#e86923" fill-rule="evenodd" transform="matrix(6.62315,0,0,5.19145,17.40688,131.09295)">
<path d="m0,18.5588 28.7259-18.5588-10.5613,6.0141-18.1646,12.5447z"/>
</g>
<g fill="#e86923" fill-rule="evenodd" transform="matrix(6.62315,0,0,5.19145,62.60454,138.26221)">
<path d="m9.8473,0h-9.8473l6.9541.5368 2.8932-.5368z"/>
</g>
<g fill="#e86923" fill-rule="evenodd" transform="matrix(6.62315,0,0,5.19145,156.99397,56.90515)">
<path d="m0,11.4052 12.8054-11.4052-5.3185,5.6123-7.4869,5.7929z"/>
</g>
<g fill="#f8f4c7" fill-rule="evenodd" transform="matrix(6.62315,0,0,5.19145,156.0135,57.0204)">
<path d="m0,11.375 2.0152-2.5017 10.7887-8.8733-12.8039,11.375z"/>
</g>
<g fill="#161413" fill-rule="evenodd" transform="matrix(5.82814,0,0,5.40616,126.32886,55.45665)">
<path d="m0,1.0499c0,.5799.4694,1.0499 1.0486,1.0499s1.0486-.47 1.0486-1.0499-.4695-1.0499-1.0486-1.0499-1.0486.47-1.0486,1.0499z"/>
</g>
<g fill="#161413" fill-rule="evenodd" transform="matrix(5.82814,0,0,5.40616,109.92206,37.38029)">
<path d="m4.2525.364c1.8712.364 3.0916,2.1758 2.728,4.0466-.1917.9909-.7935,1.7974-1.5921,2.2844 .6162-.4516 1.071-1.1259 1.2284-1.9349 .3319-1.7057-.7828-3.3605-2.49-3.6931s-3.3599.7842-3.6918,2.4912c-.1706.8759.041,1.7347.5156,2.4115-.6439-.7711-.9507-1.8132-.7445-2.8761 .3637-1.8709 2.1753-3.0936 4.0463-2.7296z"/>
</g>
<g fill="#161413" fill-rule="evenodd" transform="matrix(5.82814,0,0,5.40616,88.84071,16.93452)">
<path d="m3.487,1.8616c2.7597-1.8616 6.5044-1.1337 8.3662,1.6259 .9851,1.4623 1.2377,3.1995.8543,4.7888 .2023-1.3183-.0662-2.7138-.8715-3.9078-1.6978-2.5174-5.1174-3.1824-7.6351-1.4845s-3.1827,5.1187-1.4836,7.6375c.8701,1.2908 2.1925,2.0906 3.614,2.3394-1.7469-.1533-3.4129-1.0644-4.4708-2.6314-1.8605-2.7596-1.1318-6.5063 1.6265-8.3679z"/>
</g>
<g fill="#161413" fill-rule="evenodd" transform="matrix(5.82814,0,0,5.40616,81.13942,.06912)">
<path d="m9.8499.7148c-4.5156-.7148-8.7564,2.3655-9.4703,6.8834-.3795,2.393.3147,4.7023 1.715,6.4578-1.0155-1.5238-1.4916-3.4181-1.1822-5.37 .652-4.1224 4.5224-6.9357 8.6428-6.2824s6.9329,4.5243 6.2809,8.6454c-.3344,2.113-1.5167,3.8776-3.1404,5.0113 2.084-1.207 3.6298-3.3068 4.0357-5.8714 .7153-4.5177-2.3657-8.7593-6.8814-9.4741z"/>
</g>
<g fill="#161413" fill-rule="evenodd" transform="matrix(5.82814,0,0,5.40616,125.93283,65.60541)">
<path d="m.8582.0929-.8582,12.8988 2.482-1.0199-.9217-11.9718-.7021.0929z"/>
</g>
</svg>
