<svg version="1.1" id="Layer_1" xmlns="http://www.w3.org/2000/svg" xmlns:xlink="http://www.w3.org/1999/xlink" x="0px" y="0px" viewBox="0 0 100 100" enable-background="new 0 0 100 100" xml:space="preserve" preserveAspectRatio="xMinYMid">
<path fill="#000" d="M9.4,35.4c0,10.9,4.2,21.1,11.9,28.7l-6.6,6.6c-9.5-9.4-14.7-22-14.7-35.4S5.3,9.4,14.7,0l6.6,6.6  C13.7,14.3,9.4,24.5,9.4,35.4z M35.7,21l-6.6-6.6c-5.6,5.6-8.7,13.1-8.7,21c0,7.9,3.1,15.4,8.7,21l6.6-6.6c-3.8-3.8-6-8.9-6-14.4  C29.8,29.9,31.9,24.8,35.7,21z M85.4,0l-6.6,6.6c7.7,7.7,11.9,17.9,11.9,28.7c0,10.9-4.2,21.1-11.9,28.7l6.6,6.6  c9.4-9.4,14.6-22,14.6-35.4C100.1,22,94.9,9.4,85.4,0z M50.1,26c-5.2,0-9.4,4.2-9.4,9.4c0,3.5,1.9,6.5,4.7,8.1V100h9.4V43.4  c2.8-1.6,4.7-4.6,4.7-8.1C59.4,30.2,55.3,26,50.1,26z M71.1,14.4L64.4,21c3.8,3.8,6,8.9,6,14.4c0,5.4-2.1,10.5-5.9,14.4l6.6,6.6  c5.6-5.6,8.7-13.1,8.7-21C79.8,27.4,76.7,20,71.1,14.4z"/>
</svg>
