<svg xml:space="preserve" xmlns="http://www.w3.org/2000/svg" viewBox="0 0 759.25 759.125"><g transform="matrix(1.25 0 0 -1.25 0 759.12)"><g transform="matrix(1.4626 0 0 1.4626 -143.18 -153.31)"><path d="m352.55 496.34c-13.269 13.171-29.092 19.756-47.865 19.756s-34.793-6.585-47.963-19.756-19.853-29.191-19.853-47.864c0-18.576 6.683-34.597 19.853-47.766s29.191-19.756 47.963-19.756 34.596 6.585 47.865 19.756 19.853 29.19 19.853 47.766c0 18.673-6.585 34.694-19.853 47.864" fill="#000"/><path d="m250.43 226.25c-3.342-0.099-5.013-1.868-5.307-5.308v-106.74c0.294-3.342 1.965-5.111 5.307-5.308h59.953c28.896 5.406 46.194 22.606 51.698 51.6v60.445c-0.196 3.44-1.965 5.209-5.307 5.308h-106.34" fill="#000"/><path d="m362.47 249.15v53.369c-4.324 36.365-23.883 55.923-58.872 58.676h-183.6c-3.244-0.099-5.013-1.868-5.21-5.21v-60.445c5.406-29.092 22.606-46.194 51.699-51.697h190.67c3.342 0.097 5.111 1.965 5.307 5.307" fill="#000"/><path d="m378.79 302.52v-53.467c0.196-3.342 1.965-5.111 5.307-5.209h60.544c29.092 5.405 46.292 22.605 51.796 51.599v60.446c-0.197 3.44-1.966 5.209-5.209 5.307h-53.664c-17.003-1.376-30.468-6.782-40.199-16.119-10.123-9.828-16.413-24.079-18.575-42.557" fill="#000"/></g></g></svg>
