<svg viewBox="0 0 500 500" xmlns="http://www.w3.org/2000/svg">
<g transform="matrix(1.00301,0,0,.9985,3.75385,-2.24184)">
<path d="m99.7277,257.4829-8.2632,2.3844c.2963,3.9104-.9547,7.4711-3.753,10.9365-2.8312,3.37-5.004,4.2601-13.1027,9.5376-8.4937,5.2775-25.086,13.9885-36.0488,22.477-11.1265,8.583-21.793,17.6755-28.8062,28.6446-7.0452,10.8729-12.115,23.081-12.5101,36.4972-.4929,13.6379 5.7292,31.7911 10.0419,43.9039 4.0823,11.8902 9.3826,20.2515 15.1438,27.5319 5.7283,7.3758 11.9495,12.5587 19.0276,16.1512-.4609,3.4971.428,6.3266 3.0288,8.8382 2.4682,2.5107 6.4526,4.3873 11.9513,5.8824 5.2336,6.7708 13.5618,12.6515 25.7445,18.1215 12.2138,5.4365 30.9122,12.7477 46.1877,14.3373 14.9124,1.5569 30.1568.2552 43.3245-4.7688 12.9701-5.0876 25.6128-15.133 34.8966-24.9886 9.1202-9.8864 15.013-23.8431 20.3445-33.4461 5.2016-9.474 6.9144-17.6119 11.4895-23.4307 4.4782-5.8488 9.613-9.6012 15.5398-11.3806l1.7768-7.5674c-3.5226.0318-6.4846-1.0483-9.0204-3.3699-2.7983-2.3208-5.6616-5.3402-6.2871-10.5223-.6932-5.2474-.4938-12.3035 2.6319-20.2215 3.0288-7.948 10.8988-19.6139 15.8681-26.5145 4.8075-6.8026 9.1201-10.7766 13.2015-13.6387 3.7548-2.8595 6.0584-4.3228 10.469-3.37 4.3795.9864 9.8435,4.0376 16.2631,9.2833l9.0534-2.8295c.1637-3.7841 1.251-7.3757 3.1285-10.9038 1.6781-3.4662 2.9958-5.8179 8.1626-10.1116 5.2345-4.1647 15.2088-9.0916 22.9462-15.4191 7.4722-6.5165 16.6591-14.8142 21.9594-22.9211 5.037-8.2342 7.9999-15.8006 8.8878-25.3692 .6255-9.5076-.032-20.2524-4.2478-30.7438-4.2459-10.3333-11.0286-20.762-20.6078-31.2842l98.1384-109.6507c3.0608-4.0367 6.3209-8.2023 10.0401-12.4934 3.5903-4.3573 7.6058-8.8073 11.9175-13.4798 1.0215.6032 2.2716.4133 3.753-.8266 1.4165-1.1772 2.9309-3.2755 4.8074-6.2957 1.8107,2.7659 3.6863,3.816 5.9898,3.4971 2.1756-.4442 6.3236-3.498 7.2445-5.5954 .7572-2.0665-.0658-4.1965-2.4691-6.6446 2.2057-2.1301 3.325-4.0376 3.4897-5.5954 0-1.6532-.8569-2.6696-2.9309-3.6552 3.2601-1.05 4.609-2.7341 3.9176-5.1821-.7243-2.4798-5.497-8.4893-7.966-9.4113-2.6337-.8902-5.0708.5096-7.5719,4.1965-1.7457-1.7477-3.2263-2.4162-4.9391-2.2245-1.7448.2225-3.3909,1.4306-5.0699,3.4971-2.0411-2.4162-3.9177-3.4653-5.9908-3.498-2.2066.0327-5.037,1.9393-6.2221,3.5289-1.283,1.6205-1.5482,4.3564-1.0197,6.0078 .3603,1.5595 1.6451,2.9893 3.6195,3.8168-2.3365,1.239-3.8838,2.5425-4.641,4.1639-.8898,1.5587-.9876,3.4335-.2972,5.3737-.032-.8593-2.8971,1.3353-8.5925,6.581-5.8262,5.3084-14.2211,13.4153-25.7106,24.8287l-97.5129,95.1218c-3.9835-4.6098-9.7465-8.6457-17.9101-12.2073-8.2623-3.657-20.1149-8.2341-30.5839-8.9336-10.6016-.5714-22.3536,1.5578-31.7023,5.372-9.3506,3.6888-16.9554,9.6339-24.0993,17.105-7.4731,7.6619-14.65,20.7602-19.4885,27.7853-4.7736,6.7717-5.6295,9.8238-9.3167,12.9394-4.0493,3.0838-8.7571,5.0867-14.3866,5.7543l-2.0411,8.9653c5.0041,1.5896 8.2303,4.0058 9.8105,7.6301 1.4156,3.5925 2.2386,7.948-.7243,13.6706-3.1275,5.7544-10.3702,13.9567-17.2837,20.0608-7.1439,6.0723-16.6582,12.7168-24.8556,15.8642-8.4608,3.0838-18.2713,4.2919-24.5922,2.3844-6.3511-2.0003-10.7625-6.6419-13.2316-14.1766z" fill-rule="evenodd" stroke="#000" stroke-miterlimit="10" stroke-width=".0458"/>
<path d="m318.1484,158.6419c-2.7325-3.0838-6.8476-6.0405-12.3455-9.1243-5.7292-3.1147-11.8535-7.4375-20.8072-9.1552-9.1841-1.7495-22.8474-2.9249-32.8555-.8266-10.0401,2.3199-19.8506,8.424-26.8967,13.8931-7.2427,5.5318-11.292,12.0492-15.8343,18.661-4.8074,6.6772-8.0328,15.0694-12.083,20.3796-4.2468,5.1185-8.6912,8.3931-12.1809,10.6821-3.5884,2.3208-6.3209,3.4335-8.5925,3.211l-1.1522,3.0838c3.7201,1.5578 6.3209,3.4971 8.2962,6.0405 1.8107,2.448 3.358,4.9596 2.7325,9.1243-.823,4.4191-2.3045,10.3642-7.2427,16.8498-5.2345,6.5174-14.5512,15.6417-22.9791,21.6186-8.5595,5.9133-19.4565,11.5405-27.4893,13.3209-8.0986,1.6532-15.8681-.6358-20.6416-3.0838-4.9382-2.3526-7.6048-6.1359-8.395-11.2226l-3.0617.4133c1.9424,2.1301.5596,5.4364-4.5102,10.2688-5.2345,4.8006-17.2837,12.5579-25.8761,18.2486-8.5925,5.5636-17.6129,9.3151-25.4482,15.5463-8.1645,6.3584-16.2951,12.9385-22.5182,22.0636-6.3538,9.1243-11.2591,19.8382-14.9792,32.3961 9.8764-1.2081 20.0162-.1272 30.551,3.1156 10.4361,3.3382 23.1766,7.185 32.0983,16.4365 8.8558,9.2515 15.3413,21.8729 20.3454,38.4684 2.107-8.0116 5.3662-16.3729 10.041-26.292 4.4444-9.8237 12.6747-25.3382 17.4483-31.9828 4.5431-6.4856 7.3744-7.4393 11.1603-7.1532 3.6543.3497 6.8476,4.6417 11.3579,8.4249 4.4444,3.6561 10.832,9.4431 15.1109,13.448 3.9515,3.9431 9.2829,7.1205 9.0205,10.4278-.4609,3.3699-4.2807,5.213-11.1933,9.9191-7.2107,4.7997-20.4441,11.2226-30.6498,18.4076-10.3711,7.1523-22.3536,16.5637-30.091,24.2883-7.7018,7.759-11.4228,16.4374-15.7355,21.6195-4.5111,4.9905-8.0657,8.107-10.897,8.87 1.1184,3.687 5.9579,7.5338 14.3857,11.9211 8.3959,4.3564 23.7701,11.1281 36.2135,14.1793 12.3135,3.0529 24.8227,5.5954 37.662,4.0694 12.7396-1.6223 27.8176-7.0905 38.5171-13.6078 10.3693-6.5818 17.4492-16.0223 24.2639-25.401 6.6821-9.4431 12.2787-22.9865 15.9998-30.3296 3.4887-7.2495 2.5669-8.9027 5.2336-12.9403 2.5688-4.0049 7.2427-8.4567 10.3364-10.8102 2.8331-2.2873 5.2025-3.1783 6.9793-2.7977l.824-3.6552c-3.0288.6994-5.6954-.0954-8.1325-2.5124-2.7316-2.4471-6.0246-5.6908-6.6831-11.7949-.855-6.0396-1.1513-14.4009 3.0617-24.003 4.2798-9.7284 15.7711-25.6544 22.3874-33.4443 6.3867-7.7572 9.8425-12.1136 16.3619-12.685 6.4535-.4442 13.5636,2.6705 21.9585,9.6966l4.1819-.4124c-.5935-4.8333.823-9.3151 4.3456-14.0521 3.5216-4.6743 9.9093-8.6792 16.5914-13.7351 6.4873-4.9913 15.7053-10.5849 22.092-16.3075 6.1234-5.6608 11.324-10.4287 15.1109-17.9625 3.6543-7.7272 7.1778-17.5501 7.1449-27.6282-.3283-10.1726-4.5441-23.2709-8.4288-32.0455-3.8856-8.6465-8.9555-14.8159-14.9783-19.235l-94.4851,109.2383c-1.647-3.3708-4.3456-6.8671-7.8682-10.9683-3.754-4.1338-8.4279-8.9653-13.4977-13.0347-5.1028-3.9104-10.6336-7.4711-16.724-10.5549 34.4357-33.1909 68.9381-66.3826 103.4397-99.5735z" fill="#a16121" fill-rule="evenodd" stroke="#000" stroke-miterlimit="10" stroke-width=".0458"/>
<path d="m165.1549,309.2941c.7572-1.8121 1.8765-3.4653 3.358-4.7052 1.3169-1.3353 2.7983-3.7197 5.4649-2.9884 2.6337.8266 6.288,4.2919 10.0739,7.3121 3.6214,2.8613 7.539,6.0087 11.7529,10.2053 4.1143,4.3546 11.9166,12.0801 12.6079,15.4183 .364,3.2128-2.8952,4.4527-9.9093,3.8468l-3.5884-3.7833c1.1852-.5723 1.6141-1.3662 1.1522-2.7659-.7243-1.3353-1.2501-2.2245-4.1151-5.1185-2.898-3.0529-10.1059-10.268-12.7726-12.3344-2.8312-1.9075-3.9506-1.4624-3.6214,1.0809-2.0411-1.526-3.8189-2.7977-5.5966-3.815-1.8436-1.0809-3.326-1.7477-4.8065-2.3526z" fill-rule="evenodd" stroke="#000" stroke-miterlimit="10" stroke-width=".0458"/>
<path d="m202.5197,387.0901 5.2015-.6359c.6905-3.2755 1.9424-5.1185 4.1152-5.8815 1.9735-.7648 6.8476-2e-05 8.2614,1.556 1.2519,1.6541 1.5482,5.946-.0979,7.9806-1.7768,1.972-6.6492,4.0067-10.3043,3.6561-3.9177-.3497-10.3693-1.8113-12.2468-5.8498-2.1069-4.2601-1.9414-11.8575.8898-18.7246s10.9289-15.4518 16.2951-21.7148c5.3333-6.1677 11.3917-11.0627 15.1438-15.1966 3.4567-4.1012 5.1687-7.026 5.8929-9.5058 .6913-2.448.1655-4.3546-1.5793-5.4674l-3.5555.5087c-1.6799,2.2564-3.2263,3.4335-4.7736,3.4018-1.7457-.0327-4.7416-1.6541-4.7745-3.2755-.0978-1.7477 1.6131-5.0549 4.2468-6.1359 2.47-.9847 7.6716-1.3026 10.6674.6367 2.8952,2.0329 6.3529,6.7072 6.4517,11.1899-.2314,4.4182-3.0297,10.0454-6.748,15.2929-3.9835,5.1821-10.5357,10.4269-15.7364,16.0868-5.4,5.7217-11.9852,12.715-14.9472,18.057-2.9611,5.4064-3.6863,9.9182-2.4023,14.0212z" fill-rule="evenodd" stroke="#000" stroke-miterlimit="10" stroke-width=".0458"/>
<path d="m113.5334,304.399 .6584-5.0231c3.3251-.7312 5.2345-1.9393 6.0904-3.974 .6914-2.0029-.0988-6.7081-1.6131-7.9798-1.8107-1.3035-6.2222-1.5578-8.2632.0954-2.1399,1.6214-4.2469,6.3266-3.786,9.9509 .2634,3.6879 1.7777,9.9191 6.0575,11.8267 4.3127,1.9393 12.2138,1.8121 19.3907-.8584 7.0122-2.8295 15.901-10.6503 22.4853-15.737 6.288-5.2457 11.3579-11.0954 15.7364-14.6243 4.181-3.4017 7.2098-5.0549 9.8435-5.6908 2.502-.6994 4.4444-.2226 5.6954,1.5578l-.5267,3.4336c-2.4362,1.526-3.6213,3.052-3.5555,4.5781-.0659,1.5896 1.6461,4.5145 3.3909,4.6098 1.7449.0318 5.1357-1.6532 6.3538-4.1012 .9218-2.4798 1.251-7.5029-.6584-10.3006-2.1728-2.8613-7.0123-6.1994-11.5883-6.2312-4.6748.1272-10.5019,2.8295-15.8352,6.5174-5.432,3.7832-10.897,10.0781-16.6582,15.1966-6.0246,5.1185-13.2673,11.4769-18.6993,14.4336-5.6295,2.8295-10.3035,3.528-14.5183,2.3208z" fill-rule="evenodd" stroke="#000" stroke-miterlimit="10" stroke-width=".0458"/>
<path d="m122.9818,359.6853 50.3367-56.876 255.6011-250.3304 1.8427,2.1627-255.8636,249.6937-50.5671,56.6534-1.3498-1.3034z" fill-rule="evenodd" stroke="#000" stroke-miterlimit="10" stroke-width=".0458"/>
<path d="m123.6732,359.3992 49.382-55.5725 36.7731-35.8932 218.8938-214.628 1.2839,1.3671-67.5875,65.7141-188.4407,184.2021-49.6782,55.795-.6264-.9847z" fill="#fff" fill-rule="evenodd" stroke="#000" stroke-miterlimit="10" stroke-width=".0458"/>
<path d="m150.0761,386.6114 55.8345-52.0118 237.3307-268.4192-1.6799-1.3662-237.3618,268.3892-55.1103,52.3297 .9867,1.0783z" fill-rule="evenodd" stroke="#000" stroke-miterlimit="10" stroke-width=".0458"/>
<path d="m150.077,386.0418 54.8131-51.0907 33.9748-38.4048 203.75-230.2697-1.0873-.7939-63.1742,71.88-174.3193,196.7618-54.1885,51.3123 .2314.6049z" fill="#fff" fill-rule="evenodd" stroke="#000" stroke-miterlimit="10" stroke-width=".0458"/>
<path d="m140.6276,375.7721 55.8346-52.0117 241.8729-260.4085-1.5802-1.3988-242.0046,260.4085-55.1103,52.3297 .9876,1.0809z" fill-rule="evenodd" stroke="#000" stroke-miterlimit="10" stroke-width=".0458"/>
<path d="m140.6267,375.1354 54.8469-51.058 242.203-260.5984-.9886-.6985-242.1353,260.4712-54.1885,51.3123 .2625.5714z" fill="#fff" fill-rule="evenodd" stroke="#000" stroke-miterlimit="10" stroke-width=".0458"/>
<path d="m132.7603,367.3463 54.0239-53.3788 247.2391-254.9085-1.4165-1.4298-247.5025,254.9721-53.3984,53.7921 1.0544.9529z" fill-rule="evenodd" stroke="#000" stroke-miterlimit="10" stroke-width=".0458"/>
<path d="m132.8253,366.8385 52.9375-52.5204 247.5034-255.2273-.7901-.763-247.5692,255.1637-52.6412,52.743 .5597.604z" fill="#fff" fill-rule="evenodd" stroke="#000" stroke-miterlimit="10" stroke-width=".0458"/>
<path d="m125.5826,354.7575c-.4938.5405-1.1522,1.1763-1.8436,2.0347-.7572.922-1.679,1.9393-2.6337,3.1792-.7901.0636-1.3827.3815-1.6461.8266-.3621.4769-.395,1.2081-.2304,1.8122 .0658.5723-.0988,1.4306.6584,1.7168 .5267.3179 1.4486.3815 2.7654.1908-.4609.3815-1.251.5722-1.8436.5722-.8889-.0318-1.9094,1e-05-2.4362-.5087-.6914-.4769-.6914-1.7486-.6584-2.4798-.0658-.8266.2963-1.3035.856-1.9075 .3951-.5087 1.3827-.8266 2.3374-1.0491 1.5144-1.4624 3.0946-2.9249 4.6748-4.3873z" fill="#fff" fill-rule="evenodd" stroke="#000" stroke-miterlimit="10" stroke-width=".0458"/>
<path d="m133.352,362.0061c-.5267.5087-1.0864,1.2399-1.8107,2.0665-.7572.922-1.679,1.9393-2.6337,3.1792-.856.0636-1.3169.3179-1.6461.763-.2963.4769-.5597,1.1763-.2634,1.8439 .0658.5723-.0988,1.4306.6584,1.7168 .5267.3179 1.4485.3815 2.7654.1908-.4938.3497-1.1852.6359-1.8107.604-.7901.0636-2.0082-.0318-2.4032-.5404-.6255-.4769-.823-1.7486-.7243-2.4798-.0329-.7312.3621-1.3671.9218-1.9075 .4609-.5087 1.2181-.8584 2.2716-1.0491 1.5144-1.4624 3.0946-2.9249 4.6748-4.3873z" fill="#fff" fill-rule="evenodd" stroke="#000" stroke-miterlimit="10" stroke-width=".0458"/>
<path d="m141.3848,370.9079c-.5267.3815-1.1861,1.08-1.9762,1.8431-.856.8266-1.7768,1.7812-2.8962,2.9893-.8249.03-1.3836.2535-1.6799.6667-.4271.4778-.5267,1.2081-.4271,1.813-.0338.5396-.1646,1.4942.4938,1.7486 .5267.3815 1.4147.476 2.7983.4133-.6255.2861-1.2181.4769-1.9104.4442-.888-.0945-1.9734-.1254-2.3694-.6985-.6255-.6041-.5258-1.7795-.46-2.5425 .0658-.6359.3292-1.3988 1.0197-1.813 .5917-.3824 1.3168-.8266 2.4033-.8584 1.647-1.3362 3.2931-2.6696 5.004-4.0058z" fill="#fff" fill-rule="evenodd" stroke="#000" stroke-miterlimit="10" stroke-width=".0458"/>
<path d="m151.4267,381.9406c-.6273.2843-1.2848.9847-2.2067,1.6205-.9885.6986-2.0411,1.526-3.2921,2.6069-.888-.0945-1.3168.1272-1.7768.446-.4618.3806-.7252,1.08-.6593,1.7159-.0988.5405-.2963,1.4306.2963,1.8121 .4947.3506 1.3168.763 2.6995.763-.5926.2543-1.3159.3188-1.9094.1907-.8559-.1907-1.9103-.3188-2.2725-.9864-.4938-.6676-.428-1.8121-.1637-2.5743 .1646-.604.5588-1.3679 1.2839-1.685 .5926-.2543 1.4147-.6685 2.4682-.5413 1.8107-1.1127 3.6561-2.2572 5.5326-3.3682z" fill="#fff" fill-rule="evenodd" stroke="#000" stroke-miterlimit="10" stroke-width=".0458"/>
<path d="m420.1305,57.1515-11.3917-10.8084c-1.0526.2534-1.6442-.0018-2.0082-.2861-.2634-.3815-.4271-.9229.0009-1.8448-.6593-1.0165-1.4815-1.3035-2.2396-1.3344-.9877.0636-1.5473,1.3035-2.7974,1.6205-1.4485.3815-3.5235.6685-5.0708.0009-1.7778-.6994-3.785-2.1309-4.6081-4.6425-.9218-2.6705-1.1852-7.7573-.2963-10.5867 .7234-2.7968 2.4024-4.3547 4.8715-5.5309 2.3374-.9856 6.3547-1.6223 9.2509-.922 2.6008.604 5.9258,2.6069 6.9464,4.8006 .8239,2.32-1.4156,6.8989-1.3818,8.583-.0659,1.526.3621,1.9393 1.283.9864 .3951-.0636.824.1581 1.1523.5405 .2314.4124.4938,1.0491.6593,2.0338l11.1594,10.5876c-1.8436,2.2254-3.6872,4.5145-5.5299,6.8026z" fill-rule="evenodd" stroke="#000" stroke-miterlimit="10" stroke-width=".0458"/>
<path d="m437.0521,39.793-13.0039-12.5579c-.0338-1.1118-.3301-1.8431-1.0215-2.0656-.791-.2535-1.9753-9e-06-3.4238.6358-.3941-2.2263-1.3507-4.2911-2.9958-6.581-1.711-2.1627-6.0904-4.9913-6.9135-6.6763-1.0864-1.8121.1646-2.7659 1.0873-3.7205 .6914-.9856 2.1399-2.1937 3.7201-1.5578 1.3489.9229 2.6986,4.1339 5.069,5.9778 2.2725,1.6841 5.2345,3.0202 8.8887,4.0058-.2944.8566-.2624,1.5887-.0329,2.0665s.6923.8575 1.5144,1.0173l13.399,12.9394-5.2336,6.0714-1.0535.4451z" fill-rule="evenodd" stroke="#000" stroke-miterlimit="10" stroke-width=".0458"/>
<path d="m445.8741,64.5281 13.0048,12.5587c1.1513-.0327 1.8116.3488 2.106,1.0165 .1985.7639.0338,1.813-.6246,3.2737 2.2734.3497 4.4114,1.2735 6.8156,2.894 2.1381,1.5578 5.069,5.7853 6.9126,6.6754 1.6808,1.0509 2.8651-.3488 3.8207-1.0156 .9218-.763 2.1719-2.1628 1.6132-3.5925-.9556-1.4951-4.4444-2.6387-6.1563-4.9277-1.7768-2.2263-3.1266-5.1177-4.181-8.5538-.8889.2243-1.679.2243-2.1052.0018-.5615-.2243-.9209-.7003-1.0855-1.4315l-13.4017-12.942-6.2898,4.9931-.4289,1.05z" fill-rule="evenodd" stroke="#000" stroke-miterlimit="10" stroke-width=".0458"/>
<path d="m458.3503,49.0463 11.1951,11c-.2963.9838-.0339,1.5569.2963,1.9393 .428.2861.9538.4142 1.9414.0327 1.0215.6032 1.3187,1.3971 1.3836,2.161-.1317.8902-1.5144,1.3352-1.7147,2.6697-.4929,1.3043-.7883,3.3064.002,4.896 .6255,1.6214 2.1399,3.5907 4.8074,4.45 2.6648.793 7.9322,1.0509 10.961.2844 2.8312-.7612 4.4114-2.4144 5.7283-4.7035 .9876-2.4162 1.6131-6.263.9876-8.9636-.6593-2.6714-2.8312-5.7243-5.005-6.679-2.3365-.9211-7.2747,1.3679-8.8211,1.337-1.7476.0309-2.1079-.3824-1.0882-1.2399 .0979-.4777-.1646-.8584-.5258-1.1454-.4609-.3179-1.2181-.4769-2.1399-.604l-10.9647-10.7775c-2.3008,1.7803-4.6721,3.5616-7.0434,5.3428z" fill-rule="evenodd" stroke="#000" stroke-miterlimit="10" stroke-width=".0458"/>
</g>
</svg>
