<svg viewBox="0 0 128 128" xmlns="http://www.w3.org/2000/svg">
<g transform="matrix(.37699,0,0,-.40472,70.19285,70.61646)">
<path d="m0,0c0-11.25-14-10.583-14-10.583h-14v20.333h14c14.417.083 14-9.75 14-9.75m-28,40.75h10.667c11.083-.584 10.666-8.833 10.666-8.833 0-10.25-12.25-10.417-12.25-10.417h-9.083v19.25zm25.417-23.25c0,0 9.583,4.083 9.5,14.917 0,0 1.457,17.749-22.063,19.916h-26.104v-74.416h29.917c0,0 25-.084 25,21 0,0 .583,14.333-16.25,18.583m-67.545,49.4156h109.878v-103.544h-109.878v103.544z"/>
</g>
<g transform="matrix(.38001,0,0,-.40472,26.92461,70.78271)">
<path d="m0,0c0-11.25-14-10.583-14-10.583h-14v20.333h14c14.417.083 14-9.75 14-9.75m-28,40.75h10.667c11.083-.584 10.666-8.833 10.666-8.833 0-10.25-12.25-10.417-12.25-10.417h-9.083v19.25zm25.417-23.25c0,0 9.583,4.083 9.5,14.917 0,0 1.457,17.749-22.063,19.916h-26.104v-74.416h29.917c0,0 25-.084 25,21 0,0 .583,14.333-16.25,18.583m-67.545,49.4156h109.878v-103.544h-109.878v103.544z"/>
</g>
<path d="m119.5221,51.7616v5.5648c0,0-4.9768-3.3389-10.4789-3.4065 0,0-10.2623-.2185-10.726,10.7339 0,0-.3709,10.0754 10.6024,10.6489 0,0 4.6059.6071 10.8498-3.7436v5.7672c0,0-8.3768,5.4297-18.0831,1.2477 0,0-8.1606-3.2539-8.4699-13.9202 0,0-.3401-10.9698 10.5409-14.6123 0,0 2.9059-1.2141 8.1298-.6747 0,0 3.1218.3375 7.635,2.3947m-32.4424,33.8452h40.7577v-41.9059h-40.7577v41.9059z"/>
</svg>
