<svg xmlns="http://www.w3.org/2000/svg" viewBox="0 0 128 128">
<g transform="matrix(.37699 0 0 -.40472 70.193 70.616)">
<path d="m0 0c0-11.25-14-10.583-14-10.583h-14v20.333h14c14.417 0.083 14-9.75 14-9.75m-28 40.75h10.667c11.083-0.584 10.666-8.833 10.666-8.833 0-10.25-12.25-10.417-12.25-10.417h-9.083v19.25zm25.417-23.25s9.583 4.083 9.5 14.917 1.457 17.749-22.063 19.916h-26.104v-74.416h29.917s25-0.084 25 21 0.583 14.333-16.25 18.583m-67.545 49.416h109.88v-103.54h-109.88v103.54z" fill="#000"/>
</g>
<g transform="matrix(.38001 0 0 -.40472 26.925 70.783)">
<path d="m0 0c0-11.25-14-10.583-14-10.583h-14v20.333h14c14.417 0.083 14-9.75 14-9.75m-28 40.75h10.667c11.083-0.584 10.666-8.833 10.666-8.833 0-10.25-12.25-10.417-12.25-10.417h-9.083v19.25zm25.417-23.25s9.583 4.083 9.5 14.917 1.457 17.749-22.063 19.916h-26.104v-74.416h29.917s25-0.084 25 21 0.583 14.333-16.25 18.583m-67.545 49.416h109.88v-103.54h-109.88v103.54z" fill="#000"/>
</g>
<path d="m119.52 51.762v5.5648s-4.9768-3.3389-10.479-3.4065-10.262-0.2185-10.726 10.734-0.3709 10.075 10.602 10.649c0 0 4.6059 0.6071 10.85-3.7436v5.7672s-8.3768 5.4297-18.083 1.2477-8.1606-3.2539-8.4699-13.92-0.3401-10.97 10.541-14.612c0 0 2.9059-1.2141 8.1298-0.6747 0 0 3.1218 0.3375 7.635 2.3947m-32.442 33.845h40.758v-41.906h-40.758v41.906z" fill="#000"/>
</svg>
