<svg xml:space="preserve" xmlns="http://www.w3.org/2000/svg" viewBox="0 0 192 192" enable-background="new 0 0 192 235"><g transform="matrix(1.0702 0 0 1.0816 -6.7229 1.6715)" fill="#000"><path d="m95.829 117.62c16.817 0 30.438-13.664 30.438-30.52 0-16.851-13.62-30.523-30.438-30.523-16.81 0-30.429 13.672-30.429 30.523 0 16.856 13.619 30.52 30.429 30.52"/><path d="m60.69 117.61c-16.81 0-30.437-13.658-30.437-30.514 0-16.851 13.627-30.53 30.437-30.53v61.044"/><path d="m130.98 151.29 0.006-28.957 28.888 0.013c0.005 16.014-12.927 28.944-28.894 28.944"/><path d="m60.69 22.884v28.999l-28.924 0.007c0-16.019 12.95-29.006 28.924-29.006"/><path d="m60.685 151.29 0.005-28.957-28.919 0.013c0 16.014 12.945 28.944 28.914 28.944"/><path d="m166.14 113.34-0.013-52.463c8.904 5.326 14.872 15.068 14.872 26.222s-5.959 20.905-14.859 26.241"/><path d="m69.68 16.608 52.313 0.013c-5.313-8.935-15.032-14.932-26.164-14.932-11.109 0-20.846 5.99-26.149 14.919"/><path d="m121.6 157.6-52.313-0.011c5.316 8.933 15.034 14.915 26.157 14.915s20.845-5.982 26.156-14.904"/><path d="m126.26 122.34c0 16.856-13.614 30.518-30.432 30.518-16.81 0-30.437-13.663-30.437-30.518h60.869"/><path d="m130.99 117.61c16.805 0 30.431-13.658 30.431-30.514 0-16.851-13.626-30.53-30.431-30.53v61.044"/><path d="m126.26 51.922c0-16.864-13.614-30.534-30.432-30.534-16.81 0-30.437 13.67-30.437 30.534h60.869"/><path d="m25.538 113.34 0.008-52.463c-8.912 5.326-14.879 15.068-14.879 26.222s5.96 20.905 14.871 26.241"/><path d="m159.88 51.896-28.894-0.013-0.006-28.979c15.968 0 28.9 12.974 28.9 28.992"/></g></svg>
