<svg xmlns:rdf="http://www.w3.org/1999/02/22-rdf-syntax-ns#" xmlns="http://www.w3.org/2000/svg" height="100%" width="100%" version="1.1" xmlns:cc="http://creativecommons.org/ns#" xmlns:xlink="http://www.w3.org/1999/xlink" viewBox="0 0 256 256" xmlns:dc="http://purl.org/dc/elements/1.1/">
<metadata>
<rdf:RDF>
<cc:Work rdf:about="">
<dc:format>image/svg+xml</dc:format>
<dc:type rdf:resource="http://purl.org/dc/dcmitype/StillImage"/>
<dc:title/>
</cc:Work>
</rdf:RDF>
</metadata>
<defs>
<clipPath id="clipPath3355">
<path d="m744.07,238.43c-7.142-6.636-10.714-15.192-10.714-25.672,0-10.487,3.527-19.022,10.577-25.609s16.561-9.879,28.528-9.879c11.965,0,21.519,3.292,28.665,9.879,7.141,6.587,10.718,15.122,10.718,25.609,0,10.48-3.527,19.036-10.579,25.672-7.05,6.634-16.56,9.952-28.524,9.952-11.971,0-21.53-3.318-28.671-9.952m9.602-42.792c-4.545,4.361-6.816,10.068-6.816,17.12,0,7.142,2.25,12.892,6.75,17.255s10.829,6.542,18.993,6.542c8.257,0,14.635-2.159,19.135-6.474,4.5-4.314,6.75-10.09,6.75-17.323,0-7.052-2.298-12.759-6.89-17.12s-10.925-6.537-18.995-6.537-14.383,2.178-18.927,6.537"/>
</clipPath>
<clipPath id="clipPath3389">
<path d="m764.16,224.24,0.033-22.514c-0.24-5.775,4.557-3.618,4.557-3.618l16.135,11.328c3.603,2.562,0.033,4.779,0.033,4.779l-14.563,12.769c-1.139,0.687-2.075,0.957-2.841,0.957-2.835,0-3.354-3.701-3.354-3.701"/>
</clipPath>
<linearGradient id="linearGradient3104" gradientUnits="userSpaceOnUse" x2="788.49" x1="766.04">
<stop stop-color="#79368f" offset="0"/>
<stop stop-color="#482654" offset="1"/>
</linearGradient>
<linearGradient id="linearGradient3102" gradientUnits="userSpaceOnUse" gradientTransform="matrix(0,-46.38623,-46.38623,0,772.60352,216.43311)">
<stop stop-color="#e8a222" offset="0"/>
<stop stop-color="#e72" offset="0.612"/>
<stop stop-color="#e72" offset="1"/>
</linearGradient>
</defs>
<g transform="matrix(3.01551,0,0,-3.03792,-2202.653,775.41256)">
<g clip-path="url(#clipPath3355)">
<path d="m744.07,238.43c-7.142-6.636-10.714-15.192-10.714-25.672,0-10.487,3.527-19.022,10.577-25.609s16.561-9.879,28.528-9.879c11.965,0,21.519,3.292,28.665,9.879,7.141,6.587,10.718,15.122,10.718,25.609,0,10.48-3.527,19.036-10.579,25.672-7.05,6.634-16.56,9.952-28.524,9.952-11.971,0-21.53-3.318-28.671-9.952m9.602-42.792c-4.545,4.361-6.816,10.068-6.816,17.12,0,7.142,2.25,12.892,6.75,17.255s10.829,6.542,18.993,6.542c8.257,0,14.635-2.159,19.135-6.474,4.5-4.314,6.75-10.09,6.75-17.323,0-7.052-2.298-12.759-6.89-17.12s-10.925-6.537-18.995-6.537-14.383,2.178-18.927,6.537" fill="url(#linearGradient3102)"/>
</g>
</g>
<g transform="matrix(3.01551,0,0,-3.03792,-2202.653,775.41256)">
<g clip-path="url(#clipPath3389)">
<path d="m764.16,224.24,0.033-22.514c-0.24-5.775,4.557-3.618,4.557-3.618l16.135,11.328c3.603,2.562,0.033,4.779,0.033,4.779l-14.563,12.769c-1.139,0.687-2.075,0.957-2.841,0.957-2.835,0-3.354-3.701-3.354-3.701" fill="url(#linearGradient3104)"/>
</g>
</g>
</svg>
