<svg xmlns="http://www.w3.org/2000/svg" viewBox="0 0 256 256">
<g transform="matrix(7.6632 0 0 7.4798 -602.6 -6016.6)" fill="#000">
<path d="m79.883 821.54c0 8.59 6.988 15.578 15.576 15.578s15.577-6.988 15.577-15.578-6.988-15.574-15.577-15.574-15.576 6.988-15.576 15.574zm3.151 0c0-6.852 5.574-12.424 12.425-12.424s12.428 5.572 12.428 12.424c0 6.855-5.577 12.428-12.428 12.428s-12.425-5.573-12.425-12.428z"/>
<path d="m97.208 827.95c0 1.008-0.817 1.824-1.825 1.824-1.005 0-1.822-0.816-1.822-1.824v-14.588c0-1.008 0.816-1.824 1.822-1.824s1.825 0.816 1.825 1.824v14.588z"/>
<path d="m91.206 827.95c0 1.008-0.818 1.824-1.826 1.824-1.005 0-1.822-0.816-1.822-1.824v-7.752c0-1.004 0.817-1.822 1.822-1.822s1.826 0.818 1.826 1.822v7.752z"/>
<path d="m103.21 827.95c0 1.008-0.816 1.824-1.824 1.824-1.005 0-1.822-0.816-1.822-1.824v-7.752c0-1.004 0.817-1.822 1.822-1.822s1.824 0.818 1.824 1.822v7.752z"/>
</g>
</svg>
