<svg viewBox="0 0 128 128" xmlns="http://www.w3.org/2000/svg">
<defs>
<filter>
<feGaussianBlur stdDeviation="3.303"/>
</filter>
</defs>
<g fill="#fff" fill-rule="evenodd" transform="matrix(.78676,0,0,.93186,.10189,35.30333)">
<path d="m0,56.6386h162.591v-56.6386h-162.591v56.6386z"/>
</g>
<g fill="#ff330d" fill-rule="evenodd" transform="matrix(.78676,0,0,.93186,1.53333,37.01507)">
<path d="m0,52.9897h52.9892v-52.9897h-52.9892v52.9897z" fill="#ff330d"/>
</g>
<g fill-rule="evenodd" transform="matrix(.78676,0,0,.93186,43.22409,37.01507)">
<path d="m0,52.9897h52.9898v-52.9897h-52.9898v52.9897z"/>
</g>
<g fill="#36c" fill-rule="evenodd" transform="matrix(.78676,0,0,.93186,84.91454,37.01507)">
<path d="m0,52.9897h52.99v-52.9897h-52.99v52.9897z" fill="#36c"/>
</g>
<g fill="#fff" fill-rule="evenodd" transform="matrix(.78676,0,0,.93186,12.68248,48.56142)">
<path d="m17.4736,27.6221v-15.6377c0-2.3057-.4443-3.9893-1.333-5.0518s-2.3379-1.5918-4.3516-1.5918c-.9306,0-1.9238.2617-2.9824.7842s-1.8818,1.1709-2.4726,1.9443v19.5528h-6.334v-27.1651h4.5634l1.1661,2.5352c1.7255-1.9932 4.2675-2.9922 7.6337-2.9922 3.2266,0 5.7735.9668 7.6417,2.8994s2.8027,4.6289 2.8027,8.0879v16.6348h-6.334z" fill="#fff"/>
</g>
<g fill="#fff" fill-rule="evenodd" transform="matrix(.78676,0,0,.93186,54.40164,48.56142)">
<path d="m10.378,5.417c2.914,0 5.0039.6533 6.2675,1.9609s1.8956,3.5606 1.8956,6.7637c0,3.0005-.6358,5.1965-1.9083,6.5855s-3.3662,2.087-6.2812,2.087c-1.5332,0-2.873-.464-4.0186-1.392v-14.2336c1.1788-1.1797 2.5284-1.7715 4.045-1.7715zm1.4072,22.7381c4.1435,0 7.4121-1.199 9.8046-3.597s3.59-5.821 3.59-10.2632c0-9.5283-4.329-14.2949-12.9864-14.2949-2.3174,0-4.2705.7617-5.8604,2.2832v-1.8262h-6.333v37.7701h6.333v-11.263c1.6407.795 3.4571,1.191 5.4522,1.191z" fill="#fff"/>
</g>
<g fill="#fff" fill-rule="evenodd" transform="matrix(.78676,0,0,.93186,98.97165,48.56142)">
<path d="m15.64,6.4101c-1.129-.7128-2.363-1.0693-3.708-1.0693-1.464,0-2.761.666-3.896,1.9961-1.136,1.3301-1.702,2.9561-1.702,4.876v15.4092h-6.334v-27.1651h6.334v2.5947c1.764-2.0332 4.11-3.0517 7.035-3.0517 2.152,0 3.801.3301 4.944.9883l-2.673,5.4218z" fill="#fff"/>
</g>
</svg>
