<svg viewBox="0 0 256 256" xmlns="http://www.w3.org/2000/svg">
<defs>
<linearGradient gradientTransform="matrix(-.59146,0,0,.59146,210.0216,142.2324)" gradientUnits="userSpaceOnUse" id="linearGradient2449" x1="-344.1529" x2="-395.8494" y1="274.711" y2="425.3999">
<stop offset="0" stop-color="#fff"/>
<stop offset="1" stop-color="#fff" stop-opacity="0"/>
</linearGradient>
</defs>
<g transform="translate(-373.642,-318.344)">
<path d="m-583.6584,328.8492h164.0328a35.4875,35.4875 0 0,1 35.4875,35.4875v164.0145a35.4875,35.4875 0 0,1 -35.4875,35.4875h-164.0328a35.4875,35.4875 0 0,1 -35.4875-35.4875v-164.0145a35.4875,35.4875 0 0,1 35.4875-35.4875" fill="#e15a00" fill-rule="evenodd" transform="scale(-1,1)"/>
<path d="m557.0566,338.8952h-110.8294c-29.3369,0-52.9547,23.8097-52.9547,53.3851v108.1274c.9496,23.0861 4.6023,8.4915 11.555-17.0747 8.0806-29.7131 34.3965-55.6829 66.4446-75.1457 24.4613-14.8553 51.8411-24.3413 101.6795-25.2437 28.2648-.5118 25.7695-36.6829-15.8951-44.0484z" fill="url(#linearGradient2449)" fill-rule="evenodd" opacity=".607"/>
<path d="m385,200.6429c0,13.2154-11.033,23.9286-24.6429,23.9286s-24.6429-10.7132-24.6429-23.9286 11.033-23.9286 24.6429-23.9286 24.6429,10.7132 24.6429,23.9286z" fill="#fff" transform="matrix(.86996,0,0,.86996,135.15631,330.52863)"/>
<path d="m427.8348,455.0568-.0728-30.2732c64.7061,3.3755 100.6188,49.6732 101.5002,101.9396h-30.3182c-.503-45.9408-31.7407-69.9952-71.1092-71.6664z" fill="#fff" fill-rule="evenodd"/>
<path d="m428.2014,404.5715-.8788-30.7576c99.4284,4.6163 152.6776,76.7681 153.3488,152.9094l-31.197-.4394c1.3649-48.7035-34.6657-120.2665-121.273-121.7124z" fill="#fff" fill-rule="evenodd"/>
</g>
</svg>
