<svg xmlns="http://www.w3.org/2000/svg" viewBox="0 0 256 256">
<defs>
<linearGradient id="linearGradient2449" y2="425.4" gradientUnits="userSpaceOnUse" y1="274.71" gradientTransform="matrix(-.59146 0 0 .59146 210.02 142.23)" x2="-395.85" x1="-344.15">
<stop stop-color="#fff" offset="0"/>
<stop stop-color="#fff" stop-opacity="0" offset="1"/>
</linearGradient>
</defs>
<g transform="translate(-373.64 -318.34)">
<path d="m-583.66 328.85h164.03a35.488 35.488 0 0 1 35.488 35.488v164.01a35.488 35.488 0 0 1 -35.488 35.488h-164.03a35.488 35.488 0 0 1 -35.488 -35.488v-164.01a35.488 35.488 0 0 1 35.488 -35.488" fill-rule="evenodd" transform="scale(-1,1)" fill="#e15a00"/>
<path opacity=".607" fill-rule="evenodd" d="m557.06 338.9h-110.83c-29.337 0-52.955 23.81-52.955 53.385v108.13c0.9496 23.086 4.6023 8.4915 11.555-17.075 8.0806-29.713 34.396-55.683 66.445-75.146 24.461-14.855 51.841-24.341 101.68-25.244 28.265-0.5118 25.77-36.683-15.895-44.048z" fill="url(#linearGradient2449)"/>
<path d="m385 200.64c0 13.215-11.033 23.929-24.643 23.929s-24.643-10.713-24.643-23.929 11.033-23.929 24.643-23.929 24.643 10.713 24.643 23.929z" transform="matrix(.86996 0 0 .86996 135.16 330.53)" fill="#fff"/>
<path fill-rule="evenodd" d="m427.83 455.06-0.0728-30.273c64.706 3.3755 100.62 49.673 101.5 101.94h-30.318c-0.503-45.941-31.741-69.995-71.109-71.666z" fill="#fff"/>
<path fill-rule="evenodd" d="m428.2 404.57-0.8788-30.758c99.428 4.6163 152.68 76.768 153.35 152.91l-31.197-0.4394c1.3649-48.704-34.666-120.27-121.27-121.71z" fill="#fff"/>
</g>
</svg>
