<svg enable-background="new 0 0 256 256" viewBox="0 0 256 256" xml:space="preserve" xmlns="http://www.w3.org/2000/svg"><defs><linearGradient gradientUnits="userSpaceOnUse" id="SVGID_1_" x2="0" y1="11.167" y2="138.7955">
	<stop offset="0" stop-color="#fff" stop-opacity=".85"></stop>
	<stop offset=".66" stop-color="#fff" stop-opacity="0"></stop>
</linearGradient><linearGradient gradientUnits="userSpaceOnUse" id="SVGID_2_" x2="0" y1="138.001" y2="245.5122">
		<stop offset="0" stop-opacity=".15"></stop>
		<stop offset=".663" stop-opacity="0"></stop>
	</linearGradient></defs>
<path d="m209.018,10.505h-164.035c-19.599,0-35.487,15.888-35.487,35.487v164.015c0,19.599 15.888,35.486 35.487,35.486h164.033c19.604,0 35.487-15.888 37.487-34.819v-164.014c-1.999-20.266-17.888-36.155-37.485-36.155z" fill="#fc5427"></path>

<path d="m209.018,10.505h-164.035c-19.599,0-35.487,15.889-35.487,35.487v69.409c36.33,14.751 76.046,22.896 117.671,22.896 42.263,0 82.558-8.395 119.336-23.576v-68.061c-1.999-20.266-17.888-36.155-37.485-36.155z" fill="url(#SVGID_1_)"></path>
<path d="m246.503,114.721v-68.061c-1.999-20.266-17.888-36.155-37.485-36.155h-164.036c-19.599,0-35.486,15.889-35.486,35.487v69.409" fill="none" stroke="#fc5427" stroke-miterlimit="10" stroke-width="2"></path>
<path d="m26.791,154.715c-.067.478-.411.81-.833.81-.436,0-.781-.334-.837-.814l-1.527-11.399 1.527-11.598c.056-.482.401-.817.837-.817 .42,0 .768.335.833.814l1.811,11.601-1.811,11.403zm12.337,6.938c-.071.496-.429.843-.866.843-.445,0-.812-.355-.869-.848l-2.053-18.338 2.053-18.754c.061-.488.428-.842.869-.842s.797.343.87.842l2.333,18.754-2.337,18.343zm12.25,3.782c-.057.687-.584,1.202-1.225,1.202-.646,0-1.177-.516-1.227-1.202l-1.841-22.117 1.841-22.859c.052-.69.579-1.207 1.227-1.207 .64,0 1.168.517 1.225,1.201l2.093,22.865-2.093,22.117zm11.995.184c-.054.785-.657,1.379-1.4,1.379-.754,0-1.354-.594-1.404-1.383l-1.735-22.299 1.735-21.206c.048-.788.649-1.384 1.404-1.384s1.349.591 1.4,1.374l1.973,21.216-1.973,22.303zm12.001.007v-.007c-.05.872-.743,1.562-1.582,1.562s-1.536-.687-1.579-1.558l-1.636-22.298 1.636-34.501c.041-.876.736-1.566 1.579-1.566s1.532.69 1.582,1.566l1.848,34.501-1.848,22.301zm11.998-.144c-.044.977-.819,1.743-1.758,1.743-.947,0-1.719-.767-1.757-1.734l-1.529-22.158c0,0 1.526-42.393 1.526-42.396 .042-.976.814-1.741 1.761-1.741 .939,0 1.712.764 1.758,1.741l1.726,42.396-1.727,22.149zm12.245-.359v.003c-.038,1.174-.964,2.097-2.114,2.097s-2.08-.923-2.112-2.091l-1.318-21.794 1.315-47.481c.031-1.181.962-2.104 2.115-2.104s2.079.926 2.114,2.104l1.481,47.482-1.481,21.784zm12.252-.324v-.017c-.032,1.384-1.114,2.462-2.471,2.462s-2.448-1.082-2.475-2.446l-1.104-21.45 1.104-44.58c.027-1.383 1.116-2.463 2.475-2.463s2.438,1.081 2.471,2.459l1.239,44.585-1.239,21.45zm12.514-.44v-.025c-.022,1.558-1.289,2.822-2.827,2.822s-2.809-1.265-2.829-2.799l-1.161-21 1.159-57.859c.023-1.557 1.29-2.822 2.832-2.822s2.806,1.266 2.827,2.817l1.26,57.864-1.261,21.002zm82.34,2.985-71.194-.044c-1.534-.154-2.753-1.464-2.773-3.035v-81.518c.019-1.498.535-2.271 2.474-3.021 4.986-1.928 10.635-3.069 16.43-3.069 23.678,0 43.09,18.16 45.133,41.306 3.057-1.282 6.415-1.994 9.936-1.994 14.183,0 25.681,11.502 25.681,25.688s-11.504,25.687-25.687,25.687z" fill="#fff"></path>

	
		
	<path d="m9.496,115.401v94.605c0,19.6 15.888,35.486 35.487,35.486h164.033c19.604,0 35.488-15.889 37.488-34.819v-95.952c-36.779,15.181-77.074,23.576-119.337,23.576-41.625.001-81.342-8.145-117.671-22.896z" fill="url(#SVGID_2_)"></path>


	
		
			<path d="m9.496,115.401v94.605c0,19.6 15.888,35.486 35.486,35.486h164.034c19.604,0 35.487-15.889 37.487-34.819v-95.952" fill="none" stroke="#cc4420" stroke-miterlimit="10" stroke-width="2"></path>
		
	

</svg>
