<?xml version="1.0" encoding="UTF-8" standalone="no"?>
<!-- Created with Inkscape (http://www.inkscape.org/) -->
<svg
   xmlns:dc="http://purl.org/dc/elements/1.1/"
   xmlns:cc="http://creativecommons.org/ns#"
   xmlns:rdf="http://www.w3.org/1999/02/22-rdf-syntax-ns#"
   xmlns:svg="http://www.w3.org/2000/svg"
   xmlns="http://www.w3.org/2000/svg"
   xmlns:xlink="http://www.w3.org/1999/xlink"
   xmlns:sodipodi="http://sodipodi.sourceforge.net/DTD/sodipodi-0.dtd"
   xmlns:inkscape="http://www.inkscape.org/namespaces/inkscape"
   width="128"
   height="128"
   id="svg2606"
   sodipodi:version="0.32"
   inkscape:version="0.45+devel"
   version="1.0"
   sodipodi:docname="go-next.svgz"
   inkscape:output_extension="org.inkscape.output.svgz.inkscape"
   sodipodi:docbase="/home/pinheiro/artwork/Oxygen/scribus/scalable"
   inkscape:export-filename="/home/pinheiro/pics/oxygen/scalable/actions/go-next.png"
   inkscape:export-xdpi="180"
   inkscape:export-ydpi="180">
  <defs
     id="defs2608">
    <linearGradient
       inkscape:collect="always"
       id="linearGradient3449">
      <stop
         style="stop-color:#000000;stop-opacity:1;"
         offset="0"
         id="stop3451" />
      <stop
         style="stop-color:#000000;stop-opacity:0;"
         offset="1"
         id="stop3453" />
    </linearGradient>
    <linearGradient
       id="linearGradient3295">
      <stop
         style="stop-color:#63e9ff;stop-opacity:1;"
         offset="0"
         id="stop3297" />
      <stop
         style="stop-color:#ffffff;stop-opacity:0;"
         offset="1"
         id="stop3299" />
    </linearGradient>
    <linearGradient
       inkscape:collect="always"
       id="linearGradient3260">
      <stop
         style="stop-color:#ffffff;stop-opacity:1;"
         offset="0"
         id="stop3262" />
      <stop
         style="stop-color:#ffffff;stop-opacity:0;"
         offset="1"
         id="stop3264" />
    </linearGradient>
    <linearGradient
       id="linearGradient3202">
      <stop
         style="stop-color:#cdeeff;stop-opacity:1;"
         offset="0"
         id="stop3204" />
      <stop
         style="stop-color:#d2e8ed;stop-opacity:0;"
         offset="1"
         id="stop3206" />
    </linearGradient>
    <radialGradient
       id="XMLID_4_"
       cx="48"
       cy="-0.2148"
       r="55.148"
       gradientTransform="matrix(0.9792,0,0,0.9725,133.0002,20.8762)"
       gradientUnits="userSpaceOnUse">
      <stop
         offset="0"
         style="stop-color:#72D13D"
         id="stop3082" />
      <stop
         offset="0.3553"
         style="stop-color:#35AC1C"
         id="stop3084" />
      <stop
         offset="0.6194"
         style="stop-color:#0F9508"
         id="stop3086" />
      <stop
         offset="0.7574"
         style="stop-color:#008C00"
         id="stop3088" />
      <stop
         offset="1"
         style="stop-color:#007A00"
         id="stop3090" />
    </radialGradient>
    <radialGradient
       inkscape:collect="always"
       xlink:href="#XMLID_4_"
       id="radialGradient3629"
       gradientUnits="userSpaceOnUse"
       gradientTransform="matrix(1,0,0,1.1383929,0,-10.517857)"
       cx="172"
       cy="76"
       fx="172"
       fy="76"
       r="56" />
    <radialGradient
       inkscape:collect="always"
       xlink:href="#linearGradient6666"
       id="radialGradient3213"
       gradientUnits="userSpaceOnUse"
       gradientTransform="matrix(1,0,0,1.1383929,0,-10.517857)"
       cx="172"
       cy="76"
       fx="188.88173"
       fy="121.44213"
       r="56" />
    <linearGradient
       inkscape:collect="always"
       xlink:href="#linearGradient3260"
       id="linearGradient3301"
       x1="73.742638"
       y1="15.336544"
       x2="78.939339"
       y2="16.750759"
       gradientUnits="userSpaceOnUse"
       spreadMethod="reflect" />
    <filter
       inkscape:collect="always"
       x="-0.10207015"
       width="1.2041403"
       y="-0.12495601"
       height="1.249912"
       id="filter3387">
      <feGaussianBlur
         inkscape:collect="always"
         stdDeviation="0.44655691"
         id="feGaussianBlur3389" />
    </filter>
    <linearGradient
       inkscape:collect="always"
       xlink:href="#linearGradient3295"
       id="linearGradient3393"
       gradientUnits="userSpaceOnUse"
       spreadMethod="reflect"
       x1="74.75"
       y1="14.275884"
       x2="78.939339"
       y2="16.750759" />
    <linearGradient
       inkscape:collect="always"
       xlink:href="#linearGradient6404"
       id="linearGradient3409"
       gradientUnits="userSpaceOnUse"
       x1="194.5"
       y1="123.90683"
       x2="104.25"
       y2="5.1559582"
       gradientTransform="matrix(-1,0,0,0.8610463,236,-1.4361867)" />
    <filter
       inkscape:collect="always"
       x="-0.11573034"
       width="1.2314607"
       y="-0.12753956"
       height="1.2550791"
       id="filter3443">
      <feGaussianBlur
         inkscape:collect="always"
         stdDeviation="0.32549158"
         id="feGaussianBlur3445" />
    </filter>
    <radialGradient
       inkscape:collect="always"
       xlink:href="#linearGradient3449"
       id="radialGradient3455"
       cx="72.020813"
       cy="66.344505"
       fx="72.020813"
       fy="66.344505"
       r="60"
       gradientTransform="matrix(-0.5816285,1.767767e-2,2.6986249e-2,0.8878982,96.078154,5.9419094)"
       gradientUnits="userSpaceOnUse" />
    <linearGradient
       inkscape:collect="always"
       xlink:href="#linearGradient3202"
       id="linearGradient3521"
       gradientUnits="userSpaceOnUse"
       gradientTransform="matrix(1,0,0,0.8610463,-108.16138,-1.4361867)"
       spreadMethod="reflect"
       x1="223.32712"
       y1="53.784153"
       x2="226.659"
       y2="57.279232" />
    <linearGradient
       inkscape:collect="always"
       xlink:href="#linearGradient3295"
       id="linearGradient2226"
       gradientUnits="userSpaceOnUse"
       x1="179.17224"
       y1="123.75864"
       x2="173.98071"
       y2="65.448112" />
    <linearGradient
       inkscape:collect="always"
       xlink:href="#linearGradient3295"
       id="linearGradient2228"
       gradientUnits="userSpaceOnUse"
       x1="179.17224"
       y1="123.75864"
       x2="173.98071"
       y2="65.448112"
       gradientTransform="translate(97,0)" />
    <linearGradient
       inkscape:collect="always"
       xlink:href="#linearGradient3202"
       id="linearGradient3253"
       x1="47.968472"
       y1="16.138517"
       x2="49.218472"
       y2="85.427559"
       gradientUnits="userSpaceOnUse"
       gradientTransform="translate(-0.5,0)" />
    <linearGradient
       inkscape:collect="always"
       xlink:href="#linearGradient3260"
       id="linearGradient3504"
       gradientUnits="userSpaceOnUse"
       gradientTransform="translate(-0.2125256,-0.1385179)"
       x1="87.468468"
       y1="-0.36148256"
       x2="116.71847"
       y2="106.42756" />
    <linearGradient
       inkscape:collect="always"
       xlink:href="#linearGradient3260"
       id="linearGradient3526"
       gradientUnits="userSpaceOnUse"
       gradientTransform="translate(-0.2125256,-0.1385179)"
       x1="196.46846"
       y1="63.138515"
       x2="52.218468"
       y2="66.224457" />
    <linearGradient
       inkscape:collect="always"
       xlink:href="#linearGradient3260"
       id="linearGradient3530"
       gradientUnits="userSpaceOnUse"
       gradientTransform="matrix(1,0,0,0.8610463,-108.16138,-1.4361867)"
       spreadMethod="reflect"
       x1="223.32712"
       y1="53.784153"
       x2="226.659"
       y2="57.279232" />
    <radialGradient
       inkscape:collect="always"
       xlink:href="#linearGradient3449"
       id="radialGradient3534"
       gradientUnits="userSpaceOnUse"
       gradientTransform="matrix(-0.2586607,-0.5212474,-0.8274344,0.4106011,163.53945,50.055595)"
       cx="-16.668488"
       cy="86.826965"
       fx="-16.668488"
       fy="86.826965"
       r="60" />
    <radialGradient
       r="43.474762"
       fy="51.592991"
       fx="88.042809"
       cy="74.979416"
       cx="77.533371"
       spreadMethod="reflect"
       gradientTransform="matrix(-0.4961056,0.4409829,-0.7360594,-0.8280666,-11.726835,87.897058)"
       gradientUnits="userSpaceOnUse"
       id="radialGradient3139"
       xlink:href="#linearGradient2990"
       inkscape:collect="always" />
    <clipPath
       id="clipPath3135"
       clipPathUnits="userSpaceOnUse">
      <path
         style="fill:url(#radialGradient3139);fill-opacity:1;stroke:none;stroke-width:16.49500084;stroke-linecap:round;stroke-linejoin:round;stroke-miterlimit:4;stroke-dasharray:none;stroke-dashoffset:4.15;stroke-opacity:1"
         d="M -97.32181,27.94375 C -107.56112,27.943751 -117.79103,31.818176 -125.55562,39.582762 C -133.56284,47.589993 -137.44486,58.222613 -137.19463,68.779409 L -137.19463,96.822041 C -137.19463,100.87378 -133.94013,104.12828 -129.88839,104.12828 L -64.755235,104.12828 C -60.703495,104.12828 -57.448995,100.87378 -57.448995,96.822041 L -57.448995,68.779409 C -57.198765,58.222612 -61.080775,47.589993 -69.088001,39.582762 C -76.852581,31.818171 -87.082497,27.943749 -97.32181,27.94375 z M -97.32181,43.481014 C -90.982458,43.481015 -84.633535,45.9179 -79.764176,50.787256 C -74.95275,55.59868 -72.515179,61.833382 -72.457934,68.090021 L -122.15737,68.090021 C -122.10012,61.833381 -119.69086,55.598679 -114.87944,50.787256 C -110.01008,45.917895 -103.66116,43.481013 -97.32181,43.481014 z"
         id="path3137"
         sodipodi:nodetypes="csccccccsccsccsc" />
    </clipPath>
    <radialGradient
       r="43.474762"
       fy="51.592991"
       fx="88.042809"
       cy="74.979416"
       cx="77.533371"
       spreadMethod="reflect"
       gradientTransform="matrix(-0.4961056,0.4409829,-0.7360594,-0.8280666,-99.14147,87.897058)"
       gradientUnits="userSpaceOnUse"
       id="radialGradient3133"
       xlink:href="#linearGradient2990"
       inkscape:collect="always" />
    <clipPath
       id="clipPath3129"
       clipPathUnits="userSpaceOnUse">
      <path
         sodipodi:nodetypes="csccccccsccsccsc"
         id="path3131"
         d="M -184.73645,27.94375 C -194.97576,27.943751 -205.20567,31.818176 -212.97026,39.582762 C -220.97748,47.589993 -224.8595,58.222613 -224.60927,68.779409 L -224.60927,96.822041 C -224.60927,100.87378 -221.35477,104.12828 -217.30303,104.12828 L -152.16987,104.12828 C -148.11813,104.12828 -144.86363,100.87378 -144.86363,96.822041 L -144.86363,68.779409 C -144.6134,58.222612 -148.49541,47.589993 -156.50264,39.582762 C -164.26722,31.818171 -174.49713,27.943749 -184.73645,27.94375 z M -184.73645,43.481014 C -178.39709,43.481015 -172.04817,45.9179 -167.17881,50.787256 C -162.36739,55.59868 -159.92981,61.833382 -159.87257,68.090021 L -209.57201,68.090021 C -209.51476,61.833381 -207.1055,55.598679 -202.29408,50.787256 C -197.42472,45.917895 -191.0758,43.481013 -184.73645,43.481014 z"
         style="fill:url(#radialGradient3133);fill-opacity:1;stroke:none;stroke-width:16.49500084;stroke-linecap:round;stroke-linejoin:round;stroke-miterlimit:4;stroke-dasharray:none;stroke-dashoffset:4.15;stroke-opacity:1" />
    </clipPath>
    <radialGradient
       r="43.474762"
       fy="51.592991"
       fx="73.551216"
       cy="74.979408"
       cx="63.041775"
       spreadMethod="reflect"
       gradientTransform="matrix(-1.1040885,0.8280667,-0.6647496,-0.8863327,191.44623,62.253906)"
       gradientUnits="userSpaceOnUse"
       id="radialGradient2409"
       xlink:href="#linearGradient2990"
       inkscape:collect="always" />
    <linearGradient
       y2="-20.962214"
       x2="60.402065"
       y1="64.076149"
       x1="60.402065"
       gradientUnits="userSpaceOnUse"
       id="linearGradient3289"
       xlink:href="#linearGradient6674"
       inkscape:collect="always" />
    <linearGradient
       gradientUnits="userSpaceOnUse"
       y2="8"
       x2="-60"
       y1="105.83054"
       x1="-60.945251"
       id="linearGradient3243"
       xlink:href="#linearGradient3237"
       inkscape:collect="always" />
    <linearGradient
       y2="21.03125"
       x2="31.376678"
       y1="71.084908"
       x1="115.76678"
       gradientTransform="translate(0.2332229,1.9150941)"
       gradientUnits="userSpaceOnUse"
       id="linearGradient3233"
       xlink:href="#linearGradient6446"
       inkscape:collect="always" />
    <linearGradient
       y2="46.228859"
       x2="59.225807"
       y1="7.8973217"
       x1="59.225807"
       gradientTransform="translate(0.2623629,1)"
       gradientUnits="userSpaceOnUse"
       id="linearGradient3231"
       xlink:href="#linearGradient6446"
       inkscape:collect="always" />
    <linearGradient
       y2="82.029854"
       x2="74.447762"
       y1="-26.936626"
       x1="64"
       gradientUnits="userSpaceOnUse"
       id="linearGradient2816"
       xlink:href="#linearGradient6446"
       inkscape:collect="always" />
    <linearGradient
       gradientUnits="userSpaceOnUse"
       y2="88.633484"
       x2="19.934336"
       y1="50.580647"
       x1="19.096775"
       id="linearGradient6680"
       xlink:href="#linearGradient6674"
       inkscape:collect="always" />
    <linearGradient
       gradientTransform="translate(0,3)"
       gradientUnits="userSpaceOnUse"
       y2="50.728985"
       x2="62.038712"
       y1="15.91371"
       x1="62.038712"
       id="linearGradient6649"
       xlink:href="#linearGradient6643"
       inkscape:collect="always" />
    <linearGradient
       gradientUnits="userSpaceOnUse"
       y2="74.913147"
       x2="55.329033"
       y1="112"
       x1="55.329033"
       id="linearGradient6637"
       xlink:href="#linearGradient6631"
       inkscape:collect="always" />
    <linearGradient
       y2="28.235947"
       x2="13.96104"
       y1="21.101994"
       x1="21.094994"
       spreadMethod="reflect"
       gradientTransform="translate(0.4129032,0.6193548)"
       gradientUnits="userSpaceOnUse"
       id="linearGradient6472"
       xlink:href="#linearGradient6446"
       inkscape:collect="always" />
    <linearGradient
       y2="28.235947"
       x2="13.96104"
       y1="21.101994"
       x1="21.094994"
       spreadMethod="reflect"
       gradientTransform="translate(0.4129032,0.6193548)"
       gradientUnits="userSpaceOnUse"
       id="linearGradient6470"
       xlink:href="#linearGradient6446"
       inkscape:collect="always" />
    <linearGradient
       y2="27.070099"
       x2="15.126888"
       y1="21.101994"
       x1="21.094994"
       spreadMethod="reflect"
       gradientTransform="translate(0.4129032,0.6193548)"
       gradientUnits="userSpaceOnUse"
       id="linearGradient6464"
       xlink:href="#linearGradient6446"
       inkscape:collect="always" />
    <linearGradient
       gradientTransform="translate(-7.5870968,-7.3806452)"
       spreadMethod="reflect"
       gradientUnits="userSpaceOnUse"
       y2="27.007854"
       x2="15.189133"
       y1="21.101994"
       x1="21.094994"
       id="linearGradient6452"
       xlink:href="#linearGradient6446"
       inkscape:collect="always" />
    <linearGradient
       gradientUnits="userSpaceOnUse"
       y2="-24"
       x2="24"
       y1="88"
       x1="32"
       id="linearGradient6410"
       xlink:href="#linearGradient6404"
       inkscape:collect="always" />
    <radialGradient
       r="42.559486"
       fy="103.5803"
       fx="42.700352"
       cy="103.5803"
       cx="42.700352"
       spreadMethod="pad"
       gradientTransform="matrix(1.3965253,6.9831451e-3,-7.781496e-3,1.5561835,-122.82611,-69.698616)"
       gradientUnits="userSpaceOnUse"
       id="radialGradient9692"
       xlink:href="#linearGradient6666"
       inkscape:collect="always" />
    <linearGradient
       id="linearGradient6404">
      <stop
         id="stop6406"
         offset="0"
         style="stop-color:#081e3e;stop-opacity:1;" />
      <stop
         id="stop6408"
         offset="1"
         style="stop-color:#387de4;stop-opacity:1;" />
    </linearGradient>
    <linearGradient
       id="linearGradient6446">
      <stop
         id="stop6448"
         offset="0"
         style="stop-color:#ffffff;stop-opacity:1;" />
      <stop
         id="stop6450"
         offset="1"
         style="stop-color:#ffffff;stop-opacity:0;" />
    </linearGradient>
    <linearGradient
       id="linearGradient6631">
      <stop
         id="stop6633"
         offset="0"
         style="stop-color:#703700;stop-opacity:1;" />
      <stop
         id="stop6635"
         offset="1"
         style="stop-color:#bf5e00;stop-opacity:0;" />
    </linearGradient>
    <linearGradient
       id="linearGradient6643">
      <stop
         id="stop6645"
         offset="0"
         style="stop-color:#fffddc;stop-opacity:1;" />
      <stop
         id="stop6647"
         offset="1"
         style="stop-color:#ffdfbf;stop-opacity:0;" />
    </linearGradient>
    <linearGradient
       id="linearGradient6666">
      <stop
         style="stop-color:#9fc1f2;stop-opacity:1;"
         offset="0"
         id="stop6668" />
      <stop
         id="stop3183"
         offset="0.5"
         style="stop-color:#587eb5;stop-opacity:1;" />
      <stop
         style="stop-color:#0c2a58;stop-opacity:1;"
         offset="1"
         id="stop6670" />
    </linearGradient>
    <linearGradient
       id="linearGradient6674">
      <stop
         id="stop6676"
         offset="0"
         style="stop-color:#001648;stop-opacity:1;" />
      <stop
         id="stop6678"
         offset="1"
         style="stop-color:#11a9ff;stop-opacity:0;" />
    </linearGradient>
    <linearGradient
       id="linearGradient3237">
      <stop
         id="stop3239"
         offset="0"
         style="stop-color:#d5e6ff;stop-opacity:1;" />
      <stop
         id="stop3241"
         offset="1"
         style="stop-color:#ffffff;stop-opacity:0;" />
    </linearGradient>
    <linearGradient
       id="linearGradient2990">
      <stop
         id="stop2992"
         offset="0"
         style="stop-color:#d7d7d7;stop-opacity:1;" />
      <stop
         id="stop2994"
         offset="1"
         style="stop-color:#ffffff;stop-opacity:1;" />
    </linearGradient>
    <filter
       inkscape:collect="always"
       id="filter3187">
      <feGaussianBlur
         inkscape:collect="always"
         stdDeviation="0.56525828"
         id="feGaussianBlur3189" />
    </filter>
    <linearGradient
       inkscape:collect="always"
       xlink:href="#linearGradient6404"
       id="linearGradient3219"
       gradientUnits="userSpaceOnUse"
       gradientTransform="matrix(-1,0,0,0.8610463,375,-1.4361867)"
       x1="194.5"
       y1="123.90683"
       x2="104.25"
       y2="5.1559582" />
    <radialGradient
       inkscape:collect="always"
       xlink:href="#linearGradient3449"
       id="radialGradient3221"
       gradientUnits="userSpaceOnUse"
       gradientTransform="matrix(-0.2586607,-0.5212474,-0.8274344,0.4106011,302.53945,50.055595)"
       cx="-16.668488"
       cy="86.826965"
       fx="-16.668488"
       fy="86.826965"
       r="60" />
    <linearGradient
       inkscape:collect="always"
       xlink:href="#linearGradient3260"
       id="linearGradient3223"
       gradientUnits="userSpaceOnUse"
       spreadMethod="reflect"
       x1="73.742638"
       y1="15.336544"
       x2="78.939339"
       y2="16.750759" />
    <linearGradient
       inkscape:collect="always"
       xlink:href="#linearGradient3202"
       id="linearGradient3225"
       gradientUnits="userSpaceOnUse"
       gradientTransform="matrix(1,0,0,0.8610463,-108.16138,-1.4361867)"
       spreadMethod="reflect"
       x1="223.32712"
       y1="53.784153"
       x2="226.659"
       y2="57.279232" />
    <radialGradient
       inkscape:collect="always"
       xlink:href="#linearGradient3449"
       id="radialGradient3227"
       gradientUnits="userSpaceOnUse"
       gradientTransform="matrix(-0.5816285,1.767767e-2,2.6986249e-2,0.8878982,235.07816,5.9419094)"
       cx="72.020813"
       cy="66.344505"
       fx="72.020813"
       fy="66.344505"
       r="60" />
    <linearGradient
       inkscape:collect="always"
       xlink:href="#linearGradient3295"
       id="linearGradient3229"
       gradientUnits="userSpaceOnUse"
       spreadMethod="reflect"
       x1="74.75"
       y1="14.275884"
       x2="78.939339"
       y2="16.750759" />
    <linearGradient
       inkscape:collect="always"
       xlink:href="#linearGradient3260"
       id="linearGradient3232"
       gradientUnits="userSpaceOnUse"
       gradientTransform="matrix(1,0,0,0.8610463,-108.16138,-1.4361867)"
       spreadMethod="reflect"
       x1="223.32712"
       y1="53.784153"
       x2="226.659"
       y2="57.279232" />
    <radialGradient
       inkscape:collect="always"
       xlink:href="#linearGradient6666"
       id="radialGradient3234"
       gradientUnits="userSpaceOnUse"
       gradientTransform="matrix(1,0,0,1.1383929,0,-10.517857)"
       cx="172"
       cy="76"
       fx="188.88173"
       fy="121.44213"
       r="56" />
    <radialGradient
       inkscape:collect="always"
       xlink:href="#XMLID_4_"
       id="radialGradient3236"
       gradientUnits="userSpaceOnUse"
       gradientTransform="matrix(1,0,0,1.1383929,0,-10.517857)"
       cx="172"
       cy="76"
       fx="172"
       fy="76"
       r="56" />
    <linearGradient
       inkscape:collect="always"
       xlink:href="#linearGradient3295"
       id="linearGradient3238"
       gradientUnits="userSpaceOnUse"
       gradientTransform="translate(97,0)"
       x1="179.17224"
       y1="123.75864"
       x2="173.98071"
       y2="65.448112" />
    <linearGradient
       inkscape:collect="always"
       xlink:href="#linearGradient3295"
       id="linearGradient3240"
       gradientUnits="userSpaceOnUse"
       x1="179.17224"
       y1="123.75864"
       x2="173.98071"
       y2="65.448112" />
    <linearGradient
       inkscape:collect="always"
       xlink:href="#linearGradient3202"
       id="linearGradient3242"
       gradientUnits="userSpaceOnUse"
       gradientTransform="translate(138.5,0)"
       x1="47.968472"
       y1="16.138517"
       x2="49.218472"
       y2="85.427559" />
    <linearGradient
       inkscape:collect="always"
       xlink:href="#linearGradient3260"
       id="linearGradient3244"
       gradientUnits="userSpaceOnUse"
       gradientTransform="translate(138.78748,-0.1385179)"
       x1="87.468468"
       y1="-0.36148256"
       x2="116.71847"
       y2="106.42756" />
    <linearGradient
       inkscape:collect="always"
       xlink:href="#linearGradient3260"
       id="linearGradient3246"
       gradientUnits="userSpaceOnUse"
       gradientTransform="translate(138.78748,-0.1385179)"
       x1="196.46846"
       y1="63.138515"
       x2="52.218468"
       y2="66.224457" />
  </defs>
  <sodipodi:namedview
     id="base"
     pagecolor="#ffffff"
     bordercolor="#666666"
     borderopacity="1.0"
     inkscape:pageopacity="0.0"
     inkscape:pageshadow="2"
     inkscape:zoom="0.99999999"
     inkscape:cx="346.93235"
     inkscape:cy="4.4643894"
     inkscape:document-units="px"
     inkscape:current-layer="layer1"
     width="128px"
     height="128px"
     gridspacingx="4px"
     gridspacingy="4px"
     gridempspacing="2"
     showgrid="false"
     inkscape:grid-points="true"
     showguides="true"
     inkscape:guide-bbox="true"
     inkscape:window-width="1016"
     inkscape:window-height="692"
     inkscape:window-x="360"
     inkscape:window-y="67">
    <inkscape:grid
       type="xygrid"
       id="grid2576"
       spacingx="4px"
       spacingy="4px"
       empspacing="2" />
  </sodipodi:namedview>
  <metadata
     id="metadata2611">
    <rdf:RDF>
      <cc:Work
         rdf:about="">
        <dc:format>image/svg+xml</dc:format>
        <dc:type
           rdf:resource="http://purl.org/dc/dcmitype/StillImage" />
      </cc:Work>
    </rdf:RDF>
  </metadata>
  <g
     inkscape:label="Livello 1"
     inkscape:groupmode="layer"
     id="layer1">
    <path
       sodipodi:nodetypes="ccsccccccccccc"
       id="path2488"
       d="M 54.78125,12.165446 L 122.44806,61.147784 C 123.4314,61.853052 124,62.898046 124,64 C 124,65.101954 123.4314,66.146948 122.44806,66.852216 L 54.09375,115.82531 C 49.95063,118.4557 44,118.82842 44,113 L 44,88.000004 L 12,88.000004 C 9.61796,88.000658 7.9992403,86.051051 8.0000003,84 L 8.0000003,44 C 7.9992403,41.94895 9.61796,39.999344 12,40 L 44,40 L 44,15.999999 C 44,12.108863 51.02052,9.4467058 54.78125,12.165446 z"
       style="fill:url(#linearGradient3409);fill-opacity:1;fill-rule:evenodd;stroke:none;stroke-width:8.62137889999999985;stroke-linecap:round;stroke-linejoin:round;stroke-miterlimit:4;stroke-dasharray:none;stroke-opacity:1" />
    <path
       sodipodi:nodetypes="ccsccccccccccc"
       id="path3532"
       d="M 54.78125,12.165446 L 122.44806,61.147784 C 123.4314,61.853052 124,62.898046 124,64 C 124,65.101954 123.4314,66.146948 122.44806,66.852216 L 54.09375,115.82531 C 49.95063,118.4557 44,118.82842 44,113 L 44,88.000004 L 12,88.000004 C 9.61796,88.000658 7.9992403,86.051051 8.0000003,84 L 8.0000003,44 C 7.9992403,41.94895 9.61796,39.999344 12,40 L 44,40 L 44,15.999999 C 44,12.108863 51.02052,9.4467058 54.78125,12.165446 z"
       style="opacity:0.25468164;fill:url(#radialGradient3534);fill-opacity:1;fill-rule:evenodd;stroke:none;stroke-width:8.6213789;stroke-linecap:round;stroke-linejoin:round;stroke-miterlimit:4;stroke-dasharray:none;stroke-opacity:1" />
    <path
       style="fill:url(#linearGradient3301);fill-opacity:1;fill-rule:evenodd;stroke:none;stroke-width:1px;stroke-linecap:butt;stroke-linejoin:miter;stroke-opacity:1;filter:url(#filter3387)"
       d="M 72.5,11.0625 C 71.422912,11.127783 70.386099,11.439286 69.5,12 L 71.875,19.625 L 80,16.46875 L 80,16 C 80,13.081648 76.061079,10.84666 72.5,11.0625 z"
       id="path3272"
       transform="matrix(-1,0,0,1,124,0)" />
    <path
       id="path3519"
       d="M 115.65112,40 C 115.31168,41.154561 113.08862,46.125 113.08862,46.125 L 119.83862,46.09375 L 119.83862,44 C 119.83938,41.94895 118.22066,39.999344 115.83862,40 L 115.65112,40 z "
       style="opacity:0.6142322;fill:url(#linearGradient3521);fill-opacity:1;fill-rule:evenodd;stroke:none;stroke-width:8.6213789;stroke-linecap:round;stroke-linejoin:round;stroke-miterlimit:4;stroke-dasharray:none;stroke-opacity:1;filter:url(#filter3443)"
       transform="matrix(-1,0,0,-1,128,128.125)" />
    <path
       style="fill:url(#radialGradient3455);fill-opacity:1;fill-rule:evenodd;stroke:none;stroke-width:8.6213789;stroke-linecap:round;stroke-linejoin:round;stroke-miterlimit:4;stroke-dasharray:none;stroke-opacity:1"
       d="M 54.78125,12.165446 L 122.44806,61.147784 C 123.4314,61.853052 124,62.898046 124,64 C 124,65.101954 123.4314,66.146948 122.44806,66.852216 L 54.09375,115.82531 C 49.95063,118.4557 44,118.82842 44,113 L 44,88.000004 L 12,88.000004 C 9.61796,88.000658 7.9992403,86.051051 8.0000003,84 L 8.0000003,44 C 7.9992403,41.94895 9.61796,39.999344 12,40 L 44,40 L 44,15.999999 C 44,12.108863 51.02052,9.4467058 54.78125,12.165446 z"
       id="path3447"
       sodipodi:nodetypes="ccsccccccccccc" />
    <path
       id="path3391"
       d="M 72.5,11.0625 C 71.422912,11.127783 70.386099,11.439286 69.5,12 L 71.875,19.625 L 80,16.46875 L 80,16 C 80,13.081648 76.061079,10.84666 72.5,11.0625 z"
       style="opacity:0.70411987;fill:url(#linearGradient3393);fill-opacity:1;fill-rule:evenodd;stroke:none;stroke-width:1px;stroke-linecap:butt;stroke-linejoin:miter;stroke-opacity:1;filter:url(#filter3387)"
       transform="matrix(-0.8316412,0,0,-1,110.5313,128.78415)"
       sodipodi:nodetypes="cccccc" />
    <path
       transform="matrix(2.8382138e-2,-0.9995972,0.9995972,2.8382138e-2,-35.118048,158.48653)"
       style="opacity:0.74906365;fill:url(#linearGradient3530);fill-opacity:1;fill-rule:evenodd;stroke:none;stroke-width:8.6213789;stroke-linecap:round;stroke-linejoin:round;stroke-miterlimit:4;stroke-dasharray:none;stroke-opacity:1;filter:url(#filter3443)"
       d="M 115.65112,40 C 115.31168,41.154561 113.08862,46.125 113.08862,46.125 L 119.83862,46.09375 L 119.83862,44 C 119.83938,41.94895 118.22066,39.999344 115.83862,40 L 115.65112,40 z "
       id="path3528"
       inkscape:export-xdpi="90"
       inkscape:export-ydpi="90" />
    <g
       style="fill:url(#radialGradient3629);fill-opacity:1;stroke:none;stroke-width:16;stroke-linecap:round;stroke-linejoin:round;stroke-miterlimit:4;stroke-dasharray:none"
       transform="matrix(-1,0,0,0.8609865,236,-1.4349776)"
       id="g3472">
      <path
         sodipodi:nodetypes="ccccccccccc"
         id="path3474"
         d="M 181.55044,21.46494 L 117.50547,73.806959 C 116.11967,75.416501 116.3415,76.828137 117.40303,78.061061 L 180,129.07866 C 184,132.6608 188,132.85189 188,129.07866 L 188,99.229172 L 224,99.229172 L 224,52.770836 L 188,52.770836 L 188,23.929232 C 188,20.738359 184.84713,19.254283 181.55044,21.46494 z"
         style="fill:url(#radialGradient3213);fill-opacity:1.0;fill-rule:evenodd;stroke:none;stroke-width:16;stroke-linecap:round;stroke-linejoin:round;stroke-miterlimit:4;stroke-dasharray:none;stroke-opacity:1" />
    </g>
    <g
       style="fill:none;fill-opacity:1;stroke:url(#linearGradient2226);stroke-width:1.07770978999999989;stroke-linecap:round;stroke-linejoin:round;stroke-miterlimit:4;stroke-dasharray:none;stroke-opacity:1;filter:url(#filter3187)"
       transform="matrix(-1,0,0,0.8609865,333.40303,-1.4349776)"
       id="g3469">
      <path
         sodipodi:nodetypes="ccccccccccc"
         id="path3471"
         d="M 278.55044,21.46494 L 214.10547,73.806959 C 212.71967,75.416501 212.9415,76.828137 214.00303,78.061061 L 277,129.07866 C 281,132.6608 285,132.85189 285,129.07866 L 285,99.229172 L 321,99.229172 L 321,52.770836 L 285,52.770836 L 285,23.929232 C 285,20.738359 281.84713,19.254283 278.55044,21.46494 z"
         style="fill:none;fill-opacity:1;fill-rule:evenodd;stroke:url(#linearGradient2228);stroke-width:1.07770979;stroke-linecap:round;stroke-linejoin:round;stroke-miterlimit:4;stroke-dasharray:none;stroke-opacity:1" />
    </g>
    <path
       style="fill:url(#linearGradient3253);fill-opacity:1;fill-rule:evenodd;stroke:none;stroke-width:16;stroke-linecap:round;stroke-linejoin:round;stroke-miterlimit:4;stroke-dasharray:none;stroke-opacity:1"
       d="M 50.96875,16.15625 C 49.240202,16.307374 48,17.439188 48,19.15625 L 48,44 L 12,44 L 12,65.15625 C 21.939409,66.360551 28.451562,67.000001 39.3125,67 C 66.254354,67 90.98579,63.028043 110.375,56.40625 L 54.4375,17.03125 C 53.201241,16.317495 52.005879,16.065575 50.96875,16.15625 z"
       id="path2232"
       sodipodi:nodetypes="cccccsccc" />
    <path
       style="fill:url(#linearGradient3504);fill-opacity:1.0;fill-rule:evenodd;stroke:none;stroke-width:16;stroke-linecap:round;stroke-linejoin:round;stroke-miterlimit:4;stroke-dasharray:none;stroke-opacity:1"
       d="M 50.96875,16.117187 C 50.09558,16.193525 49.37078,16.528828 48.84375,17.054687 C 48.58829,17.309579 48.35908,17.58696 48.21875,17.929687 C 48.21509,17.938382 48.22233,17.952189 48.21875,17.960937 C 48.15242,18.127922 48.09786,18.306702 48.0625,18.492187 C 48.06048,18.502221 48.06442,18.51335 48.0625,18.523437 C 48.02875,18.710259 48,18.913179 48,19.117187 C 47.99991,19.127767 48,19.137812 48,19.148437 L 48,20.148437 L 48,43.742187 L 48.03125,43.742187 L 49.13125,18.998437 C 49.502929,16.724737 52.430578,16.81446 54.4375,18.023437 L 109.2875,56.042187 C 95.76171,60.964822 78.06048,64.465479 60.3125,66.085937 C 78.61652,64.639265 95.35134,61.359487 109.375,56.679687 L 109.40625,56.710937 C 109.72671,56.603896 110.05739,56.506907 110.375,56.398437 L 110.34375,56.367187 L 79.90625,34.929687 L 54.4375,17.023437 C 53.37955,16.412627 52.36202,16.157535 51.4375,16.148437 C 51.45997,16.140063 51.47725,16.12513 51.5,16.117187 C 51.32253,16.113177 51.13828,16.102367 50.96875,16.117187 z M 12,43.960937 L 12,43.992187 L 12,44.992187 L 12,65.117187 L 12.9375,44.992187 L 48,43.992187 L 48,43.992187 L 13,43.992187 L 13,43.960937 L 12,43.960937 z"
       id="path3462"
       sodipodi:nodetypes="cssssssccccccccccccccssccccccccccc" />
    <path
       sodipodi:nodetypes="cssssssccccccccccccccssccccccccccc"
       id="path3524"
       d="M 50.96875,16.117187 C 50.09558,16.193525 49.37078,16.528828 48.84375,17.054687 C 48.58829,17.309579 48.35908,17.58696 48.21875,17.929687 C 48.21509,17.938382 48.22233,17.952189 48.21875,17.960937 C 48.15242,18.127922 48.09786,18.306702 48.0625,18.492187 C 48.06048,18.502221 48.06442,18.51335 48.0625,18.523437 C 48.02875,18.710259 48,18.913179 48,19.117187 C 47.99991,19.127767 48,19.137812 48,19.148437 L 48,20.148437 L 48,43.742187 L 48.03125,43.742187 L 49.13125,18.998437 C 49.502929,16.724737 52.430578,16.81446 54.4375,18.023437 L 109.2875,56.042187 C 95.76171,60.964822 78.06048,64.465479 60.3125,66.085937 C 78.61652,64.639265 95.35134,61.359487 109.375,56.679687 L 109.40625,56.710937 C 109.72671,56.603896 110.05739,56.506907 110.375,56.398437 L 110.34375,56.367187 L 79.90625,34.929687 L 54.4375,17.023437 C 53.37955,16.412627 52.36202,16.157535 51.4375,16.148437 C 51.45997,16.140063 51.47725,16.12513 51.5,16.117187 C 51.32253,16.113177 51.13828,16.102367 50.96875,16.117187 z M 12,43.960937 L 12,43.992187 L 12,44.992187 L 12,65.117187 L 12.9375,44.992187 L 48,43.992187 L 48,43.992187 L 13,43.992187 L 13,43.960937 L 12,43.960937 z"
       style="fill:url(#linearGradient3526);fill-opacity:1.0;fill-rule:evenodd;stroke:none;stroke-width:16;stroke-linecap:round;stroke-linejoin:round;stroke-miterlimit:4;stroke-dasharray:none;stroke-opacity:1" />
  </g>
</svg>
