<svg xmlns="http://www.w3.org/2000/svg" viewBox="0 0 128 128">
<defs>
<linearGradient id="linearGradient8229" gradientUnits="userSpaceOnUse" x2="0" y2="127.48" y1="9.107">
<stop stop-color="#600" offset="0"/>
<stop stop-color="#c00" offset="1"/>
</linearGradient>
<linearGradient id="linearGradient8231" gradientUnits="userSpaceOnUse" x2="0" y2="124.9" y1="11.672">
<stop stop-color="#f76701" offset="0"/>
<stop stop-color="#ff3" offset=".5"/>
<stop stop-color="#ff9600" offset="1"/>
</linearGradient>
<linearGradient id="linearGradient8233" gradientUnits="userSpaceOnUse" x2="0" y2="10.765" y1="123.15">
<stop stop-color="#ff9600" offset="0"/>
<stop stop-color="#ff3" offset=".5"/>
<stop stop-color="#fff" offset="1"/>
</linearGradient>
</defs>
<g transform="matrix(1.3285 0 0 1.0758 -166.13 -10.014)">
<path stroke-linejoin="round" d="m163.55 14.755h33.469l-18.971 31.029h19.319l-17.083 25.761 14.604 0.1233-38.66 52.21 14.009-45.323h-12.921l14.805-27.07-19.031-0.1233 10.459-36.607z" stroke-opacity=".502" stroke="#000" stroke-linecap="round" stroke-width="9.2416" fill="none"/>
<path stroke-linejoin="round" d="m162.52 13.728h33.469l-18.971 31.029h19.319l-17.083 25.761 14.604 0.1233-38.66 52.21 14.009-45.323h-12.921l14.805-27.07-19.031-0.1233 10.459-36.607z" stroke="url(#linearGradient8229)" stroke-linecap="round" stroke-width="9.2416" fill="none"/>
<path stroke-linejoin="round" d="m162.52 13.728h33.469l-18.971 31.029h19.319l-17.083 25.761 14.604 0.1233-38.66 52.21 14.009-45.323h-12.921l14.805-27.07-19.031-0.1233 10.459-36.607z" stroke="url(#linearGradient8231)" stroke-linecap="round" stroke-width="4.1074" fill="none"/>
<path fill-rule="evenodd" d="m162.6 14.013h33.469l-18.971 31.029h19.319l-17.083 25.761 14.604 0.1233-38.66 52.21 14.009-45.323h-12.921l14.805-27.07-19.031-0.1233 10.459-36.607z" fill="url(#linearGradient8233)"/>
</g>
</svg>
