<svg xmlns:rdf="http://www.w3.org/1999/02/22-rdf-syntax-ns#" xmlns="http://www.w3.org/2000/svg" version="1.1" xml:space="preserve" height="100%" width="100%" enable-background="new 0 0 256 256" xmlns:cc="http://creativecommons.org/ns#" xmlns:dc="http://purl.org/dc/elements/1.1/" viewBox="0 0 256 256"><metadata><rdf:RDF><cc:Work rdf:about=""><dc:format>image/svg+xml</dc:format><dc:type rdf:resource="http://purl.org/dc/dcmitype/StillImage"/><dc:title/></cc:Work></rdf:RDF></metadata><defs><linearGradient id="SVGID_1_" gradientUnits="userSpaceOnUse" x2="0" y2="138.8" y1="11.167"><stop stop-color="#fff" stop-opacity=".85" offset="0"/><stop stop-color="#fff" stop-opacity="0" offset="0.66"/></linearGradient><linearGradient id="SVGID_2_" gradientUnits="userSpaceOnUse" x2="0" y2="245.51" y1="138"><stop stop-opacity=".15" offset="0"/><stop stop-opacity="0" offset="0.663"/></linearGradient></defs><path d="m209.02,10.505h-164.04c-19.599,0-35.487,15.888-35.487,35.487v164.02c0,19.599,15.888,35.486,35.487,35.486h164.03c19.604,0,35.487-15.888,37.487-34.819v-164.01c-1.999-20.266-17.888-36.155-37.485-36.155z" fill="#fc5427"/><path d="m209.02,10.505h-164.04c-19.599,0-35.487,15.889-35.487,35.487v69.409c36.33,14.751,76.046,22.896,117.67,22.896,42.263,0,82.558-8.395,119.34-23.576v-68.061c-1.999-20.266-17.888-36.155-37.485-36.155z" fill="url(#SVGID_1_)"/><path d="m246.5,114.72v-68.061c-1.999-20.266-17.888-36.155-37.485-36.155h-164.04c-19.599,0-35.486,15.889-35.486,35.487v69.409" stroke="#fc5427" stroke-miterlimit="10" stroke-width="2" fill="none"/><path d="m26.791,154.72c-0.067,0.478-0.411,0.81-0.833,0.81-0.436,0-0.781-0.334-0.837-0.814l-1.527-11.399,1.527-11.598c0.056-0.482,0.401-0.817,0.837-0.817,0.42,0,0.768,0.335,0.833,0.814l1.811,11.601-1.811,11.403zm12.337,6.938c-0.071,0.496-0.429,0.843-0.866,0.843-0.445,0-0.812-0.355-0.869-0.848l-2.053-18.338,2.053-18.754c0.061-0.488,0.428-0.842,0.869-0.842s0.797,0.343,0.87,0.842l2.333,18.754-2.337,18.343zm12.25,3.782c-0.057,0.687-0.584,1.202-1.225,1.202-0.646,0-1.177-0.516-1.227-1.202l-1.841-22.117,1.841-22.859c0.052-0.69,0.579-1.207,1.227-1.207,0.64,0,1.168,0.517,1.225,1.201l2.093,22.865-2.093,22.117zm11.995,0.184c-0.054,0.785-0.657,1.379-1.4,1.379-0.754,0-1.354-0.594-1.404-1.383l-1.735-22.299,1.735-21.206c0.048-0.788,0.649-1.384,1.404-1.384s1.349,0.591,1.4,1.374l1.973,21.216-1.973,22.303zm12.001,0.007v-0.007c-0.05,0.872-0.743,1.562-1.582,1.562s-1.536-0.687-1.579-1.558l-1.636-22.298,1.636-34.501c0.041-0.876,0.736-1.566,1.579-1.566s1.532,0.69,1.582,1.566l1.848,34.501-1.848,22.301zm11.998-0.144c-0.044,0.977-0.819,1.743-1.758,1.743-0.947,0-1.719-0.767-1.757-1.734l-1.529-22.158s1.526-42.393,1.526-42.396c0.042-0.976,0.814-1.741,1.761-1.741,0.939,0,1.712,0.764,1.758,1.741l1.726,42.396-1.727,22.149zm12.245-0.359v0.003c-0.038,1.174-0.964,2.097-2.114,2.097s-2.08-0.923-2.112-2.091l-1.318-21.794,1.315-47.481c0.031-1.181,0.962-2.104,2.115-2.104s2.079,0.926,2.114,2.104l1.481,47.482-1.481,21.784zm12.252-0.324v-0.017c-0.032,1.384-1.114,2.462-2.471,2.462s-2.448-1.082-2.475-2.446l-1.104-21.45,1.104-44.58c0.027-1.383,1.116-2.463,2.475-2.463s2.438,1.081,2.471,2.459l1.239,44.585-1.239,21.45zm12.514-0.44v-0.025c-0.022,1.558-1.289,2.822-2.827,2.822s-2.809-1.265-2.829-2.799l-1.161-21,1.159-57.859c0.023-1.557,1.29-2.822,2.832-2.822s2.806,1.266,2.827,2.817l1.26,57.864-1.261,21.002zm82.34,2.985-71.194-0.044c-1.534-0.154-2.753-1.464-2.773-3.035v-81.518c0.019-1.498,0.535-2.271,2.474-3.021,4.986-1.928,10.635-3.069,16.43-3.069,23.678,0,43.09,18.16,45.133,41.306,3.057-1.282,6.415-1.994,9.936-1.994,14.183,0,25.681,11.502,25.681,25.688s-11.504,25.687-25.687,25.687z" fill="#fff"/><path d="m9.496,115.4v94.605c0,19.6,15.888,35.486,35.487,35.486h164.03c19.604,0,35.488-15.889,37.488-34.819v-95.952c-36.779,15.181-77.074,23.576-119.34,23.576-41.625,0.001-81.342-8.145-117.67-22.896z" fill="url(#SVGID_2_)"/><path d="m9.496,115.4v94.605c0,19.6,15.888,35.486,35.486,35.486h164.03c19.604,0,35.487-15.889,37.487-34.819v-95.952" stroke="#cc4420" stroke-miterlimit="10" stroke-width="2" fill="none"/></svg>
