<?xml version="1.0" encoding="UTF-8" standalone="no"?>
<!-- Created with Inkscape (http://www.inkscape.org/) -->

<svg
   xmlns:dc="http://purl.org/dc/elements/1.1/"
   xmlns:cc="http://creativecommons.org/ns#"
   xmlns:rdf="http://www.w3.org/1999/02/22-rdf-syntax-ns#"
   xmlns:svg="http://www.w3.org/2000/svg"
   xmlns="http://www.w3.org/2000/svg"
   xmlns:xlink="http://www.w3.org/1999/xlink"
   xmlns:sodipodi="http://sodipodi.sourceforge.net/DTD/sodipodi-0.dtd"
   xmlns:inkscape="http://www.inkscape.org/namespaces/inkscape"
   width="327.05698"
   height="323.64401"
   id="svg2"
   sodipodi:version="0.32"
   inkscape:version="0.48.3.1 r9886"
   sodipodi:docname="opticaldisc.svg"
   inkscape:output_extension="org.inkscape.output.svg.inkscape"
   version="1.0">
  <defs
     id="defs4">
    <linearGradient
       inkscape:collect="always"
       id="linearGradient2690">
      <stop
         style="stop-color:#008000;stop-opacity:1;"
         offset="0"
         id="stop2692" />
      <stop
         style="stop-color:#008000;stop-opacity:0;"
         offset="1"
         id="stop2694" />
    </linearGradient>
    <linearGradient
       inkscape:collect="always"
       id="linearGradient2618">
      <stop
         style="stop-color:#55ff99;stop-opacity:1;"
         offset="0"
         id="stop2620" />
      <stop
         style="stop-color:#55ff99;stop-opacity:0;"
         offset="1"
         id="stop2622" />
    </linearGradient>
    <linearGradient
       inkscape:collect="always"
       id="linearGradient2610">
      <stop
         style="stop-color:#55ff99;stop-opacity:1;"
         offset="0"
         id="stop2612" />
      <stop
         style="stop-color:#55ff99;stop-opacity:0;"
         offset="1"
         id="stop2614" />
    </linearGradient>
    <linearGradient
       inkscape:collect="always"
       id="linearGradient2602">
      <stop
         style="stop-color:#55ff99;stop-opacity:1;"
         offset="0"
         id="stop2604" />
      <stop
         style="stop-color:#55ff99;stop-opacity:0;"
         offset="1"
         id="stop2606" />
    </linearGradient>
    <linearGradient
       inkscape:collect="always"
       id="linearGradient2594">
      <stop
         style="stop-color:#55ff99;stop-opacity:1;"
         offset="0"
         id="stop2596" />
      <stop
         style="stop-color:#55ff99;stop-opacity:0;"
         offset="1"
         id="stop2598" />
    </linearGradient>
    <linearGradient
       inkscape:collect="always"
       id="linearGradient2586">
      <stop
         style="stop-color:#55ff99;stop-opacity:1;"
         offset="0"
         id="stop2588" />
      <stop
         style="stop-color:#55ff99;stop-opacity:0;"
         offset="1"
         id="stop2590" />
    </linearGradient>
    <linearGradient
       inkscape:collect="always"
       id="linearGradient2578">
      <stop
         style="stop-color:#55ff99;stop-opacity:1;"
         offset="0"
         id="stop2580" />
      <stop
         style="stop-color:#55ff99;stop-opacity:0;"
         offset="1"
         id="stop2582" />
    </linearGradient>
    <linearGradient
       inkscape:collect="always"
       id="linearGradient2570">
      <stop
         style="stop-color:#55ff99;stop-opacity:1;"
         offset="0"
         id="stop2572" />
      <stop
         style="stop-color:#55ff99;stop-opacity:0;"
         offset="1"
         id="stop2574" />
    </linearGradient>
    <linearGradient
       inkscape:collect="always"
       id="linearGradient2562">
      <stop
         style="stop-color:#55ff99;stop-opacity:1;"
         offset="0"
         id="stop2564" />
      <stop
         style="stop-color:#55ff99;stop-opacity:0;"
         offset="1"
         id="stop2566" />
    </linearGradient>
    <linearGradient
       inkscape:collect="always"
       id="linearGradient2554">
      <stop
         style="stop-color:#55ff99;stop-opacity:1;"
         offset="0"
         id="stop2556" />
      <stop
         style="stop-color:#55ff99;stop-opacity:0;"
         offset="1"
         id="stop2558" />
    </linearGradient>
    <linearGradient
       inkscape:collect="always"
       id="linearGradient2546">
      <stop
         style="stop-color:#55ff99;stop-opacity:1;"
         offset="0"
         id="stop2548" />
      <stop
         style="stop-color:#55ff99;stop-opacity:0;"
         offset="1"
         id="stop2550" />
    </linearGradient>
    <linearGradient
       inkscape:collect="always"
       id="linearGradient14411">
      <stop
         style="stop-color:#ffffff;stop-opacity:1;"
         offset="0"
         id="stop14413" />
      <stop
         style="stop-color:#ffffff;stop-opacity:0;"
         offset="1"
         id="stop14415" />
    </linearGradient>
    <linearGradient
       inkscape:collect="always"
       xlink:href="#linearGradient2554"
       id="linearGradient9335"
       gradientUnits="userSpaceOnUse"
       x1="372.10727"
       y1="151.39676"
       x2="397.59244"
       y2="157.54836" />
    <linearGradient
       inkscape:collect="always"
       xlink:href="#linearGradient2546"
       id="linearGradient9337"
       gradientUnits="userSpaceOnUse"
       x1="366.39508"
       y1="157.54836"
       x2="383.09225"
       y2="170.125" />
    <linearGradient
       inkscape:collect="always"
       xlink:href="#linearGradient2562"
       id="linearGradient9339"
       gradientUnits="userSpaceOnUse"
       x1="358.48587"
       y1="160.62415"
       x2="371.66788"
       y2="175.90625" />
    <linearGradient
       inkscape:collect="always"
       xlink:href="#linearGradient2570"
       id="linearGradient9341"
       gradientUnits="userSpaceOnUse"
       x1="344.42511"
       y1="162.82114"
       x2="364.19809"
       y2="182.65625" />
    <linearGradient
       inkscape:collect="always"
       xlink:href="#linearGradient2578"
       id="linearGradient9343"
       gradientUnits="userSpaceOnUse"
       x1="336.07651"
       y1="170.73033"
       x2="353.2131"
       y2="187.25923" />
    <linearGradient
       inkscape:collect="always"
       xlink:href="#linearGradient2586"
       id="linearGradient9345"
       gradientUnits="userSpaceOnUse"
       x1="327.72794"
       y1="172.92732"
       x2="342.66751"
       y2="190.9427" />
    <linearGradient
       inkscape:collect="always"
       xlink:href="#linearGradient2594"
       id="linearGradient9347"
       gradientUnits="userSpaceOnUse"
       x1="317.18234"
       y1="173.80612"
       x2="334.75833"
       y2="193.57909" />
    <linearGradient
       inkscape:collect="always"
       xlink:href="#linearGradient2602"
       id="linearGradient9349"
       gradientUnits="userSpaceOnUse"
       x1="313.66714"
       y1="183.03351"
       x2="325.53094"
       y2="200.36882" />
    <linearGradient
       inkscape:collect="always"
       xlink:href="#linearGradient2610"
       id="linearGradient9351"
       gradientUnits="userSpaceOnUse"
       x1="310.15195"
       y1="187.8669"
       x2="322.125"
       y2="201.90625" />
    <linearGradient
       inkscape:collect="always"
       xlink:href="#linearGradient2618"
       id="linearGradient9353"
       gradientUnits="userSpaceOnUse"
       x1="303.56097"
       y1="191.8215"
       x2="312.57849"
       y2="203.24588" />
    <linearGradient
       inkscape:collect="always"
       xlink:href="#linearGradient2690"
       id="linearGradient9355"
       gradientUnits="userSpaceOnUse"
       x1="479.95184"
       y1="162.77159"
       x2="468.68195"
       y2="139.26588" />
    <linearGradient
       inkscape:collect="always"
       xlink:href="#linearGradient14411"
       id="linearGradient9357"
       gradientUnits="userSpaceOnUse"
       x1="240.38437"
       y1="115.89909"
       x2="241.53912"
       y2="121.17792" />
    <filter
       id="filter11193"
       height="1.204561"
       y="-0.10228051"
       width="1.6059247"
       x="-0.30296236"
       inkscape:collect="always">
      <feGaussianBlur
         id="feGaussianBlur11195"
         stdDeviation="18.143585"
         inkscape:collect="always" />
    </filter>
    <filter
       id="filter11189"
       height="1.2111586"
       y="-0.10557931"
       width="1.3552474"
       x="-0.17762369"
       inkscape:collect="always">
      <feGaussianBlur
         id="feGaussianBlur11191"
         stdDeviation="18.143585"
         inkscape:collect="always" />
    </filter>
    <filter
       id="filter11185"
       height="1.2424628"
       y="-0.12123133"
       width="1.2640786"
       x="-0.13203932"
       inkscape:collect="always">
      <feGaussianBlur
         id="feGaussianBlur11187"
         stdDeviation="18.143585"
         inkscape:collect="always" />
    </filter>
    <filter
       id="filter11181"
       height="1.3091427"
       y="-0.15457135"
       width="1.2171913"
       x="-0.10859563"
       inkscape:collect="always">
      <feGaussianBlur
         id="feGaussianBlur11183"
         stdDeviation="18.143585"
         inkscape:collect="always" />
    </filter>
    <clipPath
       id="clipPath4248"
       clipPathUnits="userSpaceOnUse">
      <path
         style="opacity:0.79007634;color:#000000;fill:#666666;fill-opacity:1;fill-rule:nonzero;stroke:none;stroke-width:7.19999981;stroke-linecap:butt;stroke-linejoin:round;marker:none;marker-start:none;marker-mid:none;marker-end:none;stroke-miterlimit:4;stroke-dasharray:none;stroke-dashoffset:0;stroke-opacity:1;visibility:visible;display:inline;overflow:visible;enable-background:accumulate"
         d="M 372.84375,260.9375 C 255.3466,260.9375 160,356.2841 160,473.78125 C 160,591.2784 255.3466,686.65625 372.84375,686.65625 C 490.3409,686.65625 585.71875,591.2784 585.71875,473.78125 C 585.71875,356.2841 490.3409,260.9375 372.84375,260.9375 z M 372.84375,420.9375 C 402.02089,420.9375 425.71875,444.60411 425.71875,473.78125 C 425.71875,502.95839 402.02089,526.65625 372.84375,526.65625 C 343.66661,526.65625 320,502.95839 320,473.78125 C 320,444.60411 343.66661,420.9375 372.84375,420.9375 z "
         id="path4250" />
    </clipPath>
    <clipPath
       id="clipPath4244"
       clipPathUnits="userSpaceOnUse">
      <path
         style="opacity:0.79007634;color:#000000;fill:#666666;fill-opacity:1;fill-rule:nonzero;stroke:none;stroke-width:7.19999981;stroke-linecap:butt;stroke-linejoin:round;marker:none;marker-start:none;marker-mid:none;marker-end:none;stroke-miterlimit:4;stroke-dasharray:none;stroke-dashoffset:0;stroke-opacity:1;visibility:visible;display:inline;overflow:visible;enable-background:accumulate"
         d="M 372.84375,260.9375 C 255.3466,260.9375 160,356.2841 160,473.78125 C 160,591.2784 255.3466,686.65625 372.84375,686.65625 C 490.3409,686.65625 585.71875,591.2784 585.71875,473.78125 C 585.71875,356.2841 490.3409,260.9375 372.84375,260.9375 z M 372.84375,420.9375 C 402.02089,420.9375 425.71875,444.60411 425.71875,473.78125 C 425.71875,502.95839 402.02089,526.65625 372.84375,526.65625 C 343.66661,526.65625 320,502.95839 320,473.78125 C 320,444.60411 343.66661,420.9375 372.84375,420.9375 z "
         id="path4246" />
    </clipPath>
    <clipPath
       id="clipPath4240"
       clipPathUnits="userSpaceOnUse">
      <path
         style="opacity:0.79007634;color:#000000;fill:#666666;fill-opacity:1;fill-rule:nonzero;stroke:none;stroke-width:7.19999981;stroke-linecap:butt;stroke-linejoin:round;marker:none;marker-start:none;marker-mid:none;marker-end:none;stroke-miterlimit:4;stroke-dasharray:none;stroke-dashoffset:0;stroke-opacity:1;visibility:visible;display:inline;overflow:visible;enable-background:accumulate"
         d="M 372.84375,260.9375 C 255.3466,260.9375 160,356.2841 160,473.78125 C 160,591.2784 255.3466,686.65625 372.84375,686.65625 C 490.3409,686.65625 585.71875,591.2784 585.71875,473.78125 C 585.71875,356.2841 490.3409,260.9375 372.84375,260.9375 z M 372.84375,420.9375 C 402.02089,420.9375 425.71875,444.60411 425.71875,473.78125 C 425.71875,502.95839 402.02089,526.65625 372.84375,526.65625 C 343.66661,526.65625 320,502.95839 320,473.78125 C 320,444.60411 343.66661,420.9375 372.84375,420.9375 z "
         id="path4242" />
    </clipPath>
    <clipPath
       id="clipPath4236"
       clipPathUnits="userSpaceOnUse">
      <path
         style="opacity:0.79007634;color:#000000;fill:#666666;fill-opacity:1;fill-rule:nonzero;stroke:none;stroke-width:7.19999981;stroke-linecap:butt;stroke-linejoin:round;marker:none;marker-start:none;marker-mid:none;marker-end:none;stroke-miterlimit:4;stroke-dasharray:none;stroke-dashoffset:0;stroke-opacity:1;visibility:visible;display:inline;overflow:visible;enable-background:accumulate"
         d="M 372.84375,260.9375 C 255.3466,260.9375 160,356.2841 160,473.78125 C 160,591.2784 255.3466,686.65625 372.84375,686.65625 C 490.3409,686.65625 585.71875,591.2784 585.71875,473.78125 C 585.71875,356.2841 490.3409,260.9375 372.84375,260.9375 z M 372.84375,420.9375 C 402.02089,420.9375 425.71875,444.60411 425.71875,473.78125 C 425.71875,502.95839 402.02089,526.65625 372.84375,526.65625 C 343.66661,526.65625 320,502.95839 320,473.78125 C 320,444.60411 343.66661,420.9375 372.84375,420.9375 z "
         id="path4238" />
    </clipPath>
    <clipPath
       id="clipPath4232"
       clipPathUnits="userSpaceOnUse">
      <path
         style="opacity:0.79007634;color:#000000;fill:#666666;fill-opacity:1;fill-rule:nonzero;stroke:none;stroke-width:7.19999981;stroke-linecap:butt;stroke-linejoin:round;marker:none;marker-start:none;marker-mid:none;marker-end:none;stroke-miterlimit:4;stroke-dasharray:none;stroke-dashoffset:0;stroke-opacity:1;visibility:visible;display:inline;overflow:visible;enable-background:accumulate"
         d="M 372.84375,260.9375 C 255.3466,260.9375 160,356.2841 160,473.78125 C 160,591.2784 255.3466,686.65625 372.84375,686.65625 C 490.3409,686.65625 585.71875,591.2784 585.71875,473.78125 C 585.71875,356.2841 490.3409,260.9375 372.84375,260.9375 z M 372.84375,420.9375 C 402.02089,420.9375 425.71875,444.60411 425.71875,473.78125 C 425.71875,502.95839 402.02089,526.65625 372.84375,526.65625 C 343.66661,526.65625 320,502.95839 320,473.78125 C 320,444.60411 343.66661,420.9375 372.84375,420.9375 z "
         id="path4234" />
    </clipPath>
    <linearGradient
       id="linearGradient5241">
      <stop
         id="stop5243"
         offset="0"
         style="stop-color:#7c7c7c;stop-opacity:1;" />
      <stop
         id="stop5245"
         offset="1"
         style="stop-color:#c6c6c6;stop-opacity:1;" />
    </linearGradient>
    <linearGradient
       id="linearGradient7185">
      <stop
         id="stop7187"
         offset="0"
         style="stop-color:#6f6f6f;stop-opacity:1;" />
      <stop
         id="stop7189"
         offset="1"
         style="stop-color:#f5f5f5;stop-opacity:1;" />
    </linearGradient>
    <linearGradient
       inkscape:collect="always"
       xlink:href="#linearGradient2578"
       id="linearGradient3204"
       gradientUnits="userSpaceOnUse"
       x1="336.07651"
       y1="170.73033"
       x2="353.2131"
       y2="187.25923"
       gradientTransform="matrix(0.4914497,0,0,0.4914497,752.08614,49.946508)" />
    <linearGradient
       inkscape:collect="always"
       xlink:href="#linearGradient5241"
       id="linearGradient3280"
       gradientUnits="userSpaceOnUse"
       gradientTransform="translate(235.86516,-28.363359)"
       spreadMethod="reflect"
       x1="-73.263298"
       y1="514.97156"
       x2="-3.5968626"
       y2="521.37653" />
    <linearGradient
       inkscape:collect="always"
       xlink:href="#linearGradient5241"
       id="linearGradient3282"
       gradientUnits="userSpaceOnUse"
       gradientTransform="translate(241.35512,-29.278352)"
       spreadMethod="reflect"
       x1="-73.263298"
       y1="514.97156"
       x2="-3.5968626"
       y2="521.37653" />
    <linearGradient
       inkscape:collect="always"
       xlink:href="#linearGradient7185"
       id="linearGradient3284"
       gradientUnits="userSpaceOnUse"
       spreadMethod="reflect"
       x1="390.19592"
       y1="473.79688"
       x2="213.73976"
       y2="368.65701" />
    <linearGradient
       inkscape:collect="always"
       xlink:href="#linearGradient5241"
       id="linearGradient3100"
       gradientUnits="userSpaceOnUse"
       gradientTransform="matrix(0.7460093,0,0,0.7460093,148.3957,-106.13942)"
       spreadMethod="reflect"
       x1="-73.263298"
       y1="514.97156"
       x2="-3.5968626"
       y2="521.37653" />
    <linearGradient
       inkscape:collect="always"
       xlink:href="#linearGradient5241"
       id="linearGradient3103"
       gradientUnits="userSpaceOnUse"
       gradientTransform="matrix(0.7460093,0,0,0.7460093,144.30014,-105.45683)"
       spreadMethod="reflect"
       x1="-73.263298"
       y1="514.97156"
       x2="-3.5968626"
       y2="521.37653" />
  </defs>
  <sodipodi:namedview
     id="base"
     pagecolor="#ffffff"
     bordercolor="#666666"
     borderopacity="1.0"
     inkscape:pageopacity="0.0"
     inkscape:pageshadow="2"
     inkscape:zoom="1.2472997"
     inkscape:cx="444.2669"
     inkscape:cy="193.17768"
     inkscape:document-units="px"
     inkscape:current-layer="layer1"
     showguides="true"
     inkscape:guide-bbox="true"
     inkscape:window-width="1280"
     inkscape:window-height="750"
     inkscape:window-x="46"
     inkscape:window-y="22"
     showgrid="false"
     inkscape:window-maximized="0" />
  <metadata
     id="metadata7">
    <rdf:RDF>
      <cc:Work
         rdf:about="">
        <dc:format>image/svg+xml</dc:format>
        <dc:type
           rdf:resource="http://purl.org/dc/dcmitype/StillImage" />
      </cc:Work>
    </rdf:RDF>
  </metadata>
  <g
     inkscape:label="Ebene 1"
     inkscape:groupmode="layer"
     id="layer1"
     transform="translate(-89.645035,-116.55345)">
    <g
       id="g3105">
      <path
         style="color:#000000;fill:none;stroke:url(#linearGradient3103);stroke-width:5.37126684;stroke-linecap:butt;stroke-linejoin:round;stroke-miterlimit:4;stroke-opacity:1;stroke-dasharray:none;stroke-dashoffset:0;marker:none;visibility:visible;display:inline;overflow:visible;enable-background:accumulate"
         d="m 251.11409,119.92168 c -87.65397,0 -158.783422,71.12945 -158.783422,158.78341 0,87.65397 71.129452,158.80673 158.783422,158.80673 87.65396,0 158.80672,-71.15276 158.80672,-158.80673 0,-87.65396 -71.15276,-158.78341 -158.80672,-158.78341 z m 0,119.36148 c 21.76641,0 39.44524,17.65552 39.44524,39.42193 0,21.76642 -17.67883,39.44524 -39.44524,39.44524 -21.76642,0 -39.42193,-17.67882 -39.42193,-39.44524 0,-21.76641 17.65551,-39.42193 39.42193,-39.42193 z"
         id="path4252"
         clip-path="none"
         inkscape:connector-curvature="0" />
      <path
         id="path4254"
         d="m 255.20965,119.23908 c -87.65397,0 -158.783421,71.12946 -158.783421,158.78342 0,87.65397 71.129451,158.80673 158.783421,158.80673 87.65396,0 158.80673,-71.15276 158.80673,-158.80673 0,-87.65396 -71.15277,-158.78342 -158.80673,-158.78342 z m 0,119.36149 c 21.76641,0 39.44524,17.65551 39.44524,39.42193 0,21.76642 -17.67883,39.44524 -39.44524,39.44524 -21.76642,0 -39.42193,-17.67882 -39.42193,-39.44524 0,-21.76642 17.65551,-39.42193 39.42193,-39.42193 z"
         style="color:#000000;fill:none;stroke:url(#linearGradient3100);stroke-width:5.37126684;stroke-linecap:butt;stroke-linejoin:round;stroke-miterlimit:4;stroke-opacity:1;stroke-dasharray:none;stroke-dashoffset:0;marker:none;visibility:visible;display:inline;overflow:visible;enable-background:accumulate"
         inkscape:connector-curvature="0" />
      <path
         transform="matrix(0.7460093,0,0,0.7460093,-24.983042,-75.422714)"
         clip-path="url(#clipPath4248)"
         id="path2160"
         d="M 372.84375,260.9375 C 255.3466,260.9375 160,356.2841 160,473.78125 c 0,117.49715 95.3466,212.875 212.84375,212.875 117.49715,0 212.875,-95.37785 212.875,-212.875 0,-117.49715 -95.37785,-212.84375 -212.875,-212.84375 z m 0,160 c 29.17714,0 52.875,23.66661 52.875,52.84375 0,29.17714 -23.69786,52.875 -52.875,52.875 -29.17714,0 -52.84375,-23.69786 -52.84375,-52.875 0,-29.17714 23.66661,-52.84375 52.84375,-52.84375 z"
         style="color:#000000;fill:url(#linearGradient3284);fill-opacity:1;fill-rule:nonzero;stroke:none;stroke-width:7.19999981;marker:none;visibility:visible;display:inline;overflow:visible;enable-background:accumulate"
         inkscape:connector-curvature="0" />
      <path
         transform="matrix(0.66097439,0,0,0.66097439,-9.669014,-39.509332)"
         d="m 471.42857,480.93362 a 74.285713,74.285713 0 1 1 -148.57143,0 74.285713,74.285713 0 1 1 148.57143,0 z"
         sodipodi:ry="74.285713"
         sodipodi:rx="74.285713"
         sodipodi:cy="480.93362"
         sodipodi:cx="397.14285"
         id="path2165"
         style="opacity:0.38931298;color:#000000;fill:none;stroke:#d2d2d2;stroke-width:20;stroke-linecap:butt;stroke-linejoin:round;stroke-miterlimit:4;stroke-opacity:1;stroke-dasharray:none;stroke-dashoffset:0;marker:none;visibility:visible;display:inline;overflow:visible;enable-background:accumulate"
         sodipodi:type="arc" />
    </g>
  </g>
</svg>
