<svg id="svg2" xmlns:rdf="http://www.w3.org/1999/02/22-rdf-syntax-ns#" xmlns="http://www.w3.org/2000/svg" height="256" width="256" version="1.1">
<g id="layer1" transform="translate(0 -796.36)">
<path id="path3013" d="m648.57 563.79a271.43 271.43 0 1 1 -542.86 0 271.43 271.43 0 1 1 542.86 0z" transform="matrix(.45154 0 0 .45154 -41.655 668.37)" fill="#006ac1"/>
<g id="text2985" fill="#fff" transform="matrix(.77272 0 0 .88980 -192.04 571.02)">
<path id="path2990" fill="#fff" d="m424.53 297.55h52.594v116.86c-0.00015 21.469-5.6252 38.953-16.875 52.453-6.4689 7.7813-14.719 13.969-24.75 18.562-9.9376 4.5938-20.156 6.8906-30.656 6.8906-20.906-0.00001-38.531-7.0312-52.875-21.094-14.344-14.062-21.516-31.312-21.516-51.75-0.00001-19.781 7.125-36.891 21.375-51.328s31.125-21.656 50.625-21.656c3.0937 0.00014 7.7812 0.28139 14.062 0.84375v57.938c-4.3126-3.3749-8.6251-5.0624-12.938-5.0625-5.4376 0.00009-10.125 2.0157-14.062 6.0469-3.8438 3.9376-5.7657 8.7188-5.7656 14.344-0.00006 5.4376 2.0156 10.125 6.0469 14.062 4.0312 3.8438 8.8593 5.7657 14.484 5.7656 13.5 0.00005 20.25-9.3281 20.25-27.984v-114.89"/>
</g>
</g>
</svg>
