<?xml version="1.0" encoding="UTF-8" standalone="no"?>
<!-- Generator: Adobe Illustrator 13.0.0, SVG Export Plug-In . SVG Version: 6.00 Build 14948)  -->

<svg
   xmlns:dc="http://purl.org/dc/elements/1.1/"
   xmlns:cc="http://creativecommons.org/ns#"
   xmlns:rdf="http://www.w3.org/1999/02/22-rdf-syntax-ns#"
   xmlns:svg="http://www.w3.org/2000/svg"
   xmlns="http://www.w3.org/2000/svg"
   xmlns:xlink="http://www.w3.org/1999/xlink"
   xmlns:sodipodi="http://sodipodi.sourceforge.net/DTD/sodipodi-0.dtd"
   xmlns:inkscape="http://www.inkscape.org/namespaces/inkscape"
   version="1.1"
   x="0px"
   y="0px"
   width="128px"
   height="128px"
   viewBox="0 0 128 128"
   enable-background="new 0 0 128 128"
   xml:space="preserve"
   id="svg2"
   inkscape:version="0.91 r13725"
   sodipodi:docname="media-optical.svg"><metadata
     id="metadata71"><rdf:RDF><cc:Work
         rdf:about=""><dc:format>image/svg+xml</dc:format><dc:type
           rdf:resource="http://purl.org/dc/dcmitype/StillImage" /></cc:Work></rdf:RDF></metadata><sodipodi:namedview
     pagecolor="#ffffff"
     bordercolor="#666666"
     borderopacity="1"
     objecttolerance="10"
     gridtolerance="10"
     guidetolerance="10"
     inkscape:pageopacity="0"
     inkscape:pageshadow="2"
     inkscape:window-width="739"
     inkscape:window-height="480"
     id="namedview69"
     showgrid="false"
     inkscape:zoom="1.84375"
     inkscape:cx="64"
     inkscape:cy="64"
     inkscape:window-x="65"
     inkscape:window-y="24"
     inkscape:window-maximized="0"
     inkscape:current-layer="svg2" /><defs
     id="defs4"><filter
       id="Gaussian_Blur"><feGaussianBlur
         in="SourceGraphic"
         stdDeviation="3"
         id="feGaussianBlur7" /></filter><filter
       id="Gaussian_Blur2"><feGaussianBlur
         in="SourceGraphic"
         stdDeviation="1"
         id="feGaussianBlur10" /></filter></defs><g
     id="Layer_3"
     opacity="0.6"><g
       id="g13"><path
         d="M63.063,8.67c-30.427,0-55.092,24.666-55.092,55.092c0,30.428,24.666,55.093,55.092,55.093    c30.428,0,55.092-24.665,55.092-55.093C118.155,33.335,93.491,8.67,63.063,8.67z M63.063,79.033    c-7.609,0-13.777-6.168-13.777-13.776c0-7.609,6.168-13.778,13.777-13.778c7.607,0,13.777,6.169,13.777,13.778    C76.841,72.865,70.671,79.033,63.063,79.033z"
         style="filter:url(#Gaussian_Blur2)"
         id="path15" /></g></g><g
     id="Layer_3_copy"><g
       id="g18"><path
         fill="#E5E5E5"
         stroke="#858585"
         stroke-width="0.5"
         d="M61.5,6.466c-30.427,0-55.092,24.666-55.092,55.092    c0,30.428,24.666,55.092,55.092,55.092c30.428,0,55.092-24.664,55.092-55.092C116.592,31.132,91.928,6.466,61.5,6.466z     M61.5,76.83c-7.609,0-13.777-6.169-13.777-13.777S53.891,49.276,61.5,49.276c7.607,0,13.777,6.168,13.777,13.777    S69.107,76.83,61.5,76.83z"
         id="path20" /></g></g><g
     id="Layer_1"
     style="opacity:0.33"><g
       id="g23"
       style=""><linearGradient
         id="SVGID_1_"
         gradientUnits="userSpaceOnUse"
         x1="56.686"
         y1="13.9155"
         x2="66.353"
         y2="109.582"><stop
           offset="0"
           style="stop-color:#CCCCCC"
           id="stop26" /><stop
           offset="1"
           style="stop-color:#A1A6A8"
           id="stop28" /></linearGradient><path
         d="M61.5,8.389c-29.365,0-53.17,23.805-53.17,53.17s23.805,53.17,53.17,53.17    s53.17-23.805,53.17-53.17S90.865,8.389,61.5,8.389z M61.5,76.297c-7.344,0-13.297-5.953-13.297-13.296S54.156,49.705,61.5,49.705    c7.343,0,13.297,5.953,13.297,13.296S68.843,76.297,61.5,76.297z"
         id="path30"
         fill="url(#SVGID_1_)"
         style="" /></g><g
       id="g32"
       style=""><g
         id="g34"
         style=""><defs
           id="defs36"><path
             id="SVGID_2_"
             d="M61.5,8.389c-29.365,0-53.17,23.805-53.17,53.17s23.805,53.17,53.17,53.17s53.17-23.805,53.17-53.17      S90.865,8.389,61.5,8.389z M61.5,76.297c-7.344,0-13.297-5.953-13.297-13.296S54.156,49.705,61.5,49.705      c7.343,0,13.297,5.953,13.297,13.296S68.843,76.297,61.5,76.297z" /></defs><clipPath
           id="SVGID_3_"><use
             xlink:href="#SVGID_2_"
             overflow="visible"
             id="use40" /></clipPath><polygon
           clip-path="url(#SVGID_3_)"
           points="152.237,72.892 61.5,64.288 -29.238,72.892      -29.238,55.687 61.5,64.288 152.237,55.687    "
           style="filter:url(#Gaussian_Blur)"
           id="polygon42"
           fill="#FF3D45"
           opacity="0.5" /><polygon
           clip-path="url(#SVGID_3_)"
           points="-10.94,127.093 61.184,63.012 75.678,-32.375      133.301,-1.077 61.184,63.012 46.678,158.391    "
           style="filter:url(#Gaussian_Blur)"
           id="polygon44"
           fill="#E0FFFF"
           opacity="0.5" /><polygon
           clip-path="url(#SVGID_3_)"
           points="0.146,133.114 61.182,63.011 86.764,-26.354 122.215,-7.099      61.182,63.011 35.592,152.368    "
           style="filter:url(#Gaussian_Blur)"
           id="polygon46"
           fill="#FFFFFF" /><polygon
           clip-path="url(#SVGID_3_)"
           points="144.783,84.571 61.5,64.288 -24.111,60.02      -21.784,44.008 61.5,64.288 147.11,68.559    "
           style="filter:url(#Gaussian_Blur)"
           id="polygon48"
           fill="#FF8000"
           opacity="0.5" /><polygon
           clip-path="url(#SVGID_3_)"
           points="137.329,96.25 61.5,64.288 -18.984,47.148      -14.329,32.329 61.5,64.288 141.984,81.431    "
           style="filter:url(#Gaussian_Blur)"
           id="polygon50"
           fill="#FFFF00"
           opacity="0.5" /><polygon
           clip-path="url(#SVGID_3_)"
           points="129.875,107.929 61.5,64.288 -13.857,34.276      -6.875,20.65 61.5,64.288 136.857,94.303    "
           style="filter:url(#Gaussian_Blur)"
           id="polygon52"
           fill="#5EFF00"
           opacity="0.5" /><polygon
           clip-path="url(#SVGID_3_)"
           points="122.421,119.608 61.5,64.289 -8.73,21.403 0.58,8.97      61.5,64.289 131.731,107.175    "
           style="filter:url(#Gaussian_Blur)"
           id="polygon54"
           fill="#00D3DF"
           opacity="0.5" /><polygon
           clip-path="url(#SVGID_3_)"
           points="114.967,131.287 61.501,64.289 -3.604,8.532      8.034,-2.708 61.501,64.289 126.605,120.047    "
           style="filter:url(#Gaussian_Blur)"
           id="polygon56"
           fill="#0012DF"
           opacity="0.5" /><polygon
           clip-path="url(#SVGID_3_)"
           points="107.513,142.967 61.501,64.289 1.523,-4.34      15.488,-14.387 61.501,64.289 121.479,132.919    "
           style="filter:url(#Gaussian_Blur)"
           id="polygon58"
           fill="#6B476B"
           opacity="0.5" /></g></g></g><g
     id="Layer_2"><g
       id="g61"><path
         opacity="0.22"
         fill="#636363"
         stroke="#000000"
         stroke-width="0.25"
         d="M61.5,46.661c-9.024,0-16.34,7.315-16.34,16.34    c0,9.024,7.315,16.339,16.34,16.339S77.84,72.024,77.84,63C77.84,53.976,70.524,46.661,61.5,46.661z M61.5,68.316    c-2.986,0-5.407-2.421-5.407-5.406c0-2.986,2.421-5.406,5.407-5.406c2.985,0,5.407,2.42,5.407,5.406    C66.906,65.896,64.485,68.316,61.5,68.316z"
         id="path63" /></g><circle
       opacity="0.5"
       fill="none"
       stroke="#505050"
       stroke-width="0.25"
       cx="61.5"
       cy="62.88"
       r="10.693"
       id="circle65" /><ellipse
       opacity="0.3"
       fill="none"
       stroke="#505050"
       stroke-width="0.25"
       cx="61.5"
       cy="62.88"
       rx="6.788"
       ry="6.667"
       id="ellipse67" /></g></svg>