<svg viewBox="0 0 41.160763 47.604721" xmlns="http://www.w3.org/2000/svg" xmlns:xlink="http://www.w3.org/1999/xlink">
<defs>
<linearGradient>
<stop offset="0"/>
<stop offset="1" stop-color="#fff"/>
</linearGradient>
<linearGradient x1="-1.0164395e-18" x2="1" xlink:href="#linearGradient830"/>
<radialGradient xlink:href="#linearGradient830"/>
</defs>
<g transform="translate(-80.59801,-338.389)">
<path d="m94.57371,338.62098c-8.78484.20794-15.51495,6.36209-13.33392,15.78724 .00257.0111.01334.02075.01593.03186 .25605,3.25054 2.9607,5.81468 6.27666,5.81468 3.48488,0 6.30852-2.82365 6.30852-6.30853 0-3.07137-2.1907-5.63239-5.0978-6.197-1.15848-.40989-2.89596-1.34191-2.81972-2.83565 .03514-.74343.90303-2.09188 2.29401-2.77193 1.69055-.79335 3.43378-1.22266 5.19338-.86025 2.66733.48694 9.48863,5.38493 10.02036,13.87556 .30521,6.44653-3.3159,15.15023-6.85016,19.27604-5.69761,6.50335-14.85058,10.54298-13.95522,11.26294 .80363.71997 11.61001-4.21926 17.23692-10.41862 6.86685-7.4357 10.26627-13.63373 9.9407-21.17178-.19582-7.53805-6.03171-15.6992-15.22966-15.48456z" fill-rule="evenodd" stroke="#000" stroke-width=".45574"/>
<path d="m116.85809,36.47297a9.7721,9.16135 0 1,1 -19.54421,0 9.7721,9.16135 0 1,1 19.54421,0z" fill-rule="evenodd" stroke="#000" stroke-linecap="round" stroke-linejoin="round" stroke-width=".894" transform="matrix(.509779,0,0,.509779,61.9591,329.3244)"/>
<path d="m116.85809,36.47297a9.7721,9.16135 0 1,1 -19.54421,0 9.7721,9.16135 0 1,1 19.54421,0z" fill-rule="evenodd" stroke="#000" stroke-linecap="round" stroke-linejoin="round" stroke-width=".894" transform="matrix(.509779,0,0,.509779,61.9591,342.3694)"/>
</g>
</svg>
