<svg fill="#404040" viewBox="0 0 512 512" xmlns="http://www.w3.org/2000/svg">
<path d="m256,0c-141.385,0-256,114.615-256,256s114.615,256 256,256 256-114.615 256-256-114.615-256-256-256zm0,448c-106.039,0-192-85.961-192-192s85.961-192 192-192 192,85.961 192,192-85.961,192-192,192z"/>
<path d="m256,145.125c-63.3684,0-115.2188,51.8504-115.2188,115.2188s51.8504,115.2188 115.2188,115.2188 115.2188-51.8505 115.2188-115.2188-51.8504-115.2188-115.2188-115.2188zm0,70.9688c24.7884,0 44.25,19.4616 44.25,44.25s-19.4616,44.25-44.25,44.25-44.25-19.4616-44.25-44.25 19.4616-44.25 44.25-44.25z" transform="matrix(.75867,0,0,.75867,61.54063,57.50551)"/>
</svg>
