<?xml version="1.0" encoding="UTF-8" standalone="no"?>
<svg id="svg3809" xmlns="http://www.w3.org/2000/svg" height="64" width="64" version="1.1">
 <defs id="defs3811">
  <linearGradient id="linearGradient4416" y2="7" gradientUnits="userSpaceOnUse" x2="26.212" gradientTransform="matrix(-1.4054 0 0 1.4054 804.7 154.1)" y1="44" x1="26.212">
   <stop id="stop4302-0" stop-color="#8e44ad" offset="0"/>
   <stop id="stop4304-6" stop-color="#9b59b6" offset="1"/>
  </linearGradient>
  <linearGradient id="linearGradient4191" y2="23" gradientUnits="userSpaceOnUse" y1="9" gradientTransform="matrix(2 0 0 2 -.99999 -5)" x2="23" x1="9">
   <stop id="stop4229" stop-color="#292c2f" offset="0"/>
   <stop id="stop4231" stop-opacity="0" offset="1"/>
  </linearGradient>
  <linearGradient id="linearGradient4244" y2="13" gradientUnits="userSpaceOnUse" x2="27" y1="38" x1="27">
   <stop id="stop4300" stop-color="#b985ce" offset="0"/>
   <stop id="stop4302" stop-color="#e2cdeb" offset="1"/>
  </linearGradient>
 </defs>
 <g id="layer1" transform="translate(-736.86 -157.93)">
  <path id="path4445" d="m794.86 163.93v37.946h-25.297l-14.054 14.054v-14.054h-12.649v-37.946z" fill-rule="evenodd" fill="url(#linearGradient4416)"/>
  <path id="path4184" opacity=".2" d="m36 14.93-7 1.535-5 3.535l6 6-1 3 4 4-4 4 6.9453 6.9453h22.055v-7.0156z" fill-rule="evenodd" transform="translate(736.86 157.93)" fill="url(#linearGradient4191)"/>
  <path id="path4256" d="m6 42.945v1h12.648v-1h-12.648zm26.703 0l-14.055 14.055v1l14.055-14.055h25.297v-1h-25.297z" fill-rule="evenodd" transform="translate(736.86 157.93)" fill="#713e88"/>
  <path id="rect4169" d="m31 13c-1.944 0-3.76 0.682-5.039 1.961s-1.961 3.095-1.961 5.039h4c0-1.056 0.318-1.74 0.789-2.211s1.155-0.789 2.211-0.789 1.74 0.318 2.211 0.789 0.789 1.155 0.789 2.211c0 0.917-0.181 1.307-0.422 1.652-0.241 0.346-0.636 0.672-1.224 1.084-0.589 0.412-1.37 0.887-2.092 1.729s-1.262 2.118-1.262 3.535v1h4v-1c0-0.583 0.083-0.682 0.299-0.934 0.215-0.251 0.686-0.589 1.347-1.052 0.662-0.463 1.517-1.075 2.213-2.073 0.697-0.998 1.141-2.358 1.141-3.941 0-1.944-0.682-3.76-1.961-5.039s-3.095-1.961-5.039-1.961zm-2 20v4h4v-4h-4z" transform="translate(736.86 157.93)" fill="url(#linearGradient4244)"/>
 </g>
</svg>
