<svg xmlns="http://www.w3.org/2000/svg" xmlns:xlink="http://www.w3.org/1999/xlink" viewBox="0 0 453.5433 453.5433">
<defs>
<linearGradient id="linearGradient3984">
<stop stop-color="#fff" offset="0"/>
<stop stop-color="#fff" stop-opacity="0" offset="1"/>
</linearGradient>
<linearGradient id="linearGradient4424" y2="525.17" gradientUnits="userSpaceOnUse" y1="311.96" x2="190.81" x1="486.79">
<stop stop-color="#fff" stop-opacity=".18" offset="0"/>
<stop stop-color="#fff" offset=".515"/>
<stop stop-color="#fff" stop-opacity="0" offset="1"/>
</linearGradient>
<linearGradient id="linearGradient4426" y2="455.45" gradientUnits="userSpaceOnUse" y1="403.93" x2="405.63" x1="353.63">
<stop stop-color="#fff" stop-opacity=".64" offset="0"/>
<stop stop-color="#fff" stop-opacity="0" offset="1"/>
</linearGradient>
<radialGradient id="radialGradient4422" gradientUnits="userSpaceOnUse" cy="455.36" cx="382.84" gradientTransform="matrix(.54861 -.3949 .46551 .60234 -196.17 697.58)" r="291.94">
<stop stop-color="#555753" stop-opacity=".011" offset="0"/>
<stop stop-color="#555753" stop-opacity=".226" offset=".002"/>
<stop stop-color="#555753" stop-opacity=".012" offset=".004"/>
<stop stop-color="#555753" stop-opacity=".012" offset=".008"/>
<stop stop-color="#555753" stop-opacity=".073" offset=".016"/>
<stop stop-color="#555753" stop-opacity=".016" offset=".031"/>
<stop stop-color="#555753" stop-opacity=".011" offset=".062"/>
<stop stop-color="#555753" stop-opacity=".367" offset=".125"/>
<stop stop-color="#555753" stop-opacity=".006" offset=".25"/>
<stop stop-color="#555753" stop-opacity=".023" offset=".5"/>
<stop stop-color="#555753" stop-opacity=".198" offset=".75"/>
<stop stop-color="#555753" stop-opacity=".181" offset=".875"/>
<stop stop-color="#555753" stop-opacity=".288" offset=".938"/>
<stop stop-color="#555753" stop-opacity=".073" offset="1"/>
</radialGradient>
<radialGradient id="radialGradient4428" xlink:href="#linearGradient3984" gradientUnits="userSpaceOnUse" cy="838.99" cx="880.14" gradientTransform="matrix(.15837 .01401 -.01162 .12231 46.054 805.05)" r="365.08"/>
<radialGradient id="radialGradient4430" xlink:href="#linearGradient3984" gradientUnits="userSpaceOnUse" cy="503.58" cx="1989.9" gradientTransform="matrix(.15837 .01401 -.01162 .12231 46.054 805.05)" r="365.08"/>
</defs>
<title>itunes</title>
<g transform="translate(0 -598.82)">
<g transform="matrix(1 0 0 1.013 0 -7.8464)">
<path d="m190.84 782.74c-20.495 15.183-21.238 50.667-0.5725 71.199 16.411 17.313 44.237 23.43 62.312 11.535 17.309-10.435 25.244-33.594 16.874-54.474-6.7478-18.727-24.803-34.252-44.288-36.634-12.523-1.8756-25.125 0.9343-34.326 8.3732zm4.2181 2.7457c15.596-11.745 40.758-8.9022 56.662 6.2927 16.266 14.627 21.308 39.43 11.424 56.222-9.0065 16.664-31.005 23.707-50.359 16.056-20.465-7.3208-35.405-29.906-33.24-50.452 0.8863-11.42 6.5745-21.754 15.512-28.119z" fill="#babdb6"/>
<path fill-rule="evenodd" stroke="#888a85" stroke-width="12.373" d="m87.747 644.26c-89.771 64.62-100.79 196.91-24.614 295.48s210.69 126.07 300.47 61.452 100.81-196.89 24.629-295.46-210.71-126.09-300.48-61.471zm99.789 129.4c6.3363-4.6904 13.909-7.7585 21.922-9.0903 17.449-2.8732 37.067 3.0221 51.588 15.701 15.413 13.342 24.692 33.729 23.53 52.696-0.8237 16.087-8.7408 30.815-21.322 39.58-13.064 9.1458-30.99 11.555-47.638 6.5799-19.556-5.4938-36.863-21.773-44.32-40.913-9.7787-23.751-2.7624-51.206 16.238-64.553z" fill="#eeeeec"/>
<path d="m167.08 748.63c-34.304 24.096-40.486 78.501-13.985 117.28 23.732 35.482 71.051 54.811 108.13 42.711 36.22-11.094 59.752-49.418 52.637-89.075-5.6932-35.591-33.755-69.929-69.046-80.984-27.019-9.1323-56.986-5.9351-77.733 10.066zm116.82 32.158c27.308 35.335 23.357 82.758-8.8236 105.92s-80.406 13.299-107.71-22.036-23.357-82.758 8.8236-105.92 80.406-13.299 107.71 22.036z" fill="#888a85"/>
<path d="m175.81 759.63c-31.968 22.246-34.831 75.168-5.7412 108.13 25.021 29.425 70.109 40.51 99.604 22.034 28.594-16.593 40.821-55.958 25.279-89.469-13.133-31.117-46.779-54.782-79.061-53.514-14.705 0.0438-28.981 4.2721-40.081 12.819zm7.4309 8.7286c24.534-18.702 66.211-12.053 88.728 14.606 20.723 23.153 25.206 58.962 8.505 81.369-14.964 21.748-46.345 30.17-73.111 18.249-26.057-10.613-46.547-38.093-46.738-65.354-0.6673-19.506 7.4756-38.186 22.616-48.87z" fill="#babdb6"/>
<path d="m86.125 650.85c-67.594 50.57-87.412 152.69-49.528 237.73 24.817 57.053 75.691 103.33 132.74 126.2 54.287 22.269 115.16 23.677 163.38-0.291 64.191-31.1 106.15-100.17 102.39-175.59-3.9235-82.373-60.873-167.03-139.12-203.38-70.425-33.036-153.79-28.33-209.36 14.941l-0.513 0.3841zm10.683 5.1053c58.218-43.02 146.77-43.443 215.69-0.9252 63.312 38.011 108.94 109.37 112.08 179.68 4.3589 65.906-25.983 129.29-79.821 161.28-50.319 31.051-118.65 34.974-178.45 8.0954-58.693-25.393-108.35-77.952-128.17-138.44-20.658-60.176-12.986-126.26 21.707-172.75 10.322-14.172 22.753-26.628 36.962-36.93z" fill="#fff"/>
<path fill-rule="evenodd" d="m88.848 647.54c-42.481 31.058-68.777 81.928-71.318 136.98-3.1976 55.739 18.088 115.29 57.436 160.68 39.661 46.762 97.736 77.634 155.34 83.214 56.395 6.1189 111.77-12.199 149.68-49.086 40.737-38.79 60.43-98.178 52.951-158.12-6.8401-60.846-42.203-121.1-93.155-160.16-50.852-39.404-115.89-56.627-173.97-46.27-28.332 4.9455-54.638 16.2-76.954 32.767zm97.606 124.19c18.366-14.47 47.186-13.787 68.639 1.0781 23.1 15.327 35.629 45.869 28.313 70.097-5.5031 20.799-24.083 36.045-46.153 37.164-22.168 1.9089-46.244-10.552-59.381-30.562-13.513-19.386-14.985-44.935-4.3182-63.109 3.2624-5.7201 7.6075-10.751 12.9-14.668z" fill="url(#radialGradient4422)"/>
<g transform="matrix(.55679 -.40079 .47247 .61135 -202.64 697.78)">
<path d="m381.59 341.31c-64.92-1.226-121.74 62.878-112.62 127.19 6.5531 55.156 57.518 102.6 113.81 101.16 55.385 0.2976 108.27-44.675 113.42-100.42 6.4528-51.299-25.898-105.74-75.702-121.49-12.451-4.4076-25.657-6.8377-38.906-6.4375zm2 34.594c44.885-0.4668 85.35 44.534 77.781 89.344-4.6236 42.037-47.734 76.501-89.992 68.47-36.449-4.9234-67.805-37.979-67.789-75.501-1.4903-33.549 20.537-66.977 52.688-77.5 8.7297-3.1749 18.019-4.7156 27.312-4.8125z" fill="#babdb6"/>
<path d="m381.59 341.31c-64.92-1.226-121.74 62.878-112.62 127.19 6.5531 55.156 57.518 102.6 113.81 101.16 55.385 0.2976 108.27-44.675 113.42-100.42 6.4528-51.299-25.898-105.74-75.702-121.49-12.451-4.4076-25.657-6.8377-38.906-6.4375zm2 34.594c44.885-0.4668 85.35 44.534 77.781 89.344-4.6236 42.037-47.734 76.501-89.992 68.47-36.449-4.9234-67.805-37.979-67.789-75.501-1.4903-33.549 20.537-66.977 52.688-77.5 8.7297-3.1749 18.019-4.7156 27.312-4.8125z" fill="url(#linearGradient4424)"/>
</g>
<g transform="matrix(.50483 -.36339 .42839 .55431 -162.68 709.45)">
<path d="m381.81 369.03c-50.174-0.2905-93.32 50.382-84.642 99.926 7.3623 46.032 56.807 81.616 102.87 71.068 44.982-9.0088 78.536-58.169 66.892-103.35-8.7952-38.17-45.311-68.805-85.125-67.642zm0.6477 17.391c43.773-1.7819 80.389 47.592 66.422 88.736-11.297 40.086-63.83 62.01-99.617 40.579-36.879-19.31-47.639-75.888-17.795-105.86 12.865-14.445 31.736-23.241 50.99-23.457z" fill="#eeeeec"/>
<path d="m381.81 369.03c-50.174-0.2905-93.32 50.382-84.642 99.926 7.3623 46.032 56.807 81.616 102.87 71.068 44.982-9.0088 78.536-58.169 66.892-103.35-8.7952-38.17-45.311-68.805-85.125-67.642zm0.6477 17.391c43.773-1.7819 80.389 47.592 66.422 88.736-11.297 40.086-63.83 62.01-99.617 40.579-36.879-19.31-47.639-75.888-17.795-105.86 12.865-14.445 31.736-23.241 50.99-23.457z" fill="url(#linearGradient4426)"/>
</g>
<path d="m167.08 748.63c-34.304 24.096-40.486 78.501-13.985 117.28 23.732 35.482 71.051 54.811 108.13 42.711 36.22-11.094 59.752-49.418 52.637-89.075-5.6932-35.591-33.755-69.929-69.046-80.984-27.019-9.1323-56.986-5.9351-77.733 10.066zm116.82 32.158c27.308 35.335 23.357 82.758-8.8236 105.92s-80.406 13.299-107.71-22.036-23.357-82.758 8.8236-105.92 80.406-13.299 107.71 22.036z" fill="#888a85"/>
<path fill-rule="evenodd" stroke="#204a87" stroke-width="7.0385" d="m432.77 657.35-202.89 28.472v0.394h-0.4083v205.35c-11.728-8.573-27.993-13.893-45.978-13.893-35.739 0-64.719 20.97-64.719 46.838s28.98 46.838 64.719 46.838 64.706-20.97 64.706-46.838c0-2.5851-0.2995-5.1169-0.856-7.5882v-165.28l167.57-26.412v140.3c-11.728-8.573-27.993-13.893-45.978-13.893-35.739 0-64.719 20.97-64.719 46.838s28.98 46.838 64.719 46.838 64.706-20.97 64.706-46.838c0-2.5851-0.2995-5.1169-0.856-7.5882v-230.71h-0.0131v-2.8344z" fill="#3465a4"/>
<path opacity=".475" stroke="#fff" stroke-width="4.5543" d="m235.49 690.75c-0.2593 71.039-0.0483 142.08-0.1185 213.12-24.202-24.623-67.956-27.406-95.735-6.7876-9.9621 7.7551-17.149 20.348-14.436 32.863 2.7574 13.865 14.736 24.344 27.791 29.648 22.902 9.7712 51.162 7.8415 71.923-5.9231 10.484-7.169 18.766-19.263 17.161-32.145-1.2915-11.129-0.3726-22.324-0.6322-33.492v-141.19c59.787-9.4393 119.57-18.88 179.37-28.281 0 53.092-0.00004 106.18 0 159.28-24.242-24.665-68.085-27.407-95.866-6.6985-9.7213 7.6663-16.877 19.997-14.382 32.374 2.5239 13.507 13.805 23.989 26.446 29.4 23.112 10.519 52.16 8.7623 73.345-5.2749 10.484-7.169 18.766-19.263 17.161-32.145-1.2915-11.129-0.3726-22.324-0.6322-33.492-0.004-66.023 0.009-132.05-0.0131-198.07l-191.38 26.819z" fill="none"/>
<path opacity=".613" d="m235.49 690.75c-0.2593 71.039-0.0483 142.08-0.1185 213.12-24.202-24.623-67.956-27.406-95.735-6.7876-9.9621 7.7551-17.149 20.348-14.436 32.863 2.7574 13.865 14.736 24.344 27.791 29.648 22.902 9.7712 51.162 7.8415 71.923-5.9231 10.484-7.169 18.766-19.263 17.161-32.145-1.2915-11.129-0.3726-22.324-0.6322-33.492v-141.19c59.787-9.4393 119.57-18.88 179.37-28.281 0 53.092-0.00004 106.18 0 159.28-24.242-24.665-68.085-27.407-95.866-6.6985-9.7213 7.6663-16.877 19.997-14.382 32.374 2.5239 13.507 13.805 23.989 26.446 29.4 23.112 10.519 52.16 8.7623 73.345-5.2749 10.484-7.169 18.766-19.263 17.161-32.145-1.2915-11.129-0.3726-22.324-0.6322-33.492-0.004-66.023 0.009-132.05-0.0131-198.07l-191.38 26.819z" fill="url(#radialGradient4428)"/>
<path opacity=".613" d="m235.49 690.75c-0.2593 71.039-0.0483 142.08-0.1185 213.12-24.202-24.623-67.956-27.406-95.735-6.7876-9.9621 7.7551-17.149 20.348-14.436 32.863 2.7574 13.865 14.736 24.344 27.791 29.648 22.902 9.7712 51.162 7.8415 71.923-5.9231 10.484-7.169 18.766-19.263 17.161-32.145-1.2915-11.129-0.3726-22.324-0.6322-33.492v-141.19c59.787-9.4393 119.57-18.88 179.37-28.281 0 53.092-0.00004 106.18 0 159.28-24.242-24.665-68.085-27.407-95.866-6.6985-9.7213 7.6663-16.877 19.997-14.382 32.374 2.5239 13.507 13.805 23.989 26.446 29.4 23.112 10.519 52.16 8.7623 73.345-5.2749 10.484-7.169 18.766-19.263 17.161-32.145-1.2915-11.129-0.3726-22.324-0.6322-33.492-0.004-66.023 0.009-132.05-0.0131-198.07l-191.38 26.819z" fill="url(#radialGradient4430)"/>
</g>
</g>
</svg>
