<svg viewBox="0 0 453.5433 453.5433" xmlns="http://www.w3.org/2000/svg" xmlns:xlink="http://www.w3.org/1999/xlink">
<defs>
<linearGradient id="linearGradient3984">
<stop offset="0" stop-color="#fff"/>
<stop offset="1" stop-color="#fff" stop-opacity="0"/>
</linearGradient>
<linearGradient gradientUnits="userSpaceOnUse" id="linearGradient4424" x1="486.7862" x2="190.8115" y1="311.9588" y2="525.1664">
<stop offset="0" stop-color="#fff" stop-opacity=".18"/>
<stop offset=".515" stop-color="#fff"/>
<stop offset="1" stop-color="#fff" stop-opacity="0"/>
</linearGradient>
<linearGradient gradientUnits="userSpaceOnUse" id="linearGradient4426" x1="353.6331" x2="405.627" y1="403.9296" y2="455.4474">
<stop offset="0" stop-color="#fff" stop-opacity=".64"/>
<stop offset="1" stop-color="#fff" stop-opacity="0"/>
</linearGradient>
<radialGradient cx="382.8438" cy="455.3594" gradientTransform="matrix(.54861,-.3949,.46551,.60234,-196.16618,697.58364)" gradientUnits="userSpaceOnUse" id="radialGradient4422" r="291.9375">
<stop offset="0" stop-color="#555753" stop-opacity=".011"/>
<stop offset=".002" stop-color="#555753" stop-opacity=".226"/>
<stop offset=".004" stop-color="#555753" stop-opacity=".012"/>
<stop offset=".008" stop-color="#555753" stop-opacity=".012"/>
<stop offset=".016" stop-color="#555753" stop-opacity=".073"/>
<stop offset=".031" stop-color="#555753" stop-opacity=".016"/>
<stop offset=".062" stop-color="#555753" stop-opacity=".011"/>
<stop offset=".125" stop-color="#555753" stop-opacity=".367"/>
<stop offset=".25" stop-color="#555753" stop-opacity=".006"/>
<stop offset=".5" stop-color="#555753" stop-opacity=".023"/>
<stop offset=".75" stop-color="#555753" stop-opacity=".198"/>
<stop offset=".875" stop-color="#555753" stop-opacity=".181"/>
<stop offset=".938" stop-color="#555753" stop-opacity=".288"/>
<stop offset="1" stop-color="#555753" stop-opacity=".073"/>
</radialGradient>
<radialGradient cx="880.1393" cy="838.9913" gradientTransform="matrix(.15837,.01401,-.01162,.12231,46.05442,805.04513)" gradientUnits="userSpaceOnUse" id="radialGradient4428" r="365.0797" xlink:href="#linearGradient3984"/>
<radialGradient cx="1989.9366" cy="503.58" gradientTransform="matrix(.15837,.01401,-.01162,.12231,46.05442,805.04513)" gradientUnits="userSpaceOnUse" id="radialGradient4430" r="365.0797" xlink:href="#linearGradient3984"/>
</defs>
<title>itunes</title>
<g transform="translate(0,-598.8189)">
<g transform="matrix(1,0,0,1.01301,0,-7.8464)">
<path d="m190.837,782.7429c-20.495,15.1832-21.2377,50.6666-.5725,71.1988 16.4112,17.3133 44.2371,23.4295 62.3124,11.5352 17.3089-10.4347 25.2436-33.5936 16.8742-54.4736-6.7478-18.7271-24.8029-34.2518-44.2881-36.6336-12.5228-1.8756-25.1253.9343-34.326,8.3732zm4.2181,2.7457c15.5958-11.7453 40.7584-8.9022 56.6622,6.2927 16.2658,14.627 21.3082,39.4303 11.4245,56.2224-9.0065,16.664-31.0052,23.7067-50.3592,16.0565-20.4648-7.3208-35.4054-29.9063-33.24-50.4525 .8863-11.4204 6.5745-21.7538 15.5125-28.1191z" fill="#babdb6"/>
<path d="m87.7471,644.2577c-89.7714,64.6195-100.7918,196.9131-24.6144,295.4818s210.6943,126.0715 300.4657,61.452 100.8065-196.894 24.6291-295.4627-210.709-126.0906-300.4804-61.4711zm99.7892,129.401c6.3363-4.6904 13.9088-7.7585 21.9223-9.0903 17.4494-2.8732 37.067,3.0221 51.5884,15.7007 15.4128,13.3421 24.6915,33.7287 23.5305,52.6964-.8237,16.0866-8.7408,30.8148-21.3218,39.5801-13.0639,9.1458-30.9896,11.5551-47.6379,6.5799-19.556-5.4938-36.8626-21.7727-44.3195-40.9134-9.7787-23.7513-2.7624-51.2059 16.238-64.5534z" fill="#eeeeec" fill-rule="evenodd" stroke="#888a85" stroke-width="12.3733"/>
<path d="m167.0829,748.6319c-34.3035,24.0962-40.4861,78.501-13.9848,117.2822 23.7323,35.4819 71.0511,54.8108 108.1279,42.7111 36.2202-11.0943 59.7517-49.4179 52.6368-89.0754-5.6932-35.5908-33.7554-69.9294-69.0465-80.9835-27.0191-9.1323-56.9862-5.9351-77.7334,10.0656zm116.8208,32.1575c27.3078,35.3346 23.3574,82.7576-8.8236,105.9222s-80.4062,13.2989-107.7141-22.0357-23.3574-82.7576 8.8236-105.9222 80.4062-13.2989 107.7141,22.0357z" fill="#888a85"/>
<path d="m175.8111,759.6341c-31.9676,22.2458-34.8312,75.1679-5.7412,108.1289 25.0214,29.4249 70.109,40.5096 99.6043,22.0344 28.5938-16.5928 40.8209-55.9584 25.2794-89.469-13.1328-31.1168-46.779-54.782-79.061-53.5135-14.7054.0438-28.9809,4.2721-40.0814,12.8192zm7.4309,8.7286c24.5345-18.7019 66.2114-12.0528 88.7281,14.6056 20.7226,23.1533 25.2065,58.9617 8.505,81.369-14.9642,21.7477-46.3447,30.1696-73.1113,18.2491-26.0574-10.6129-46.5468-38.0932-46.7381-65.354-.6673-19.5065 7.4756-38.1858 22.6163-48.8697z" fill="#babdb6"/>
<path d="m86.1251,650.8529c-67.5945,50.5705-87.4123,152.6906-49.5283,237.7346 24.8173,57.0532 75.6909,103.3344 132.7409,126.1985 54.2874,22.2691 115.1606,23.6774 163.3838-.291 64.1908-31.1 106.147-100.1683 102.3939-175.5913-3.9235-82.3726-60.8731-167.0272-139.115-203.3755-70.4247-33.0357-153.7924-28.3302-209.3622,14.9407l-.513.3841zm10.6831,5.1053c58.2185-43.0197 146.7719-43.443 215.6949-.9252 63.3115,38.0111 108.9358,109.3705 112.0779,179.6768 4.3589,65.9062-25.9833,129.2874-79.8207,161.2767-50.319,31.051-118.6532,34.9736-178.454,8.0954-58.6929-25.3926-108.3458-77.9521-128.1674-138.4425-20.6582-60.1756-12.9856-126.2609 21.7073-172.7514 10.3215-14.1722 22.7527-26.6277 36.9619-36.9298z" fill="#fff"/>
<path d="m88.8477,647.5388c-42.4813,31.0575-68.7771,81.9279-71.3181,136.9792-3.1976,55.7391 18.0878,115.2911 57.4365,160.6754 39.6609,46.7617 97.7355,77.6343 155.3351,83.2143 56.3952,6.1189 111.7724-12.1993 149.6762-49.0855 40.7367-38.7897 60.4298-98.1782 52.9507-158.117-6.8401-60.8457-42.2032-121.0957-93.1546-160.163-50.8523-39.404-115.8912-56.6271-173.9713-46.2703-28.3321,4.9455-54.6379,16.2002-76.9545,32.7669zm97.606,124.1935c18.3661-14.4696 47.1865-13.7872 68.6394,1.0781 23.1,15.3271 35.6292,45.8689 28.3127,70.0968-5.5031,20.7992-24.0833,36.0447-46.1532,37.164-22.168,1.9089-46.2437-10.5516-59.381-30.5622-13.5128-19.3865-14.985-44.9346-4.3182-63.1092 3.2624-5.7201 7.6075-10.7506 12.9002-14.6675z" fill="url(#radialGradient4422)" fill-rule="evenodd"/>
<g transform="matrix(.55679,-.40079,.47247,.61135,-202.63588,697.77947)">
<path d="m381.5938,341.3125c-64.9195-1.226-121.7375,62.8776-112.625,127.1875 6.5531,55.1557 57.5177,102.6015 113.8125,101.1562 55.3847.2976 108.2726-44.6754 113.4206-100.42 6.4528-51.2991-25.8982-105.7375-75.7018-121.4863-12.4506-4.4076-25.6566-6.8377-38.9062-6.4375zm2,34.5938c44.885-.4668 85.3504,44.5335 77.7812,89.3438-4.6236,42.0372-47.7335,76.5007-89.9923,68.4697-36.4494-4.9234-67.8054-37.9791-67.789-75.501-1.4903-33.5486 20.537-66.9769 52.6875-77.5 8.7297-3.1749 18.0191-4.7156 27.3125-4.8125z" fill="#babdb6"/>
<path d="m381.5938,341.3125c-64.9195-1.226-121.7375,62.8776-112.625,127.1875 6.5531,55.1557 57.5177,102.6015 113.8125,101.1562 55.3847.2976 108.2726-44.6754 113.4206-100.42 6.4528-51.2991-25.8982-105.7375-75.7018-121.4863-12.4506-4.4076-25.6566-6.8377-38.9062-6.4375zm2,34.5938c44.885-.4668 85.3504,44.5335 77.7812,89.3438-4.6236,42.0372-47.7335,76.5007-89.9923,68.4697-36.4494-4.9234-67.8054-37.9791-67.789-75.501-1.4903-33.5486 20.537-66.9769 52.6875-77.5 8.7297-3.1749 18.0191-4.7156 27.3125-4.8125z" fill="url(#linearGradient4424)"/>
</g>
<g transform="matrix(.50483,-.36339,.42839,.55431,-162.67603,709.44998)">
<path d="m381.8141,369.0332c-50.1739-.2905-93.3202,50.382-84.642,99.9261 7.3623,46.0324 56.807,81.6165 102.8749,71.0683 44.9822-9.0088 78.5361-58.1686 66.8917-103.3522-8.7952-38.17-45.3106-68.8046-85.1247-67.6421zm.6477,17.3909c43.7726-1.7819 80.389,47.5922 66.4223,88.7357-11.2969,40.0862-63.8297,62.0096-99.6172,40.5788-36.8786-19.3101-47.6393-75.8885-17.7949-105.8571 12.8654-14.445 31.7357-23.2414 50.9898-23.4574z" fill="#eeeeec"/>
<path d="m381.8141,369.0332c-50.1739-.2905-93.3202,50.382-84.642,99.9261 7.3623,46.0324 56.807,81.6165 102.8749,71.0683 44.9822-9.0088 78.5361-58.1686 66.8917-103.3522-8.7952-38.17-45.3106-68.8046-85.1247-67.6421zm.6477,17.3909c43.7726-1.7819 80.389,47.5922 66.4223,88.7357-11.2969,40.0862-63.8297,62.0096-99.6172,40.5788-36.8786-19.3101-47.6393-75.8885-17.7949-105.8571 12.8654-14.445 31.7357-23.2414 50.9898-23.4574z" fill="url(#linearGradient4426)"/>
</g>
<path d="m167.0829,748.6319c-34.3035,24.0962-40.4861,78.501-13.9848,117.2822 23.7323,35.4819 71.0511,54.8108 108.1279,42.7111 36.2202-11.0943 59.7517-49.4179 52.6368-89.0754-5.6932-35.5908-33.7554-69.9294-69.0465-80.9835-27.0191-9.1323-56.9862-5.9351-77.7334,10.0656zm116.8208,32.1575c27.3078,35.3346 23.3574,82.7576-8.8236,105.9222s-80.4062,13.2989-107.7141-22.0357-23.3574-82.7576 8.8236-105.9222 80.4062-13.2989 107.7141,22.0357z" fill="#888a85"/>
<path d="m432.7653,657.3487-202.8882,28.4716v.394h-.4083v205.3515c-11.7278-8.573-27.9926-13.8926-45.9775-13.8926-35.7387,0-64.7188,20.97-64.7188,46.8383s28.9801,46.8383 64.7188,46.8383 64.7056-20.97 64.7056-46.8383c0-2.5851-.2995-5.1169-.856-7.5882v-165.2752l167.5655-26.4125v140.299c-11.7278-8.573-27.9926-13.8926-45.9775-13.8926-35.7387,0-64.7188,20.97-64.7188,46.8383s28.98,46.8383 64.7188,46.8383 64.7056-20.97 64.7056-46.8383c0-2.5851-.2995-5.1169-.856-7.5882v-230.709h-.0131v-2.8344z" fill="#3465a4" fill-rule="evenodd" stroke="#204a87" stroke-width="7.0385"/>
<path d="m235.4876,690.752c-.2593,71.039-.0483,142.0785-.1185,213.1176-24.2023-24.6229-67.9563-27.4062-95.7346-6.7876-9.9621,7.7551-17.1487,20.3477-14.4361,32.8626 2.7574,13.8647 14.7365,24.3439 27.7906,29.648 22.9021,9.7712 51.1615,7.8415 71.9229-5.9231 10.4838-7.169 18.766-19.2626 17.1609-32.145-1.2915-11.1288-.3726-22.3245-.6322-33.4923v-141.1887c59.7866-9.4393 119.5729-18.8804 179.3661-28.281 0,53.0919-4e-05,106.1839 0,159.2758-24.2421-24.6646-68.0851-27.4068-95.8665-6.6985-9.7213,7.6663-16.877,19.9972-14.3819,32.3738 2.5239,13.507 13.8048,23.9891 26.4459,29.3995 23.1122,10.5193 52.1602,8.7623 73.3453-5.2749 10.4838-7.169 18.766-19.2626 17.1609-32.145-1.2915-11.1288-.3726-22.3245-.6322-33.4923-.004-66.0228.009-132.0456-.0131-198.0684l-191.3773,26.8192z" fill="none" opacity=".475" stroke="#fff" stroke-width="4.5543"/>
<path d="m235.4876,690.752c-.2593,71.039-.0483,142.0785-.1185,213.1176-24.2023-24.6229-67.9563-27.4062-95.7346-6.7876-9.9621,7.7551-17.1487,20.3477-14.4361,32.8626 2.7574,13.8647 14.7365,24.3439 27.7906,29.648 22.9021,9.7712 51.1615,7.8415 71.9229-5.9231 10.4838-7.169 18.766-19.2626 17.1609-32.145-1.2915-11.1288-.3726-22.3245-.6322-33.4923v-141.1887c59.7866-9.4393 119.5729-18.8804 179.3661-28.281 0,53.0919-4e-05,106.1839 0,159.2758-24.2421-24.6646-68.0851-27.4068-95.8665-6.6985-9.7213,7.6663-16.877,19.9972-14.3819,32.3738 2.5239,13.507 13.8048,23.9891 26.4459,29.3995 23.1122,10.5193 52.1602,8.7623 73.3453-5.2749 10.4838-7.169 18.766-19.2626 17.1609-32.145-1.2915-11.1288-.3726-22.3245-.6322-33.4923-.004-66.0228.009-132.0456-.0131-198.0684l-191.3773,26.8192z" fill="url(#radialGradient4428)" opacity=".613"/>
<path d="m235.4876,690.752c-.2593,71.039-.0483,142.0785-.1185,213.1176-24.2023-24.6229-67.9563-27.4062-95.7346-6.7876-9.9621,7.7551-17.1487,20.3477-14.4361,32.8626 2.7574,13.8647 14.7365,24.3439 27.7906,29.648 22.9021,9.7712 51.1615,7.8415 71.9229-5.9231 10.4838-7.169 18.766-19.2626 17.1609-32.145-1.2915-11.1288-.3726-22.3245-.6322-33.4923v-141.1887c59.7866-9.4393 119.5729-18.8804 179.3661-28.281 0,53.0919-4e-05,106.1839 0,159.2758-24.2421-24.6646-68.0851-27.4068-95.8665-6.6985-9.7213,7.6663-16.877,19.9972-14.3819,32.3738 2.5239,13.507 13.8048,23.9891 26.4459,29.3995 23.1122,10.5193 52.1602,8.7623 73.3453-5.2749 10.4838-7.169 18.766-19.2626 17.1609-32.145-1.2915-11.1288-.3726-22.3245-.6322-33.4923-.004-66.0228.009-132.0456-.0131-198.0684l-191.3773,26.8192z" fill="url(#radialGradient4430)" opacity=".613"/>
</g>
</g>
</svg>
