<?xml version="1.0" encoding="UTF-8" standalone="no"?>
<svg id="svg1307" xmlns="http://www.w3.org/2000/svg" height="128" width="128" version="1.0" xmlns:xlink="http://www.w3.org/1999/xlink">
 <defs id="defs1309">
  <linearGradient id="linearGradient2928">
   <stop id="stop2930" stop-color="#f6f6f6" offset="0"/>
   <stop id="stop2932" stop-color="#f6f6f6" stop-opacity="0" offset="1"/>
  </linearGradient>
  <linearGradient id="linearGradient2905">
   <stop id="stop2907" stop-color="#fff" offset="0"/>
   <stop id="stop2909" stop-color="#fff" stop-opacity="0" offset="1"/>
  </linearGradient>
  <radialGradient id="radialGradient3297" gradientUnits="userSpaceOnUse" cy="115.71" cx="63.912" gradientTransform="matrix(1 0 0 .19780 0 92.822)" r="63.912">
   <stop id="stop3293" offset="0"/>
   <stop id="stop3295" stop-opacity="0" offset="1"/>
  </radialGradient>
  <linearGradient id="linearGradient2898" y2="68.546" gradientUnits="userSpaceOnUse" x2="8.878" gradientTransform="matrix(.97642 0 0 .97642 89.254 -30.605)" y1="68.546" x1="-36.688">
   <stop id="stop2894" stop-color="#fff" offset="0"/>
   <stop id="stop2896" stop-color="#fff" stop-opacity="0" offset="1"/>
  </linearGradient>
  <linearGradient id="linearGradient2911" y2="150.66" xlink:href="#linearGradient2905" gradientUnits="userSpaceOnUse" x2="-68.625" gradientTransform="matrix(.97642 0 0 .97642 188.53 -53.552)" y1="162.55" x1="-140.06"/>
  <linearGradient id="linearGradient2915" y2="150.66" xlink:href="#linearGradient2905" gradientUnits="userSpaceOnUse" x2="-68.625" gradientTransform="matrix(-.97642 0 0 .97642 -58.973 -53.552)" y1="159.35" x1="-185.31"/>
  <linearGradient id="linearGradient2934" y2="169.16" xlink:href="#linearGradient2928" gradientUnits="userSpaceOnUse" x2="75.186" gradientTransform="matrix(.97642 0 0 .97642 1.5136 .0095408)" y1="-217.56" x1="91.829"/>
  <linearGradient id="linearGradient2942" y2="169.16" xlink:href="#linearGradient2928" gradientUnits="userSpaceOnUse" x2="75.186" gradientTransform="matrix(.97642 0 0 .97642 1.5136 .0095408)" y1="-92.147" x1="121.81"/>
  <radialGradient id="radialGradient2824" gradientUnits="userSpaceOnUse" cy="140.99" cx="64.203" gradientTransform="matrix(1.3871 0 0 .91142 -24.856 13.662)" r="59.669">
   <stop id="stop2820" stop-color="#fff" offset="0"/>
   <stop id="stop2822" stop-color="#fff" stop-opacity="0" offset="1"/>
  </radialGradient>
 </defs>
 <g id="layer1">
  <path id="path2876" d="m64.127 1.3826c-5.701 0.0729-11.221 2.7578-15.745 9.0324-12.471 3.341-15.686 21.062-16.782 33.381-1.393 15.652 6.616 25.489 17.514 29.72-0.158 1.776-0.554 3.289-1.098 4.211-2.048 3.467-6.698 6.474-14.738 8.757-8.97 2.547-16.086 5.022-21.237 9.551-4.5612 4.005-7.5066 8.645-7.5066 14.585 0 15.42 119.34 16.23 119.34 0 0-5.94-2.94-10.58-7.5-14.585-5.1-4.479-12.21-7.11-21.242-9.673-8.1-2.3-12.746-5.212-14.768-8.635-0.675-1.143-1.095-3.167-1.16-5.523 9.917-4.632 17.762-13.575 18.919-26.76 1.836-20.931-16.891-44.28-33.992-44.061z" stroke-opacity=".20732" stroke="#000" stroke-width="1.9528"/>
  <path id="path2276" d="m50.893 3.2813v-2.7947 2.7947z" fill-opacity=".75688" fill="#fff"/>
  <path id="path3289" opacity=".38140" d="m127.82 115.71a63.912 12.642 0 1 1 -127.82 0 63.912 12.642 0 1 1 127.82 0z" transform="matrix(1 0 0 .41667 .26644 74.258)" fill="url(#radialGradient3297)"/>
  <path id="path2375" d="m64.127 1.3826c-5.701 0.0729-11.221 2.7578-15.745 9.0324-12.471 3.341-15.686 21.062-16.782 33.381-1.393 15.652 6.616 25.489 17.514 29.72-0.158 1.776-0.554 3.289-1.098 4.211-2.048 3.467-6.698 6.474-14.738 8.757-8.97 2.547-16.086 5.022-21.237 9.551-4.5612 4.005-7.5066 8.645-7.5066 14.585 0 15.42 119.34 16.23 119.34 0 0-5.94-2.94-10.58-7.5-14.585-5.1-4.479-12.21-7.11-21.242-9.673-8.1-2.3-12.746-5.212-14.768-8.635-0.675-1.143-1.095-3.167-1.16-5.523 9.917-4.632 17.762-13.575 18.919-26.76 1.836-20.931-16.891-44.28-33.992-44.061z"/>
  <path id="path2878" d="m64.127 1.3826c-5.701 0.0729-11.221 2.7578-15.745 9.0324-12.471 3.341-15.686 21.062-16.782 33.381-1.393 15.652 6.616 25.489 17.514 29.72-0.158 1.776-0.554 3.289-1.098 4.211-2.048 3.467-6.698 6.474-14.738 8.757-8.97 2.547-16.086 5.022-21.237 9.551-4.5612 4.005-7.5066 8.645-7.5066 14.585 0 15.42 119.34 16.23 119.34 0 0-5.94-2.94-10.58-7.5-14.585-5.1-4.479-12.21-7.11-21.242-9.673-8.1-2.3-12.746-5.212-14.768-8.635-0.675-1.143-1.095-3.167-1.16-5.523 9.917-4.632 17.762-13.575 18.919-26.76 1.836-20.931-16.891-44.28-33.992-44.061z"/>
  <path id="path2882" d="m63.806 2.319c-3.601 0.046-7.123 1.1624-10.375 3.5395 2.947-1.8678 7.703-2.1105 10.896-1.8186 15.05 1.3757 34.238 22.173 32.403 43.103-0.909 10.362-5.947 18.101-12.877 23.19 7.479-5.064 12.989-13.063 13.944-23.953 1.836-20.93-16.89-44.28-33.991-44.061z" fill="url(#linearGradient2898)"/>
  <path id="path2900" d="m79.147 75.901c-0.047 0.023-0.098 0.036-0.145 0.058 0.061 2.244 0.461 4.169 1.104 5.258 1.924 3.258 6.347 6.03 14.058 8.219 8.596 2.44 15.366 4.944 20.216 9.208 4 3.516 6.69 7.546 7.09 12.576 0.02-0.16 0.05-0.33 0.05-0.49 0-5.66-2.8-10.07-7.14-13.887-4.85-4.264-11.62-6.768-20.216-9.208-7.711-2.188-12.134-4.961-14.058-8.219-0.469-0.794-0.786-2.031-0.959-3.515z" fill="url(#linearGradient2911)"/>
  <path id="path2913" d="m50.41 75.901c0.047 0.023 0.098 0.036 0.146 0.058-0.062 2.244-0.461 4.169-1.104 5.258-1.925 3.258-6.348 6.03-14.058 8.219-8.594 2.44-15.366 4.944-20.215 9.208-4.001 3.516-6.6885 7.546-7.0872 12.576-0.0254-0.16-0.0581-0.33-0.0581-0.49 0-5.66 2.8033-10.07 7.1453-13.887 4.849-4.264 11.621-6.768 20.215-9.208 7.71-2.188 12.133-4.961 14.058-8.219 0.469-0.794 0.785-2.031 0.958-3.515z" fill="url(#linearGradient2915)"/>
  <path id="path2923" opacity=".19262" d="m64.127 1.3826c-5.701 0.0729-11.221 2.7578-15.745 9.0324-12.471 3.341-15.686 21.062-16.782 33.381-1.393 15.652 6.616 25.489 17.514 29.72-0.158 1.776-0.554 3.289-1.098 4.211-2.048 3.467-6.698 6.474-14.738 8.757-8.97 2.547-16.086 5.022-21.237 9.551-1.107 0.973-2.0933 1.995-2.9906 3.051 34.74 13.124 77.188-5.218 111.4 1.374-1.13-1.565-2.51-3.039-4.08-4.425-5.1-4.479-12.21-7.11-21.242-9.673-8.1-2.3-12.746-5.212-14.768-8.635-0.675-1.143-1.095-3.167-1.16-5.523 9.917-4.632 17.762-13.575 18.919-26.76 1.836-20.931-16.891-44.28-33.992-44.061z" fill="url(#linearGradient2934)"/>
  <path id="path2936" opacity=".14754" d="m64.127 1.3826c-5.701 0.0729-11.221 2.7578-15.745 9.0324-12.471 3.341-15.686 21.062-16.782 33.381-1.009 11.343 2.918 19.615 9.306 24.929 5.593-25.639 19.347-45.542 41.01-59.836-5.48-4.6832-11.731-7.5838-17.789-7.5064zm27.462 19.009c-22.175 18.251-31.657 42.667-29.384 79.243 20.34-0.461 40.535-0.968 58.245 0.825-1.13-1.565-2.51-3.039-4.08-4.425-5.1-4.479-12.21-7.11-21.242-9.673-8.1-2.3-12.746-5.212-14.768-8.635-0.675-1.143-1.095-3.167-1.16-5.523 9.917-4.632 17.762-13.575 18.919-26.76 0.749-8.538-1.942-17.472-6.53-25.052z" fill="url(#linearGradient2942)"/>
  <path id="path1928" opacity=".41803" d="m64.127 1.3826c-5.701 0.0729-11.221 2.7578-15.745 9.0324-12.471 3.341-15.686 21.062-16.782 33.381-1.393 15.652 6.616 25.489 17.514 29.72-0.158 1.776-0.554 3.289-1.098 4.211-2.048 3.467-6.698 6.474-14.738 8.757-8.97 2.547-16.086 5.022-21.237 9.551-4.5612 4.005-7.5066 8.645-7.5066 14.585 0 15.42 119.34 16.23 119.34 0 0-5.94-2.94-10.58-7.5-14.585-5.1-4.479-12.21-7.11-21.242-9.673-8.1-2.3-12.746-5.212-14.768-8.635-0.675-1.143-1.095-3.167-1.16-5.523 9.917-4.632 17.762-13.575 18.919-26.76 1.836-20.931-16.891-44.28-33.992-44.061z" fill="url(#radialGradient2824)"/>
 </g>
</svg>
