<svg id="svg1307" xmlns="http://www.w3.org/2000/svg" height="128" width="128" version="1.0" xmlns:xlink="http://www.w3.org/1999/xlink">
<defs id="defs1309">
<linearGradient id="linearGradient2905">
<stop id="stop2907" stop-color="#fff" offset="0"/>
<stop id="stop2909" stop-color="#fff" stop-opacity="0" offset="1"/>
</linearGradient>
<linearGradient id="linearGradient3155" y2="150.66" xlink:href="#linearGradient2905" gradientUnits="userSpaceOnUse" x2="-68.625" gradientTransform="matrix(.73049 0 0 .73049 174.64 -33.808)" y1="162.55" x1="-140.06"/>
<linearGradient id="linearGradient3158" y2="68.546" gradientUnits="userSpaceOnUse" x2="8.878" gradientTransform="matrix(.73049 0 0 .73049 100.37 -16.64)" y1="68.546" x1="-36.688">
<stop id="stop2894-7" stop-color="#fff" offset="0"/>
<stop id="stop2896-3" stop-color="#fff" stop-opacity="0" offset="1"/>
</linearGradient>
<linearGradient id="linearGradient4632" y2="150.66" xlink:href="#linearGradient2905" gradientUnits="userSpaceOnUse" x2="-68.625" gradientTransform="matrix(-.73049 0 0 .73049 -10.521 -33.808)" y1="159.35" x1="-185.31"/>
<linearGradient id="linearGradient4634" y2="68.546" gradientUnits="userSpaceOnUse" x2="8.878" gradientTransform="matrix(.73049 0 0 .73049 64.84 3.9896)" y1="68.546" x1="-36.688">
<stop id="stop2894-7-4" stop-color="#fff" offset="0"/>
<stop id="stop2896-3-9" stop-color="#fff" stop-opacity="0" offset="1"/>
</linearGradient>
<linearGradient id="linearGradient4636" y2="150.66" xlink:href="#linearGradient2905" gradientUnits="userSpaceOnUse" x2="-68.625" gradientTransform="matrix(.73049 0 0 .73049 139.11 -13.178)" y1="162.55" x1="-140.06"/>
<linearGradient id="linearGradient4638" y2="150.66" xlink:href="#linearGradient2905" gradientUnits="userSpaceOnUse" x2="-68.625" gradientTransform="matrix(-.73049 0 0 .73049 -46.051 -13.178)" y1="159.35" x1="-185.31"/>
</defs>
<path id="path2876-4" d="m81.573 7.2906c-4.2646 0.054484-8.3948 2.0631-11.779 6.757-9.3299 2.4999-11.735 15.757-12.555 24.974-1.0416 11.709 4.9496 19.069 13.103 22.234-0.11881 1.329-0.41466 2.461-0.82182 3.1502-1.532 2.5938-5.0105 4.8438-11.026 6.5516-6.711 1.9053-12.034 3.7567-15.888 7.1452-3.4121 2.9998-5.6157 6.4685-5.6157 10.911 0 11.533 89.282 12.144 89.282 0 0.00001-4.4432-2.2035-7.9122-5.6157-10.911-3.82-3.353-9.14-5.321-15.89-7.239-6.065-1.721-9.54-3.899-11.053-6.46-0.505-0.855-0.819-2.369-0.868-4.132 7.421-3.465 13.291-10.156 14.151-20.02 1.38-15.659-12.634-33.127-25.427-32.963z" stroke-opacity=".20784" stroke="#a0a0a0" stroke-width="1.4609" fill="#a0a0a0"/>
<path id="path2276-8" fill-opacity=".75688" fill="#fff" d="m71.673 8.711v-2.0908 2.0908z"/>
<path id="path2882-6" fill="url(#linearGradient3158)" d="m81.333 7.9911c-2.694 0.034414-5.3289 0.86963-7.7618 2.648 2.2047-1.3974 5.7628-1.5789 8.1516-1.3605 11.259 1.0292 25.614 16.588 24.242 32.247-0.68005 7.7521-4.4491 13.542-9.6337 17.349 5.5953-3.7885 9.7175-9.7728 10.432-17.92 1.38-15.658-12.633-33.127-25.427-32.963z"/>
<path id="path2900-2" fill="url(#linearGradient3155)" d="m92.81 63.04c-0.03523 0.01665-0.07333 0.02696-0.10864 0.04346 0.04584 1.6781 0.34482 3.1189 0.82571 3.933 1.4398 2.4375 4.7488 4.5118 10.517 6.1494 6.4292 1.8253 11.496 3.6988 15.123 6.8883 2.9928 2.6311 5.0037 5.6433 5.302 9.4092 0.019-0.12004 0.0435-0.24661 0.0435-0.3694 0-4.2295-2.0975-7.5314-5.3455-10.387-3.6284-3.1893-8.6933-5.0626-15.124-6.888-5.7688-1.6369-9.0778-3.7115-10.517-6.1489-0.35087-0.59402-0.58803-1.5195-0.71746-2.6297z"/>
<g id="g4624" transform="matrix(1.0926 0 0 1.0677 -.067653 -8.0791)">
<path id="path2913-4" fill="url(#linearGradient4632)" d="m71.311 63.04c0.03523 0.01665 0.07333 0.02696 0.10864 0.04346-0.04584 1.6781-0.34482 3.1189-0.82571 3.933-1.4398 2.4375-4.7488 4.5118-10.517 6.1494-6.4292 1.8253-11.496 3.6988-15.123 6.8883-2.9927 2.6311-5.0037 5.6433-5.302 9.4092-0.01898-0.12004-0.04346-0.24661-0.04346-0.3694 0-4.2295 2.0975-7.5314 5.3455-10.387 3.628-3.1895 8.6948-5.063 15.123-6.8883 5.7683-1.6377 9.0771-3.7119 10.517-6.1494 0.35092-0.5941 0.58757-1.5192 0.71708-2.6292z"/>
<path id="path2876-4-8" d="m46.043 27.92c-4.2646 0.05448-8.3948 2.0631-11.779 6.757-9.3299 2.4999-11.735 15.757-12.555 24.974-1.0416 11.709 4.9496 19.069 13.103 22.234-0.11881 1.329-0.41466 2.461-0.82182 3.1502-1.532 2.5938-5.0105 4.8438-11.026 6.5516-6.711 1.9053-12.034 3.7567-15.888 7.1452-3.4121 2.9998-5.6157 6.4685-5.6157 10.911 0 11.533 89.282 12.144 89.282 0 0.00001-4.4432-2.2035-7.9122-5.6157-10.911-3.82-3.353-9.14-5.321-15.89-7.239-6.065-1.721-9.54-3.899-11.053-6.46-0.505-0.855-0.819-2.369-0.868-4.132 7.421-3.465 13.291-10.156 14.151-20.02 1.38-15.659-12.634-33.127-25.427-32.963z" stroke-opacity=".20784" stroke="#000" stroke-width="1.4609"/>
<path id="path2276-8-5" fill-opacity=".75688" fill="#fff" d="m36.143 29.341v-2.0908 2.0908z"/>
<path id="path2882-6-5" fill="url(#linearGradient4634)" d="m45.803 28.621c-2.694 0.03441-5.3289 0.86963-7.7618 2.648 2.2047-1.3974 5.7628-1.5789 8.1516-1.3605 11.259 1.0292 25.614 16.588 24.242 32.247-0.68005 7.7521-4.4491 13.542-9.6337 17.349 5.5953-3.7885 9.7175-9.7728 10.432-17.92 1.38-15.658-12.633-33.127-25.427-32.963z"/>
<path id="path2900-2-9" fill="url(#linearGradient4636)" d="m57.28 83.67c-0.03523 0.01665-0.07333 0.02696-0.10864 0.04346 0.04584 1.6781 0.34482 3.1189 0.82571 3.933 1.4398 2.4375 4.7488 4.5118 10.517 6.1494 6.4292 1.8253 11.496 3.6988 15.123 6.8883 2.9928 2.6311 5.0037 5.6433 5.302 9.4092 0.019-0.12004 0.0435-0.24661 0.0435-0.3694 0-4.2295-2.0975-7.5314-5.3455-10.387-3.6284-3.1893-8.6933-5.0626-15.124-6.888-5.7688-1.6369-9.0778-3.7115-10.517-6.1489-0.35087-0.59402-0.58803-1.5195-0.71746-2.6297z"/>
<path id="path2913-4-5" fill="url(#linearGradient4638)" d="m35.781 83.67c0.03523 0.01665 0.07333 0.02696 0.10864 0.04346-0.04584 1.6781-0.34482 3.1189-0.82571 3.933-1.4398 2.4375-4.7488 4.5118-10.517 6.1494-6.4292 1.8253-11.496 3.6988-15.123 6.8883-2.9927 2.6311-5.0037 5.6433-5.302 9.4092-0.01898-0.12004-0.04346-0.24661-0.04346-0.3694 0-4.2295 2.0975-7.5314 5.3455-10.387 3.628-3.1895 8.6948-5.063 15.123-6.8883 5.7683-1.6377 9.0771-3.7119 10.517-6.1494 0.35092-0.5941 0.58757-1.5192 0.71708-2.6292z"/>
</g>
</svg>
