<svg id="svg1307" xmlns="http://www.w3.org/2000/svg" height="128" width="128" version="1.0">
<defs id="defs1309">
<linearGradient id="linearGradient2905">
<stop id="stop2907" stop-color="#fff" offset="0"/>
<stop id="stop2909" stop-color="#fff" stop-opacity="0" offset="1"/>
</linearGradient>
<linearGradient id="linearGradient3152" y2="150.66" xlink:href="#linearGradient2905" gradientUnits="userSpaceOnUse" x2="-68.625" gradientTransform="matrix(-.73049 0 0 .73049 -10.521 -33.808)" y1="159.35" x1="-185.31"/>
<linearGradient id="linearGradient3155" y2="150.66" xlink:href="#linearGradient2905" gradientUnits="userSpaceOnUse" x2="-68.625" gradientTransform="matrix(.73049 0 0 .73049 174.64 -33.808)" y1="162.55" x1="-140.06"/>
<linearGradient id="linearGradient3158" y2="68.546" gradientUnits="userSpaceOnUse" x2="8.878" gradientTransform="matrix(.73049 0 0 .73049 100.37 -16.64)" y1="68.546" x1="-36.688">
<stop id="stop2894-7" stop-color="#fff" offset="0"/>
<stop id="stop2896-3" stop-color="#fff" stop-opacity="0" offset="1"/>
</linearGradient>
<linearGradient id="linearGradient3188" y2="169.16" gradientUnits="userSpaceOnUse" x2="75.186" gradientTransform="matrix(.79301 0 0 .79301 -1.7244 22.884)" y1="-217.56" x1="91.829">
<stop id="stop2930" stop-color="#f6f6f6" offset="0"/>
<stop id="stop2932" stop-color="#f6f6f6" stop-opacity="0" offset="1"/>
</linearGradient>
<linearGradient id="linearGradient3191" y2="150.66" xlink:href="#linearGradient2905" gradientUnits="userSpaceOnUse" x2="-68.625" gradientTransform="matrix(-.79301 0 0 .79301 -50.849 -20.617)" y1="159.35" x1="-185.31"/>
<linearGradient id="linearGradient3194" y2="150.66" xlink:href="#linearGradient2905" gradientUnits="userSpaceOnUse" x2="-68.625" gradientTransform="matrix(.79301 0 0 .79301 150.16 -20.617)" y1="162.55" x1="-140.06"/>
<linearGradient id="linearGradient3197" y2="68.546" gradientUnits="userSpaceOnUse" x2="8.878" gradientTransform="matrix(.79301 0 0 .79301 69.535 -1.9802)" y1="68.546" x1="-36.688">
<stop id="stop2894" stop-color="#fff" offset="0"/>
<stop id="stop2896" stop-color="#fff" stop-opacity="0" offset="1"/>
</linearGradient>
</defs>
<path id="path2876-4" d="m81.573 7.2906c-4.2646 0.054484-8.3948 2.0631-11.779 6.757-9.3299 2.4999-11.735 15.757-12.555 24.974-1.0416 11.709 4.9496 19.069 13.103 22.234-0.11881 1.329-0.41466 2.461-0.82182 3.1502-1.532 2.5938-5.0105 4.8438-11.026 6.5516-6.711 1.9053-12.034 3.7567-15.888 7.1452-3.4121 2.9998-5.6157 6.4685-5.6157 10.911 0 11.533 89.282 12.144 89.282 0 0.00001-4.4432-2.2035-7.9122-5.6157-10.911-3.82-3.353-9.14-5.321-15.89-7.239-6.065-1.721-9.54-3.899-11.053-6.46-0.505-0.855-0.819-2.369-0.868-4.132 7.421-3.465 13.291-10.156 14.151-20.02 1.38-15.659-12.634-33.127-25.427-32.963z" stroke-opacity=".20784" stroke="#a0a0a0" stroke-width="1.4609" fill="#a0a0a0"/>
<path id="path2276-8" fill-opacity=".75688" fill="#fff" d="m71.673 8.711v-2.0908 2.0908z"/>
<path id="path2882-6" fill="url(#linearGradient3158)" d="m81.333 7.9911c-2.694 0.034414-5.3289 0.86963-7.7618 2.648 2.2047-1.3974 5.7628-1.5789 8.1516-1.3605 11.259 1.0292 25.614 16.588 24.242 32.247-0.68005 7.7521-4.4491 13.542-9.6337 17.349 5.5953-3.7885 9.7175-9.7728 10.432-17.92 1.38-15.658-12.633-33.127-25.427-32.963z"/>
<path id="path2900-2" fill="url(#linearGradient3155)" d="m92.81 63.04c-0.03523 0.01665-0.07333 0.02696-0.10864 0.04346 0.04584 1.6781 0.34482 3.1189 0.82571 3.933 1.4398 2.4375 4.7488 4.5118 10.517 6.1494 6.4292 1.8253 11.496 3.6988 15.123 6.8883 2.9928 2.6311 5.0037 5.6433 5.302 9.4092 0.019-0.12004 0.0435-0.24661 0.0435-0.3694 0-4.2295-2.0975-7.5314-5.3455-10.387-3.6284-3.1893-8.6933-5.0626-15.124-6.888-5.7688-1.6369-9.0778-3.7115-10.517-6.1489-0.35087-0.59402-0.58803-1.5195-0.71746-2.6297z"/>
<path id="path2913-4" fill="url(#linearGradient3152)" d="m71.311 63.04c0.03523 0.01665 0.07333 0.02696 0.10864 0.04346-0.04584 1.6781-0.34482 3.1189-0.82571 3.933-1.4398 2.4375-4.7488 4.5118-10.517 6.1494-6.4292 1.8253-11.496 3.6988-15.123 6.8883-2.9927 2.6311-5.0037 5.6433-5.302 9.4092-0.01898-0.12004-0.04346-0.24661-0.04346-0.3694 0-4.2295 2.0975-7.5314 5.3455-10.387 3.628-3.1895 8.6948-5.063 15.123-6.8883 5.7683-1.6377 9.0771-3.7119 10.517-6.1494 0.35092-0.5941 0.58757-1.5192 0.71708-2.6292z"/>
<path id="path2876" d="m49.128 23.999c-4.6296 0.05915-9.1132 2.2397-12.787 7.3353-10.128 2.7138-12.74 17.106-13.63 27.112-1.1308 12.711 5.3732 20.701 14.225 24.137-0.12898 1.4427-0.45015 2.6716-0.89216 3.4198-1.6631 2.8158-5.4394 5.2584-11.97 7.1123-7.2854 2.0683-13.064 4.0783-17.248 7.7567-3.7042 3.2565-6.0963 7.0221-6.0963 11.845 0 12.52 96.923 13.183 96.923 0 0.000009-4.8235-2.3921-8.5894-6.0963-11.845-4.143-3.638-9.917-5.775-17.252-7.856-6.579-1.868-10.352-4.233-11.994-7.013-0.549-0.929-0.89-2.573-0.943-4.486 8.055-3.762 14.426-11.025 15.366-21.733 1.491-17-13.718-35.963-27.607-35.785z" stroke-opacity=".20732" stroke="#000" stroke-width="1.586"/>
<path id="path2276" fill-opacity=".75688" fill="#fff" d="m38.38 25.541v-2.2697 2.2697z"/>
<path id="path2882" fill="url(#linearGradient3197)" d="m48.867 24.759c-2.9246 0.03736-5.785 0.94406-8.4262 2.8746 2.3934-1.517 6.2561-1.7141 8.8493-1.477 12.223 1.117 27.807 18.008 26.317 35.007-0.739 8.415-4.83 14.7-10.459 18.834 6.074-4.113 10.549-10.61 11.325-19.454 1.491-16.999-13.717-35.963-27.606-35.785z"/>
<path id="path2900" fill="url(#linearGradient3194)" d="m61.326 84.52c-0.03824 0.01807-0.07961 0.02927-0.11794 0.04718 0.04976 1.8218 0.37433 3.3858 0.89638 4.2696 1.563 2.6461 5.1552 4.898 11.417 6.6757 6.9795 1.9815 12.48 4.0153 16.418 7.4778 3.2489 2.8563 5.432 6.1263 5.7558 10.215 0.02063-0.13032 0.04719-0.26772 0.04719-0.40102 0-4.5915-2.2771-8.176-5.803-11.276-3.938-3.465-9.436-5.498-16.418-7.48-6.262-1.777-9.854-4.029-11.417-6.675-0.381-0.645-0.638-1.65-0.779-2.855z"/>
<path id="path2913" fill="url(#linearGradient3191)" d="m37.987 84.52c0.03824 0.01807 0.07961 0.02927 0.11794 0.04718-0.04976 1.8218-0.37433 3.3858-0.89638 4.2696-1.563 2.6461-5.1552 4.898-11.417 6.6757-6.9795 1.9815-12.48 4.0153-16.418 7.4778-3.2489 2.8563-5.432 6.1263-5.7558 10.215-0.020602-0.13032-0.047184-0.26772-0.047184-0.40102 0-4.5915 2.2771-8.176 5.803-11.276 3.9385-3.4625 9.4389-5.4963 16.418-7.4778 6.262-1.7778 9.8539-4.0296 11.417-6.6757 0.38095-0.64494 0.63785-1.6492 0.77845-2.8543z"/>
<path id="path2923" opacity=".19262" fill="url(#linearGradient3188)" d="m49.128 23.999c-4.6296 0.05915-9.1132 2.2397-12.787 7.3353-10.128 2.7138-12.74 17.106-13.63 27.112-1.1308 12.711 5.3732 20.701 14.225 24.137-0.12898 1.4427-0.45015 2.6716-0.89216 3.4198-1.6631 2.8158-5.4394 5.2584-11.97 7.1123-7.2859 2.0678-13.065 4.0779-17.249 7.7561-0.89906 0.79023-1.7001 1.6203-2.4288 2.4779 28.214 10.659 62.689-4.2378 90.475 1.1159-0.91774-1.271-2.0385-2.4682-3.3136-3.5938-4.142-3.636-9.916-5.773-17.252-7.855-6.578-1.868-10.351-4.233-11.994-7.013-0.548-0.928-0.889-2.572-0.942-4.485 8.054-3.762 14.426-11.025 15.366-21.734 1.491-16.999-13.719-35.962-27.607-35.784z"/>
</svg>
