<?xml version="1.0" encoding="UTF-8" standalone="no"?>
<svg id="svg3809" xmlns="http://www.w3.org/2000/svg" height="64" width="64" version="1.1">
 <defs id="defs3811">
  <linearGradient id="linearGradient4416" y2="7" gradientUnits="userSpaceOnUse" x2="26.212" gradientTransform="matrix(-1.4054 0 0 1.4054 804.7 154.1)" y1="44" x1="26.212">
   <stop id="stop4145" stop-color="#197cf1" offset="0"/>
   <stop id="stop4147" stop-color="#20bcfa" offset="1"/>
  </linearGradient>
  <linearGradient id="linearGradient4144" y2="2" gradientUnits="userSpaceOnUse" y1="30" gradientTransform="matrix(2 0 0 2 735.86 152.93)" x2="16" x1="16">
   <stop id="stop4292" stop-color="#7cbaf8" offset="0"/>
   <stop id="stop4294" stop-color="#f4fcff" offset="1"/>
  </linearGradient>
  <linearGradient id="linearGradient4191" y2="23" gradientUnits="userSpaceOnUse" y1="9" gradientTransform="matrix(2 0 0 2 -.99999 -5)" x2="23" x1="9">
   <stop id="stop4229" stop-color="#292c2f" offset="0"/>
   <stop id="stop4231" stop-opacity="0" offset="1"/>
  </linearGradient>
 </defs>
 <g id="layer1" transform="translate(-736.86 -157.93)">
  <path id="path4445" d="m794.86 163.93v37.946h-25.297l-14.054 14.054v-14.054h-12.649v-37.946z" fill-rule="evenodd" fill="url(#linearGradient4416)"/>
  <path id="path4184" opacity=".2" d="m33 13l-4 4 4 4-4 16 6.945 6.945h22.055v-5.945l-25-25z" fill-rule="evenodd" transform="translate(736.86 157.93)" fill="url(#linearGradient4191)"/>
  <path id="rect4133" d="m765.86 170.93v4h4v-4zm0 8v16h4v-16z" fill="url(#linearGradient4144)"/>
  <path id="path4256" d="m6 42.945v1h12.648v-1h-12.648zm26.703 0l-14.055 14.055v1l14.055-14.055h25.297v-1h-25.297z" fill-rule="evenodd" transform="translate(736.86 157.93)" fill="#0c69cf"/>
 </g>
</svg>
