<?xml version="1.0" encoding="UTF-8" standalone="no"?>
<svg id="svg3809" xmlns="http://www.w3.org/2000/svg" height="64" width="64" version="1.1">
 <defs id="defs3811">
  <linearGradient id="linearGradient4416" y2="7" gradientUnits="userSpaceOnUse" x2="26.212" gradientTransform="matrix(-1.4054 0 0 1.4054 804.7 154.1)" y1="44" x1="26.212">
   <stop id="stop4145-8" stop-color="#faae2a" offset="0"/>
   <stop id="stop4147-0" stop-color="#ffc35a" offset="1"/>
  </linearGradient>
  <linearGradient id="linearGradient4144" y2="2" gradientUnits="userSpaceOnUse" y1="30" gradientTransform="matrix(2,0,0,-2,0,53)" x2="16" x1="16">
   <stop id="stop4157" stop-color="#fcd994" offset="0"/>
   <stop id="stop4159" stop-color="#fff6e1" offset="1"/>
  </linearGradient>
  <linearGradient id="linearGradient4191" y2="41" gradientUnits="userSpaceOnUse" x2="45" y1="13" x1="17">
   <stop id="stop4229" stop-color="#292c2f" offset="0"/>
   <stop id="stop4231" stop-opacity="0" offset="1"/>
  </linearGradient>
 </defs>
 <g id="layer1" transform="translate(-736.86 -157.93)">
  <path id="path4445" d="m794.86 163.93v37.946h-25.297l-14.054 14.054v-14.054h-12.649v-37.946z" fill-rule="evenodd" fill="url(#linearGradient4416)"/>
  <path id="path4256" d="m6 42.945v1h12.648v-1h-12.648zm26.703 0l-14.055 14.055v1l14.055-14.055h25.297v-1h-25.297z" fill-rule="evenodd" transform="translate(736.86 157.93)" fill="#e59305"/>
  <path id="path4186" opacity=".2" d="m32 13v2l12 20.785 0.701 1.215h-25.701l10.324 10.324 3.379-3.379h25.297v-4.945l-26-26z" fill-rule="evenodd" transform="translate(736.86 157.93)" fill="url(#linearGradient4191)"/>
  <path id="rect4133" d="m32 13-13.146 24h1.138l0.008-0.014v0.014h24v-0.01367l0.0078 0.01367h1.1387zm0 2.076 11.461 20.924h-22.922zm-1 4.924v10h2v-10zm0 12v2h2v-2z" transform="translate(736.86 157.93)" fill="url(#linearGradient4144)"/>
 </g>
</svg>
