<?xml version="1.0" encoding="UTF-8" standalone="no"?>
<svg id="svg3809" xmlns="http://www.w3.org/2000/svg" height="64" width="64" version="1.1">
 <defs id="defs3811">
  <linearGradient id="linearGradient4394" y2="44" gradientUnits="userSpaceOnUse" x2="44" gradientTransform="translate(0,-7)" y1="20" x1="20">
   <stop id="stop4402" stop-color="#020303" offset="0"/>
   <stop id="stop4404" stop-color="#424649" stop-opacity="0" offset="1"/>
  </linearGradient>
  <linearGradient id="linearGradient4179" y2="177.93" gradientUnits="userSpaceOnUse" x2="768.86" gradientTransform="translate(0,-7)" y1="201.93" x1="768.86">
   <stop id="stop4346" stop-color="#ed868d" offset="0"/>
   <stop id="stop4348" stop-color="#fbe6e8" offset="1"/>
  </linearGradient>
  <linearGradient id="linearGradient4416" y2="7" gradientUnits="userSpaceOnUse" x2="26.212" gradientTransform="matrix(-1.4054 0 0 1.4054 804.7 154.1)" y1="44" x1="26.212">
   <stop id="stop4437" stop-color="#c61423" offset="0"/>
   <stop id="stop4439" stop-color="#dc2b41" offset="1"/>
  </linearGradient>
 </defs>
 <g id="layer1" transform="translate(-736.86 -157.93)">
  <path id="path4445" d="m794.86 163.93v37.946h-25.297l-14.054 14.054v-14.054h-12.649v-37.946z" fill-rule="evenodd" fill="url(#linearGradient4416)"/>
  <path id="path4389" opacity=".2" d="m44 14.414l-22.469 22.617 9.043 9.043 2.129-2.129h17a26 26 0 0 0 8.08 -15.748l-13.783-13.783z" fill-rule="evenodd" transform="translate(736.86 157.93)" fill="url(#linearGradient4394)"/>
  <path id="rect4168" fill="url(#linearGradient4179)" d="m779.44 170.93 1.4141 1.4141-10.586 10.586 10.586 10.586-1.4141 1.4141-10.586-10.586-10.586 10.586-1.4141-1.4141 10.586-10.586-10.586-10.586 1.4141-1.4141 10.586 10.586 10.586-10.586z"/>
  <path id="path4256" d="m6 42.945v1h12.648v-1h-12.648zm26.703 0l-14.055 14.055v1l14.055-14.055h25.297v-1h-25.297z" fill-rule="evenodd" transform="translate(736.86 157.93)" fill="#aa111e"/>
 </g>
</svg>
