<svg viewBox="0 0 365.62958 367.73712" xmlns="http://www.w3.org/2000/svg">
<title>Six Sided Dice</title>
<g transform="translate(-117.1457,-272.3622)">
<path d="m328.7338,272.3636c-1.0593-.0232-2.2036.2392-3.6545.7307l-160.7956,47.2156c-1.338.3127-1.2603.6733-.1462,1.5349l142.7427,113.9456c2.6283,2.1791 3.8646,2.4492 7.5282,1.3156l160.0647-55.4745c3.6722-1.3494 3.9274-1.6778.1464-4.1662l-140.4769-102.763c-2.1688-1.5284-3.6434-2.3049-5.4085-2.3387zm-18.3454,13.8138c3.2021-.0232 6.5824.3283 10.0863,1.0963 14.0157,3.073 23.9561,11.6383 22.1459,19.0764s-14.6352,10.9666-28.6507,7.8935-23.9562-11.5651-22.146-19.0032c1.3576-5.5785 8.9586-9.0156 18.5645-9.063zm-90.6303,27.5545c3.2021-.0232 6.6554.3281 10.1594,1.0964 14.0156,3.073 23.883,11.5652 22.0728,19.003s-14.6352,11.0396-28.6508,7.9667-23.883-11.638-22.0728-19.0761c1.3577-5.5785 8.8855-8.9426 18.4914-8.99zm137.3341,7.0164c3.202-.0232 6.6555.4013 10.1594,1.1695 14.0157,3.0728 23.8829,11.5651 22.0729,19.0031s-14.6352,10.9665-28.6508,7.8935-23.8831-11.5651-22.0729-19.0031c1.3577-5.5783 8.8855-9.0156 18.4915-9.063zm-202.8948,8.8438c-.2935.0748-.3883.5333-.5847,1.4619l-36.2522,181.3334c-.4224,1.8862-.3482,2.3536 1.3887,3.8739l137.6995,118.6962c3.2029,3.0612 3.8757,3.0218 4.3122-.7309l40.1259-183.8915c.8408-2.5054-.0249-3.8837-1.4618-5.0432l-143.7659-114.8226c-.74-.6243-1.1682-.9515-1.4618-.8772zm111.826,20.6841c3.202-.0232 6.6554.3281 10.1594,1.0965 14.0156,3.073 23.883,11.5651 22.0728,19.003s-14.6352,10.9666-28.6509,7.8937-23.8829-11.5652-22.0728-19.0031c1.3576-5.5787 8.8856-8.9426 18.4915-8.9901zm138.7959,6.0664c3.202-.0232 6.6554.3281 10.1594,1.0963 14.0156,3.0731 23.883,11.5651 22.0728,19.0032s-14.6352,11.0398-28.6509,7.9668-23.883-11.6383-22.0728-19.0763c1.3577-5.5783 8.8856-8.9423 18.4915-8.9899zm-241.7051,6.651c.5401-.0537 1.1314-.0294 1.681,0 6.5957.3492 13.738,6.5306 17.9068,16.4452 5.5583,13.2193 3.7052,28.0551-4.093,33.1091s-18.634-1.5446-24.1924-14.764-3.7054-28.0551 4.093-33.1091c1.4621-.9477 2.9845-1.5207 4.6045-1.6812zm150.6363,23.8271c3.202-.0231 6.6554.3282 10.1593,1.0965 14.0157,3.0728 23.8831,11.5651 22.0729,19.003s-14.6353,10.9666-28.6508,7.8936-23.883-11.5651-22.0728-19.0032c1.3576-5.5785 8.8855-8.9425 18.4914-8.99zm168.1777,5.0431c-.3073.0632-.7394.1709-1.2425.3654l-164.3771,57.0094c-3.348,1.3784-3.2476,1.9411-3.8007,4.4584l-40.0526,183.3069c-.136,2.6988-1.1302,3.9269 2.0465,2.4852l161.965-60.5177c3.1428-1.5036 3.7452-1.7677 4.093-4.8238l42.0261-180.749c.3482-1.2733.2638-1.7272-.6578-1.5349zm-26.6775,29.7472c4.6284.0748 8.2604,2.3262 9.8671,6.6513 3.2131,8.6497-2.9745,22.494-13.887,30.9165s-22.3679,8.2114-25.5811-.4385 2.9744-22.4941 13.8868-30.9166c5.4562-4.2113 11.0857-6.2873 15.7142-6.2127zm-199.2404,15.8604c6.6789.1708 13.9652,6.4487 18.1991,16.5182 5.5583,13.2194 3.7783,28.0551-4.0199,33.1091s-18.634-1.6175-24.1924-14.8369-3.7054-27.9823 4.093-33.0362c1.4622-.9477 2.9841-1.5209 4.6045-1.6812 .4389-.0453.8704-.0842 1.3156-.0726zm-58.6904,21.1958c6.6788.1708 13.9651,6.4488 18.1991,16.5181 5.5583,13.2194 3.7783,28.0551-4.0199,33.1093s-18.6341-1.6176-24.1924-14.837-3.7052-27.9822 4.093-33.0361c1.4621-.9477 2.9841-1.521 4.6045-1.6812 .4389-.0453.8705-.0842 1.3157-.0726zm-57.8133,20.9765c.5399-.0537 1.1313-.0273 1.6809,0 6.5957.3492 13.6649,6.6037 17.8338,16.5181 5.5583,13.2194 3.7784,27.9823-4.0198,33.0362s-18.6342-1.5446-24.1925-14.764-3.7053-28.0551 4.093-33.1091c1.4622-.9477 2.9845-1.5208 4.6047-1.6812zm254.0571,17.5413c4.529.1474 8.1393,2.3938 9.7208,6.6512 3.2134,8.6498-3.0476,22.4942-13.9599,30.9165s-22.3679,8.2115-25.5811-.4385 3.0476-22.4941 13.9599-30.9165c4.7742-3.6848 9.6414-5.7376 13.8869-6.1395 .6823-.0653 1.3264-.0937 1.9734-.0726zm-164.2308,58.6906c.54-.0537 1.1313-.0273 1.681,0 6.5956.3492 13.738,6.5305 17.9068,16.4449 5.5583,13.2193 3.7053,28.0554-4.093,33.1093s-18.561-1.5447-24.1193-14.7639-3.7784-28.0553 4.0198-33.1094c1.4622-.9474 2.9845-1.5206 4.6047-1.6809zm97.2813,19.0032c4.6285.0748 8.2603,2.2531 9.867,6.578 3.2132,8.6497-2.9744,22.4939-13.8869,30.9165s-22.3679,8.2843-25.5811-.3655 2.9744-22.4942 13.8869-30.9166c5.4562-4.2111 11.0856-6.287 15.7141-6.2123z" fill="#d00000"/>
</g>
</svg>
